G04 ================== begin FILE IDENTIFICATION RECORD ==================*
G04 Layout Name:  G:/Cadence Allegro/My_Prj/VarPower/PCB/Vpwr_v1_2.brd*
G04 Film Name:    BOTTOM*
G04 File Format:  Gerber RS274X*
G04 File Origin:  Cadence Allegro 17.2-S058*
G04 Origin Date:  Sun Aug 30 17:05:27 2020*
G04 *
G04 Layer:  BOARD GEOMETRY/OUTLINE*
G04 Layer:  ETCH/BOTTOM*
G04 Layer:  PIN/BOTTOM*
G04 Layer:  VIA CLASS/BOTTOM*
G04 *
G04 Offset:    (0 0)*
G04 Mirror:    No*
G04 Mode:      Positive*
G04 Rotation:  0*
G04 FullContactRelief:  No*
G04 UndefLineWidth:     6*
G04 ================== end FILE IDENTIFICATION RECORD ====================*
%FSLAX25Y25*MOIN*%
%IR0*IPPOS*OFA0.00000B0.00000*MIA0B0*SFA1.00000B1.00000*%
%ADD10C,.022*%
%ADD12C,.055*%
%ADD16O,.087X.142*%
%ADD14C,.047*%
%ADD13C,.059*%
%ADD11O,.138X.079*%
%ADD17C,.098*%
%ADD15O,.047X.079*%
%ADD18C,.01*%
%ADD19C,.02*%
%ADD20C,.04*%
%ADD21C,.015*%
%ADD22C,.006*%
G75*
%LPD*%
G75*
G36*
G01X124900Y23800D02*
G02X125500Y24100I374J1D01*
G01X134000Y15600D01*
X151600D01*
X152600Y14600D01*
X170100D01*
X176300Y8400D01*
G02X176100Y7700I-251J-307D01*
G01X172400D01*
X168100Y12000D01*
X128200D01*
G03Y6400I0J-2800D01*
G01X160000D01*
X160900Y5500D01*
Y3100D01*
Y3000D01*
X160000Y2100D01*
X159900D01*
X159800D01*
X17000D01*
G02X16800Y2900I-100J400D01*
G03X2900Y15100I-4294J9126D01*
G02X2100Y15200I-400J50D01*
G01Y38800D01*
G02X2700Y39100I378J-6D01*
G03X6200Y37900I3426J4289D01*
G01X12000D01*
G03X15700Y47500I43J5496D01*
G02X16100Y48200I256J318D01*
G03X19200Y57800I878J5017D01*
G02Y58500I190J350D01*
G03X20600Y66700I-2204J4596D01*
G02Y67300I274J300D01*
G03X16200Y75900I-3616J3576D01*
G01Y76500D01*
G03X12700Y80400I815J4252D01*
G02X12100Y80100I-382J15D01*
G03X11300Y70900I-2996J-4374D01*
G02X11900Y70600I201J-348D01*
G03X13400Y67300I5090J323D01*
G02Y66700I-274J-300D01*
G03X11900Y63400I3590J-3623D01*
G02X11300Y63100I-399J48D01*
G03Y53500I-2200J-4800D01*
G02X11900Y53100I199J-352D01*
G03X13500Y49500I5096J109D01*
G02X13200Y48800I-242J-311D01*
G03X12000Y48900I-1055J-5405D01*
G01X6200D01*
G03X2700Y47700I-74J-5489D01*
G02X2100Y48000I-222J306D01*
G01Y86000D01*
G02X2700Y86300I378J-6D01*
G03X6200Y85100I3426J4289D01*
G01X12000D01*
G03Y96100I50J5500D01*
G01X6200D01*
G03X2700Y94900I-74J-5489D01*
G02X2100Y95200I-222J306D01*
G01Y121000D01*
G02X2900Y121200I400J100D01*
G03X15600Y134900I9126J4276D01*
G02X15800Y135700I100J400D01*
G01X50200D01*
Y133800D01*
G02X50000Y133600I-198J-2D01*
G03X48500Y130000I0J-2113D01*
G01X49100Y129500D01*
G02X49000Y128800I-293J-315D01*
G03X48500Y125500I1002J-1840D01*
G01X49400Y124600D01*
G02X49300Y124000I-288J-260D01*
G03X48500Y120500I690J-1999D01*
G01X49400Y119600D01*
G02X49300Y119000I-288J-260D01*
G03X48500Y115500I690J-1999D01*
G01X49400Y114600D01*
G02X49300Y114000I-288J-260D01*
G03X48500Y110500I690J-1999D01*
G01X49400Y109600D01*
G02X49300Y109000I-288J-260D01*
G03X48500Y105500I690J-1999D01*
G01X49400Y104600D01*
G02X49300Y104000I-288J-260D01*
G03X47900Y102000I729J-2000D01*
G01Y99000D01*
X48500Y98500D01*
X48400Y98300D01*
G03X48500Y95500I1608J-1344D01*
G01X66900Y77100D01*
G02X66500Y76500I-311J-226D01*
G03X63500Y73900I-373J-2600D01*
G01Y64800D01*
X60100Y61400D01*
X53700D01*
G03Y56200I0J-2600D01*
G01X62300D01*
X68700Y62600D01*
Y74300D01*
G02X69300Y74700I374J89D01*
G01X85100Y58900D01*
X106600D01*
X109400Y56200D01*
G02Y56000I-178J-100D01*
G01X109300Y55900D01*
G03X108900Y55300I1545J-1464D01*
G03X103700Y52700I-600J-5300D01*
G02X103100I-300J206D01*
G03X93500Y51900I-4611J-2669D01*
G02X92800Y51800I-373J110D01*
G03Y48200I-4100J-1800D01*
G02X93500Y48100I327J-210D01*
G03X103100Y47300I4989J1869D01*
G02X103700I300J-206D01*
G03X111200Y45600I4557J2709D01*
G02X111700Y45500I188J-359D01*
G01X111900Y45300D01*
G02X112100Y44800I-184J-364D01*
G03X112500Y42500I1915J-852D01*
G01X115200Y39800D01*
G02X115000Y39100I-246J-308D01*
G01X83700D01*
X77100Y45700D01*
Y51800D01*
G03X71500I-2800J0D01*
G01Y47300D01*
X61300D01*
X57200Y43200D01*
G03X61200Y39200I2000J-2000D01*
G01X63700Y41700D01*
X73100D01*
X81300Y33500D01*
X116100D01*
X117300Y32400D01*
G02X117000Y31700I-295J-288D01*
G03X111500Y25200I1171J-6568D01*
G01Y19600D01*
G03X124900I6700J50D01*
G01Y23800D01*
G37*
G36*
G01X146500Y118600D02*
Y114300D01*
Y112900D01*
X158600Y100800D01*
Y98700D01*
Y98300D01*
X158100Y97800D01*
X157700D01*
X153600D01*
X152700D01*
X127600D01*
G02X127200Y98300I-6J405D01*
G03X117500Y102400I-5032J1620D01*
G02X116700I-400J139D01*
G03X107400Y102600I-4704J-2414D01*
G02X106700I-350J220D01*
G03X104200Y104900I-4653J-2549D01*
G01Y107800D01*
X103500Y108500D01*
G03X100000Y106400I-1485J-1492D01*
G01Y104900D01*
G03X97400Y102400I2156J-4845D01*
G02X96600I-400J139D01*
G03X94000Y104900I-4756J-2345D01*
G01Y108900D01*
G03X90500Y111000I-2015J608D01*
G01X89800Y110300D01*
Y104900D01*
G03X87300Y102600I2153J-4849D01*
G02X86600I-350J220D01*
G03X84100Y104900I-4653J-2549D01*
G01Y112000D01*
G03X79900I-2100J0D01*
G01Y104900D01*
G03X77300Y102400I2156J-4845D01*
G02X76500I-400J139D01*
G03X73900Y104900I-4756J-2345D01*
G01Y113600D01*
G03X70500Y116000I-1900J917D01*
G01X69700Y115200D01*
Y104900D01*
G03X67100Y102500I2102J-4885D01*
G02X66600Y102400I-306J228D01*
G01X64000D01*
X62600Y103800D01*
Y121000D01*
X66200Y124600D01*
X69100D01*
X69200D01*
X74400D01*
X74500D01*
X79300D01*
X79400D01*
X79600D01*
G02X79900Y124200I-96J-384D01*
G01Y120500D01*
G03X84100I2100J0D01*
G01Y124200D01*
G02X84400Y124600I396J16D01*
G01X84600D01*
X84700D01*
X89200D01*
X89300D01*
X89500D01*
G02X89800Y124200I-96J-384D01*
G01Y119700D01*
X90500Y119000D01*
G03X94000Y121100I1485J1492D01*
G01Y124200D01*
G02X94300Y124600I396J16D01*
G01X94500D01*
X94600D01*
X99400D01*
X99500D01*
X104700D01*
X104800D01*
X109300D01*
X109400D01*
X114500D01*
X115600Y123400D01*
X141700D01*
X146500Y118600D01*
G37*
G36*
G01X156600Y49500D02*
G02X155900Y49700I-308J246D01*
G01Y57600D01*
X149900Y63600D01*
X138900D01*
X135100Y67400D01*
Y77000D01*
G03X130900I-2100J0D01*
G01Y65600D01*
X134000Y62500D01*
G02X133800Y61800I-246J-308D01*
G01X125200D01*
X118000Y69000D01*
X118200Y69100D01*
G03X118800Y70700I-1833J1600D01*
G01Y77000D01*
G03X114200I-2300J0D01*
G01Y73700D01*
G02X113500Y73500I-392J46D01*
G01X111400Y75600D01*
X90800D01*
X72300Y94100D01*
G02X72500Y94800I280J299D01*
G03X74000Y95200I-595J5242D01*
G02X74600Y95000I216J-351D01*
G03X74900Y94800I331J172D01*
G01X77000D01*
X77500Y94200D01*
G03X78200Y94500I287J297D01*
G01Y95500D01*
X78300Y95600D01*
G02X78900Y95700I343J-207D01*
G03X86600Y97400I3088J4301D01*
G02X87300I350J-220D01*
G03X88500Y95900I4673J2508D01*
G02X88600Y95300I-210J-343D01*
G01X88200Y95000D01*
Y85000D01*
X91000Y82200D01*
X152000D01*
X155700Y78500D01*
Y77100D01*
X148400D01*
X143200Y71800D01*
G03X146800Y68200I1800J-1800D01*
G01X150600Y71900D01*
X155700D01*
Y65500D01*
X159000Y62200D01*
X171000D01*
X171700Y63000D01*
G02X172400Y62700I287J-297D01*
G01Y59100D01*
X168500Y55200D01*
X162300D01*
X156600Y49500D01*
G37*
G36*
G01X172000Y66500D02*
X170000Y64500D01*
X160000D01*
X158000Y66500D01*
Y79500D01*
X153000Y84500D01*
X92000D01*
X90500Y86000D01*
Y94000D01*
X92000Y95500D01*
X164000D01*
X172000Y87500D01*
Y66500D01*
G37*
G36*
G01X140800Y37600D02*
Y30000D01*
X138300Y27500D01*
G03X137900Y27000I1440J-1562D01*
G02X137300Y26900I-337J171D01*
G01X135100Y29100D01*
Y33000D01*
G03X130900I-2100J0D01*
G01Y31000D01*
G02X130200Y30800I-392J46D01*
G01X115500Y45500D01*
G03X115200Y45700I-1312J-1643D01*
G02X115300Y46100I71J195D01*
G01X116300D01*
X122000Y40400D01*
X138900D01*
X140900Y42400D01*
X144700D01*
G02X144900Y41700I-46J-392D01*
G01X140800Y37600D01*
G37*
G36*
G01X127500Y127600D02*
G02X127200Y128100I63J378D01*
G03X119800Y134700I-4963J1884D01*
G02X119200Y135100I-198J353D01*
G01Y135700D01*
X137000D01*
G02X137400Y135300I-14J-414D01*
G03X137500Y135000I374J-42D01*
G01X138400Y134100D01*
X143700D01*
G02X144000Y133400I-2J-415D01*
G03X143400Y132100I1479J-1471D01*
G01Y131900D01*
X143000D01*
G03X141500Y128300I0J-2112D01*
G02X141300Y127600I-246J-308D01*
G01X127500D01*
G37*
G36*
G01X151800Y37400D02*
Y29200D01*
X148400Y25800D01*
X146600D01*
Y32000D01*
G02X147000Y32400I400J0D01*
G03X149100Y34500I0J2100D01*
G01Y35600D01*
X151100Y37600D01*
G02X151800Y37400I308J-246D01*
G37*
G36*
G01D02*
Y29200D01*
X148400Y25800D01*
X146600D01*
Y32000D01*
G02X147000Y32400I400J0D01*
G03X149100Y34500I0J2100D01*
G01Y35600D01*
X151100Y37600D01*
G02X151800Y37400I308J-246D01*
G37*
G36*
G01D02*
Y29200D01*
X148400Y25800D01*
X146600D01*
Y32000D01*
G02X147000Y32400I400J0D01*
G03X149100Y34500I0J2100D01*
G01Y35600D01*
X151100Y37600D01*
G02X151800Y37400I308J-246D01*
G37*
G36*
G01X192500Y2100D02*
G02X192200Y2800I-3J413D01*
G01X194500Y5000D01*
G03X190500Y9000I-2000J2000D01*
G01X189200Y7700D01*
X183400D01*
Y7900D01*
G03X182600Y9400I-2558J-401D01*
G01X172300Y19800D01*
X158500D01*
G02X158300Y20500I51J393D01*
G01X158600Y20800D01*
Y24400D01*
X177100D01*
X178000Y23500D01*
G03X181000I1500J1500D01*
G02X181500I250J-295D01*
G01X182600Y22400D01*
X184700D01*
Y18800D01*
X185700D01*
Y22400D01*
X187800D01*
G03X189500Y25700I0J2088D01*
G02X189600Y26200I340J192D01*
G03X189700Y26500I-301J267D01*
G01Y31000D01*
G03X189600Y31300I-401J33D01*
G02X189500Y31800I240J308D01*
G03X187800Y35100I-1700J1212D01*
G01X182900D01*
X180400Y37600D01*
X163400D01*
G02X163200Y38300I51J393D01*
G01X169000Y44100D01*
X174300D01*
X183700Y53500D01*
Y92000D01*
X168600Y107100D01*
X158800Y116900D01*
X158700D01*
Y123100D01*
G03X155100Y125500I-2600J0D01*
G01X155000D01*
X147000Y133500D01*
G03X146000Y134100I-1553J-1455D01*
G01X145800D01*
Y135700D01*
X220200D01*
G02X220400Y134900I100J-400D01*
G03X233300Y121600I3589J-9425D01*
G02X234100Y121500I396J-85D01*
G01Y82200D01*
G02X233400Y81900I-399J-36D01*
G03Y71100I-4900J-5400D01*
G02X234100Y70800I301J-264D01*
G01Y61000D01*
G02X233400Y60800I-389J38D01*
G03Y52200I-4900J-4300D01*
G02X234100Y52000I311J-238D01*
G01Y16000D01*
G02X233300Y15900I-404J-15D01*
G03X219700Y2900I-9312J-3872D01*
G02X219500Y2100I-100J-400D01*
G01X192500D01*
G37*
%LPC*%
G75*
G36*
G01X38300Y7200D02*
G03X37700Y7000I-226J-322D01*
G02X28700Y8900I-4299J1900D01*
G01Y12100D01*
G02X37700Y14000I4701J0D01*
G03X38300Y13800I374J122D01*
G02X45200Y13500I3313J-3312D01*
G03X45900I350J221D01*
G02X53100I3600J-3000D01*
G03X53800I350J221D01*
G02X60700Y13800I3587J-3012D01*
G03X61300Y14000I226J322D01*
G02X70300Y12100I4299J-1900D01*
G01Y8900D01*
G02X61300Y7000I-4701J0D01*
G03X60700Y7200I-374J-122D01*
G02X53800Y7500I-3313J3312D01*
G03X53100I-350J-221D01*
G02X45900I-3600J3000D01*
G03X45200I-350J-221D01*
G02X38300Y7200I-3587J3012D01*
G37*
G36*
G01X85500Y19600D02*
G02X72100I-6700J50D01*
G01Y25200D01*
G02X85500I6700J-50D01*
G01Y19600D01*
G37*
%LPD*%
G75*
G54D10*
X3400Y22200D03*
Y27200D03*
Y32200D03*
Y37200D03*
Y48800D03*
Y53800D03*
Y58800D03*
Y63800D03*
Y68800D03*
Y73800D03*
Y78800D03*
Y83800D03*
X3500Y96600D03*
Y101600D03*
Y106600D03*
Y111600D03*
Y116600D03*
X20000Y134300D03*
X34900Y3600D03*
X29900D03*
X24900D03*
X39300Y30000D03*
X39400Y36500D03*
Y44400D03*
X37700Y48400D03*
X34600Y51400D03*
X25400Y61600D03*
X31600Y56100D03*
X35000Y134300D03*
X30000D03*
X25000D03*
X64900Y3600D03*
X48800Y30000D03*
X64700Y49400D03*
X59200Y41200D03*
X53600Y62500D03*
X60600Y63400D03*
X62700Y67100D03*
X62600Y71000D03*
X57400Y71300D03*
X53700Y58800D03*
X56300Y76400D03*
X46800Y81700D03*
X46900Y77800D03*
X50000Y102000D03*
Y112000D03*
Y97000D03*
Y107000D03*
Y131500D03*
Y117000D03*
Y122000D03*
Y127000D03*
X84900Y3600D03*
X79900D03*
X74900D03*
X69900D03*
X65300Y41000D03*
Y36000D03*
X70300D03*
Y41000D03*
X86000Y40600D03*
X74300Y51800D03*
X73500Y69500D03*
X70000Y70900D03*
X79600Y61800D03*
X69100Y53600D03*
X66100Y73900D03*
X82000Y112000D03*
X72000Y114500D03*
X82000Y120500D03*
X104900Y3600D03*
X99900D03*
X94900D03*
X89900D03*
X101000Y40600D03*
X106000D03*
X96000D03*
X91000D03*
X100500Y80600D03*
X104500Y80500D03*
X101200Y75700D03*
X90800D03*
X96000Y80900D03*
X95000Y92000D03*
X99000D03*
X100800Y94000D03*
X96900D03*
X93000D03*
X102000Y107000D03*
X92000Y109500D03*
Y120500D03*
X109900Y3600D03*
X128200Y9200D03*
X124700Y38200D03*
X128700Y34500D03*
X114000Y44000D03*
X126500Y70600D03*
X116500Y70700D03*
X110900Y54500D03*
X108500Y80600D03*
X116500Y77000D03*
X128500Y104800D03*
X118500D03*
Y119800D03*
X128500D03*
X140000Y3100D03*
X139900Y5900D03*
X148000D03*
X148500Y26000D03*
X144500D03*
X139800D03*
X147000Y34500D03*
X134000Y47000D03*
X147300Y46800D03*
X144900Y49500D03*
X139800Y47000D03*
X137100Y49500D03*
X133000Y33000D03*
X137500Y70000D03*
X145000D03*
X144900Y55500D03*
X140000D03*
X139000Y80000D03*
X133000Y77000D03*
X138500Y104800D03*
X143000Y134700D03*
X131900Y128600D03*
X129100Y130800D03*
X138500Y119800D03*
X145500Y132000D03*
X143000Y129800D03*
X153900Y9200D03*
X160000Y13500D03*
X166900Y21200D03*
X158500Y29500D03*
X153500Y25000D03*
X158500Y26500D03*
X158100Y52400D03*
X158500Y35500D03*
Y32500D03*
X160000Y43000D03*
X159800Y46500D03*
X155000Y69500D03*
X162000Y66700D03*
Y70600D03*
X151000Y93500D03*
X169800Y74500D03*
X165900D03*
X162000D03*
X164300Y134200D03*
X156100Y123100D03*
X180800Y7600D03*
X192500Y7000D03*
X177900Y18100D03*
X187800Y24500D03*
X182600Y29000D03*
X179500Y25000D03*
X177900Y45100D03*
X174500Y39900D03*
X187800Y33000D03*
X179300Y134200D03*
X210100Y4300D03*
X205100D03*
X200100D03*
X194300Y134200D03*
X209300D03*
X232700Y28300D03*
Y23300D03*
Y48300D03*
Y43300D03*
Y38300D03*
Y33300D03*
X233000Y94900D03*
Y89900D03*
Y84900D03*
Y114900D03*
Y109900D03*
Y104900D03*
Y99900D03*
X216300Y113200D03*
X227800Y105800D03*
X224800Y108600D03*
X233000Y118800D03*
G54D20*
G01X228300Y56600D02*
Y50000D01*
G01Y63200D02*
Y56600D01*
G01D02*
X221700D01*
G54D11*
X9100Y43400D03*
Y90600D03*
G54D21*
G01X66100Y73900D02*
Y63700D01*
X61200Y58800D01*
X53700D01*
G01X162000Y74500D02*
X149500D01*
X145000Y70000D01*
G01X180800Y7600D02*
X171200Y17200D01*
X153700D01*
X152500Y18400D01*
G01X156100Y123100D02*
Y115900D01*
X181100Y90900D01*
Y54600D01*
X173200Y46700D01*
X167900D01*
X161300Y40100D01*
X159600D01*
X156000Y36500D01*
Y21900D01*
X152500Y18400D01*
G01X151300Y34200D02*
Y37500D01*
G01X156500Y49900D02*
X155600Y49000D01*
Y41800D01*
X151300Y37500D01*
G54D12*
X17000Y53200D03*
Y63100D03*
Y70900D03*
Y80800D03*
G54D22*
G01X4000Y0D02*
X232200D01*
G03X236200Y4000I0J4000D01*
G01Y133800D01*
G03X232200Y137800I-4000J0D01*
G01X4000D01*
G03X0Y133800I0J-4000D01*
G01Y4000D01*
G03X4000Y0I4000J0D01*
G01X18500Y12000D02*
G03I-6000J0D01*
G01Y125500D02*
G03I-6000J0D01*
G01X230500Y12000D02*
G03I-6000J0D01*
G01Y125500D02*
G03I-6000J0D01*
G01X50000Y102000D02*
Y99900D01*
X86900Y63000D01*
X108000D01*
X124000Y47000D01*
X134000D01*
G01X147300Y46800D02*
X144300D01*
X139600Y51500D01*
X124100D01*
X109000Y66600D01*
X87400D01*
X54000Y100000D01*
Y108000D01*
X50000Y112000D01*
G01Y117000D02*
X55500Y111500D01*
Y101000D01*
X88000Y68500D01*
X109000D01*
X124000Y53500D01*
X140900D01*
X144900Y49500D01*
G01X50000Y97000D02*
X86000Y61000D01*
X107500D01*
X124000Y44500D01*
X137300D01*
X139800Y47000D01*
G01X137100Y49500D02*
X124000D01*
X108500Y65000D01*
X87000D01*
X52500Y99500D01*
Y104500D01*
X50000Y107000D01*
G01X144500Y26000D02*
Y36300D01*
X152500Y44300D01*
Y55100D01*
X147900Y59700D01*
X124300D01*
X110500Y73500D01*
X89900D01*
X60000Y103400D01*
Y121500D01*
X50000Y131500D01*
G01X140000Y55500D02*
X124300D01*
X109300Y70500D01*
X88300D01*
X57000Y101800D01*
Y115000D01*
X50000Y122000D01*
G01X139800Y26000D02*
X142900Y29100D01*
Y36700D01*
X151000Y44800D01*
Y54000D01*
X147100Y57900D01*
X124000D01*
X109900Y72000D01*
X89100D01*
X58500Y102600D01*
Y118500D01*
X50000Y127000D01*
G01X82000Y112000D02*
Y100000D01*
G01X72000Y114500D02*
X71800Y114300D01*
Y100000D01*
G01X82000Y120500D02*
Y130000D01*
G01X102000Y107000D02*
X102100Y106900D01*
Y100000D01*
G01X92000Y109500D02*
X91900Y109400D01*
Y100000D01*
G01X92000Y120500D02*
X91900Y120600D01*
Y130000D01*
G01X108300Y50000D02*
Y49200D01*
G01X110900Y54500D02*
X122900Y42500D01*
X138000D01*
X140000Y44500D01*
X148500D01*
X149500Y45500D01*
Y51000D01*
X145000Y55500D01*
X144900D01*
G01X153500Y25000D02*
X150400Y21900D01*
X136100D01*
X114000Y44000D01*
G01X112000Y130000D02*
X116500Y125500D01*
X142600D01*
X148600Y119500D01*
Y113900D01*
X174500Y88000D01*
Y58200D01*
X169400Y53100D01*
X163200D01*
X157400Y47300D01*
Y40800D01*
X153900Y37300D01*
Y28300D01*
X149300Y23700D01*
X137500D01*
X133000Y28200D01*
Y33000D01*
G01X147000Y34500D02*
Y36500D01*
X153800Y43300D01*
Y56700D01*
X149000Y61500D01*
X138000D01*
X133000Y66500D01*
Y77000D01*
G01X145500Y132000D02*
X153200Y124300D01*
Y114800D01*
X178500Y89500D01*
Y56000D01*
X171500Y49000D01*
X166000D01*
X160000Y43000D01*
G01X143000Y129800D02*
X143200D01*
X151100Y121900D01*
Y114300D01*
X176500Y88900D01*
Y57000D01*
X170500Y51000D01*
X164300D01*
X159800Y46500D01*
G01X187800Y24500D02*
X183500D01*
X178500Y29500D01*
X158500D01*
G01Y26500D02*
X178000D01*
X179500Y25000D01*
G01X187800Y33000D02*
X182000D01*
X179500Y35500D01*
X158500D01*
G01Y32500D02*
X179100D01*
X182600Y29000D01*
G54D13*
X9100Y58300D03*
Y75700D03*
X82000Y100000D03*
X71800D03*
X82000Y130000D03*
X71800D03*
X88700Y50000D03*
X98500D03*
X108300D03*
X102100Y100000D03*
X91900D03*
X102100Y130000D03*
X91900D03*
X122200Y100000D03*
X112000D03*
X122200Y130000D03*
X112000D03*
G54D14*
X41600Y10500D03*
X57400D03*
X49500D03*
G54D15*
X33400D03*
X65600D03*
G54D16*
X78800Y22400D03*
X118200D03*
G54D17*
X228500Y76500D03*
Y56500D03*
G54D18*
G01X116500Y77000D02*
Y70700D01*
G54D19*
G01X9100Y43400D02*
Y49100D01*
G01Y43400D02*
X17700D01*
G01X9100D02*
Y37700D01*
G01Y90600D02*
Y96300D01*
G01Y90600D02*
X17700D01*
G01X9100D02*
Y84900D01*
G01X17000Y80800D02*
Y85300D01*
G01Y80800D02*
X12500D01*
G01X17000D02*
X21500D01*
G01X17000D02*
Y76300D01*
G01X74300Y44500D02*
X62500D01*
X59200Y41200D01*
G01X48900Y134700D02*
X132400D01*
G01X88700Y50000D02*
X84000D01*
G01X74300Y51800D02*
Y44500D01*
G01D02*
X82500Y36300D01*
X117300D01*
X135200Y18400D01*
X152500D01*
G01X88700Y50000D02*
Y54700D01*
G01Y50000D02*
Y45300D01*
G01X153900Y9200D02*
X128200D01*
G01X148300Y134700D02*
X143000D01*
G01D02*
X132400D01*
G01X192500Y7000D02*
X190400Y4900D01*
X171200D01*
X166900Y9200D01*
X153900D01*
G01X228500Y49900D02*
Y56500D01*
G01D02*
Y63100D01*
G01X221900Y56500D02*
X228500D01*
M02*
