G04 ================== begin FILE IDENTIFICATION RECORD ==================*
G04 Layout Name:  G:/Cadence Allegro/My_Prj/VarPower/PCB/Vpwr_v1_2.brd*
G04 Film Name:    SILK_TOP*
G04 File Format:  Gerber RS274X*
G04 File Origin:  Cadence Allegro 17.2-S058*
G04 Origin Date:  Sun Aug 30 17:05:27 2020*
G04 *
G04 Layer:  REF DES/SILKSCREEN_TOP*
G04 Layer:  PACKAGE GEOMETRY/SILKSCREEN_TOP*
G04 Layer:  BOARD GEOMETRY/SILKSCREEN_TOP*
G04 Layer:  BOARD GEOMETRY/OUTLINE*
G04 *
G04 Offset:    (0 0)*
G04 Mirror:    No*
G04 Mode:      Positive*
G04 Rotation:  0*
G04 FullContactRelief:  No*
G04 UndefLineWidth:     6*
G04 ================== end FILE IDENTIFICATION RECORD ====================*
%FSLAX25Y25*MOIN*%
%IR0*IPPOS*OFA0.00000B0.00000*MIA0B0*SFA1.00000B1.00000*%
%ADD10C,.01*%
%ADD11C,.02*%
%ADD12C,.012*%
%ADD13C,.006*%
%ADD14C,.004*%
%ADD15C,.005*%
%ADD16C,.008*%
G75*
%LPD*%
G75*
G36*
G01X53900Y29000D02*
Y32900D01*
X55100D01*
Y32100D01*
X59800D01*
Y32900D01*
X61000D01*
Y29000D01*
X53900D01*
G37*
G36*
G01X108300Y65300D02*
G03I-1140J24D01*
G37*
G54D10*
G01X120000Y1000D02*
X140500D01*
X142000Y2500D01*
X153500D01*
G01X119500Y9000D02*
X129000D01*
G01X127000Y19300D02*
G02I-469J-20D01*
G01X129700Y25200D02*
G02I-511J-15D01*
G54D11*
G01X86300Y105600D02*
G03I-1133J-16D01*
G01X67800Y115000D02*
X82000D01*
G01X67800Y126100D02*
X82000D01*
Y104000D01*
X67800D01*
Y126100D01*
G01X108400Y105600D02*
G03I-1186J-16D01*
G01X89900Y115000D02*
X104100D01*
G01X89900Y126100D02*
X104100D01*
Y104000D01*
X89900D01*
Y126100D01*
G01X111900Y115000D02*
X126100D01*
G01X111900Y126100D02*
X126100D01*
Y104000D01*
X111900D01*
Y126100D01*
G01X130400Y105600D02*
G03I-1139J-16D01*
G01X227900Y42100D02*
Y38100D01*
G01X225600Y92400D02*
X231100D01*
G01X228300Y95100D02*
Y89600D01*
G54D12*
G01X35200Y54100D02*
Y73000D01*
X50900D01*
Y54100D01*
X35200D01*
G54D13*
G01X4000Y0D02*
X232200D01*
G03X236200Y4000I0J4000D01*
G01Y133800D01*
G03X232200Y137800I-4000J0D01*
G01X4000D01*
G03X0Y133800I0J-4000D01*
G01Y4000D01*
G03X4000Y0I4000J0D01*
G01X18500Y12000D02*
G03I-6000J0D01*
G01Y125500D02*
G03I-6000J0D01*
G01X230500Y12000D02*
G03I-6000J0D01*
G01Y125500D02*
G03I-6000J0D01*
G54D14*
G01X39100Y27200D02*
Y20900D01*
G01X40600Y26400D02*
Y27200D01*
G01X30400Y21700D02*
Y20900D01*
X40600D01*
Y21700D01*
G01Y27200D02*
X30400D01*
Y26400D01*
G01X32800Y69800D02*
X33500D01*
Y80000D01*
X32800D01*
G01X27300D02*
Y69800D01*
X28000D01*
G01X38400Y89000D02*
Y85800D01*
G01X37400Y87500D02*
X39300D01*
G01X34300Y85100D02*
X55600D01*
Y74900D01*
X34300D01*
Y85100D01*
G01X26100Y73300D02*
X23700D01*
Y73900D01*
X23800Y74200D01*
X24000Y74400D01*
X24200Y74600D01*
X24500Y74700D01*
X24900D01*
X25300D01*
X25600Y74600D01*
X25800Y74400D01*
X26000Y74200D01*
X26100Y73900D01*
Y73300D01*
G01Y76800D02*
X23700D01*
X25400Y75600D01*
Y77200D01*
G01X27300Y78400D02*
X33500D01*
G01X28000Y80000D02*
X27300D01*
G01X37100Y104400D02*
X48900D01*
Y99600D01*
X37100D01*
Y104400D01*
G01Y114400D02*
X48900D01*
Y109700D01*
X37100D01*
Y114400D01*
G01Y119400D02*
X48900D01*
Y114700D01*
X37100D01*
Y119400D01*
G01Y99300D02*
X48900D01*
Y94600D01*
X37100D01*
Y99300D01*
G01Y109400D02*
X48900D01*
Y104600D01*
X37100D01*
Y109400D01*
G01Y129400D02*
X48900D01*
Y124700D01*
X37100D01*
Y129400D01*
G01Y134400D02*
X48900D01*
Y129600D01*
X37100D01*
Y134400D01*
G01Y124400D02*
X48900D01*
Y119700D01*
X37100D01*
Y124400D01*
G01X51600Y49000D02*
Y45900D01*
G01X50500Y47400D02*
X52400D01*
G01X52800Y52200D02*
X74100D01*
Y41900D01*
X52800D01*
Y52200D01*
G01X62700Y50200D02*
Y44300D01*
G01X56700Y72600D02*
Y70800D01*
X56800Y70400D01*
X57100Y70200D01*
X57400Y70100D01*
X57700Y70200D01*
X58000Y70400D01*
X58100Y70800D01*
Y72600D01*
G01X59200Y70600D02*
X59400Y70300D01*
X59600Y70100D01*
X59900D01*
X60200D01*
X60500Y70300D01*
X60600Y70600D01*
X60700Y70800D01*
X60600Y71100D01*
X60400Y71300D01*
X60100Y71400D01*
X59800D01*
G01X60100D02*
X60300Y71600D01*
X60500Y71800D01*
X60600Y72000D01*
X60500Y72300D01*
X60300Y72500D01*
X60000Y72600D01*
X59700D01*
X59400Y72400D01*
G01X45700Y83200D02*
Y77300D01*
G01X44200Y83200D02*
Y77300D01*
G01X68900Y80600D02*
X57100D01*
Y85300D01*
X68900D01*
Y80600D01*
G01X57100Y79400D02*
X68900D01*
Y74700D01*
X57100D01*
Y79400D01*
G01X64200Y50200D02*
Y44300D01*
G01X74100Y71800D02*
X85900D01*
Y67100D01*
X74100D01*
Y71800D01*
G01X85900Y53100D02*
X74100D01*
Y57800D01*
X85900D01*
Y53100D01*
G01X83600Y65700D02*
Y59400D01*
G01X74900Y60200D02*
Y59400D01*
X85200D01*
Y60200D01*
G01Y65700D02*
X74900D01*
Y64900D01*
G01X75000Y78800D02*
X82100D01*
Y78000D01*
G01X75000D02*
Y78800D01*
G01X82100Y74000D02*
Y73300D01*
X75000D01*
Y74000D01*
G01X101100Y92600D02*
Y71300D01*
X90900D01*
Y92600D01*
X101100D01*
G01X85200Y64900D02*
Y65700D01*
G01X105700Y87400D02*
X103300D01*
G01X105700Y86600D02*
X103300D01*
G01X102100Y88200D02*
Y92500D01*
X106900D01*
G01Y85800D02*
Y81500D01*
X102100D01*
Y85800D01*
G01X96400Y94900D02*
Y93000D01*
G01X99200Y81200D02*
X93200D01*
G01X99200Y82700D02*
X93200D01*
G01X98000Y93800D02*
X94800D01*
G01X109500Y79100D02*
G03X108300Y79500I-1162J-1485D01*
G01Y84600D01*
X128800D01*
Y70400D01*
X108300D01*
Y75600D01*
G03X109500Y79100I313J1848D01*
G01X108500Y60400D02*
X112800D01*
G01X113600Y59200D02*
Y56800D01*
G01X114400Y59200D02*
Y56800D01*
G01X112800Y55600D02*
X108500D01*
Y60400D01*
G01X115200D02*
X119500D01*
Y55600D01*
X115200D01*
G01X106900Y92500D02*
Y88200D01*
G01X139400Y7800D02*
Y3500D01*
X134600D01*
Y7800D01*
G01X147400D02*
Y3500D01*
X142700D01*
Y7800D01*
G01X133800Y14900D02*
Y3100D01*
X129100D01*
Y14900D01*
X133800D01*
G01X139400Y14500D02*
Y10200D01*
G01X138200Y9400D02*
X135800D01*
G01X138200Y8600D02*
X135800D01*
G01X134600Y10200D02*
Y14500D01*
X139400D01*
G01X147400D02*
Y10200D01*
G01X146200Y9400D02*
X143800D01*
G01X146200Y8600D02*
X143800D01*
G01X142700Y10200D02*
Y14500D01*
X147400D01*
G01X136400Y61400D02*
Y49600D01*
X131600D01*
Y61400D01*
X136400D01*
G01X145600Y49600D02*
Y61400D01*
X150400D01*
Y49600D01*
X145600D01*
G01X147400Y92400D02*
Y80600D01*
X142700D01*
Y92400D01*
X147400D01*
G01X136600Y80600D02*
Y92400D01*
X141300D01*
Y80600D01*
X136600D01*
G01X130600D02*
Y92400D01*
X135300D01*
Y80600D01*
X130600D01*
G01X158900Y129600D02*
X147100D01*
Y134400D01*
X158900D01*
Y129600D01*
G01Y124600D02*
X147100D01*
Y129400D01*
X158900D01*
Y124600D01*
G01X172100Y7900D02*
Y3500D01*
X167400D01*
Y7900D01*
G01X148600Y3500D02*
Y7800D01*
G01X153300D02*
Y3500D01*
X148600D01*
G01X170900Y9500D02*
X168500D01*
G01X170900Y8700D02*
X168500D01*
G01X167400Y10200D02*
Y14600D01*
X172100D01*
G01X149800Y8600D02*
X152200D01*
G01X149800Y9400D02*
X152200D01*
G01X148600Y10200D02*
Y14500D01*
X153300D01*
Y10200D01*
G01X152700Y49600D02*
Y61500D01*
X157400D01*
Y49600D01*
X152700D01*
G01X158000Y85100D02*
Y88200D01*
X160400Y86600D01*
X158000Y85100D01*
Y85900D01*
X158400D01*
Y87800D01*
X158800Y87400D01*
Y85900D01*
X159200Y86200D01*
Y87400D01*
X160000Y86600D01*
X159200Y86200D01*
Y86600D01*
G01X148600Y80600D02*
Y92400D01*
X153300D01*
Y80600D01*
X148600D01*
G01X203000Y112300D02*
Y104400D01*
X193600Y95000D01*
X162100D01*
Y112300D01*
G01X182500Y110700D02*
X163600D01*
G01X182500Y107600D02*
X164400D01*
G01X182500Y104400D02*
X166800D01*
G01X182500Y101300D02*
X169200D01*
G01X202200Y115500D02*
G03I-19664J-34D01*
G01X162100Y119000D02*
Y135900D01*
X193600D01*
X203000Y126500D01*
Y119000D01*
G01X182500Y128100D02*
X167600D01*
G01X182500Y124100D02*
X165200D01*
G01X182500Y121000D02*
X163600D01*
G01X149100Y121400D02*
Y123800D01*
X150000D01*
X150200Y123700D01*
X150400Y123500D01*
X150500Y123200D01*
X150400Y122900D01*
X150200Y122700D01*
X150000Y122600D01*
X149100D01*
G01X150000D02*
X150500Y121400D01*
G01X151600Y123400D02*
X151800Y123600D01*
X152000Y123800D01*
X152300D01*
X152600Y123700D01*
X152800Y123500D01*
X152900Y123300D01*
Y123000D01*
X152700Y122800D01*
X152100Y122400D01*
X151800Y122200D01*
X151600Y121800D01*
X151500Y121400D01*
X152900D01*
G01X154600D02*
Y123800D01*
X154200Y123300D01*
G01Y121400D02*
X155000D01*
G01X149100Y117500D02*
Y119900D01*
X150000D01*
X150200Y119800D01*
X150400Y119600D01*
X150500Y119300D01*
X150400Y119000D01*
X150200Y118800D01*
X150000Y118700D01*
X149100D01*
G01X150000D02*
X150500Y117500D01*
G01X151600Y119500D02*
X151800Y119700D01*
X152000Y119900D01*
X152300D01*
X152600Y119800D01*
X152800Y119600D01*
X152900Y119400D01*
Y119100D01*
X152700Y118900D01*
X152100Y118500D01*
X151800Y118300D01*
X151600Y117900D01*
X151500Y117500D01*
X152900D01*
G01X154000Y119500D02*
X154200Y119700D01*
X154400Y119900D01*
X154700D01*
X155000Y119800D01*
X155200Y119600D01*
X155300Y119400D01*
Y119100D01*
X155100Y118900D01*
X154500Y118500D01*
X154200Y118300D01*
X154000Y117900D01*
X153900Y117500D01*
X155300D01*
G01X194100Y6600D02*
X190900D01*
X192500Y7800D01*
X194100Y6600D01*
G01X190700Y3600D02*
Y6000D01*
X191300D01*
X191600Y5900D01*
X191800Y5700D01*
X192000Y5500D01*
X192100Y5200D01*
Y4800D01*
Y4400D01*
X192000Y4100D01*
X191800Y3900D01*
X191600Y3700D01*
X191300Y3600D01*
X190700D01*
G01X193100Y4000D02*
X193300Y3800D01*
X193500Y3600D01*
X193800D01*
X194100Y3700D01*
X194300Y3800D01*
X194500Y4100D01*
Y4400D01*
Y4800D01*
X194300Y5000D01*
X194100Y5100D01*
X193800Y5200D01*
X193600Y5100D01*
X193300Y5000D01*
X193400Y6000D01*
X194300D01*
G01X177800Y1600D02*
Y7800D01*
G01X176200Y2300D02*
Y1600D01*
G01X186400Y7100D02*
Y7800D01*
X176200D01*
Y7100D01*
G01Y1600D02*
X186400D01*
Y2300D01*
G01X177500Y17600D02*
Y19200D01*
X172000D01*
G01X172100Y14600D02*
Y10200D01*
G01X198400Y30200D02*
Y32600D01*
X172000D01*
Y30200D01*
G01X194100Y33600D02*
X190900D01*
X192500Y34800D01*
X194100Y33600D01*
G01X177500Y44600D02*
Y46200D01*
X172000D01*
G01X198400Y57200D02*
Y59600D01*
X172000D01*
Y57200D01*
G01X182500Y113100D02*
X177000D01*
G01X182500Y98100D02*
X173100D01*
G01X182500Y95800D02*
Y135200D01*
G01Y131200D02*
X170700D01*
G01X182500Y117800D02*
X177000D01*
G01X182500Y115500D02*
X177000D01*
G01X192900Y17600D02*
Y19200D01*
X198400D01*
G01X192900Y44600D02*
Y46200D01*
X198400D01*
G01X211200Y92600D02*
Y113900D01*
X221400D01*
Y92600D01*
X211200D01*
G01X214300Y91400D02*
X217500D01*
G01X215900Y90300D02*
Y92200D01*
G01X222400Y97200D02*
Y101500D01*
G01X223600Y102300D02*
X226000D01*
G01X223600Y103100D02*
X226000D01*
G01X227200Y101500D02*
Y97200D01*
X222400D01*
G01Y103900D02*
Y108200D01*
X227200D01*
Y103900D01*
G01X213100Y104000D02*
X219000D01*
G01X213100Y102500D02*
X219000D01*
G54D15*
G01X4300Y102000D02*
Y99900D01*
X4500Y99400D01*
X4800Y99100D01*
X5200Y99000D01*
X5700Y99100D01*
X6000Y99400D01*
X6200Y99900D01*
Y102000D01*
G01X7400Y99400D02*
X7700Y99100D01*
X8100Y99000D01*
X8400D01*
X8800Y99100D01*
X9000Y99400D01*
X9100Y99800D01*
X9000Y100100D01*
X8800Y100400D01*
X8500Y100600D01*
X8000Y100700D01*
X7700Y100900D01*
X7500Y101200D01*
X7600Y101600D01*
X7800Y101800D01*
X8100Y102000D01*
X8400D01*
X8700Y101900D01*
X9000Y101600D01*
G01X11600Y100600D02*
X11800Y100700D01*
X11900Y101000D01*
X12000Y101400D01*
X11900Y101600D01*
X11700Y101800D01*
X11400Y102000D01*
X10300D01*
Y99000D01*
X11700D01*
X12000Y99200D01*
X12100Y99500D01*
X12200Y99900D01*
X12100Y100200D01*
X11900Y100500D01*
X11600Y100600D01*
X10300D01*
G01X14200Y99000D02*
Y102000D01*
X13700Y101400D01*
G01Y99000D02*
X14700D01*
G01X33300Y28500D02*
Y31500D01*
X34200D01*
X34500Y31300D01*
X34800Y31100D01*
X35000Y30900D01*
X35100Y30500D01*
X35200Y30000D01*
X35100Y29500D01*
X35000Y29100D01*
X34800Y28800D01*
X34500Y28600D01*
X34200Y28500D01*
X33300D01*
G01X37200D02*
Y31500D01*
X36700Y30900D01*
G01Y28500D02*
X37700D01*
G01X39200Y42500D02*
Y39500D01*
G01X38300Y42500D02*
X40200D01*
G01X41400Y39500D02*
Y42500D01*
X42400D01*
X42800Y42300D01*
X43000Y42000D01*
X43100Y41600D01*
X43000Y41200D01*
X42800Y40900D01*
X42400Y40700D01*
X41400D01*
G01X44500Y42000D02*
X44700Y42300D01*
X45000Y42500D01*
X45300D01*
X45800Y42400D01*
X46000Y42100D01*
X46100Y41900D01*
Y41500D01*
X45900Y41300D01*
X45100Y40800D01*
X44700Y40400D01*
X44500Y39900D01*
X44400Y39500D01*
X46100D01*
G01X25700Y37500D02*
Y34500D01*
G01X24800Y37500D02*
X26700D01*
G01X27900Y34500D02*
Y37500D01*
X28900D01*
X29300Y37300D01*
X29500Y37000D01*
X29600Y36600D01*
X29500Y36200D01*
X29300Y35900D01*
X28900Y35700D01*
X27900D01*
G01X31700Y34500D02*
Y37500D01*
X31200Y36900D01*
G01Y34500D02*
X32200D01*
G01X29200Y62700D02*
Y59700D01*
X30900D01*
G01X33000D02*
Y62700D01*
X32500Y62100D01*
G01Y59700D02*
X33500D01*
G01X34000Y92800D02*
Y89800D01*
G01X33100Y92800D02*
X35000D01*
G01X36200Y89800D02*
Y92800D01*
X37200D01*
X37600Y92600D01*
X37800Y92300D01*
X37900Y91900D01*
X37800Y91500D01*
X37600Y91200D01*
X37200Y91000D01*
X36200D01*
G01X39100Y90400D02*
X39400Y90000D01*
X39700Y89800D01*
X40100D01*
X40400D01*
X40800Y90100D01*
X41000Y90400D01*
Y90700D01*
X40900Y91000D01*
X40600Y91300D01*
X40300Y91400D01*
X40000D01*
G01X40300D02*
X40600Y91500D01*
X40800Y91800D01*
X40900Y92100D01*
X40800Y92400D01*
X40600Y92600D01*
X40200Y92800D01*
X39800D01*
X39500Y92500D01*
G01X30800Y100800D02*
Y103800D01*
X31900D01*
X32200Y103600D01*
X32400Y103400D01*
X32500Y103000D01*
X32400Y102600D01*
X32200Y102400D01*
X31900Y102200D01*
X30800D01*
G01X31900D02*
X32500Y100800D01*
G01X35200D02*
Y103800D01*
X33600Y101700D01*
X35700D01*
G01X30900Y110900D02*
Y113900D01*
X32000D01*
X32300Y113700D01*
X32500Y113500D01*
X32600Y113100D01*
X32500Y112700D01*
X32300Y112500D01*
X32000Y112300D01*
X30900D01*
G01X32000D02*
X32600Y110900D01*
G01X33800Y111300D02*
X34100Y111100D01*
X34400Y110900D01*
X34700D01*
X35100Y111000D01*
X35400Y111200D01*
X35600Y111500D01*
X35700Y111900D01*
X35600Y112300D01*
X35400Y112600D01*
X35100Y112800D01*
X34800D01*
X34500D01*
X34100Y112600D01*
X34200Y113900D01*
X35400D01*
G01X30900Y95800D02*
Y98800D01*
X32000D01*
X32300Y98600D01*
X32500Y98400D01*
X32600Y98000D01*
X32500Y97600D01*
X32300Y97400D01*
X32000Y97200D01*
X30900D01*
G01X32000D02*
X32600Y95800D01*
G01X34700D02*
X35000D01*
X35400Y96000D01*
X35600Y96200D01*
X35700Y96600D01*
X35600Y96900D01*
X35300Y97200D01*
X35000Y97400D01*
X34500D01*
X34300Y97500D01*
X34100Y97700D01*
X34000Y98100D01*
X34100Y98400D01*
X34400Y98700D01*
X34700Y98800D01*
X35100Y98700D01*
X35400Y98400D01*
X35500Y98100D01*
X35400Y97700D01*
X35200Y97500D01*
X35000Y97400D01*
X34500D01*
X34200Y97200D01*
X33900Y96900D01*
X33800Y96600D01*
X33900Y96200D01*
X34100Y96000D01*
X34500Y95800D01*
X34700D01*
G01X30800Y105800D02*
Y108800D01*
X31900D01*
X32200Y108600D01*
X32400Y108400D01*
X32500Y108000D01*
X32400Y107600D01*
X32200Y107400D01*
X31900Y107200D01*
X30800D01*
G01X31900D02*
X32500Y105800D01*
G01X33900Y106100D02*
X34200Y105900D01*
X34600Y105800D01*
X34900Y105900D01*
X35200Y106200D01*
X35400Y106700D01*
X35500Y107100D01*
Y107600D01*
X35400Y108100D01*
X35200Y108500D01*
X34900Y108700D01*
X34600Y108800D01*
X34300Y108700D01*
X34100Y108500D01*
X33900Y108200D01*
X33800Y107800D01*
X33900Y107500D01*
X34100Y107100D01*
X34400Y106900D01*
X34600Y106800D01*
X35000Y106900D01*
X35200Y107200D01*
X35500Y107600D01*
G01X30900Y125900D02*
Y128900D01*
X32000D01*
X32300Y128700D01*
X32500Y128500D01*
X32600Y128100D01*
X32500Y127700D01*
X32300Y127500D01*
X32000Y127300D01*
X30900D01*
G01X32000D02*
X32600Y125900D01*
G01X34000Y128400D02*
X34200Y128700D01*
X34500Y128900D01*
X34800D01*
X35300Y128800D01*
X35500Y128500D01*
X35600Y128300D01*
Y127900D01*
X35400Y127700D01*
X34600Y127200D01*
X34200Y126800D01*
X34000Y126300D01*
X33900Y125900D01*
X35600D01*
G01X30800Y130800D02*
Y133800D01*
X31900D01*
X32200Y133600D01*
X32400Y133400D01*
X32500Y133000D01*
X32400Y132600D01*
X32200Y132400D01*
X31900Y132200D01*
X30800D01*
G01X31900D02*
X32500Y130800D01*
G01X33700Y131400D02*
X34000Y131000D01*
X34300Y130800D01*
X34700D01*
X35000D01*
X35400Y131100D01*
X35600Y131400D01*
Y131700D01*
X35500Y132000D01*
X35200Y132300D01*
X34900Y132400D01*
X34600D01*
G01X34900D02*
X35200Y132500D01*
X35400Y132800D01*
X35500Y133100D01*
X35400Y133400D01*
X35200Y133600D01*
X34800Y133800D01*
X34400D01*
X34100Y133500D01*
G01X30900Y115900D02*
Y118900D01*
X32000D01*
X32300Y118700D01*
X32500Y118500D01*
X32600Y118100D01*
X32500Y117700D01*
X32300Y117500D01*
X32000Y117300D01*
X30900D01*
G01X32000D02*
X32600Y115900D01*
G01X34000Y117100D02*
X34200Y117500D01*
X34500Y117700D01*
X34800Y117800D01*
X35100Y117700D01*
X35300Y117500D01*
X35500Y117200D01*
Y116800D01*
Y116500D01*
X35300Y116200D01*
X35100Y116000D01*
X34800Y115900D01*
X34500Y116000D01*
X34200Y116300D01*
X34000Y116800D01*
Y117200D01*
Y117900D01*
X34200Y118300D01*
X34400Y118600D01*
X34700Y118900D01*
X35000D01*
X35300Y118800D01*
X35500Y118500D01*
G01X30900Y120900D02*
Y123900D01*
X32000D01*
X32300Y123700D01*
X32500Y123500D01*
X32600Y123100D01*
X32500Y122700D01*
X32300Y122500D01*
X32000Y122300D01*
X30900D01*
G01X32000D02*
X32600Y120900D01*
G01X34700D02*
Y121500D01*
X34900Y122100D01*
X35000Y122600D01*
X35300Y123100D01*
X35600Y123900D01*
X33900D01*
G01X66000Y29000D02*
X63000D01*
Y30500D01*
G01X64400Y30000D02*
Y29000D01*
G01X66000Y32700D02*
X63000D01*
X63600Y32200D01*
G01X66000D02*
Y33200D01*
G01X44900Y20900D02*
X45200Y20600D01*
X45600Y20500D01*
X45900D01*
X46300Y20600D01*
X46500Y20900D01*
X46600Y21300D01*
X46500Y21600D01*
X46300Y21900D01*
X46000Y22100D01*
X45500Y22200D01*
X45200Y22400D01*
X45000Y22700D01*
X45100Y23100D01*
X45300Y23300D01*
X45600Y23500D01*
X45900D01*
X46200Y23400D01*
X46500Y23100D01*
G01X47500Y23500D02*
X48100Y20500D01*
X48700Y23500D01*
X49400Y20500D01*
X50000Y23500D01*
G01X51700Y20500D02*
Y23500D01*
X51200Y22900D01*
G01Y20500D02*
X52200D01*
G01X46900Y47200D02*
X46600Y47400D01*
X46300Y47500D01*
X46000D01*
X45600Y47300D01*
X45300Y47100D01*
X45100Y46800D01*
X44900Y46300D01*
Y45800D01*
X45000Y45400D01*
X45100Y45100D01*
X45400Y44800D01*
X45700Y44600D01*
X45900Y44500D01*
X46200D01*
X46500Y44600D01*
X46800Y44700D01*
X47000Y44900D01*
G01X48200Y45700D02*
X48400Y46100D01*
X48700Y46300D01*
X49000Y46400D01*
X49300Y46300D01*
X49500Y46100D01*
X49700Y45800D01*
Y45400D01*
Y45100D01*
X49500Y44800D01*
X49300Y44600D01*
X49000Y44500D01*
X48700Y44600D01*
X48400Y44900D01*
X48200Y45400D01*
Y45800D01*
Y46500D01*
X48400Y46900D01*
X48600Y47200D01*
X48900Y47500D01*
X49200D01*
X49500Y47400D01*
X49700Y47100D01*
G01X53600Y66500D02*
G03I-1100J0D01*
G01X59700Y68600D02*
X65300D01*
Y56400D01*
X59700D01*
Y68600D01*
G01X44500Y89000D02*
X44200Y89200D01*
X43900Y89300D01*
X43600D01*
X43200Y89100D01*
X42900Y88900D01*
X42700Y88600D01*
X42500Y88100D01*
Y87600D01*
X42600Y87200D01*
X42700Y86900D01*
X43000Y86600D01*
X43300Y86400D01*
X43500Y86300D01*
X43800D01*
X44100Y86400D01*
X44400Y86500D01*
X44600Y86700D01*
G01X46500Y86300D02*
Y86900D01*
X46700Y87500D01*
X46800Y88000D01*
X47100Y88500D01*
X47400Y89300D01*
X45700D01*
G01X58900Y90500D02*
Y93500D01*
X60000D01*
X60300Y93300D01*
X60500Y93100D01*
X60600Y92700D01*
X60500Y92300D01*
X60300Y92100D01*
X60000Y91900D01*
X58900D01*
G01X60000D02*
X60600Y90500D01*
G01X62700D02*
Y93500D01*
X62200Y92900D01*
G01Y90500D02*
X63200D01*
G01X65700Y93500D02*
X65400Y93400D01*
X65200Y93100D01*
X65000Y92900D01*
X64900Y92400D01*
X64800Y92000D01*
X64900Y91500D01*
X65000Y91100D01*
X65200Y90800D01*
X65400Y90600D01*
X65700Y90500D01*
X66100Y90600D01*
X66300Y90800D01*
X66500Y91100D01*
X66600Y91500D01*
X66700Y92000D01*
X66600Y92400D01*
X66500Y92900D01*
X66300Y93100D01*
X66100Y93400D01*
X65700Y93500D01*
G01X58900Y86500D02*
Y89500D01*
X60000D01*
X60300Y89300D01*
X60500Y89100D01*
X60600Y88700D01*
X60500Y88300D01*
X60300Y88100D01*
X60000Y87900D01*
X58900D01*
G01X60000D02*
X60600Y86500D01*
G01X62700D02*
Y89500D01*
X62200Y88900D01*
G01Y86500D02*
X63200D01*
G01X65000Y89000D02*
X65200Y89300D01*
X65500Y89500D01*
X65800D01*
X66300Y89400D01*
X66500Y89100D01*
X66600Y88900D01*
Y88500D01*
X66400Y88300D01*
X65600Y87800D01*
X65200Y87400D01*
X65000Y86900D01*
X64900Y86500D01*
X66600D01*
G01X63100Y128400D02*
Y131400D01*
X62600Y130800D01*
G01Y128400D02*
X63600D01*
G01X65400Y130900D02*
X65600Y131200D01*
X65900Y131400D01*
X66200D01*
X66700Y131300D01*
X66900Y131000D01*
X67000Y130800D01*
Y130400D01*
X66800Y130200D01*
X66000Y129700D01*
X65600Y129300D01*
X65400Y128800D01*
X65300Y128400D01*
X67000D01*
G01X65400Y69500D02*
Y72500D01*
X66500D01*
X66800Y72300D01*
X67000Y72100D01*
X67100Y71700D01*
X67000Y71300D01*
X66800Y71100D01*
X66500Y70900D01*
X65400D01*
G01X66500D02*
X67100Y69500D01*
G01X69200D02*
Y72500D01*
X68700Y71900D01*
G01Y69500D02*
X69700D01*
G01X72200D02*
Y70100D01*
X72400Y70700D01*
X72500Y71200D01*
X72800Y71700D01*
X73100Y72500D01*
X71400D01*
G01X71200Y81500D02*
X70900D01*
X70600Y81700D01*
X70400Y82000D01*
X70200Y82400D01*
X70100Y82800D01*
Y83200D01*
X70200Y83600D01*
X70400Y84000D01*
X70600Y84200D01*
X70900Y84500D01*
X71200D01*
X71600D01*
X71900Y84200D01*
X72100Y84000D01*
X72300Y83600D01*
X72400Y83200D01*
Y82800D01*
X72300Y82400D01*
X72100Y82000D01*
X71900Y81700D01*
X71600Y81500D01*
X71200D01*
G01X71600Y82300D02*
X72100Y81500D01*
G01X73500Y84000D02*
X73700Y84300D01*
X74000Y84500D01*
X74300D01*
X74800Y84400D01*
X75000Y84100D01*
X75100Y83900D01*
Y83500D01*
X74900Y83300D01*
X74100Y82800D01*
X73700Y82400D01*
X73500Y81900D01*
X73400Y81500D01*
X75100D01*
G01X66300Y98500D02*
Y101500D01*
X65800Y100900D01*
G01Y98500D02*
X66800D01*
G01X102400Y71100D02*
Y69000D01*
X102600Y68500D01*
X102900Y68200D01*
X103300Y68100D01*
X103800Y68200D01*
X104100Y68500D01*
X104300Y69000D01*
Y71100D01*
G01X106900Y68100D02*
Y71100D01*
X105300Y69000D01*
X107400D01*
G01X101700Y59200D02*
X101400Y59400D01*
X101100Y59500D01*
X100800D01*
X100400Y59300D01*
X100100Y59100D01*
X99900Y58800D01*
X99700Y58300D01*
Y57800D01*
X99800Y57400D01*
X99900Y57100D01*
X100200Y56800D01*
X100500Y56600D01*
X100700Y56500D01*
X101000D01*
X101300Y56600D01*
X101600Y56700D01*
X101800Y56900D01*
G01X103700Y56500D02*
Y59500D01*
X103200Y58900D01*
G01Y56500D02*
X104200D01*
G01X106000Y59000D02*
X106200Y59300D01*
X106500Y59500D01*
X106800D01*
X107300Y59400D01*
X107500Y59100D01*
X107600Y58900D01*
Y58500D01*
X107400Y58300D01*
X106600Y57800D01*
X106200Y57400D01*
X106000Y56900D01*
X105900Y56500D01*
X107600D01*
G01X95400Y69700D02*
X95100Y69900D01*
X94800Y70000D01*
X94500D01*
X94100Y69800D01*
X93800Y69600D01*
X93600Y69300D01*
X93400Y68800D01*
Y68300D01*
X93500Y67900D01*
X93600Y67600D01*
X93900Y67300D01*
X94200Y67100D01*
X94400Y67000D01*
X94700D01*
X95000Y67100D01*
X95300Y67200D01*
X95500Y67400D01*
G01X97400Y67000D02*
X97700D01*
X98100Y67200D01*
X98300Y67400D01*
X98400Y67800D01*
X98300Y68100D01*
X98000Y68400D01*
X97700Y68600D01*
X97200D01*
X97000Y68700D01*
X96800Y68900D01*
X96700Y69300D01*
X96800Y69600D01*
X97100Y69900D01*
X97400Y70000D01*
X97800Y69900D01*
X98100Y69600D01*
X98200Y69300D01*
X98100Y68900D01*
X97900Y68700D01*
X97700Y68600D01*
X97200D01*
X96900Y68400D01*
X96600Y68100D01*
X96500Y67800D01*
X96600Y67400D01*
X96800Y67200D01*
X97200Y67000D01*
X97400D01*
G01X87900Y54500D02*
Y57500D01*
X89000D01*
X89300Y57300D01*
X89500Y57100D01*
X89600Y56700D01*
X89500Y56300D01*
X89300Y56100D01*
X89000Y55900D01*
X87900D01*
G01X89000D02*
X89600Y54500D01*
G01X91700D02*
Y57500D01*
X91200Y56900D01*
G01Y54500D02*
X92200D01*
G01X94700D02*
Y57500D01*
X94200Y56900D01*
G01Y54500D02*
X95200D01*
G01X89800Y61000D02*
Y64000D01*
X90700D01*
X91000Y63800D01*
X91300Y63600D01*
X91500Y63400D01*
X91600Y63000D01*
X91700Y62500D01*
X91600Y62000D01*
X91500Y61600D01*
X91300Y61300D01*
X91000Y61100D01*
X90700Y61000D01*
X89800D01*
G01X93000Y63500D02*
X93200Y63800D01*
X93500Y64000D01*
X93800D01*
X94300Y63900D01*
X94500Y63600D01*
X94600Y63400D01*
Y63000D01*
X94400Y62800D01*
X93600Y62300D01*
X93200Y61900D01*
X93000Y61400D01*
X92900Y61000D01*
X94600D01*
G01X85300Y74500D02*
Y77500D01*
X86200D01*
X86500Y77300D01*
X86800Y77100D01*
X87000Y76900D01*
X87100Y76500D01*
X87200Y76000D01*
X87100Y75500D01*
X87000Y75100D01*
X86800Y74800D01*
X86500Y74600D01*
X86200Y74500D01*
X85300D01*
G01X88300Y75100D02*
X88600Y74700D01*
X88900Y74500D01*
X89300D01*
X89600D01*
X90000Y74800D01*
X90200Y75100D01*
Y75400D01*
X90100Y75700D01*
X89800Y76000D01*
X89500Y76100D01*
X89200D01*
G01X89500D02*
X89800Y76200D01*
X90000Y76500D01*
X90100Y76800D01*
X90000Y77100D01*
X89800Y77300D01*
X89400Y77500D01*
X89000D01*
X88700Y77200D01*
G01X102800D02*
X102600Y76900D01*
X102500Y76600D01*
Y76300D01*
X102700Y75900D01*
X102900Y75600D01*
X103200Y75400D01*
X103700Y75200D01*
X104200D01*
X104600Y75300D01*
X104900Y75400D01*
X105200Y75700D01*
X105400Y76000D01*
X105500Y76200D01*
Y76500D01*
X105400Y76800D01*
X105300Y77100D01*
X105100Y77300D01*
G01X103000Y78500D02*
X102700Y78700D01*
X102500Y79000D01*
Y79300D01*
X102600Y79800D01*
X102900Y80000D01*
X103100Y80100D01*
X103500D01*
X103700Y79900D01*
X104200Y79100D01*
X104600Y78700D01*
X105100Y78500D01*
X105500Y78400D01*
Y80100D01*
G01X86500Y81700D02*
X89500D01*
G01X86500Y80800D02*
Y82700D01*
G01X89500Y83900D02*
X86500D01*
Y84900D01*
X86700Y85300D01*
X87000Y85500D01*
X87400Y85600D01*
X87800Y85500D01*
X88100Y85300D01*
X88300Y84900D01*
Y83900D01*
G01X89500Y88300D02*
X86500D01*
X88600Y86700D01*
Y88800D01*
G01X125300Y4700D02*
X125100Y4400D01*
X125000Y4100D01*
Y3800D01*
X125200Y3400D01*
X125400Y3100D01*
X125700Y2900D01*
X126200Y2700D01*
X126700D01*
X127100Y2800D01*
X127400Y2900D01*
X127700Y3200D01*
X127900Y3500D01*
X128000Y3700D01*
Y4000D01*
X127900Y4300D01*
X127800Y4600D01*
X127600Y4800D01*
G01Y5800D02*
X127800Y6100D01*
X128000Y6400D01*
Y6700D01*
X127900Y7100D01*
X127700Y7400D01*
X127400Y7600D01*
X127000Y7700D01*
X126600Y7600D01*
X126300Y7400D01*
X126100Y7100D01*
Y6800D01*
Y6500D01*
X126300Y6100D01*
X125000Y6200D01*
Y7400D01*
G01X120300Y4700D02*
X120100Y4400D01*
X120000Y4100D01*
Y3800D01*
X120200Y3400D01*
X120400Y3100D01*
X120700Y2900D01*
X121200Y2700D01*
X121700D01*
X122100Y2800D01*
X122400Y2900D01*
X122700Y3200D01*
X122900Y3500D01*
X123000Y3700D01*
Y4000D01*
X122900Y4300D01*
X122800Y4600D01*
X122600Y4800D01*
G01X123000Y6700D02*
X120000D01*
X120600Y6200D01*
G01X123000D02*
Y7200D01*
G01X125300Y12200D02*
X125100Y11900D01*
X125000Y11600D01*
Y11300D01*
X125200Y10900D01*
X125400Y10600D01*
X125700Y10400D01*
X126200Y10200D01*
X126700D01*
X127100Y10300D01*
X127400Y10400D01*
X127700Y10700D01*
X127900Y11000D01*
X128000Y11200D01*
Y11500D01*
X127900Y11800D01*
X127800Y12100D01*
X127600Y12300D01*
G01X128000Y14800D02*
X125000D01*
X127100Y13200D01*
Y15300D01*
G01X123000Y10400D02*
X120000D01*
Y11500D01*
X120200Y11800D01*
X120400Y12000D01*
X120800Y12100D01*
X121200Y12000D01*
X121400Y11800D01*
X121600Y11500D01*
Y10400D01*
G01Y11500D02*
X123000Y12100D01*
G01Y14200D02*
X120000D01*
X120600Y13700D01*
G01X123000D02*
Y14700D01*
G01X122500Y32000D02*
Y29900D01*
X122700Y29400D01*
X123000Y29100D01*
X123400Y29000D01*
X123900Y29100D01*
X124200Y29400D01*
X124400Y29900D01*
Y32000D01*
G01X126400Y29000D02*
Y32000D01*
X125900Y31400D01*
G01Y29000D02*
X126900D01*
G01X119200Y49500D02*
Y46500D01*
G01X118300Y49500D02*
X120200D01*
G01X121400Y46500D02*
Y49500D01*
X122400D01*
X122800Y49300D01*
X123000Y49000D01*
X123100Y48600D01*
X123000Y48200D01*
X122800Y47900D01*
X122400Y47700D01*
X121400D01*
G01X124500D02*
X124700Y48100D01*
X125000Y48300D01*
X125300Y48400D01*
X125600Y48300D01*
X125800Y48100D01*
X126000Y47800D01*
Y47400D01*
Y47100D01*
X125800Y46800D01*
X125600Y46600D01*
X125300Y46500D01*
X125000Y46600D01*
X124700Y46900D01*
X124500Y47400D01*
Y47800D01*
Y48500D01*
X124700Y48900D01*
X124900Y49200D01*
X125200Y49500D01*
X125500D01*
X125800Y49400D01*
X126000Y49100D01*
G01X118700Y45500D02*
X119700Y42500D01*
X120800Y45500D01*
G01X121900Y42500D02*
Y45500D01*
X123000D01*
X123300Y45300D01*
X123500Y45100D01*
X123600Y44700D01*
X123500Y44300D01*
X123300Y44100D01*
X123000Y43900D01*
X121900D01*
G01X123000D02*
X123600Y42500D01*
G01X125700D02*
Y45500D01*
X125200Y44900D01*
G01Y42500D02*
X126200D01*
G01X126500Y54200D02*
X129500D01*
G01X126500Y53300D02*
Y55200D01*
G01X129500Y56400D02*
X126500D01*
Y57400D01*
X126700Y57800D01*
X127000Y58000D01*
X127400Y58100D01*
X127800Y58000D01*
X128100Y57800D01*
X128300Y57400D01*
Y56400D01*
G01X129500Y60200D02*
X128900D01*
X128300Y60400D01*
X127800Y60500D01*
X127300Y60800D01*
X126500Y61100D01*
Y59400D01*
G01X127000Y98900D02*
X127200Y99300D01*
X127500Y99500D01*
X127800Y99600D01*
X128100Y99500D01*
X128300Y99300D01*
X128500Y99000D01*
Y98600D01*
Y98300D01*
X128300Y98000D01*
X128100Y97800D01*
X127800Y97700D01*
X127500Y97800D01*
X127200Y98100D01*
X127000Y98600D01*
Y99000D01*
Y99700D01*
X127200Y100100D01*
X127400Y100400D01*
X127700Y100700D01*
X128000D01*
X128300Y100600D01*
X128500Y100300D01*
G01X126900Y128400D02*
Y129000D01*
X127100Y129600D01*
X127200Y130100D01*
X127500Y130600D01*
X127800Y131400D01*
X126100D01*
G01X140500Y51900D02*
X137500D01*
Y53000D01*
X137700Y53300D01*
X137900Y53500D01*
X138300Y53600D01*
X138700Y53500D01*
X138900Y53300D01*
X139100Y53000D01*
Y51900D01*
G01Y53000D02*
X140500Y53600D01*
G01Y55700D02*
X137500D01*
X138100Y55200D01*
G01X140500D02*
Y56200D01*
G01X139900Y57800D02*
X140300Y58100D01*
X140500Y58400D01*
Y58800D01*
Y59100D01*
X140200Y59500D01*
X139900Y59700D01*
X139600D01*
X139300Y59600D01*
X139000Y59300D01*
X138900Y59000D01*
Y58700D01*
G01Y59000D02*
X138800Y59300D01*
X138500Y59500D01*
X138200Y59600D01*
X137900Y59500D01*
X137700Y59300D01*
X137500Y58900D01*
Y58500D01*
X137800Y58200D01*
G01X144500Y51900D02*
X141500D01*
Y53000D01*
X141700Y53300D01*
X141900Y53500D01*
X142300Y53600D01*
X142700Y53500D01*
X142900Y53300D01*
X143100Y53000D01*
Y51900D01*
G01Y53000D02*
X144500Y53600D01*
G01Y55700D02*
X141500D01*
X142100Y55200D01*
G01X144500D02*
Y56200D01*
G01X143300Y58000D02*
X142900Y58200D01*
X142700Y58500D01*
X142600Y58800D01*
X142700Y59100D01*
X142900Y59300D01*
X143200Y59500D01*
X143600D01*
X143900D01*
X144200Y59300D01*
X144400Y59100D01*
X144500Y58800D01*
X144400Y58500D01*
X144100Y58200D01*
X143600Y58000D01*
X143200D01*
X142500D01*
X142100Y58200D01*
X141800Y58400D01*
X141500Y58700D01*
Y59000D01*
X141600Y59300D01*
X141900Y59500D01*
G01X130700Y73500D02*
X130400D01*
X130100Y73700D01*
X129900Y74000D01*
X129700Y74400D01*
X129600Y74800D01*
Y75200D01*
X129700Y75600D01*
X129900Y76000D01*
X130100Y76200D01*
X130400Y76500D01*
X130700D01*
X131100D01*
X131400Y76200D01*
X131600Y76000D01*
X131800Y75600D01*
X131900Y75200D01*
Y74800D01*
X131800Y74400D01*
X131600Y74000D01*
X131400Y73700D01*
X131100Y73500D01*
X130700D01*
G01X131100Y74300D02*
X131600Y73500D01*
G01X134300D02*
Y76500D01*
X132700Y74400D01*
X134800D01*
G01X146500Y93400D02*
X143500D01*
Y94500D01*
X143700Y94800D01*
X143900Y95000D01*
X144300Y95100D01*
X144700Y95000D01*
X144900Y94800D01*
X145100Y94500D01*
Y93400D01*
G01Y94500D02*
X146500Y95100D01*
G01Y97200D02*
X143500D01*
X144100Y96700D01*
G01X146500D02*
Y97700D01*
G01X146100Y99300D02*
X146300Y99600D01*
X146500Y99900D01*
Y100200D01*
X146400Y100600D01*
X146200Y100900D01*
X145900Y101100D01*
X145500Y101200D01*
X145100Y101100D01*
X144800Y100900D01*
X144600Y100600D01*
Y100300D01*
Y100000D01*
X144800Y99600D01*
X143500Y99700D01*
Y100900D01*
G01X139900Y76500D02*
Y79500D01*
X141000D01*
X141300Y79300D01*
X141500Y79100D01*
X141600Y78700D01*
X141500Y78300D01*
X141300Y78100D01*
X141000Y77900D01*
X139900D01*
G01X141000D02*
X141600Y76500D01*
G01X143700D02*
Y79500D01*
X143200Y78900D01*
G01Y76500D02*
X144200D01*
G01X146000Y76800D02*
X146300Y76600D01*
X146700Y76500D01*
X147000Y76600D01*
X147300Y76900D01*
X147500Y77400D01*
X147600Y77800D01*
Y78300D01*
X147500Y78800D01*
X147300Y79200D01*
X147000Y79400D01*
X146700Y79500D01*
X146400Y79400D01*
X146200Y79200D01*
X146000Y78900D01*
X145900Y78500D01*
X146000Y78200D01*
X146200Y77800D01*
X146500Y77600D01*
X146700Y77500D01*
X147100Y77600D01*
X147300Y77900D01*
X147600Y78300D01*
G01X129900Y77000D02*
Y80000D01*
X131000D01*
X131300Y79800D01*
X131500Y79600D01*
X131600Y79200D01*
X131500Y78800D01*
X131300Y78600D01*
X131000Y78400D01*
X129900D01*
G01X131000D02*
X131600Y77000D01*
G01X133000Y79500D02*
X133200Y79800D01*
X133500Y80000D01*
X133800D01*
X134300Y79900D01*
X134500Y79600D01*
X134600Y79400D01*
Y79000D01*
X134400Y78800D01*
X133600Y78300D01*
X133200Y77900D01*
X133000Y77400D01*
X132900Y77000D01*
X134600D01*
G01X136700Y80000D02*
X136400Y79900D01*
X136200Y79600D01*
X136000Y79400D01*
X135900Y78900D01*
X135800Y78500D01*
X135900Y78000D01*
X136000Y77600D01*
X136200Y77300D01*
X136400Y77100D01*
X136700Y77000D01*
X137100Y77100D01*
X137300Y77300D01*
X137500Y77600D01*
X137600Y78000D01*
X137700Y78500D01*
X137600Y78900D01*
X137500Y79400D01*
X137300Y79600D01*
X137100Y79900D01*
X136700Y80000D01*
G01X146000Y111400D02*
X143000D01*
Y112300D01*
X143200Y112600D01*
X143400Y112900D01*
X143600Y113100D01*
X144000Y113200D01*
X144500Y113300D01*
X145000Y113200D01*
X145400Y113100D01*
X145700Y112900D01*
X145900Y112600D01*
X146000Y112300D01*
Y111400D01*
G01X145600Y114500D02*
X145900Y114800D01*
X146000Y115200D01*
Y115500D01*
X145900Y115900D01*
X145600Y116100D01*
X145200Y116200D01*
X144900Y116100D01*
X144600Y115900D01*
X144400Y115600D01*
X144300Y115100D01*
X144100Y114800D01*
X143800Y114600D01*
X143400Y114700D01*
X143200Y114900D01*
X143000Y115200D01*
Y115500D01*
X143100Y115800D01*
X143400Y116100D01*
G01X146000Y118300D02*
X143000D01*
X143600Y117800D01*
G01X146000D02*
Y118800D01*
G01X157300Y19500D02*
Y17400D01*
X157500Y16900D01*
X157800Y16600D01*
X158200Y16500D01*
X158700Y16600D01*
X159000Y16900D01*
X159200Y17400D01*
Y19500D01*
G01X160500Y19000D02*
X160700Y19300D01*
X161000Y19500D01*
X161300D01*
X161800Y19400D01*
X162000Y19100D01*
X162100Y18900D01*
Y18500D01*
X161900Y18300D01*
X161100Y17800D01*
X160700Y17400D01*
X160500Y16900D01*
X160400Y16500D01*
X162100D01*
G01X169200Y18000D02*
X168900Y18200D01*
X168600Y18300D01*
X168300D01*
X167900Y18100D01*
X167600Y17900D01*
X167400Y17600D01*
X167200Y17100D01*
Y16600D01*
X167300Y16200D01*
X167400Y15900D01*
X167700Y15600D01*
X168000Y15400D01*
X168200Y15300D01*
X168500D01*
X168800Y15400D01*
X169100Y15500D01*
X169300Y15700D01*
G01X170300Y15900D02*
X170600Y15500D01*
X170900Y15300D01*
X171300D01*
X171600D01*
X172000Y15600D01*
X172200Y15900D01*
Y16200D01*
X172100Y16500D01*
X171800Y16800D01*
X171500Y16900D01*
X171200D01*
G01X171500D02*
X171800Y17000D01*
X172000Y17300D01*
X172100Y17600D01*
X172000Y17900D01*
X171800Y18100D01*
X171400Y18300D01*
X171000D01*
X170700Y18000D01*
G01X161500Y51900D02*
X158500D01*
Y53000D01*
X158700Y53300D01*
X158900Y53500D01*
X159300Y53600D01*
X159700Y53500D01*
X159900Y53300D01*
X160100Y53000D01*
Y51900D01*
G01Y53000D02*
X161500Y53600D01*
G01Y55700D02*
X158500D01*
X159100Y55200D01*
G01X161500D02*
Y56200D01*
G01Y58700D02*
Y59000D01*
X161300Y59400D01*
X161100Y59600D01*
X160700Y59700D01*
X160400Y59600D01*
X160100Y59300D01*
X159900Y59000D01*
Y58500D01*
X159800Y58300D01*
X159600Y58100D01*
X159200Y58000D01*
X158900Y58100D01*
X158600Y58400D01*
X158500Y58700D01*
X158600Y59100D01*
X158900Y59400D01*
X159200Y59500D01*
X159600Y59400D01*
X159800Y59200D01*
X159900Y59000D01*
Y58500D01*
X160100Y58200D01*
X160400Y57900D01*
X160700Y57800D01*
X161100Y57900D01*
X161300Y58100D01*
X161500Y58500D01*
Y58700D01*
G01X155200Y73500D02*
X154900D01*
X154600Y73700D01*
X154400Y74000D01*
X154200Y74400D01*
X154100Y74800D01*
Y75200D01*
X154200Y75600D01*
X154400Y76000D01*
X154600Y76200D01*
X154900Y76500D01*
X155200D01*
X155600D01*
X155900Y76200D01*
X156100Y76000D01*
X156300Y75600D01*
X156400Y75200D01*
Y74800D01*
X156300Y74400D01*
X156100Y74000D01*
X155900Y73700D01*
X155600Y73500D01*
X155200D01*
G01X155600Y74300D02*
X156100Y73500D01*
G01X157300Y74100D02*
X157600Y73700D01*
X157900Y73500D01*
X158300D01*
X158600D01*
X159000Y73800D01*
X159200Y74100D01*
Y74400D01*
X159100Y74700D01*
X158800Y75000D01*
X158500Y75100D01*
X158200D01*
G01X158500D02*
X158800Y75200D01*
X159000Y75500D01*
X159100Y75800D01*
X159000Y76100D01*
X158800Y76300D01*
X158400Y76500D01*
X158000D01*
X157700Y76200D01*
G01X157000Y82900D02*
X154000D01*
Y84000D01*
X154200Y84300D01*
X154400Y84500D01*
X154800Y84600D01*
X155200Y84500D01*
X155400Y84300D01*
X155600Y84000D01*
Y82900D01*
G01Y84000D02*
X157000Y84600D01*
G01Y86700D02*
X154000D01*
X154600Y86200D01*
G01X157000D02*
Y87200D01*
G01Y90300D02*
X154000D01*
X156100Y88700D01*
Y90800D01*
G01X196500Y9700D02*
Y10700D01*
X197500D01*
X197900Y10400D01*
X198100Y10000D01*
X198200Y9600D01*
X198100Y9100D01*
X197900Y8700D01*
X197500Y8400D01*
X197100Y8200D01*
X196600Y8100D01*
X196200D01*
X195900Y8200D01*
X195500Y8400D01*
X195100Y8700D01*
X194900Y9000D01*
X194700Y9400D01*
Y9700D01*
X194800Y10100D01*
X195100Y10500D01*
G01X198200Y11800D02*
X194700D01*
X198200Y14000D01*
X194700D01*
G01X198200Y15300D02*
X194700D01*
Y16300D01*
X194900Y16700D01*
X195100Y17000D01*
X195500Y17300D01*
X195900Y17500D01*
X196500D01*
X197000D01*
X197400Y17300D01*
X197800Y17000D01*
X198000Y16700D01*
X198200Y16300D01*
Y15300D01*
G01X211300Y8300D02*
X211700Y8600D01*
X211900Y9000D01*
X212000Y9500D01*
X211900Y9900D01*
X211700Y10300D01*
X211300Y10500D01*
X211000D01*
X210500D01*
X210300Y10100D01*
X210100Y9700D01*
Y9300D01*
G01Y9700D02*
X210000Y10000D01*
X209700Y10300D01*
X209300Y10400D01*
X209000Y10300D01*
X208700Y10000D01*
X208500Y9600D01*
X208600Y9200D01*
X208800Y8700D01*
G01X208500Y11600D02*
X212000Y12900D01*
X208500Y14200D01*
G01X211300Y15300D02*
X211700Y15600D01*
X211900Y16000D01*
X212000Y16500D01*
X211900Y16900D01*
X211700Y17300D01*
X211300Y17500D01*
X211000D01*
X210500D01*
X210300Y17100D01*
X210100Y16700D01*
Y16300D01*
G01Y16700D02*
X210000Y17000D01*
X209700Y17300D01*
X209300Y17400D01*
X209000Y17300D01*
X208700Y17000D01*
X208500Y16600D01*
X208600Y16200D01*
X208800Y15700D01*
G01X199200Y11000D02*
X202700D01*
G01X199200Y9900D02*
Y12100D01*
G01X202700Y13400D02*
X199200Y15600D01*
G01Y13400D02*
X202700Y15600D01*
G01X207300Y10400D02*
X203800D01*
Y11600D01*
X204000Y12000D01*
X204200Y12300D01*
X204700Y12400D01*
X205100Y12300D01*
X205400Y12000D01*
X205600Y11600D01*
Y10400D01*
G01Y11600D02*
X207300Y12400D01*
G01Y13800D02*
X203800Y16000D01*
G01Y13800D02*
X207300Y16000D01*
G01X208600Y27100D02*
X208800Y26800D01*
X209100Y26600D01*
X209400Y26500D01*
X209700Y26600D01*
X210000Y26800D01*
X210200Y27100D01*
X210300Y27500D01*
Y29500D01*
G01X211700Y29000D02*
X211900Y29300D01*
X212200Y29500D01*
X212500D01*
X213000Y29400D01*
X213200Y29100D01*
X213300Y28900D01*
Y28500D01*
X213100Y28300D01*
X212300Y27800D01*
X211900Y27400D01*
X211700Y26900D01*
X211600Y26500D01*
X213300D01*
G01X196600Y35600D02*
Y36600D01*
X197600D01*
X198000Y36300D01*
X198200Y35900D01*
X198300Y35500D01*
X198200Y35000D01*
X198000Y34600D01*
X197600Y34300D01*
X197200Y34100D01*
X196700Y34000D01*
X196300D01*
X196000Y34100D01*
X195600Y34300D01*
X195200Y34600D01*
X195000Y34900D01*
X194800Y35300D01*
Y35600D01*
X194900Y36000D01*
X195200Y36400D01*
G01X198300Y37700D02*
X194800D01*
X198300Y39900D01*
X194800D01*
G01X198300Y41200D02*
X194800D01*
Y42200D01*
X195000Y42600D01*
X195200Y42900D01*
X195600Y43200D01*
X196000Y43400D01*
X196600D01*
X197100D01*
X197500Y43200D01*
X197900Y42900D01*
X198100Y42600D01*
X198300Y42200D01*
Y41200D01*
G01X203100Y34300D02*
X199600D01*
Y35500D01*
X199800Y35900D01*
X200000Y36200D01*
X200500Y36300D01*
X200900Y36200D01*
X201200Y35900D01*
X201400Y35500D01*
Y34300D01*
G01Y35500D02*
X203100Y36300D01*
G01X202600Y37700D02*
X202900Y38200D01*
X203100Y38600D01*
Y39000D01*
X202900Y39400D01*
X202600Y39700D01*
X202200Y39900D01*
X201800Y39800D01*
X201500Y39500D01*
X201200Y39000D01*
X201100Y38500D01*
X200900Y38100D01*
X200500Y37900D01*
X200100Y38100D01*
X199800Y38300D01*
X199600Y38600D01*
Y39000D01*
X199700Y39400D01*
X200000Y39700D01*
G01X199600Y42300D02*
X203100D01*
G01X199600Y41200D02*
Y43400D01*
G01X207600Y32700D02*
X207900Y33200D01*
X208100Y33600D01*
Y34000D01*
X207900Y34400D01*
X207600Y34700D01*
X207200Y34900D01*
X206800Y34800D01*
X206500Y34500D01*
X206200Y34000D01*
X206100Y33500D01*
X205900Y33100D01*
X205500Y32900D01*
X205100Y33100D01*
X204800Y33300D01*
X204600Y33600D01*
Y34000D01*
X204700Y34400D01*
X205000Y34700D01*
G01X204600Y35800D02*
X208100Y36500D01*
X204600Y37300D01*
X208100Y38100D01*
X204600Y38800D01*
G01Y40200D02*
Y41400D01*
G01Y40800D02*
X208100D01*
G01Y40200D02*
Y41400D01*
G01Y43000D02*
X204600D01*
X207500Y44300D01*
X204600Y45600D01*
X208100D01*
G01X212400Y33700D02*
X212800Y34000D01*
X213000Y34400D01*
X213100Y34900D01*
X213000Y35300D01*
X212800Y35700D01*
X212400Y35900D01*
X212100D01*
X211600D01*
X211400Y35500D01*
X211200Y35100D01*
Y34700D01*
G01Y35100D02*
X211100Y35400D01*
X210800Y35700D01*
X210400Y35800D01*
X210100Y35700D01*
X209800Y35400D01*
X209600Y35000D01*
X209700Y34600D01*
X209900Y34100D01*
G01X209600Y37000D02*
X213100Y38300D01*
X209600Y39600D01*
G01X212400Y40700D02*
X212800Y41000D01*
X213000Y41400D01*
X213100Y41900D01*
X213000Y42300D01*
X212800Y42700D01*
X212400Y42900D01*
X212100D01*
X211600D01*
X211400Y42500D01*
X211200Y42100D01*
Y41700D01*
G01Y42100D02*
X211100Y42400D01*
X210800Y42700D01*
X210400Y42800D01*
X210100Y42700D01*
X209800Y42400D01*
X209600Y42000D01*
X209700Y41600D01*
X209900Y41100D01*
G01X200200Y59800D02*
X200400Y59500D01*
X200700Y59300D01*
X201000Y59200D01*
X201300Y59300D01*
X201600Y59500D01*
X201800Y59800D01*
X201900Y60200D01*
Y62200D01*
G01X204000Y59200D02*
Y62200D01*
X203500Y61600D01*
G01Y59200D02*
X204500D01*
G01X201400Y92500D02*
X201100D01*
X200800Y92700D01*
X200600Y93000D01*
X200400Y93400D01*
X200300Y93800D01*
Y94200D01*
X200400Y94600D01*
X200600Y95000D01*
X200800Y95200D01*
X201100Y95500D01*
X201400D01*
X201800D01*
X202100Y95200D01*
X202300Y95000D01*
X202500Y94600D01*
X202600Y94200D01*
Y93800D01*
X202500Y93400D01*
X202300Y93000D01*
X202100Y92700D01*
X201800Y92500D01*
X201400D01*
G01X201800Y93300D02*
X202300Y92500D01*
G01X204400D02*
Y95500D01*
X203900Y94900D01*
G01Y92500D02*
X204900D01*
G01X200700Y100000D02*
Y97000D01*
G01X199800Y100000D02*
X201700D01*
G01X202900Y97000D02*
Y100000D01*
X203900D01*
X204300Y99800D01*
X204500Y99500D01*
X204600Y99100D01*
X204500Y98700D01*
X204300Y98400D01*
X203900Y98200D01*
X202900D01*
G01X205800Y97400D02*
X206100Y97200D01*
X206400Y97000D01*
X206700D01*
X207100Y97100D01*
X207400Y97300D01*
X207600Y97600D01*
X207700Y98000D01*
X207600Y98400D01*
X207400Y98700D01*
X207100Y98900D01*
X206800D01*
X206500D01*
X206100Y98700D01*
X206200Y100000D01*
X207400D01*
G01X202700Y132700D02*
X202400Y132900D01*
X202100Y133000D01*
X201800D01*
X201400Y132800D01*
X201100Y132600D01*
X200900Y132300D01*
X200700Y131800D01*
Y131300D01*
X200800Y130900D01*
X200900Y130600D01*
X201200Y130300D01*
X201500Y130100D01*
X201700Y130000D01*
X202000D01*
X202300Y130100D01*
X202600Y130200D01*
X202800Y130400D01*
G01X204000Y130300D02*
X204300Y130100D01*
X204700Y130000D01*
X205000Y130100D01*
X205300Y130400D01*
X205500Y130900D01*
X205600Y131300D01*
Y131800D01*
X205500Y132300D01*
X205300Y132700D01*
X205000Y132900D01*
X204700Y133000D01*
X204400Y132900D01*
X204200Y132700D01*
X204000Y132400D01*
X203900Y132000D01*
X204000Y131700D01*
X204200Y131300D01*
X204500Y131100D01*
X204700Y131000D01*
X205100Y131100D01*
X205300Y131400D01*
X205600Y131800D01*
G01X213700Y118900D02*
X213400Y119100D01*
X213100Y119200D01*
X212800D01*
X212400Y119000D01*
X212100Y118800D01*
X211900Y118500D01*
X211700Y118000D01*
Y117500D01*
X211800Y117100D01*
X211900Y116800D01*
X212200Y116500D01*
X212500Y116300D01*
X212700Y116200D01*
X213000D01*
X213300Y116300D01*
X213600Y116400D01*
X213800Y116600D01*
G01X215700Y116200D02*
Y119200D01*
X215200Y118600D01*
G01Y116200D02*
X216200D01*
G01X218700Y119200D02*
X218400Y119100D01*
X218200Y118800D01*
X218000Y118600D01*
X217900Y118100D01*
X217800Y117700D01*
X217900Y117200D01*
X218000Y116800D01*
X218200Y116500D01*
X218400Y116300D01*
X218700Y116200D01*
X219100Y116300D01*
X219300Y116500D01*
X219500Y116800D01*
X219600Y117200D01*
X219700Y117700D01*
X219600Y118100D01*
X219500Y118600D01*
X219300Y118800D01*
X219100Y119100D01*
X218700Y119200D01*
G01Y41100D02*
X218900Y40800D01*
X219200Y40600D01*
X219500Y40500D01*
X219800Y40600D01*
X220100Y40800D01*
X220300Y41100D01*
X220400Y41500D01*
Y43500D01*
G01X221600Y41100D02*
X221900Y40700D01*
X222200Y40500D01*
X222600D01*
X222900D01*
X223300Y40800D01*
X223500Y41100D01*
Y41400D01*
X223400Y41700D01*
X223100Y42000D01*
X222800Y42100D01*
X222500D01*
G01X222800D02*
X223100Y42200D01*
X223300Y42500D01*
X223400Y42800D01*
X223300Y43100D01*
X223100Y43300D01*
X222700Y43500D01*
X222300D01*
X222000Y43200D01*
G01X223300Y111500D02*
X223100Y111200D01*
X223000Y110900D01*
Y110600D01*
X223200Y110200D01*
X223400Y109900D01*
X223700Y109700D01*
X224200Y109500D01*
X224700D01*
X225100Y109600D01*
X225400Y109700D01*
X225700Y110000D01*
X225900Y110300D01*
X226000Y110500D01*
Y110800D01*
X225900Y111100D01*
X225800Y111400D01*
X225600Y111600D01*
G01X226000Y113500D02*
X223000D01*
X223600Y113000D01*
G01X226000D02*
Y114000D01*
G01Y116500D02*
X223000D01*
X223600Y116000D01*
G01X226000D02*
Y117000D01*
G54D16*
G01X1600Y90600D02*
X-61400D01*
Y43400D01*
X1600D01*
G01X-16100Y47700D02*
Y54400D01*
X-27900D01*
Y47700D01*
X-16100D01*
G01Y86300D02*
Y79600D01*
X-27900D01*
Y86300D01*
X-16100D01*
G01X17000Y90600D02*
X20900D01*
Y43400D01*
X17000D01*
G01X31400Y5000D02*
Y1000D01*
X35300D01*
G01X41600Y1800D02*
Y-7600D01*
X49500D01*
Y1800D01*
G01X66400Y5700D02*
Y1800D01*
X32600D01*
Y5700D01*
G01Y15200D02*
Y19100D01*
G01D02*
X66400D01*
Y15200D01*
G01X22400Y92300D02*
X26900Y94000D01*
X22400Y95700D01*
G01X26900Y97500D02*
X22400D01*
Y99100D01*
X22600Y99600D01*
X23100Y100000D01*
X23700Y100100D01*
X24300Y100000D01*
X24800Y99700D01*
X25000Y99100D01*
Y97500D01*
G01X23900Y101900D02*
X26900Y102700D01*
X23900Y103600D01*
X26900Y104500D01*
X23900Y105300D01*
G01X26900Y107500D02*
X23900D01*
G01X24500D02*
X24200Y107800D01*
X24000Y108100D01*
X23900Y108600D01*
X24000Y108900D01*
X24200Y109300D01*
G01X28400Y111200D02*
Y115200D01*
G01X22400Y116300D02*
X26900Y118000D01*
X22400Y119700D01*
G01X26900Y122800D02*
X22400D01*
X23300Y122000D01*
G01X26900D02*
Y123600D01*
G01X27000Y127600D02*
Y127500D01*
X26800D01*
Y127600D01*
Y127700D01*
X27000D01*
Y127600D01*
G01X23100Y131100D02*
X22700Y131500D01*
X22500Y132000D01*
X22400Y132500D01*
X22500Y133200D01*
X22900Y133700D01*
X23400Y133800D01*
X23800Y133700D01*
X24200Y133500D01*
X25000Y132100D01*
X25500Y131500D01*
X26200Y131100D01*
X26900Y131000D01*
Y133800D01*
G01X53100Y21500D02*
Y40400D01*
X61800D01*
Y21500D01*
X53100D01*
G01X52500Y135100D02*
X141500D01*
Y95000D01*
X52500D01*
Y135100D01*
G01X85300Y5900D02*
G03I-1761J6D01*
G01X117700Y14600D02*
Y2000D01*
X79300D01*
Y14600D01*
G01X85300Y44500D02*
G03I-1761J-12D01*
G01X79300Y30300D02*
Y48500D01*
X85100D01*
G01X80200Y92900D02*
X76200D01*
Y89800D01*
G01Y84200D02*
Y81100D01*
X80200D01*
G01X81800Y85800D02*
Y88200D01*
G01X76200Y84200D02*
Y81100D01*
X80200D01*
G01Y92900D02*
X76200D01*
Y89800D01*
G01X81800Y85800D02*
Y88200D01*
G01X79300Y76000D02*
X77400Y78000D01*
Y74000D01*
X79300Y76000D01*
G01X76600D02*
X80500D01*
G01X79300Y78800D02*
Y73300D01*
G01X99300Y13000D02*
Y16100D01*
X97700D01*
Y13000D01*
G01X108500Y22400D02*
G03I-10000J41D01*
G01X92200Y48500D02*
X95400D01*
G01X101600D02*
X104800D01*
G01X116000Y5900D02*
G03I-1752J6D01*
G01Y44500D02*
G03I-1752J-12D01*
G01X111900Y48500D02*
X117700D01*
G01D02*
Y30300D01*
G01X128000Y24000D02*
X154000D01*
Y37000D01*
X128000D01*
Y24000D01*
G01X143400Y68800D02*
Y72700D01*
X140200D01*
G01X134700D02*
X131600D01*
Y68800D01*
G01X136300Y67200D02*
X138600D01*
G01X134700Y72700D02*
X131600D01*
Y68800D01*
G01X143400D02*
Y72700D01*
X140200D01*
G01X136300Y67200D02*
X138600D01*
G01X148700Y72700D02*
X145500D01*
Y68800D01*
G01X148700Y72700D02*
X145500D01*
Y68800D01*
G01X159300Y3100D02*
X163200D01*
Y6300D01*
G01X157700Y10200D02*
Y7900D01*
G01X159300Y3100D02*
X163200D01*
Y6300D01*
G01X157700Y10200D02*
Y7900D01*
G01X163200Y11800D02*
Y14900D01*
X159300D01*
G01X163200Y11800D02*
Y14900D01*
X159300D01*
G01X157400Y68800D02*
Y72700D01*
X154200D01*
G01X150300Y67200D02*
X152600D01*
G01X157400Y68800D02*
Y72700D01*
X154200D01*
G01X150300Y67200D02*
X152600D01*
G01X206400Y83900D02*
Y64600D01*
X162000D01*
Y91400D01*
X206400D01*
Y83900D01*
G01X221000Y45500D02*
Y87500D01*
G01X213000Y45500D02*
Y87500D01*
X250500D01*
Y45500D01*
X213000D01*
M02*
