G04 ================== begin FILE IDENTIFICATION RECORD ==================*
G04 Layout Name:  G:/Cadence Allegro/My_Prj/VarPower/PCB/Vpwr_v1_2.brd*
G04 Film Name:    TOP*
G04 File Format:  Gerber RS274X*
G04 File Origin:  Cadence Allegro 17.2-S058*
G04 Origin Date:  Sun Aug 30 17:05:27 2020*
G04 *
G04 Layer:  BOARD GEOMETRY/OUTLINE*
G04 Layer:  ETCH/TOP*
G04 Layer:  PIN/TOP*
G04 Layer:  VIA CLASS/TOP*
G04 *
G04 Offset:    (0 0)*
G04 Mirror:    No*
G04 Mode:      Positive*
G04 Rotation:  0*
G04 FullContactRelief:  No*
G04 UndefLineWidth:     6*
G04 ================== end FILE IDENTIFICATION RECORD ====================*
%FSLAX25Y25*MOIN*%
%IR0*IPPOS*OFA0.00000B0.00000*MIA0B0*SFA1.00000B1.00000*%
%ADD19R,.13X.063*%
%ADD10C,.022*%
%ADD12C,.055*%
%ADD26R,.031X.031*%
%ADD24O,.087X.142*%
%ADD14C,.047*%
%ADD16C,.039*%
%ADD32R,.083X.118*%
%ADD13C,.059*%
%ADD11O,.138X.079*%
%ADD37C,.098*%
%ADD34R,.177X.047*%
%ADD36R,.26X.24*%
%ADD27R,.031X.035*%
%ADD21R,.035X.031*%
%ADD30O,.016X.063*%
%ADD28R,.071X.051*%
%ADD20R,.051X.071*%
%ADD25R,.039X.031*%
%ADD31R,.031X.039*%
%ADD35R,.028X.071*%
%ADD23R,.039X.024*%
%ADD29O,.024X.079*%
%ADD18R,.039X.035*%
%ADD17R,.035X.039*%
%ADD22R,.067X.055*%
%ADD15O,.047X.079*%
%ADD33R,.098X.059*%
%ADD38C,.01*%
%ADD39C,.02*%
%ADD40C,.03*%
%ADD41C,.04*%
%ADD42C,.015*%
%ADD43C,.006*%
%ADD49R,.035X.105*%
%ADD44C,.058*%
%ADD45R,.208X.078*%
%ADD48R,.023X.027*%
%ADD47R,.024X.028*%
%ADD46R,.019X.018*%
G75*
%LPD*%
G75*
G36*
G01X17000Y2100D02*
G02X16800Y2900I-100J400D01*
G03X2900Y15100I-4294J9126D01*
G02X2100Y15200I-400J50D01*
G01Y38800D01*
G02X2700Y39100I378J-6D01*
G03X6200Y37900I3426J4289D01*
G01X12000D01*
G03X17100Y45400I32J5462D01*
G01Y45700D01*
X17500D01*
X24200Y39000D01*
Y22000D01*
X25100Y21100D01*
Y19700D01*
X34500D01*
Y19800D01*
G02X35200Y19500I287J-297D01*
G01Y17000D01*
G02X34700Y16600I-389J-26D01*
G03X28700Y12100I-1312J-4500D01*
G01Y8900D01*
G03X36000Y5000I4692J0D01*
G01X36100Y5100D01*
X37500Y3700D01*
X52000D01*
X53000Y4700D01*
X54000Y3700D01*
X62000D01*
X63200Y4900D01*
X63300Y4800D01*
G03X70300Y8900I2299J4100D01*
G01Y12100D01*
G03X67300Y16400I-4582J0D01*
G01Y28000D01*
X64500Y30800D01*
X63300D01*
Y50000D01*
X66900Y53600D01*
Y55300D01*
X72800D01*
Y54000D01*
G03X74300Y49200I1500J-2166D01*
G01X80500D01*
X82900Y51600D01*
X84000D01*
G02X84300Y51100I-49J-369D01*
G03X91600Y46500I4381J-1140D01*
G01Y46600D01*
X91900D01*
Y46100D01*
X96100Y41900D01*
X109300D01*
X111600Y39600D01*
X126400D01*
Y39400D01*
G03X129700Y36300I3087J-20D01*
G01X129800D01*
X131500Y34500D01*
X127400Y30400D01*
Y23900D01*
G03X126400Y21600I2094J-2278D01*
G01Y17000D01*
G03X127600Y14500I3100J-50D01*
G01Y11700D01*
X127500D01*
G03X126400Y7400I729J-2477D01*
G01X127600Y6100D01*
Y3000D01*
X126700Y2100D01*
X17000D01*
G37*
G36*
G01X16000Y75900D02*
Y76600D01*
G03X12700Y80400I993J4195D01*
G02X12100Y80100I-382J15D01*
G03X11300Y70900I-2996J-4374D01*
G02X11900Y70600I201J-348D01*
G03X13400Y67300I5090J323D01*
G02Y66700I-274J-300D01*
G03X11900Y63400I3590J-3623D01*
G02X11300Y63100I-399J48D01*
G03Y53500I-2200J-4800D01*
G02X11900Y53100I199J-352D01*
G03X12100Y52000I5054J351D01*
G03X11700Y50600I2311J-1417D01*
G01Y48900D01*
X6200D01*
G03X2700Y47700I-74J-5489D01*
G02X2100Y48000I-222J306D01*
G01Y86000D01*
G02X2700Y86300I378J-6D01*
G03X6200Y85100I3426J4289D01*
G01X12000D01*
G03Y96100I50J5500D01*
G01X6200D01*
G03X2700Y94900I-74J-5489D01*
G02X2100Y95200I-222J306D01*
G01Y121000D01*
G02X2900Y121200I400J100D01*
G03X15600Y134900I9126J4276D01*
G02X15800Y135700I100J400D01*
G01X35400D01*
X35700Y135400D01*
X35800Y135300D01*
Y95900D01*
X34700Y94800D01*
X29000D01*
X28600D01*
X25900Y92100D01*
Y92000D01*
Y64600D01*
X26100D01*
Y64500D01*
X27100D01*
X29600Y62000D01*
X33700D01*
Y54000D01*
X34100Y53600D01*
Y52800D01*
X34900D01*
X44200Y43500D01*
Y35500D01*
X48500Y31200D01*
X51700D01*
Y30000D01*
X51800D01*
Y29100D01*
X51500Y28800D01*
X38000D01*
X37500Y28200D01*
G02X36800Y28500I-287J297D01*
G01Y47500D01*
X26000Y58300D01*
X19800D01*
X19600D01*
G02X19500Y58700I0J213D01*
G03X20600Y66700I-2511J4421D01*
G02Y67300I274J300D01*
G03X16000Y75900I-3608J3601D01*
G37*
G36*
G01X14700Y50900D02*
G03X19500Y55300I2305J2304D01*
G02X19800Y56000I287J291D01*
G01X25000D01*
X34500Y46500D01*
Y23000D01*
X33500Y22000D01*
X27500D01*
X26500Y23000D01*
Y40000D01*
X18500Y48000D01*
X15500D01*
X14000Y49500D01*
Y50600D01*
G02X14700Y50900I413J3D01*
G37*
G36*
G01X51300Y12700D02*
G03Y8300I-1800J-2200D01*
G02X52000Y8000I283J-306D01*
G01Y7000D01*
X51000Y6000D01*
X38500D01*
X37500Y7000D01*
Y25000D01*
X39000Y26500D01*
X50500D01*
X52000Y25000D01*
Y13000D01*
G02X51300Y12700I-417J6D01*
G37*
G36*
G01X61000Y51000D02*
Y33500D01*
X49500D01*
X46500Y36500D01*
Y44500D01*
X41000Y50000D01*
X40300Y50700D01*
X36000Y55000D01*
Y55100D01*
Y55200D01*
Y62000D01*
X50000D01*
X50500Y61500D01*
Y55500D01*
X52000Y54000D01*
X57500D01*
X60000Y56500D01*
X60500Y57000D01*
Y60100D01*
X60600Y60200D01*
X64100Y63700D01*
X70000D01*
Y61300D01*
X66400D01*
X65800D01*
X65500D01*
X64600Y60400D01*
Y60200D01*
Y60100D01*
Y54600D01*
X64200Y54200D01*
X63500Y53500D01*
X61000Y51000D01*
G37*
G36*
G01X28500Y72800D02*
X49900D01*
X52300D01*
X54500Y70600D01*
Y68200D01*
X55200Y67500D01*
X59000D01*
Y64900D01*
X50100D01*
X49600Y65400D01*
X29700D01*
X29600Y65300D01*
X28500Y66400D01*
Y72800D01*
G37*
G36*
G01Y76800D02*
Y91000D01*
X30000Y92500D01*
X76000D01*
X77500Y91000D01*
Y75500D01*
X76500Y74500D01*
X70500D01*
X70000Y75000D01*
Y85000D01*
X69200Y85800D01*
Y85900D01*
X69100D01*
X69000Y86000D01*
X63000D01*
X61500Y84500D01*
Y81500D01*
X58000D01*
Y84500D01*
X57000Y85500D01*
X44000D01*
X41500Y83000D01*
Y76000D01*
X29300D01*
X28500Y76800D01*
G37*
G36*
G01X62000Y7000D02*
X61000Y6000D01*
X55000D01*
X53500Y7500D01*
Y27500D01*
X54500Y28500D01*
X63500D01*
X65000Y27000D01*
Y17000D01*
X62000Y14000D01*
Y12700D01*
G03X61900Y12100I3550J-900D01*
G01Y8900D01*
G03X62000Y8300I3650J300D01*
G01Y7000D01*
G37*
G36*
G01X77800Y59400D02*
Y66800D01*
X72300D01*
Y69700D01*
X63700D01*
Y66000D01*
X63100D01*
X63000Y65900D01*
G02X61300Y66600I-711J688D01*
G01Y67500D01*
X60500Y68300D01*
X59800Y69000D01*
X57500D01*
X56000Y70500D01*
X55800Y70700D01*
Y72000D01*
X53000Y74800D01*
X46000D01*
X43800Y77000D01*
Y82000D01*
X45000Y83200D01*
X55700D01*
Y79200D01*
X55800D01*
Y79100D01*
X62000D01*
Y73100D01*
X63600D01*
X63700Y72800D01*
G03X68100Y72200I2389J1084D01*
G02X69500I700J-688D01*
G01X70300D01*
Y72100D01*
X79000D01*
Y65600D01*
X82200D01*
Y59400D01*
X77800D01*
G37*
G36*
G01X80500Y94500D02*
X81500Y95500D01*
X110500D01*
X112500Y93500D01*
Y86000D01*
X112000Y85500D01*
X109500D01*
X107500Y87500D01*
X102000D01*
X100000Y85500D01*
X87500D01*
X85500Y87500D01*
X81500D01*
X80500Y88500D01*
Y94500D01*
G37*
G36*
G01X96600Y55000D02*
G02X96100Y55300I-122J363D01*
G01Y55700D01*
X90400Y61400D01*
Y66800D01*
X87200D01*
Y83200D01*
X101000D01*
X103000Y85200D01*
X106500D01*
X108500Y83200D01*
X110500D01*
G03X111600Y83000I1171J3317D01*
G02X112000Y82600I16J-384D01*
G01Y75800D01*
X109500D01*
X104700Y71000D01*
Y59500D01*
X100200Y55000D01*
X100100D01*
G03X96600I-1750J-5000D01*
G37*
G36*
G01X178400Y100500D02*
X149600D01*
X145400Y96300D01*
Y93700D01*
X141300D01*
Y95000D01*
X138500Y97800D01*
X127600D01*
G02X127200Y98300I-6J405D01*
G03X117500Y102400I-5032J1620D01*
G02X116700I-400J139D01*
G03X110200Y105000I-4727J-2391D01*
G01X110000Y104900D01*
X108400Y106600D01*
X104500D01*
G02X104100Y107000I0J400D01*
G03X102000Y109100I-2100J0D01*
G01X94500D01*
G02X94100Y109500I0J400D01*
G03X92000Y111600I-2100J0D01*
G01X90300D01*
Y115900D01*
X90400D01*
X93500Y119000D01*
G03X94100Y120200I-1500J1500D01*
G01Y120400D01*
X115600D01*
X120200Y125100D01*
X120400Y125000D01*
G03X127300Y131400I1790J4990D01*
G02X127700Y131900I390J98D01*
G01X131100D01*
X135300Y127700D01*
X145800D01*
Y123100D01*
X153500D01*
Y123000D01*
G03X158700I2600J100D01*
G01Y123100D01*
X160200D01*
Y132900D01*
X163000Y135700D01*
X220200D01*
G02X220400Y134900I100J-400D01*
G03X233300Y121600I3589J-9425D01*
G02X234100Y121500I396J-85D01*
G01Y83100D01*
G02X233400Y82800I-411J-8D01*
G01X232300Y84000D01*
Y100400D01*
X228800Y103900D01*
X224200D01*
X222500Y105600D01*
X215700D01*
X212400Y108900D01*
Y121500D01*
X206900Y127000D01*
X189200D01*
X185100Y122900D01*
Y107200D01*
X178400Y100500D01*
G37*
G36*
G01X127500Y59800D02*
G02X126900Y59900I-264J266D01*
G03X124800Y61900I-3850J-1940D01*
G03X124900Y63000I-3417J865D01*
G01Y68400D01*
G03X123700Y71100I-3504J59D01*
G01Y72600D01*
X120500Y75800D01*
X119100D01*
Y78700D01*
X128400D01*
X129000Y79300D01*
X130700D01*
Y77000D01*
G03X135300I2300J0D01*
G01Y79300D01*
X136900D01*
Y85500D01*
X141100D01*
Y79300D01*
X147600D01*
Y72000D01*
G02X147000Y71700I-377J3D01*
G03X142400Y70500I-2018J-1680D01*
G01Y70400D01*
X130100D01*
Y60900D01*
X128600D01*
X127500Y59800D01*
G37*
G36*
G01X135400Y3600D02*
Y8000D01*
X151300D01*
Y7100D01*
X152300Y6100D01*
Y3000D01*
X151400Y2100D01*
X136900D01*
X136200D01*
X135400Y2900D01*
Y3600D01*
G37*
G36*
G01X147000Y26400D02*
X151000D01*
G02X151200Y25700I-46J-392D01*
G01X150300Y24700D01*
X150200D01*
G03X148700Y24500I-354J-3071D01*
G03X146900Y24700I-1228J-2856D01*
G02X146500Y25200I-32J385D01*
G03X146600Y26000I-2018J658D01*
G02X147000Y26400I400J0D01*
G37*
G36*
G01X158100Y43800D02*
G03X161500Y41500I1938J-798D01*
G01X163900Y43900D01*
Y48500D01*
X161600Y50800D01*
X151900D01*
Y54500D01*
X158900D01*
Y62700D01*
X151900D01*
Y69600D01*
X155400D01*
Y69800D01*
X157700D01*
Y65500D01*
X160000Y63200D01*
X179000D01*
X180500Y61700D01*
X210500D01*
X215900Y67100D01*
X232600D01*
Y61600D01*
G03X233400Y52200I-4096J-5083D01*
G02X234100Y52000I311J-238D01*
G01Y16000D01*
G02X233300Y15900I-404J-15D01*
G03X219700Y2900I-9312J-3872D01*
G02X219500Y2100I-100J-400D01*
G01X199000D01*
X196200Y4900D01*
Y5000D01*
Y45800D01*
X178900D01*
Y34000D01*
X179100D01*
G02X179400Y33400I-4J-377D01*
G01X177400Y31400D01*
Y25000D01*
G03X180000Y23000I2069J0D01*
G02X180500Y22600I87J-404D01*
G01Y18800D01*
X178900D01*
Y9400D01*
G03X178600Y9000I1928J-1759D01*
G01X173600D01*
Y10100D01*
X168700D01*
Y12900D01*
X160100D01*
Y9400D01*
X156500D01*
Y9500D01*
G03X155700Y11000I-2558J-401D01*
G01X154900Y11900D01*
Y14900D01*
G03X155600Y17000I-2418J1973D01*
G01Y21600D01*
G03X155000Y23500I-3104J64D01*
G03X155500Y24300I-1498J1493D01*
G01Y24400D01*
X158500D01*
G03X160000Y28000I0J2113D01*
G03Y31000I-1500J1500D01*
G03Y34000I-1500J1500D01*
G03X158500Y37600I-1500J1487D01*
G01X155900D01*
X155400Y38100D01*
G03X155600Y39400I-2916J1114D01*
G01Y44000D01*
Y44200D01*
Y44400D01*
X157700D01*
G02X158100Y43800I32J-412D01*
G37*
G36*
G01X173500Y76500D02*
Y66500D01*
X172500Y65500D01*
X161000D01*
X160000Y66500D01*
Y76500D01*
X160500Y77000D01*
X173000D01*
X173500Y76500D01*
G37*
G36*
G01X179000Y66500D02*
Y94500D01*
X189500Y105000D01*
Y121000D01*
X191000Y122500D01*
X205000D01*
X208200Y119200D01*
Y107100D01*
X209900Y105400D01*
X213700Y101600D01*
X227800D01*
X230000Y99400D01*
Y83000D01*
X233200Y79800D01*
Y71400D01*
X231200Y69400D01*
X214900D01*
X212500Y67000D01*
X209500Y64000D01*
X181500D01*
X179000Y66500D01*
G37*
%LPC*%
G75*
G36*
G01X124900Y19600D02*
G02X111500I-6700J50D01*
G01Y25200D01*
G02X124900I6700J-50D01*
G01Y19600D01*
G37*
G36*
G01X85500D02*
G02X72100I-6700J50D01*
G01Y25200D01*
G02X85500I6700J-50D01*
G01Y19600D01*
G37*
G54D49*
X198250Y115250D03*
G54D44*
X41600Y10500D03*
X57400D03*
G54D45*
X166800Y115500D03*
G54D48*
X176150Y12950D03*
G54D47*
X176600Y39900D03*
G54D46*
X128050Y65700D03*
%LPD*%
G75*
G54D10*
X3400Y22200D03*
Y27200D03*
Y32200D03*
Y37200D03*
Y48800D03*
Y53800D03*
Y58800D03*
Y63800D03*
Y68800D03*
Y73800D03*
Y78800D03*
Y83800D03*
X3500Y96600D03*
Y101600D03*
Y106600D03*
Y111600D03*
Y116600D03*
X20000Y134300D03*
X34900Y3600D03*
X29900D03*
X24900D03*
X39300Y30000D03*
X39400Y36500D03*
Y44400D03*
X37700Y48400D03*
X34600Y51400D03*
X25400Y61600D03*
X31600Y56100D03*
X35000Y134300D03*
X30000D03*
X25000D03*
X64900Y3600D03*
X48800Y30000D03*
X64700Y49400D03*
X59200Y41200D03*
X53600Y62500D03*
X60600Y63400D03*
X62700Y67100D03*
X62600Y71000D03*
X57400Y71300D03*
X53700Y58800D03*
X56300Y76400D03*
X46800Y81700D03*
X46900Y77800D03*
X50000Y102000D03*
Y112000D03*
Y97000D03*
Y107000D03*
Y131500D03*
Y117000D03*
Y122000D03*
Y127000D03*
X84900Y3600D03*
X79900D03*
X74900D03*
X69900D03*
X65300Y41000D03*
Y36000D03*
X70300D03*
Y41000D03*
X86000Y40600D03*
X74300Y51800D03*
X73500Y69500D03*
X70000Y70900D03*
X79600Y61800D03*
X69100Y53600D03*
X66100Y73900D03*
X82000Y112000D03*
X72000Y114500D03*
X82000Y120500D03*
X104900Y3600D03*
X99900D03*
X94900D03*
X89900D03*
X101000Y40600D03*
X106000D03*
X96000D03*
X91000D03*
X100500Y80600D03*
X104500Y80500D03*
X101200Y75700D03*
X90800D03*
X96000Y80900D03*
X95000Y92000D03*
X99000D03*
X100800Y94000D03*
X96900D03*
X93000D03*
X102000Y107000D03*
X92000Y109500D03*
Y120500D03*
X109900Y3600D03*
X128200Y9200D03*
X124700Y38200D03*
X128700Y34500D03*
X114000Y44000D03*
X126500Y70600D03*
X116500Y70700D03*
X110900Y54500D03*
X108500Y80600D03*
X116500Y77000D03*
X128500Y104800D03*
X118500D03*
Y119800D03*
X128500D03*
X140000Y3100D03*
X139900Y5900D03*
X148000D03*
X148500Y26000D03*
X144500D03*
X139800D03*
X147000Y34500D03*
X134000Y47000D03*
X147300Y46800D03*
X144900Y49500D03*
X139800Y47000D03*
X137100Y49500D03*
X133000Y33000D03*
X137500Y70000D03*
X145000D03*
X144900Y55500D03*
X140000D03*
X139000Y80000D03*
X133000Y77000D03*
X138500Y104800D03*
X143000Y134700D03*
X131900Y128600D03*
X129100Y130800D03*
X138500Y119800D03*
X145500Y132000D03*
X143000Y129800D03*
X153900Y9200D03*
X160000Y13500D03*
X166900Y21200D03*
X158500Y29500D03*
X153500Y25000D03*
X158500Y26500D03*
X158100Y52400D03*
X158500Y35500D03*
Y32500D03*
X160000Y43000D03*
X159800Y46500D03*
X155000Y69500D03*
X162000Y66700D03*
Y70600D03*
X151000Y93500D03*
X169800Y74500D03*
X165900D03*
X162000D03*
X164300Y134200D03*
X156100Y123100D03*
X180800Y7600D03*
X192500Y7000D03*
X177900Y18100D03*
X187800Y24500D03*
X182600Y29000D03*
X179500Y25000D03*
X177900Y45100D03*
X174500Y39900D03*
X187800Y33000D03*
X179300Y134200D03*
X210100Y4300D03*
X205100D03*
X200100D03*
X194300Y134200D03*
X209300D03*
X232700Y28300D03*
Y23300D03*
Y48300D03*
Y43300D03*
Y38300D03*
Y33300D03*
X233000Y94900D03*
Y89900D03*
Y84900D03*
Y114900D03*
Y109900D03*
Y104900D03*
Y99900D03*
X216300Y113200D03*
X227800Y105800D03*
X224800Y108600D03*
X233000Y118800D03*
G54D20*
X38700Y80000D03*
X57200Y47000D03*
X51300Y80000D03*
X69800Y47000D03*
G54D11*
X9100Y43400D03*
Y90600D03*
G54D30*
X147400Y19300D03*
X144800D03*
X142300D03*
X139700D03*
X137200D03*
X134600D03*
X132000D03*
X129500D03*
Y41700D03*
X132000D03*
X134600D03*
X137200D03*
X139700D03*
X142300D03*
X144800D03*
X147400D03*
X152500Y19300D03*
X150000D03*
Y41700D03*
X152500D03*
G54D21*
X39900Y102000D03*
Y112000D03*
Y97000D03*
Y107000D03*
Y127000D03*
Y132000D03*
Y117000D03*
Y122000D03*
X59900Y83000D03*
Y77000D03*
X46100Y102000D03*
Y112000D03*
Y97000D03*
Y107000D03*
Y127000D03*
Y132000D03*
Y117000D03*
Y122000D03*
X83100Y69500D03*
X76900D03*
Y55500D03*
X83100D03*
X66100Y83000D03*
Y77000D03*
X110900Y58000D03*
X117100D03*
X149900Y132000D03*
Y127000D03*
X156100Y132000D03*
Y127000D03*
G54D12*
X17000Y53200D03*
Y63100D03*
Y70900D03*
Y80800D03*
G54D40*
G01Y53200D02*
Y49700D01*
G01Y53200D02*
X20500D01*
G01X41600Y10500D02*
Y7400D01*
G01Y10500D02*
Y13600D01*
G01Y10500D02*
X44700D01*
G01X41600D02*
X39500D01*
G01X49500D02*
Y7400D01*
G01X57400Y10500D02*
Y7400D01*
G01X46400Y10500D02*
X49500D01*
G01X44700D02*
X46400D01*
G01X49500D02*
Y13600D01*
G01X57400Y10500D02*
Y13600D01*
G01Y10500D02*
X60500D01*
G01X57400D02*
X55500D01*
G54D22*
X57500Y25500D03*
Y36500D03*
G54D31*
X137500Y73900D03*
X141000Y66100D03*
X134000D03*
X148000D03*
X151500Y73900D03*
X155000Y66100D03*
G54D13*
X9100Y58300D03*
Y75700D03*
X82000Y100000D03*
X71800D03*
X82000Y130000D03*
X71800D03*
X88700Y50000D03*
X98500D03*
X108300D03*
X102100Y100000D03*
X91900D03*
X102100Y130000D03*
X91900D03*
X122200Y100000D03*
X112000D03*
X122200Y130000D03*
X112000D03*
G54D41*
G01X166800Y115500D02*
X155900D01*
G01X166800D02*
Y111100D01*
G01Y115500D02*
Y119900D01*
G01Y115500D02*
X177700D01*
G01X228500Y56500D02*
Y49900D01*
G01Y56500D02*
Y63100D01*
G01Y56500D02*
X221900D01*
G54D23*
X57000Y58800D03*
Y62500D03*
Y66200D03*
X68000Y58800D03*
Y62500D03*
Y66200D03*
G54D32*
X166900Y25100D03*
Y52100D03*
X203500Y25100D03*
Y52100D03*
G54D14*
X41600Y10500D03*
X57400D03*
X49500D03*
G54D42*
G01X62700Y67100D02*
Y65500D01*
X60600Y63400D01*
G01X57000Y62500D02*
X59700D01*
X60600Y63400D01*
G01X57000Y62500D02*
X53600D01*
G01X57000Y58800D02*
X53700D01*
G01X76900Y69500D02*
X73500D01*
G01X83100Y55500D02*
X79400Y51800D01*
X74300D01*
G01X82800Y76000D02*
Y69800D01*
X83100Y69500D01*
G01X73600Y58800D02*
Y62400D01*
X73700Y62500D01*
G01X68000Y58800D02*
X73600D01*
G01D02*
X76900Y55500D01*
G01X66100Y77000D02*
Y83000D01*
G01Y77000D02*
Y73900D01*
G01X82800Y76000D02*
Y83400D01*
X82900Y83500D01*
G01X108500Y80600D02*
Y83000D01*
X107600Y83900D01*
X104500D01*
G01D02*
Y80500D01*
G01X96000Y75700D02*
X101200D01*
G01X96000D02*
X90800D01*
G01X96000D02*
Y80900D01*
G01X100500Y80600D02*
Y83000D01*
G01D02*
X101400Y83900D01*
X104500D01*
G01X126500Y65700D02*
Y70600D01*
G01X137000Y5900D02*
X139900D01*
G01X148000D02*
X145000D01*
G01X151000D02*
X148000D01*
G01X131500D02*
X128200Y9200D01*
G01X148500Y26000D02*
X144800Y22300D01*
Y19300D01*
G01X137500Y73900D02*
Y70000D01*
G01X134000Y52400D02*
Y53000D01*
X145000Y64000D01*
Y70000D01*
G01X139000Y83400D02*
Y80000D01*
G01X145000Y83400D02*
Y83500D01*
X148000Y86500D01*
Y95200D01*
X150700Y97900D01*
X179500D01*
X187700Y106100D01*
Y121800D01*
X190300Y124400D01*
X205800D01*
X209800Y120400D01*
Y107800D01*
X214600Y103000D01*
X221400D01*
X224800Y99600D01*
G01X153900Y9200D02*
Y8200D01*
X156600Y5500D01*
G01X169700Y6000D02*
X167400D01*
X164400Y9000D01*
G01X175000Y4700D02*
X174500Y5200D01*
X173600D01*
X173200Y5600D01*
X170100D01*
X169700Y6000D01*
G01X151000Y12100D02*
X153900Y9200D01*
G01X151000Y12100D02*
Y14500D01*
X150000Y15500D01*
Y19300D01*
G01X155000Y52400D02*
X158100D01*
G01X155000Y66100D02*
Y69500D01*
G01X151500Y73900D02*
X151000Y74400D01*
Y83400D01*
G01X168300Y87100D02*
X157700D01*
X154000Y83400D01*
X151000D01*
G01Y89600D02*
Y93500D01*
G01X156100Y132000D02*
Y127000D01*
G01D02*
Y123100D01*
G01X180800Y7600D02*
Y7400D01*
X183500Y4700D01*
X187600D01*
G01X177900Y12900D02*
Y18100D01*
G01Y12900D02*
X177500D01*
G01X177900Y39900D02*
Y45100D01*
G01Y39900D02*
X174500D01*
G01X216300Y109500D02*
Y113200D01*
G01X224800Y105800D02*
Y108600D01*
G01Y105800D02*
X227800D01*
G54D33*
X168300Y68900D03*
Y87100D03*
G54D15*
X33400Y10500D03*
X65600D03*
G54D24*
X78800Y22400D03*
X118200D03*
G54D43*
G01X4000Y0D02*
X232200D01*
G03X236200Y4000I0J4000D01*
G01Y133800D01*
G03X232200Y137800I-4000J0D01*
G01X4000D01*
G03X0Y133800I0J-4000D01*
G01Y4000D01*
G03X4000Y0I4000J0D01*
G01X18500Y12000D02*
G03I-6000J0D01*
G01Y125500D02*
G03I-6000J0D01*
G01X230500Y12000D02*
G03I-6000J0D01*
G01Y125500D02*
G03I-6000J0D01*
G01X39900Y102000D02*
X42400Y99500D01*
X51500D01*
X59000Y107000D01*
X102000D01*
G01X39900Y112000D02*
X42400Y109500D01*
X52000D01*
X54500Y112000D01*
X82000D01*
G01X39900Y97000D02*
X42400Y94500D01*
X52000D01*
X62000Y104500D01*
X107500D01*
X112000Y100000D01*
G01X39900Y107000D02*
X42400Y104500D01*
X51500D01*
X56500Y109500D01*
X92000D01*
G01X39900Y127000D02*
X40000D01*
X42500Y124500D01*
X52500D01*
X56500Y120500D01*
X82000D01*
G01X122200Y130000D02*
X114700Y122500D01*
X58000D01*
X51000Y129500D01*
X42400D01*
X39900Y132000D01*
G01X72000Y114500D02*
X42500D01*
X40000Y117000D01*
X39900D01*
G01X92000Y120500D02*
X89500Y118000D01*
X55000D01*
X53500Y119500D01*
X42500D01*
X40000Y122000D01*
X39900D01*
G01X46100Y102000D02*
X50000D01*
G01X46100Y112000D02*
X50000D01*
G01X46100Y97000D02*
X50000D01*
G01X46100Y107000D02*
X50000D01*
G01Y131500D02*
X46600D01*
X46100Y132000D01*
G01Y117000D02*
X50000D01*
G01X46100Y122000D02*
X50000D01*
G01X46100Y127000D02*
X50000D01*
G01X71800Y130000D02*
X75800Y134000D01*
X101500D01*
X103000Y135500D01*
X134000D01*
X137500Y132000D01*
X145500D01*
G01X129500Y41700D02*
X112500D01*
X110200Y44000D01*
X97000D01*
X94000Y47000D01*
Y54800D01*
X86300Y62500D01*
G01X143000Y129800D02*
X136200D01*
X132000Y134000D01*
X106100D01*
X102100Y130000D01*
G01X134000Y47000D02*
X128000D01*
X125000Y44000D01*
X114000D01*
G01X116600Y76900D02*
X116500Y77000D01*
G01X147400Y19300D02*
Y14500D01*
X145000Y12100D01*
G01X158500Y29500D02*
X155500D01*
X154500Y30500D01*
X138600D01*
X134600Y26500D01*
Y19300D01*
G01X132000D02*
Y28000D01*
X136500Y32500D01*
X158500D01*
G01X142300Y19300D02*
Y23800D01*
X144500Y26000D01*
G01X139700Y19300D02*
Y25900D01*
X139800Y26000D01*
G01X137200Y19300D02*
Y26800D01*
X138900Y28500D01*
X153500D01*
X155500Y26500D01*
X158500D01*
G01X137200Y19300D02*
Y12300D01*
X137000Y12100D01*
G01X131500D02*
X137000D01*
G01X129500Y19300D02*
Y29500D01*
X133000Y33000D01*
G01X158500Y35500D02*
X155000D01*
X154000Y36500D01*
X136000D01*
X134600Y37900D01*
Y41700D01*
G01X147000Y34500D02*
X134500D01*
X132000Y37000D01*
Y41700D01*
G01X147400D02*
Y46700D01*
X147300Y46800D01*
G01X144800Y41700D02*
Y49400D01*
X144900Y49500D01*
G01X142300Y41700D02*
Y53200D01*
X140000Y55500D01*
G01X139700Y41700D02*
Y46900D01*
X139800Y47000D01*
G01X137200Y41700D02*
Y49400D01*
X137100Y49500D01*
G01X148000Y66100D02*
Y58600D01*
G01X155000D02*
X148000D01*
G01X144900Y55500D02*
X148000Y52400D01*
G01X145500Y132000D02*
X149900D01*
G01X143000Y129800D02*
X147100D01*
X149900Y127000D01*
G01X153500Y25000D02*
X152500Y24000D01*
Y19300D01*
G01X150000Y41700D02*
Y46000D01*
X152700Y48700D01*
X160700D01*
X161800Y47600D01*
Y44800D01*
X160000Y43000D01*
G01X159800Y46500D02*
X153500D01*
X152500Y45500D01*
Y41700D01*
G01X187800Y12900D02*
Y24500D01*
G01X182600Y12900D02*
Y29000D01*
G01X179500Y25000D02*
Y30500D01*
X182600Y33600D01*
Y39900D01*
G01X187800D02*
Y33000D01*
G54D25*
X75100Y87000D03*
X82900Y90500D03*
Y83500D03*
X164400Y9000D03*
X156600Y5500D03*
Y12500D03*
G54D34*
X166800Y115500D03*
X198200D03*
G54D16*
X29000Y31000D03*
X31700Y88500D03*
X49500Y41000D03*
X88500Y92000D03*
X123000Y52000D03*
Y58000D03*
X207500Y103500D03*
G54D17*
X41800Y24000D03*
X29200D03*
X86300Y62500D03*
X73700D03*
X175000Y4700D03*
X187600D03*
G54D35*
X177900Y12900D03*
X182600D03*
X187800D03*
X192500D03*
X177900Y39900D03*
X182600D03*
X187800D03*
X192500D03*
G54D26*
X74200Y76000D03*
X82800D03*
G54D18*
X30400Y68600D03*
Y81200D03*
G54D27*
X104500Y90100D03*
Y83900D03*
X137000Y5900D03*
X145000D03*
X131500D03*
X137000Y12100D03*
X145000D03*
X131500D03*
X134000Y52400D03*
X148000D03*
X134000Y58600D03*
X148000D03*
X145000Y83400D03*
Y89600D03*
X139000D03*
Y83400D03*
X133000Y89600D03*
Y83400D03*
X169700Y6000D03*
X151000Y5900D03*
X169700Y12200D03*
X151000Y12100D03*
X155000Y52400D03*
Y58600D03*
X151000Y89600D03*
Y83400D03*
X224800Y99600D03*
Y105800D03*
G54D36*
X192700Y78000D03*
G54D28*
X96000Y75700D03*
Y88300D03*
X216300Y109500D03*
Y96900D03*
G54D37*
X228500Y76500D03*
Y56500D03*
G54D19*
X43000Y68600D03*
Y58400D03*
G54D38*
G01X98500Y50000D02*
X107000Y58500D01*
Y70000D01*
X110500Y73500D01*
X119500D01*
X121400Y71600D01*
Y65700D01*
G01X108300Y50000D02*
X121000D01*
X123000Y52000D01*
G01D02*
X129600Y58600D01*
X134000D01*
G01X117100Y58000D02*
X123000D01*
G01X116600Y65700D02*
Y58500D01*
X117100Y58000D01*
G01X116600Y65700D02*
Y70800D01*
X116500Y70700D01*
G01X111500Y65700D02*
Y58600D01*
X110900Y58000D01*
G01D02*
Y54500D01*
G01X133000Y83400D02*
X129800D01*
X127400Y81000D01*
X120000D01*
X116600Y84400D01*
Y89300D01*
G01X126500D02*
Y94400D01*
G01D02*
X125400Y95500D01*
X116700D01*
X114300Y93100D01*
Y79200D01*
X116500Y77000D01*
G01X133000Y89600D02*
X126400Y83000D01*
X123000D01*
X121400Y84600D01*
Y89300D01*
G01X126500Y94400D02*
X127600Y95500D01*
X137500D01*
X139000Y94000D01*
Y89600D01*
G01X134000Y66100D02*
X141000D01*
G01X134000Y58600D02*
Y66100D01*
G01X133000Y83400D02*
Y77000D01*
G54D29*
X126500Y65700D03*
X121400D03*
X116600D03*
X111500D03*
X126500Y89300D03*
X121400D03*
X116600D03*
X111500D03*
G54D39*
G01X9100Y37700D02*
Y43400D01*
G01D02*
Y49100D01*
G01Y43400D02*
X17700D01*
G01X17000Y76300D02*
Y80800D01*
G01D02*
Y85300D01*
G01X12500Y80800D02*
X17000D01*
G01D02*
X21500D01*
G01X9100Y84900D02*
Y90600D01*
G01D02*
Y96300D01*
G01Y90600D02*
X17700D01*
G01X84000Y50000D02*
X88700D01*
G01Y45300D02*
Y50000D01*
G01X145000Y89600D02*
X139000D01*
G01X192500Y7000D02*
Y12900D01*
G01D02*
Y39900D01*
G01X198200Y115500D02*
Y121300D01*
G01Y108300D02*
Y115500D01*
M02*
