M48
INCH
T01C.012
T02C.031
T03C.035
T04C.039
T05C.059
T06C.059
;LEADER: 12 
;HEADER: 
;CODE  : ASCII 
;FILE  : Vpwr_v1_2-1-2.drl for  ... layers TOP and BOTTOM
;DESIGN: Vpwr_v1_2.brd
;T01 Holesize 1. = 12.000000 Tolerance = +0.000000/-0.000000 PLATED MILS Quantity = 183
;T02 Holesize 2. = 31.000000 Tolerance = +0.000000/-0.000000 PLATED MILS Quantity = 3
;T03 Holesize 3. = 35.000000 Tolerance = +0.000000/-0.000000 PLATED MILS Quantity = 4
;T04 Holesize 4. = 39.000000 Tolerance = +0.000000/-0.000000 PLATED MILS Quantity = 15
;T05 Holesize 5. = 59.000000 Tolerance = +0.000000/-0.000000 PLATED MILS Quantity = 2
;T06 Holesize 6. = 59.000000 Tolerance = +0.000000/-0.000000 NON_PLATED MILS Quantity = 2
%
G90
T01
X0159800Y0046500
X0143000Y0129800
X0133000Y0033000
X0160000Y0043000
X0145500Y0132000
X0153900Y0009200
X0128200
X0192500Y0007000
X0158500Y0026500
X0179500Y0025000
X0137100Y0049500
X0050000Y0107000
X0139800Y0026000
X0050000Y0127000
X0139800Y0047000
X0050000Y0097000
X0140000Y0055500
X0050000Y0122000
X0144900Y0049500
X0050000Y0117000
X0147300Y0046800
X0050000Y0112000
X0153500Y0025000
X0114000Y0044000
X0050000Y0102000
X0134000Y0047000
X0144500Y0026000
X0050000Y0131500
X0144900Y0055500
X0110900Y0054500
X0116500Y0077000
Y0070700
X0145000Y0070000
X0162000Y0074500
R02X0003900
X0162000Y0070600
Y0066700
X0093000Y0094000
R02X0003900
X0099000Y0092000
X0095000
X0151000Y0093500
X0092000Y0109500
Y0120500
X0072000Y0114500
X0082000Y0112000
X0102000Y0107000
X0082000Y0120500
X0147000Y0034500
X0133000Y0077000
X0158500Y0032500
X0182600Y0029000
X0158500Y0029500
X0187800Y0024500
X0053700Y0058800
X0066100Y0073900
X0158500Y0035500
X0187800Y0033000
X0156100Y0123100
X0059200Y0041200
X0074300Y0051800
X0180800Y0007600
X0024900Y0003600
R02X0005000
X0064900
R09X0005000
X0064700Y0049400
X0086000Y0040600
X0070300Y0041000
Y0036000
X0065300
Y0041000
X0091000Y0040600
X0096000
X0106000
X0101000
X0128700Y0034500
X0124700Y0038200
X0069100Y0053600
X0148000Y0005900
X0139900
X0140000Y0003100
X0148500Y0026000
X0155000Y0069500
X0174500Y0039900
X0177900Y0045100
X0158100Y0052400
X0166900Y0021200
X0160000Y0013500
X0200100Y0004300
R02X0005000
X0177900Y0018100
X0139000Y0080000
X0137500Y0070000
X0126500Y0070600
X0096000Y0080900
X0090800Y0075700
X0101200
X0104500Y0080500
X0108500Y0080600
X0100500
X0224800Y0108600
X0227800Y0105800
X0216300Y0113200
X0164300Y0134200
X0179300
X0209300
X0194300
X0046900Y0077800
X0046800Y0081700
X0079600Y0061800
X0070000Y0070900
X0057400Y0071300
X0056300Y0076400
X0062600Y0071000
X0062700Y0067100
X0073500Y0069500
X0060600Y0063400
X0053600Y0062500
X0138500Y0104800
Y0119800
X0128500
X0118500
Y0104800
X0128500
X0129100Y0130800
X0131900Y0128600
X0232700Y0023300
R05Y0005000
X0233000Y0084900
R06Y0005000
Y0118800
X0020000Y0134300
R03X0005000
X0003500Y0116600
R04Y-0005000
X0003400Y0083800
R07Y-0005000
Y0037200
R03Y-0005000
X0034600Y0051400
X0037700Y0048400
X0031600Y0056100
X0025400Y0061600
X0039400Y0044400
Y0036500
X0039300Y0030000
X0048800
X0143000Y0134700
T02
X0041600Y0010500
R02X0007900
T03
X0017000Y0053200
Y0063100
Y0070900
Y0080800
T04
X0071800Y0100000
X0082000
X0091900
X0102100
X0112000
X0122200
Y0130000
X0112000
X0102100
X0091900
X0082000
X0071800
X0108300Y0050000
R02X-0009800
T05
X0228500Y0056500
Y0076500
T06
X0009100Y0058300
Y0075700
M30
