  0
SECTION
  2
HEADER
  9
$ACADVER
  1
AC1009
  9
$INSBASE
 10
0.000000
 20
0.000000
  9
$LIMMIN
 10
-167.894000
 20
-198.120000
  9
$LIMMAX
 10
365.506000
 20
233.680000
  9
$EXTMIN
 10
-167.894000
 20
-198.120000
  9
$EXTMAX
 10
365.506000
 20
233.680000
  9
$ATTMODE
 70
0
  9
$LUNITS
 70
2
  9
$LUPREC
 70
2
  9
$THICKNESS
 40
0.264160
  0
ENDSEC
  0
SECTION
  2
TABLES
  0
TABLE
  2
LTYPE
 70
1
  0
LTYPE
  3
Solid Line
  2
CONTINUOUS
 70
0
 72
65
 73
0
 40
0.000000
  0
ENDTAB
  0
TABLE
  2
LAYER
 70
5
  0
LAYER
  2
BG_SILKSCREEN_TOP
 70
0
 62
7
  6
CONTINUOUS
  0
LAYER
  2
BG_OUTLINE
 70
0
 62
6
  6
CONTINUOUS
  0
LAYER
  2
PG_SILKSCREEN_TOP
 70
0
 62
7
  6
CONTINUOUS
  0
LAYER
  2
PIN_TOP
 70
0
 62
12
  6
CONTINUOUS
  0
LAYER
  2
RD_SILKSCREEN_TOP
 70
0
 62
7
  6
CONTINUOUS
  0
ENDTAB
  0
TABLE
  2
STYLE
 70
1
  0
STYLE
  2
STANDARD
 70
0
 40
0.000000
 41
1.000000
 50
0.000000
 71
0
 42
0.200000
  3
txt
  0
ENDTAB
  0
ENDSEC
  0
SECTION
  2
BLOCKS
  0
BLOCK
  8
0
  2
FIGURE_CIRCLE
 70
0
 10
0.000000
 20
0.000000
  0
CIRCLE
  8
0
 10
0.000000
 20
0.000000
 40
0.500000
  0
ENDBLK
  0
BLOCK
  8
0
  2
FIGURE_SQUARE
 70
0
 10
0.000000
 20
0.000000
  0
POLYLINE
  8
0
 66
1
 70
1
 40
0.000000
 41
0.000000
 39
0.000000
  0
VERTEX
  8
0
 10
-0.500000
 20
-0.500000
 40
0.000000
 41
0.000000
 42
0.000000
  0
VERTEX
  8
0
 10
-0.500000
 20
0.500000
 40
0.000000
 41
0.000000
 42
0.000000
  0
VERTEX
  8
0
 10
0.500000
 20
0.500000
 40
0.000000
 41
0.000000
 42
0.000000
  0
VERTEX
  8
0
 10
0.500000
 20
-0.500000
 40
0.000000
 41
0.000000
 42
0.000000
  0
SEQEND
  0
ENDBLK
  0
BLOCK
  8
0
  2
FIGURE_HEX
 70
0
 10
0.000000
 20
0.000000
  0
POLYLINE
  8
0
 66
1
 70
1
 40
0.000000
 41
0.000000
 39
0.000000
  0
VERTEX
  8
0
 10
-0.500000
 20
0.000000
 40
0.000000
 41
0.000000
 42
0.000000
  0
VERTEX
  8
0
 10
-0.250000
 20
0.500000
 40
0.000000
 41
0.000000
 42
0.000000
  0
VERTEX
  8
0
 10
0.250000
 20
0.500000
 40
0.000000
 41
0.000000
 42
0.000000
  0
VERTEX
  8
0
 10
0.500000
 20
0.000000
 40
0.000000
 41
0.000000
 42
0.000000
  0
VERTEX
  8
0
 10
0.250000
 20
-0.500000
 40
0.000000
 41
0.000000
 42
0.000000
  0
VERTEX
  8
0
 10
-0.250000
 20
-0.500000
 40
0.000000
 41
0.000000
 42
0.000000
  0
SEQEND
  0
ENDBLK
  0
BLOCK
  8
0
  2
FIGURE_OCT
 70
0
 10
0.000000
 20
0.000000
  0
POLYLINE
  8
0
 66
1
 70
1
 40
0.000000
 41
0.000000
 39
0.000000
  0
VERTEX
  8
0
 10
-0.500000
 20
-0.207100
 40
0.000000
 41
0.000000
 42
0.000000
  0
VERTEX
  8
0
 10
-0.500000
 20
0.207100
 40
0.000000
 41
0.000000
 42
0.000000
  0
VERTEX
  8
0
 10
-0.207100
 20
0.500000
 40
0.000000
 41
0.000000
 42
0.000000
  0
VERTEX
  8
0
 10
0.207100
 20
0.500000
 40
0.000000
 41
0.000000
 42
0.000000
  0
VERTEX
  8
0
 10
0.500000
 20
0.207100
 40
0.000000
 41
0.000000
 42
0.000000
  0
VERTEX
  8
0
 10
0.500000
 20
-0.207100
 40
0.000000
 41
0.000000
 42
0.000000
  0
VERTEX
  8
0
 10
0.207100
 20
-0.500000
 40
0.000000
 41
0.000000
 42
0.000000
  0
VERTEX
  8
0
 10
-0.207100
 20
-0.500000
 40
0.000000
 41
0.000000
 42
0.000000
  0
SEQEND
  0
ENDBLK
  0
BLOCK
  8
0
  2
FIGURE_OBLONG
 70
0
 10
0.000000
 20
0.000000
  0
POLYLINE
  8
0
 66
1
 70
1
 40
0.000000
 41
0.000000
 39
0.000000
  0
VERTEX
  8
0
 10
-0.500000
 20
-0.125000
 40
0.000000
 41
0.000000
 42
0.000000
  0
VERTEX
  8
0
 10
-0.500000
 20
0.125000
 40
0.000000
 41
0.000000
 42
0.000000
  0
VERTEX
  8
0
 10
-0.416000
 20
0.375000
 40
0.000000
 41
0.000000
 42
0.000000
  0
VERTEX
  8
0
 10
-0.250000
 20
0.500000
 40
0.000000
 41
0.000000
 42
0.000000
  0
VERTEX
  8
0
 10
0.250000
 20
0.500000
 40
0.000000
 41
0.000000
 42
0.000000
  0
VERTEX
  8
0
 10
0.416000
 20
0.375000
 40
0.000000
 41
0.000000
 42
0.000000
  0
VERTEX
  8
0
 10
0.500000
 20
0.125000
 40
0.000000
 41
0.000000
 42
0.000000
  0
VERTEX
  8
0
 10
0.500000
 20
-0.125000
 40
0.000000
 41
0.000000
 42
0.000000
  0
VERTEX
  8
0
 10
0.416000
 20
-0.375000
 40
0.000000
 41
0.000000
 42
0.000000
  0
VERTEX
  8
0
 10
0.250000
 20
-0.500000
 40
0.000000
 41
0.000000
 42
0.000000
  0
VERTEX
  8
0
 10
-0.250000
 20
-0.500000
 40
0.000000
 41
0.000000
 42
0.000000
  0
VERTEX
  8
0
 10
-0.416000
 20
-0.375000
 40
0.000000
 41
0.000000
 42
0.000000
  0
SEQEND
  0
ENDBLK
  0
BLOCK
  8
0
  2
FIGURE_TRI
 70
0
 10
0.000000
 20
0.000000
  0
POLYLINE
  8
0
 66
1
 70
1
 40
0.000000
 41
0.000000
 39
0.000000
  0
VERTEX
  8
0
 10
-0.500000
 20
-0.500000
 40
0.000000
 41
0.000000
 42
0.000000
  0
VERTEX
  8
0
 10
0.000000
 20
0.500000
 40
0.000000
 41
0.000000
 42
0.000000
  0
VERTEX
  8
0
 10
0.500000
 20
-0.500000
 40
0.000000
 41
0.000000
 42
0.000000
  0
SEQEND
  0
ENDBLK
  0
BLOCK
  8
0
  2
FIGURE_CROSS
 70
0
 10
0.000000
 20
0.000000
  0
POLYLINE
  8
0
 66
1
 70
0
 40
0.000000
 41
0.000000
 39
0.000000
  0
VERTEX
  8
0
 10
-0.500000
 20
0.000000
 40
0.000000
 41
0.000000
 42
0.000000
  0
VERTEX
  8
0
 10
0.500000
 20
0.000000
 40
0.000000
 41
0.000000
 42
0.000000
  0
SEQEND
  0
POLYLINE
  8
0
 66
1
 70
0
 40
0.000000
 41
0.000000
 39
0.000000
  0
VERTEX
  8
0
 10
0.000000
 20
0.500000
 40
0.000000
 41
0.000000
 42
0.000000
  0
VERTEX
  8
0
 10
0.000000
 20
-0.500000
 40
0.000000
 41
0.000000
 42
0.000000
  0
SEQEND
  0
ENDBLK
  0
BLOCK
  8
0
  2
FIGURE_DIAMOND
 70
0
 10
0.000000
 20
0.000000
  0
POLYLINE
  8
0
 66
1
 70
1
 40
0.000000
 41
0.000000
 39
0.000000
  0
VERTEX
  8
0
 10
-0.500000
 20
0.000000
 40
0.000000
 41
0.000000
 42
0.000000
  0
VERTEX
  8
0
 10
0.000000
 20
0.500000
 40
0.000000
 41
0.000000
 42
0.000000
  0
VERTEX
  8
0
 10
0.500000
 20
0.000000
 40
0.000000
 41
0.000000
 42
0.000000
  0
VERTEX
  8
0
 10
0.000000
 20
-0.500000
 40
0.000000
 41
0.000000
 42
0.000000
  0
SEQEND
  0
ENDBLK
  0
ENDSEC
  0
SECTION
  2
ENTITIES
  0
POLYLINE
  8
PIN_TOP
 66
1
 70
1
 40
0.000000
 41
0.000000
 39
0.000000
  0
VERTEX
  8
PIN_TOP
 10
14.973300
 20
16.510000
 40
0.000000
 41
0.000000
 42
0.000000
  0
VERTEX
  8
PIN_TOP
 10
13.982700
 20
16.510000
 40
0.000000
 41
0.000000
 42
0.000000
  0
VERTEX
  8
PIN_TOP
 10
13.982700
 20
17.119600
 40
0.000000
 41
0.000000
 42
0.000000
  0
VERTEX
  8
PIN_TOP
 10
14.973300
 20
17.119600
 40
0.000000
 41
0.000000
 42
0.000000
  0
SEQEND
  0
POLYLINE
  8
PIN_TOP
 66
1
 70
1
 40
0.000000
 41
0.000000
 39
0.000000
  0
VERTEX
  8
PIN_TOP
 10
17.767300
 20
16.510000
 40
0.000000
 41
0.000000
 42
0.000000
  0
VERTEX
  8
PIN_TOP
 10
16.776700
 20
16.510000
 40
0.000000
 41
0.000000
 42
0.000000
  0
VERTEX
  8
PIN_TOP
 10
16.776700
 20
17.119600
 40
0.000000
 41
0.000000
 42
0.000000
  0
VERTEX
  8
PIN_TOP
 10
17.767300
 20
17.119600
 40
0.000000
 41
0.000000
 42
0.000000
  0
SEQEND
  0
POLYLINE
  8
PIN_TOP
 66
1
 70
1
 40
0.000000
 41
0.000000
 39
0.000000
  0
VERTEX
  8
PIN_TOP
 10
14.973300
 20
15.570200
 40
0.000000
 41
0.000000
 42
0.000000
  0
VERTEX
  8
PIN_TOP
 10
13.982700
 20
15.570200
 40
0.000000
 41
0.000000
 42
0.000000
  0
VERTEX
  8
PIN_TOP
 10
13.982700
 20
16.179800
 40
0.000000
 41
0.000000
 42
0.000000
  0
VERTEX
  8
PIN_TOP
 10
14.973300
 20
16.179800
 40
0.000000
 41
0.000000
 42
0.000000
  0
SEQEND
  0
POLYLINE
  8
PIN_TOP
 66
1
 70
1
 40
0.000000
 41
0.000000
 39
0.000000
  0
VERTEX
  8
PIN_TOP
 10
17.767300
 20
15.570200
 40
0.000000
 41
0.000000
 42
0.000000
  0
VERTEX
  8
PIN_TOP
 10
16.776700
 20
15.570200
 40
0.000000
 41
0.000000
 42
0.000000
  0
VERTEX
  8
PIN_TOP
 10
16.776700
 20
16.179800
 40
0.000000
 41
0.000000
 42
0.000000
  0
VERTEX
  8
PIN_TOP
 10
17.767300
 20
16.179800
 40
0.000000
 41
0.000000
 42
0.000000
  0
SEQEND
  0
POLYLINE
  8
PIN_TOP
 66
1
 70
1
 40
0.000000
 41
0.000000
 39
0.000000
  0
VERTEX
  8
PIN_TOP
 10
14.973300
 20
14.630400
 40
0.000000
 41
0.000000
 42
0.000000
  0
VERTEX
  8
PIN_TOP
 10
13.982700
 20
14.630400
 40
0.000000
 41
0.000000
 42
0.000000
  0
VERTEX
  8
PIN_TOP
 10
13.982700
 20
15.240000
 40
0.000000
 41
0.000000
 42
0.000000
  0
VERTEX
  8
PIN_TOP
 10
14.973300
 20
15.240000
 40
0.000000
 41
0.000000
 42
0.000000
  0
SEQEND
  0
POLYLINE
  8
PIN_TOP
 66
1
 70
1
 40
0.000000
 41
0.000000
 39
0.000000
  0
VERTEX
  8
PIN_TOP
 10
17.767300
 20
14.630400
 40
0.000000
 41
0.000000
 42
0.000000
  0
VERTEX
  8
PIN_TOP
 10
16.776700
 20
14.630400
 40
0.000000
 41
0.000000
 42
0.000000
  0
VERTEX
  8
PIN_TOP
 10
16.776700
 20
15.240000
 40
0.000000
 41
0.000000
 42
0.000000
  0
VERTEX
  8
PIN_TOP
 10
17.767300
 20
15.240000
 40
0.000000
 41
0.000000
 42
0.000000
  0
SEQEND
  0
POLYLINE
  8
PG_SILKSCREEN_TOP
 66
1
 70
0
 40
0.000000
 41
0.000000
 39
0.000000
  0
VERTEX
  8
PG_SILKSCREEN_TOP
 10
15.163800
 20
17.424400
 40
0.127000
 41
0.127000
 42
0.000000
  0
VERTEX
  8
PG_SILKSCREEN_TOP
 10
16.586200
 20
17.424400
 40
0.127000
 41
0.127000
 42
0.000000
  0
VERTEX
  8
PG_SILKSCREEN_TOP
 10
16.586200
 20
14.325600
 40
0.127000
 41
0.127000
 42
0.000000
  0
VERTEX
  8
PG_SILKSCREEN_TOP
 10
15.163800
 20
14.325600
 40
0.127000
 41
0.127000
 42
0.000000
  0
VERTEX
  8
PG_SILKSCREEN_TOP
 10
15.163800
 20
17.424400
 40
0.127000
 41
0.127000
 42
0.000000
  0
SEQEND
  0
POLYLINE
  8
PG_SILKSCREEN_TOP
 66
1
 70
0
 40
0.000000
 41
0.000000
 39
0.000000
  0
VERTEX
  8
PG_SILKSCREEN_TOP
 10
13.614400
 20
16.891000
 40
0.127000
 41
0.127000
 42
1.000000
  0
VERTEX
  8
PG_SILKSCREEN_TOP
 10
13.055600
 20
16.891000
 40
0.127000
 41
0.127000
 42
1.000000
  0
VERTEX
  8
PG_SILKSCREEN_TOP
 10
13.614400
 20
16.891000
 40
0.127000
 41
0.127000
 42
0.000000
  0
SEQEND
  0
TEXT
  8
RD_SILKSCREEN_TOP
 10
14.325600
 20
17.805400
 11
0.000000
 21
0.000000
 40
0.635000
 41
1.000000
 50
0.000000
  7
STANDARD
 71
0
 72
0
  1
U3
 73
0
  0
CIRCLE
  8
PIN_TOP
 10
58.039000
 20
14.351000
 40
1.244600
  0
CIRCLE
  8
PIN_TOP
 10
58.039000
 20
19.431000
 40
1.244600
  0
POLYLINE
  8
PG_SILKSCREEN_TOP
 66
1
 70
0
 40
0.000000
 41
0.000000
 39
0.000000
  0
VERTEX
  8
PG_SILKSCREEN_TOP
 10
54.102000
 20
11.557000
 40
0.203200
 41
0.203200
 42
0.000000
  0
VERTEX
  8
PG_SILKSCREEN_TOP
 10
54.102000
 20
22.225000
 40
0.203200
 41
0.203200
 42
0.000000
  0
VERTEX
  8
PG_SILKSCREEN_TOP
 10
63.627000
 20
22.225000
 40
0.203200
 41
0.203200
 42
0.000000
  0
VERTEX
  8
PG_SILKSCREEN_TOP
 10
63.627000
 20
11.557000
 40
0.203200
 41
0.203200
 42
0.000000
  0
VERTEX
  8
PG_SILKSCREEN_TOP
 10
54.102000
 20
11.557000
 40
0.203200
 41
0.203200
 42
0.000000
  0
SEQEND
  0
POLYLINE
  8
PG_SILKSCREEN_TOP
 66
1
 70
0
 40
0.000000
 41
0.000000
 39
0.000000
  0
VERTEX
  8
PG_SILKSCREEN_TOP
 10
56.134000
 20
11.557000
 40
0.203200
 41
0.203200
 42
0.000000
  0
VERTEX
  8
PG_SILKSCREEN_TOP
 10
56.134000
 20
22.225000
 40
0.203200
 41
0.203200
 42
0.000000
  0
SEQEND
  0
TEXT
  8
RD_SILKSCREEN_TOP
 10
55.448200
 20
10.287000
 11
0.000000
 21
0.000000
 40
0.762000
 41
1.000000
 50
0.000000
  7
STANDARD
 71
0
 72
0
  1
J3
 73
0
  0
POLYLINE
  8
PIN_TOP
 66
1
 70
1
 40
0.000000
 41
0.000000
 39
0.000000
  0
VERTEX
  8
PIN_TOP
 10
33.096200
 20
5.499100
 40
0.000000
 41
0.000000
 42
0.000000
  0
VERTEX
  8
PIN_TOP
 10
33.096200
 20
4.305300
 40
0.000000
 41
0.000000
 42
-1.000000
  0
VERTEX
  8
PIN_TOP
 10
32.689800
 20
4.305300
 40
0.000000
 41
0.000000
 42
0.000000
  0
VERTEX
  8
PIN_TOP
 10
32.689800
 20
5.499100
 40
0.000000
 41
0.000000
 42
-1.000000
  0
SEQEND
  0
POLYLINE
  8
PIN_TOP
 66
1
 70
1
 40
0.000000
 41
0.000000
 39
0.000000
  0
VERTEX
  8
PIN_TOP
 10
33.731200
 20
5.499100
 40
0.000000
 41
0.000000
 42
0.000000
  0
VERTEX
  8
PIN_TOP
 10
33.731200
 20
4.305300
 40
0.000000
 41
0.000000
 42
-1.000000
  0
VERTEX
  8
PIN_TOP
 10
33.324800
 20
4.305300
 40
0.000000
 41
0.000000
 42
0.000000
  0
VERTEX
  8
PIN_TOP
 10
33.324800
 20
5.499100
 40
0.000000
 41
0.000000
 42
-1.000000
  0
SEQEND
  0
POLYLINE
  8
PIN_TOP
 66
1
 70
1
 40
0.000000
 41
0.000000
 39
0.000000
  0
VERTEX
  8
PIN_TOP
 10
34.391600
 20
5.499100
 40
0.000000
 41
0.000000
 42
0.000000
  0
VERTEX
  8
PIN_TOP
 10
34.391600
 20
4.305300
 40
0.000000
 41
0.000000
 42
-1.000000
  0
VERTEX
  8
PIN_TOP
 10
33.985200
 20
4.305300
 40
0.000000
 41
0.000000
 42
0.000000
  0
VERTEX
  8
PIN_TOP
 10
33.985200
 20
5.499100
 40
0.000000
 41
0.000000
 42
-1.000000
  0
SEQEND
  0
POLYLINE
  8
PIN_TOP
 66
1
 70
1
 40
0.000000
 41
0.000000
 39
0.000000
  0
VERTEX
  8
PIN_TOP
 10
35.052000
 20
5.499100
 40
0.000000
 41
0.000000
 42
0.000000
  0
VERTEX
  8
PIN_TOP
 10
35.052000
 20
4.305300
 40
0.000000
 41
0.000000
 42
-1.000000
  0
VERTEX
  8
PIN_TOP
 10
34.645600
 20
4.305300
 40
0.000000
 41
0.000000
 42
0.000000
  0
VERTEX
  8
PIN_TOP
 10
34.645600
 20
5.499100
 40
0.000000
 41
0.000000
 42
-1.000000
  0
SEQEND
  0
POLYLINE
  8
PIN_TOP
 66
1
 70
1
 40
0.000000
 41
0.000000
 39
0.000000
  0
VERTEX
  8
PIN_TOP
 10
35.687000
 20
5.499100
 40
0.000000
 41
0.000000
 42
0.000000
  0
VERTEX
  8
PIN_TOP
 10
35.687000
 20
4.305300
 40
0.000000
 41
0.000000
 42
-1.000000
  0
VERTEX
  8
PIN_TOP
 10
35.280600
 20
4.305300
 40
0.000000
 41
0.000000
 42
0.000000
  0
VERTEX
  8
PIN_TOP
 10
35.280600
 20
5.499100
 40
0.000000
 41
0.000000
 42
-1.000000
  0
SEQEND
  0
POLYLINE
  8
PIN_TOP
 66
1
 70
1
 40
0.000000
 41
0.000000
 39
0.000000
  0
VERTEX
  8
PIN_TOP
 10
36.347400
 20
5.499100
 40
0.000000
 41
0.000000
 42
0.000000
  0
VERTEX
  8
PIN_TOP
 10
36.347400
 20
4.305300
 40
0.000000
 41
0.000000
 42
-1.000000
  0
VERTEX
  8
PIN_TOP
 10
35.941000
 20
4.305300
 40
0.000000
 41
0.000000
 42
0.000000
  0
VERTEX
  8
PIN_TOP
 10
35.941000
 20
5.499100
 40
0.000000
 41
0.000000
 42
-1.000000
  0
SEQEND
  0
POLYLINE
  8
PIN_TOP
 66
1
 70
1
 40
0.000000
 41
0.000000
 39
0.000000
  0
VERTEX
  8
PIN_TOP
 10
36.982400
 20
5.499100
 40
0.000000
 41
0.000000
 42
0.000000
  0
VERTEX
  8
PIN_TOP
 10
36.982400
 20
4.305300
 40
0.000000
 41
0.000000
 42
-1.000000
  0
VERTEX
  8
PIN_TOP
 10
36.576000
 20
4.305300
 40
0.000000
 41
0.000000
 42
0.000000
  0
VERTEX
  8
PIN_TOP
 10
36.576000
 20
5.499100
 40
0.000000
 41
0.000000
 42
-1.000000
  0
SEQEND
  0
POLYLINE
  8
PIN_TOP
 66
1
 70
1
 40
0.000000
 41
0.000000
 39
0.000000
  0
VERTEX
  8
PIN_TOP
 10
37.642800
 20
5.499100
 40
0.000000
 41
0.000000
 42
0.000000
  0
VERTEX
  8
PIN_TOP
 10
37.642800
 20
4.305300
 40
0.000000
 41
0.000000
 42
-1.000000
  0
VERTEX
  8
PIN_TOP
 10
37.236400
 20
4.305300
 40
0.000000
 41
0.000000
 42
0.000000
  0
VERTEX
  8
PIN_TOP
 10
37.236400
 20
5.499100
 40
0.000000
 41
0.000000
 42
-1.000000
  0
SEQEND
  0
POLYLINE
  8
PIN_TOP
 66
1
 70
1
 40
0.000000
 41
0.000000
 39
0.000000
  0
VERTEX
  8
PIN_TOP
 10
38.303200
 20
5.499100
 40
0.000000
 41
0.000000
 42
0.000000
  0
VERTEX
  8
PIN_TOP
 10
38.303200
 20
4.305300
 40
0.000000
 41
0.000000
 42
-1.000000
  0
VERTEX
  8
PIN_TOP
 10
37.896800
 20
4.305300
 40
0.000000
 41
0.000000
 42
0.000000
  0
VERTEX
  8
PIN_TOP
 10
37.896800
 20
5.499100
 40
0.000000
 41
0.000000
 42
-1.000000
  0
SEQEND
  0
POLYLINE
  8
PIN_TOP
 66
1
 70
1
 40
0.000000
 41
0.000000
 39
0.000000
  0
VERTEX
  8
PIN_TOP
 10
38.938200
 20
5.499100
 40
0.000000
 41
0.000000
 42
0.000000
  0
VERTEX
  8
PIN_TOP
 10
38.938200
 20
4.305300
 40
0.000000
 41
0.000000
 42
-1.000000
  0
VERTEX
  8
PIN_TOP
 10
38.531800
 20
4.305300
 40
0.000000
 41
0.000000
 42
0.000000
  0
VERTEX
  8
PIN_TOP
 10
38.531800
 20
5.499100
 40
0.000000
 41
0.000000
 42
-1.000000
  0
SEQEND
  0
POLYLINE
  8
PIN_TOP
 66
1
 70
1
 40
0.000000
 41
0.000000
 39
0.000000
  0
VERTEX
  8
PIN_TOP
 10
38.938200
 20
11.188700
 40
0.000000
 41
0.000000
 42
0.000000
  0
VERTEX
  8
PIN_TOP
 10
38.938200
 20
9.994900
 40
0.000000
 41
0.000000
 42
-1.000000
  0
VERTEX
  8
PIN_TOP
 10
38.531800
 20
9.994900
 40
0.000000
 41
0.000000
 42
0.000000
  0
VERTEX
  8
PIN_TOP
 10
38.531800
 20
11.188700
 40
0.000000
 41
0.000000
 42
-1.000000
  0
SEQEND
  0
POLYLINE
  8
PIN_TOP
 66
1
 70
1
 40
0.000000
 41
0.000000
 39
0.000000
  0
VERTEX
  8
PIN_TOP
 10
38.303200
 20
11.188700
 40
0.000000
 41
0.000000
 42
0.000000
  0
VERTEX
  8
PIN_TOP
 10
38.303200
 20
9.994900
 40
0.000000
 41
0.000000
 42
-1.000000
  0
VERTEX
  8
PIN_TOP
 10
37.896800
 20
9.994900
 40
0.000000
 41
0.000000
 42
0.000000
  0
VERTEX
  8
PIN_TOP
 10
37.896800
 20
11.188700
 40
0.000000
 41
0.000000
 42
-1.000000
  0
SEQEND
  0
POLYLINE
  8
PIN_TOP
 66
1
 70
1
 40
0.000000
 41
0.000000
 39
0.000000
  0
VERTEX
  8
PIN_TOP
 10
37.642800
 20
11.188700
 40
0.000000
 41
0.000000
 42
0.000000
  0
VERTEX
  8
PIN_TOP
 10
37.642800
 20
9.994900
 40
0.000000
 41
0.000000
 42
-1.000000
  0
VERTEX
  8
PIN_TOP
 10
37.236400
 20
9.994900
 40
0.000000
 41
0.000000
 42
0.000000
  0
VERTEX
  8
PIN_TOP
 10
37.236400
 20
11.188700
 40
0.000000
 41
0.000000
 42
-1.000000
  0
SEQEND
  0
POLYLINE
  8
PIN_TOP
 66
1
 70
1
 40
0.000000
 41
0.000000
 39
0.000000
  0
VERTEX
  8
PIN_TOP
 10
36.982400
 20
11.188700
 40
0.000000
 41
0.000000
 42
0.000000
  0
VERTEX
  8
PIN_TOP
 10
36.982400
 20
9.994900
 40
0.000000
 41
0.000000
 42
-1.000000
  0
VERTEX
  8
PIN_TOP
 10
36.576000
 20
9.994900
 40
0.000000
 41
0.000000
 42
0.000000
  0
VERTEX
  8
PIN_TOP
 10
36.576000
 20
11.188700
 40
0.000000
 41
0.000000
 42
-1.000000
  0
SEQEND
  0
POLYLINE
  8
PIN_TOP
 66
1
 70
1
 40
0.000000
 41
0.000000
 39
0.000000
  0
VERTEX
  8
PIN_TOP
 10
36.347400
 20
11.188700
 40
0.000000
 41
0.000000
 42
0.000000
  0
VERTEX
  8
PIN_TOP
 10
36.347400
 20
9.994900
 40
0.000000
 41
0.000000
 42
-1.000000
  0
VERTEX
  8
PIN_TOP
 10
35.941000
 20
9.994900
 40
0.000000
 41
0.000000
 42
0.000000
  0
VERTEX
  8
PIN_TOP
 10
35.941000
 20
11.188700
 40
0.000000
 41
0.000000
 42
-1.000000
  0
SEQEND
  0
POLYLINE
  8
PIN_TOP
 66
1
 70
1
 40
0.000000
 41
0.000000
 39
0.000000
  0
VERTEX
  8
PIN_TOP
 10
35.687000
 20
11.188700
 40
0.000000
 41
0.000000
 42
0.000000
  0
VERTEX
  8
PIN_TOP
 10
35.687000
 20
9.994900
 40
0.000000
 41
0.000000
 42
-1.000000
  0
VERTEX
  8
PIN_TOP
 10
35.280600
 20
9.994900
 40
0.000000
 41
0.000000
 42
0.000000
  0
VERTEX
  8
PIN_TOP
 10
35.280600
 20
11.188700
 40
0.000000
 41
0.000000
 42
-1.000000
  0
SEQEND
  0
POLYLINE
  8
PIN_TOP
 66
1
 70
1
 40
0.000000
 41
0.000000
 39
0.000000
  0
VERTEX
  8
PIN_TOP
 10
35.052000
 20
11.188700
 40
0.000000
 41
0.000000
 42
0.000000
  0
VERTEX
  8
PIN_TOP
 10
35.052000
 20
9.994900
 40
0.000000
 41
0.000000
 42
-1.000000
  0
VERTEX
  8
PIN_TOP
 10
34.645600
 20
9.994900
 40
0.000000
 41
0.000000
 42
0.000000
  0
VERTEX
  8
PIN_TOP
 10
34.645600
 20
11.188700
 40
0.000000
 41
0.000000
 42
-1.000000
  0
SEQEND
  0
POLYLINE
  8
PIN_TOP
 66
1
 70
1
 40
0.000000
 41
0.000000
 39
0.000000
  0
VERTEX
  8
PIN_TOP
 10
34.391600
 20
11.188700
 40
0.000000
 41
0.000000
 42
0.000000
  0
VERTEX
  8
PIN_TOP
 10
34.391600
 20
9.994900
 40
0.000000
 41
0.000000
 42
-1.000000
  0
VERTEX
  8
PIN_TOP
 10
33.985200
 20
9.994900
 40
0.000000
 41
0.000000
 42
0.000000
  0
VERTEX
  8
PIN_TOP
 10
33.985200
 20
11.188700
 40
0.000000
 41
0.000000
 42
-1.000000
  0
SEQEND
  0
POLYLINE
  8
PIN_TOP
 66
1
 70
1
 40
0.000000
 41
0.000000
 39
0.000000
  0
VERTEX
  8
PIN_TOP
 10
33.731200
 20
11.188700
 40
0.000000
 41
0.000000
 42
0.000000
  0
VERTEX
  8
PIN_TOP
 10
33.731200
 20
9.994900
 40
0.000000
 41
0.000000
 42
-1.000000
  0
VERTEX
  8
PIN_TOP
 10
33.324800
 20
9.994900
 40
0.000000
 41
0.000000
 42
0.000000
  0
VERTEX
  8
PIN_TOP
 10
33.324800
 20
11.188700
 40
0.000000
 41
0.000000
 42
-1.000000
  0
SEQEND
  0
POLYLINE
  8
PIN_TOP
 66
1
 70
1
 40
0.000000
 41
0.000000
 39
0.000000
  0
VERTEX
  8
PIN_TOP
 10
33.096200
 20
11.188700
 40
0.000000
 41
0.000000
 42
0.000000
  0
VERTEX
  8
PIN_TOP
 10
33.096200
 20
9.994900
 40
0.000000
 41
0.000000
 42
-1.000000
  0
VERTEX
  8
PIN_TOP
 10
32.689800
 20
9.994900
 40
0.000000
 41
0.000000
 42
0.000000
  0
VERTEX
  8
PIN_TOP
 10
32.689800
 20
11.188700
 40
0.000000
 41
0.000000
 42
-1.000000
  0
SEQEND
  0
POLYLINE
  8
PG_SILKSCREEN_TOP
 66
1
 70
0
 40
0.000000
 41
0.000000
 39
0.000000
  0
VERTEX
  8
PG_SILKSCREEN_TOP
 10
32.512000
 20
6.096000
 40
0.203200
 41
0.203200
 42
0.000000
  0
VERTEX
  8
PG_SILKSCREEN_TOP
 10
39.116000
 20
6.096000
 40
0.203200
 41
0.203200
 42
0.000000
  0
VERTEX
  8
PG_SILKSCREEN_TOP
 10
39.116000
 20
9.398000
 40
0.203200
 41
0.203200
 42
0.000000
  0
VERTEX
  8
PG_SILKSCREEN_TOP
 10
32.512000
 20
9.398000
 40
0.203200
 41
0.203200
 42
0.000000
  0
VERTEX
  8
PG_SILKSCREEN_TOP
 10
32.512000
 20
6.096000
 40
0.203200
 41
0.203200
 42
0.000000
  0
SEQEND
  0
POLYLINE
  8
PG_SILKSCREEN_TOP
 66
1
 70
0
 40
0.000000
 41
0.000000
 39
0.000000
  0
VERTEX
  8
PG_SILKSCREEN_TOP
 10
32.943800
 20
6.400800
 40
0.254000
 41
0.254000
 42
-1.030465
  0
VERTEX
  8
PG_SILKSCREEN_TOP
 10
32.689800
 20
6.400800
 40
0.254000
 41
0.254000
 42
-0.970436
  0
VERTEX
  8
PG_SILKSCREEN_TOP
 10
32.943800
 20
6.400800
 40
0.254000
 41
0.254000
 42
0.000000
  0
SEQEND
  0
POLYLINE
  8
PG_SILKSCREEN_TOP
 66
1
 70
0
 40
0.000000
 41
0.000000
 39
0.000000
  0
VERTEX
  8
PG_SILKSCREEN_TOP
 10
32.258000
 20
4.902200
 40
0.254000
 41
0.254000
 42
-1.045746
  0
VERTEX
  8
PG_SILKSCREEN_TOP
 10
32.029400
 20
4.902200
 40
0.254000
 41
0.254000
 42
-0.956255
  0
VERTEX
  8
PG_SILKSCREEN_TOP
 10
32.258000
 20
4.902200
 40
0.254000
 41
0.254000
 42
0.000000
  0
SEQEND
  0
TEXT
  8
RD_SILKSCREEN_TOP
 10
31.496000
 20
7.366000
 11
31.750000
 21
7.366000
 40
0.762000
 41
1.000000
 50
0.000000
  7
STANDARD
 71
0
 72
1
  1
U1
 73
0
  0
CIRCLE
  8
PIN_TOP
 10
27.508200
 20
12.700000
 40
0.749300
  0
CIRCLE
  8
PIN_TOP
 10
25.019000
 20
12.700000
 40
0.749300
  0
CIRCLE
  8
PIN_TOP
 10
22.529800
 20
12.700000
 40
0.749300
  0
POLYLINE
  8
PIN_TOP
 66
1
 70
1
 40
0.000000
 41
0.000000
 39
0.000000
  0
VERTEX
  8
PIN_TOP
 10
28.917900
 20
4.991100
 40
0.000000
 41
0.000000
 42
0.000000
  0
VERTEX
  8
PIN_TOP
 10
28.917900
 20
6.388100
 40
0.000000
 41
0.000000
 42
-1.000000
  0
VERTEX
  8
PIN_TOP
 10
31.127700
 20
6.388100
 40
0.000000
 41
0.000000
 42
0.000000
  0
VERTEX
  8
PIN_TOP
 10
31.127700
 20
4.991100
 40
0.000000
 41
0.000000
 42
-1.000000
  0
SEQEND
  0
POLYLINE
  8
PIN_TOP
 66
1
 70
1
 40
0.000000
 41
0.000000
 39
0.000000
  0
VERTEX
  8
PIN_TOP
 10
18.910300
 20
4.991100
 40
0.000000
 41
0.000000
 42
0.000000
  0
VERTEX
  8
PIN_TOP
 10
18.910300
 20
6.388100
 40
0.000000
 41
0.000000
 42
-1.000000
  0
VERTEX
  8
PIN_TOP
 10
21.120100
 20
6.388100
 40
0.000000
 41
0.000000
 42
0.000000
  0
VERTEX
  8
PIN_TOP
 10
21.120100
 20
4.991100
 40
0.000000
 41
0.000000
 42
-1.000000
  0
SEQEND
  0
POLYLINE
  8
PG_SILKSCREEN_TOP
 66
1
 70
0
 40
0.000000
 41
0.000000
 39
0.000000
  0
VERTEX
  8
PG_SILKSCREEN_TOP
 10
29.895800
 20
12.319000
 40
0.203200
 41
0.203200
 42
0.000000
  0
VERTEX
  8
PG_SILKSCREEN_TOP
 10
29.895800
 20
7.696200
 40
0.203200
 41
0.203200
 42
0.000000
  0
SEQEND
  0
POLYLINE
  8
PG_SILKSCREEN_TOP
 66
1
 70
0
 40
0.000000
 41
0.000000
 39
0.000000
  0
VERTEX
  8
PG_SILKSCREEN_TOP
 10
29.895800
 20
3.708400
 40
0.203200
 41
0.203200
 42
0.000000
  0
VERTEX
  8
PG_SILKSCREEN_TOP
 10
29.895800
 20
0.508000
 40
0.203200
 41
0.203200
 42
0.000000
  0
VERTEX
  8
PG_SILKSCREEN_TOP
 10
20.142200
 20
0.508000
 40
0.203200
 41
0.203200
 42
0.000000
  0
VERTEX
  8
PG_SILKSCREEN_TOP
 10
20.142200
 20
3.708400
 40
0.203200
 41
0.203200
 42
0.000000
  0
SEQEND
  0
POLYLINE
  8
PG_SILKSCREEN_TOP
 66
1
 70
0
 40
0.000000
 41
0.000000
 39
0.000000
  0
VERTEX
  8
PG_SILKSCREEN_TOP
 10
20.142200
 20
7.696200
 40
0.203200
 41
0.203200
 42
0.000000
  0
VERTEX
  8
PG_SILKSCREEN_TOP
 10
20.142200
 20
12.319000
 40
0.203200
 41
0.203200
 42
0.000000
  0
VERTEX
  8
PG_SILKSCREEN_TOP
 10
21.615400
 20
12.319000
 40
0.203200
 41
0.203200
 42
0.000000
  0
SEQEND
  0
POLYLINE
  8
PG_SILKSCREEN_TOP
 66
1
 70
0
 40
0.000000
 41
0.000000
 39
0.000000
  0
VERTEX
  8
PG_SILKSCREEN_TOP
 10
28.422600
 20
12.319000
 40
0.203200
 41
0.203200
 42
0.000000
  0
VERTEX
  8
PG_SILKSCREEN_TOP
 10
29.895800
 20
12.319000
 40
0.203200
 41
0.203200
 42
0.000000
  0
SEQEND
  0
POLYLINE
  8
PG_SILKSCREEN_TOP
 66
1
 70
0
 40
0.000000
 41
0.000000
 39
0.000000
  0
VERTEX
  8
PG_SILKSCREEN_TOP
 10
25.806400
 20
12.319000
 40
0.203200
 41
0.203200
 42
0.000000
  0
VERTEX
  8
PG_SILKSCREEN_TOP
 10
26.619200
 20
12.319000
 40
0.203200
 41
0.203200
 42
0.000000
  0
SEQEND
  0
POLYLINE
  8
PG_SILKSCREEN_TOP
 66
1
 70
0
 40
0.000000
 41
0.000000
 39
0.000000
  0
VERTEX
  8
PG_SILKSCREEN_TOP
 10
23.418800
 20
12.319000
 40
0.203200
 41
0.203200
 42
0.000000
  0
VERTEX
  8
PG_SILKSCREEN_TOP
 10
24.231600
 20
12.319000
 40
0.203200
 41
0.203200
 42
0.000000
  0
SEQEND
  0
POLYLINE
  8
PG_SILKSCREEN_TOP
 66
1
 70
0
 40
0.000000
 41
0.000000
 39
0.000000
  0
VERTEX
  8
PG_SILKSCREEN_TOP
 10
27.559000
 20
5.689600
 40
0.203200
 41
0.203200
 42
0.999095
  0
VERTEX
  8
PG_SILKSCREEN_TOP
 10
22.479000
 20
5.715000
 40
0.203200
 41
0.203200
 42
1.000906
  0
VERTEX
  8
PG_SILKSCREEN_TOP
 10
27.559000
 20
5.689600
 40
0.203200
 41
0.203200
 42
0.000000
  0
SEQEND
  0
POLYLINE
  8
PG_SILKSCREEN_TOP
 66
1
 70
0
 40
0.000000
 41
0.000000
 39
0.000000
  0
VERTEX
  8
PG_SILKSCREEN_TOP
 10
25.222200
 20
3.302000
 40
0.203200
 41
0.203200
 42
0.000000
  0
VERTEX
  8
PG_SILKSCREEN_TOP
 10
25.222200
 20
4.089400
 40
0.203200
 41
0.203200
 42
0.000000
  0
VERTEX
  8
PG_SILKSCREEN_TOP
 10
24.815800
 20
4.089400
 40
0.203200
 41
0.203200
 42
0.000000
  0
VERTEX
  8
PG_SILKSCREEN_TOP
 10
24.815800
 20
3.302000
 40
0.203200
 41
0.203200
 42
0.000000
  0
SEQEND
  0
POLYLINE
  8
PG_SILKSCREEN_TOP
 66
1
 70
0
 40
0.000000
 41
0.000000
 39
0.000000
  0
VERTEX
  8
PG_SILKSCREEN_TOP
 10
29.464000
 20
1.498600
 40
0.203200
 41
0.203200
 42
1.003155
  0
VERTEX
  8
PG_SILKSCREEN_TOP
 10
28.575000
 20
1.498600
 40
0.203200
 41
0.203200
 42
0.996855
  0
VERTEX
  8
PG_SILKSCREEN_TOP
 10
29.464000
 20
1.498600
 40
0.203200
 41
0.203200
 42
0.000000
  0
SEQEND
  0
POLYLINE
  8
PG_SILKSCREEN_TOP
 66
1
 70
0
 40
0.000000
 41
0.000000
 39
0.000000
  0
VERTEX
  8
PG_SILKSCREEN_TOP
 10
21.666200
 20
1.498600
 40
0.203200
 41
0.203200
 42
1.003155
  0
VERTEX
  8
PG_SILKSCREEN_TOP
 10
20.777200
 20
1.498600
 40
0.203200
 41
0.203200
 42
0.996855
  0
VERTEX
  8
PG_SILKSCREEN_TOP
 10
21.666200
 20
1.498600
 40
0.203200
 41
0.203200
 42
0.000000
  0
SEQEND
  0
POLYLINE
  8
PG_SILKSCREEN_TOP
 66
1
 70
0
 40
0.000000
 41
0.000000
 39
0.000000
  0
VERTEX
  8
PG_SILKSCREEN_TOP
 10
21.666200
 20
11.303000
 40
0.203200
 41
0.203200
 42
0.993273
  0
VERTEX
  8
PG_SILKSCREEN_TOP
 10
20.777200
 20
11.303000
 40
0.203200
 41
0.203200
 42
1.006772
  0
VERTEX
  8
PG_SILKSCREEN_TOP
 10
21.666200
 20
11.303000
 40
0.203200
 41
0.203200
 42
0.000000
  0
SEQEND
  0
POLYLINE
  8
PG_SILKSCREEN_TOP
 66
1
 70
0
 40
0.000000
 41
0.000000
 39
0.000000
  0
VERTEX
  8
PG_SILKSCREEN_TOP
 10
29.464000
 20
11.303000
 40
0.203200
 41
0.203200
 42
0.993274
  0
VERTEX
  8
PG_SILKSCREEN_TOP
 10
28.575000
 20
11.303000
 40
0.203200
 41
0.203200
 42
1.006772
  0
VERTEX
  8
PG_SILKSCREEN_TOP
 10
29.464000
 20
11.303000
 40
0.203200
 41
0.203200
 42
0.000000
  0
SEQEND
  0
TEXT
  8
RD_SILKSCREEN_TOP
 10
30.099000
 20
10.795000
 11
0.000000
 21
0.000000
 40
0.762000
 41
1.000000
 50
0.000000
  7
STANDARD
 71
0
 72
0
  1
VR1
 73
0
  0
CIRCLE
  8
PIN_TOP
 10
4.318000
 20
20.523200
 40
0.698500
  0
CIRCLE
  8
PIN_TOP
 10
4.318000
 20
18.008600
 40
0.698500
  0
CIRCLE
  8
PIN_TOP
 10
4.318000
 20
16.027400
 40
0.698500
  0
CIRCLE
  8
PIN_TOP
 10
4.318000
 20
13.512800
 40
0.698500
  0
CIRCLE
  8
PIN_TOP
 10
2.311400
 20
14.808200
 40
0.749300
  0
CIRCLE
  8
PIN_TOP
 10
2.311400
 20
19.227800
 40
0.749300
  0
POLYLINE
  8
PIN_TOP
 66
1
 70
1
 40
0.000000
 41
0.000000
 39
0.000000
  0
VERTEX
  8
PIN_TOP
 10
3.060700
 20
22.009100
 40
0.000000
 41
0.000000
 42
0.000000
  0
VERTEX
  8
PIN_TOP
 10
1.562100
 20
22.009100
 40
0.000000
 41
0.000000
 42
-1.000000
  0
VERTEX
  8
PIN_TOP
 10
1.562100
 20
24.015700
 40
0.000000
 41
0.000000
 42
0.000000
  0
VERTEX
  8
PIN_TOP
 10
3.060700
 20
24.015700
 40
0.000000
 41
0.000000
 42
-1.000000
  0
SEQEND
  0
POLYLINE
  8
PIN_TOP
 66
1
 70
1
 40
0.000000
 41
0.000000
 39
0.000000
  0
VERTEX
  8
PIN_TOP
 10
3.060700
 20
10.020300
 40
0.000000
 41
0.000000
 42
0.000000
  0
VERTEX
  8
PIN_TOP
 10
1.562100
 20
10.020300
 40
0.000000
 41
0.000000
 42
-1.000000
  0
VERTEX
  8
PIN_TOP
 10
1.562100
 20
12.026900
 40
0.000000
 41
0.000000
 42
0.000000
  0
VERTEX
  8
PIN_TOP
 10
3.060700
 20
12.026900
 40
0.000000
 41
0.000000
 42
-1.000000
  0
SEQEND
  0
POLYLINE
  8
PG_SILKSCREEN_TOP
 66
1
 70
0
 40
0.000000
 41
0.000000
 39
0.000000
  0
VERTEX
  8
PG_SILKSCREEN_TOP
 10
4.318000
 20
23.012400
 40
0.203200
 41
0.203200
 42
0.000000
  0
VERTEX
  8
PG_SILKSCREEN_TOP
 10
5.308600
 20
23.012400
 40
0.203200
 41
0.203200
 42
0.000000
  0
VERTEX
  8
PG_SILKSCREEN_TOP
 10
5.308600
 20
11.023600
 40
0.203200
 41
0.203200
 42
0.000000
  0
VERTEX
  8
PG_SILKSCREEN_TOP
 10
4.318000
 20
11.023600
 40
0.203200
 41
0.203200
 42
0.000000
  0
SEQEND
  0
POLYLINE
  8
PG_SILKSCREEN_TOP
 66
1
 70
0
 40
0.000000
 41
0.000000
 39
0.000000
  0
VERTEX
  8
PG_SILKSCREEN_TOP
 10
0.406400
 20
23.012400
 40
0.203200
 41
0.203200
 42
0.000000
  0
VERTEX
  8
PG_SILKSCREEN_TOP
 10
-15.595600
 20
23.012400
 40
0.203200
 41
0.203200
 42
0.000000
  0
VERTEX
  8
PG_SILKSCREEN_TOP
 10
-15.595600
 20
11.023600
 40
0.203200
 41
0.203200
 42
0.000000
  0
VERTEX
  8
PG_SILKSCREEN_TOP
 10
0.406400
 20
11.023600
 40
0.203200
 41
0.203200
 42
0.000000
  0
SEQEND
  0
POLYLINE
  8
PG_SILKSCREEN_TOP
 66
1
 70
0
 40
0.000000
 41
0.000000
 39
0.000000
  0
VERTEX
  8
PG_SILKSCREEN_TOP
 10
-4.089400
 20
21.920200
 40
0.203200
 41
0.203200
 42
0.000000
  0
VERTEX
  8
PG_SILKSCREEN_TOP
 10
-4.089400
 20
20.218400
 40
0.203200
 41
0.203200
 42
0.000000
  0
VERTEX
  8
PG_SILKSCREEN_TOP
 10
-7.086600
 20
20.218400
 40
0.203200
 41
0.203200
 42
0.000000
  0
VERTEX
  8
PG_SILKSCREEN_TOP
 10
-7.086600
 20
21.920200
 40
0.203200
 41
0.203200
 42
0.000000
  0
VERTEX
  8
PG_SILKSCREEN_TOP
 10
-4.089400
 20
21.920200
 40
0.203200
 41
0.203200
 42
0.000000
  0
SEQEND
  0
POLYLINE
  8
PG_SILKSCREEN_TOP
 66
1
 70
0
 40
0.000000
 41
0.000000
 39
0.000000
  0
VERTEX
  8
PG_SILKSCREEN_TOP
 10
-4.089400
 20
12.115800
 40
0.203200
 41
0.203200
 42
0.000000
  0
VERTEX
  8
PG_SILKSCREEN_TOP
 10
-4.089400
 20
13.817600
 40
0.203200
 41
0.203200
 42
0.000000
  0
VERTEX
  8
PG_SILKSCREEN_TOP
 10
-7.086600
 20
13.817600
 40
0.203200
 41
0.203200
 42
0.000000
  0
VERTEX
  8
PG_SILKSCREEN_TOP
 10
-7.086600
 20
12.115800
 40
0.203200
 41
0.203200
 42
0.000000
  0
VERTEX
  8
PG_SILKSCREEN_TOP
 10
-4.089400
 20
12.115800
 40
0.203200
 41
0.203200
 42
0.000000
  0
SEQEND
  0
TEXT
  8
RD_SILKSCREEN_TOP
 10
1.016000
 20
25.146000
 11
0.000000
 21
0.000000
 40
0.762000
 41
1.000000
 50
0.000000
  7
STANDARD
 71
0
 72
0
  1
USB1
 73
0
  0
CIRCLE
  8
PIN_TOP
 10
18.237200
 20
25.400000
 40
0.749300
  0
CIRCLE
  8
PIN_TOP
 10
20.828000
 20
25.400000
 40
0.749300
  0
CIRCLE
  8
PIN_TOP
 10
23.342600
 20
25.400000
 40
0.749300
  0
CIRCLE
  8
PIN_TOP
 10
25.933400
 20
25.400000
 40
0.749300
  0
CIRCLE
  8
PIN_TOP
 10
28.448000
 20
25.400000
 40
0.749300
  0
CIRCLE
  8
PIN_TOP
 10
31.038800
 20
25.400000
 40
0.749300
  0
CIRCLE
  8
PIN_TOP
 10
18.237200
 20
33.020000
 40
0.749300
  0
CIRCLE
  8
PIN_TOP
 10
20.828000
 20
33.020000
 40
0.749300
  0
CIRCLE
  8
PIN_TOP
 10
23.342600
 20
33.020000
 40
0.749300
  0
CIRCLE
  8
PIN_TOP
 10
25.933400
 20
33.020000
 40
0.749300
  0
CIRCLE
  8
PIN_TOP
 10
28.448000
 20
33.020000
 40
0.749300
  0
CIRCLE
  8
PIN_TOP
 10
31.038800
 20
33.020000
 40
0.749300
  0
POLYLINE
  8
PG_SILKSCREEN_TOP
 66
1
 70
0
 40
0.000000
 41
0.000000
 39
0.000000
  0
VERTEX
  8
PG_SILKSCREEN_TOP
 10
13.335000
 20
34.315400
 40
0.203200
 41
0.203200
 42
0.000000
  0
VERTEX
  8
PG_SILKSCREEN_TOP
 10
35.941000
 20
34.315400
 40
0.203200
 41
0.203200
 42
0.000000
  0
VERTEX
  8
PG_SILKSCREEN_TOP
 10
35.941000
 20
24.130000
 40
0.203200
 41
0.203200
 42
0.000000
  0
VERTEX
  8
PG_SILKSCREEN_TOP
 10
13.335000
 20
24.130000
 40
0.203200
 41
0.203200
 42
0.000000
  0
VERTEX
  8
PG_SILKSCREEN_TOP
 10
13.335000
 20
34.315400
 40
0.203200
 41
0.203200
 42
0.000000
  0
SEQEND
  0
POLYLINE
  8
PG_SILKSCREEN_TOP
 66
1
 70
0
 40
0.000000
 41
0.000000
 39
0.000000
  0
VERTEX
  8
PG_SILKSCREEN_TOP
 10
17.221200
 20
32.029400
 40
0.508000
 41
0.508000
 42
0.000000
  0
VERTEX
  8
PG_SILKSCREEN_TOP
 10
20.828000
 20
32.029400
 40
0.508000
 41
0.508000
 42
0.000000
  0
VERTEX
  8
PG_SILKSCREEN_TOP
 10
20.828000
 20
26.416000
 40
0.508000
 41
0.508000
 42
0.000000
  0
VERTEX
  8
PG_SILKSCREEN_TOP
 10
17.221200
 20
26.416000
 40
0.508000
 41
0.508000
 42
0.000000
  0
VERTEX
  8
PG_SILKSCREEN_TOP
 10
17.221200
 20
32.029400
 40
0.508000
 41
0.508000
 42
0.000000
  0
SEQEND
  0
POLYLINE
  8
PG_SILKSCREEN_TOP
 66
1
 70
0
 40
0.000000
 41
0.000000
 39
0.000000
  0
VERTEX
  8
PG_SILKSCREEN_TOP
 10
17.221200
 20
29.210000
 40
0.508000
 41
0.508000
 42
0.000000
  0
VERTEX
  8
PG_SILKSCREEN_TOP
 10
20.828000
 20
29.210000
 40
0.508000
 41
0.508000
 42
0.000000
  0
SEQEND
  0
POLYLINE
  8
PG_SILKSCREEN_TOP
 66
1
 70
0
 40
0.000000
 41
0.000000
 39
0.000000
  0
VERTEX
  8
PG_SILKSCREEN_TOP
 10
21.920200
 20
26.822400
 40
0.508000
 41
0.508000
 42
0.986397
  0
VERTEX
  8
PG_SILKSCREEN_TOP
 10
21.336000
 20
26.822400
 40
0.508000
 41
0.508000
 42
1.013791
  0
VERTEX
  8
PG_SILKSCREEN_TOP
 10
21.920200
 20
26.822400
 40
0.508000
 41
0.508000
 42
0.000000
  0
SEQEND
  0
POLYLINE
  8
PG_SILKSCREEN_TOP
 66
1
 70
0
 40
0.000000
 41
0.000000
 39
0.000000
  0
VERTEX
  8
PG_SILKSCREEN_TOP
 10
22.834600
 20
32.029400
 40
0.508000
 41
0.508000
 42
0.000000
  0
VERTEX
  8
PG_SILKSCREEN_TOP
 10
26.441400
 20
32.029400
 40
0.508000
 41
0.508000
 42
0.000000
  0
VERTEX
  8
PG_SILKSCREEN_TOP
 10
26.441400
 20
26.416000
 40
0.508000
 41
0.508000
 42
0.000000
  0
VERTEX
  8
PG_SILKSCREEN_TOP
 10
22.834600
 20
26.416000
 40
0.508000
 41
0.508000
 42
0.000000
  0
VERTEX
  8
PG_SILKSCREEN_TOP
 10
22.834600
 20
32.029400
 40
0.508000
 41
0.508000
 42
0.000000
  0
SEQEND
  0
POLYLINE
  8
PG_SILKSCREEN_TOP
 66
1
 70
0
 40
0.000000
 41
0.000000
 39
0.000000
  0
VERTEX
  8
PG_SILKSCREEN_TOP
 10
22.834600
 20
29.210000
 40
0.508000
 41
0.508000
 42
0.000000
  0
VERTEX
  8
PG_SILKSCREEN_TOP
 10
26.441400
 20
29.210000
 40
0.508000
 41
0.508000
 42
0.000000
  0
SEQEND
  0
POLYLINE
  8
PG_SILKSCREEN_TOP
 66
1
 70
0
 40
0.000000
 41
0.000000
 39
0.000000
  0
VERTEX
  8
PG_SILKSCREEN_TOP
 10
27.533600
 20
26.822400
 40
0.508000
 41
0.508000
 42
0.986961
  0
VERTEX
  8
PG_SILKSCREEN_TOP
 10
26.924000
 20
26.822400
 40
0.508000
 41
0.508000
 42
1.013211
  0
VERTEX
  8
PG_SILKSCREEN_TOP
 10
27.533600
 20
26.822400
 40
0.508000
 41
0.508000
 42
0.000000
  0
SEQEND
  0
POLYLINE
  8
PG_SILKSCREEN_TOP
 66
1
 70
0
 40
0.000000
 41
0.000000
 39
0.000000
  0
VERTEX
  8
PG_SILKSCREEN_TOP
 10
28.422600
 20
32.029400
 40
0.508000
 41
0.508000
 42
0.000000
  0
VERTEX
  8
PG_SILKSCREEN_TOP
 10
32.029400
 20
32.029400
 40
0.508000
 41
0.508000
 42
0.000000
  0
VERTEX
  8
PG_SILKSCREEN_TOP
 10
32.029400
 20
26.416000
 40
0.508000
 41
0.508000
 42
0.000000
  0
VERTEX
  8
PG_SILKSCREEN_TOP
 10
28.422600
 20
26.416000
 40
0.508000
 41
0.508000
 42
0.000000
  0
VERTEX
  8
PG_SILKSCREEN_TOP
 10
28.422600
 20
32.029400
 40
0.508000
 41
0.508000
 42
0.000000
  0
SEQEND
  0
POLYLINE
  8
PG_SILKSCREEN_TOP
 66
1
 70
0
 40
0.000000
 41
0.000000
 39
0.000000
  0
VERTEX
  8
PG_SILKSCREEN_TOP
 10
28.422600
 20
29.210000
 40
0.508000
 41
0.508000
 42
0.000000
  0
VERTEX
  8
PG_SILKSCREEN_TOP
 10
32.029400
 20
29.210000
 40
0.508000
 41
0.508000
 42
0.000000
  0
SEQEND
  0
POLYLINE
  8
PG_SILKSCREEN_TOP
 66
1
 70
0
 40
0.000000
 41
0.000000
 39
0.000000
  0
VERTEX
  8
PG_SILKSCREEN_TOP
 10
33.121600
 20
26.822400
 40
0.508000
 41
0.508000
 42
0.986398
  0
VERTEX
  8
PG_SILKSCREEN_TOP
 10
32.537400
 20
26.822400
 40
0.508000
 41
0.508000
 42
1.013789
  0
VERTEX
  8
PG_SILKSCREEN_TOP
 10
33.121600
 20
26.822400
 40
0.508000
 41
0.508000
 42
0.000000
  0
SEQEND
  0
TEXT
  8
RD_SILKSCREEN_TOP
 10
37.084000
 20
28.219400
 11
0.000000
 21
0.000000
 40
0.762000
 41
1.000000
 50
90.000000
  7
STANDARD
 71
0
 72
0
  1
DS1
 73
0
  0
TEXT
  8
PG_SILKSCREEN_TOP
 10
16.535400
 20
25.019000
 11
0.000000
 21
0.000000
 40
0.762000
 41
1.000000
 50
0.000000
  7
STANDARD
 71
0
 72
0
  1
1
 73
0
  0
TEXT
  8
PG_SILKSCREEN_TOP
 10
32.131000
 20
24.815800
 11
0.000000
 21
0.000000
 40
0.762000
 41
1.000000
 50
0.000000
  7
STANDARD
 71
0
 72
0
  1
6
 73
0
  0
TEXT
  8
PG_SILKSCREEN_TOP
 10
31.927800
 20
32.613600
 11
0.000000
 21
0.000000
 40
0.762000
 41
1.000000
 50
0.000000
  7
STANDARD
 71
0
 72
0
  1
7
 73
0
  0
TEXT
  8
PG_SILKSCREEN_TOP
 10
15.722600
 20
32.613600
 11
0.000000
 21
0.000000
 40
0.762000
 41
1.000000
 50
0.000000
  7
STANDARD
 71
0
 72
0
  1
12
 73
0
  0
POLYLINE
  8
PIN_TOP
 66
1
 70
1
 40
0.000000
 41
0.000000
 39
0.000000
  0
VERTEX
  8
PIN_TOP
 10
9.080500
 20
3.073400
 40
0.000000
 41
0.000000
 42
0.000000
  0
VERTEX
  8
PIN_TOP
 10
9.080500
 20
2.260600
 40
0.000000
 41
0.000000
 42
-1.000000
  0
VERTEX
  8
PIN_TOP
 10
7.886700
 20
2.260600
 40
0.000000
 41
0.000000
 42
0.000000
  0
VERTEX
  8
PIN_TOP
 10
7.886700
 20
3.073400
 40
0.000000
 41
0.000000
 42
-1.000000
  0
SEQEND
  0
POLYLINE
  8
PIN_TOP
 66
1
 70
1
 40
0.000000
 41
0.000000
 39
0.000000
  0
VERTEX
  8
PIN_TOP
 10
17.259300
 20
3.073400
 40
0.000000
 41
0.000000
 42
0.000000
  0
VERTEX
  8
PIN_TOP
 10
17.259300
 20
2.260600
 40
0.000000
 41
0.000000
 42
-1.000000
  0
VERTEX
  8
PIN_TOP
 10
16.065500
 20
2.260600
 40
0.000000
 41
0.000000
 42
0.000000
  0
VERTEX
  8
PIN_TOP
 10
16.065500
 20
3.073400
 40
0.000000
 41
0.000000
 42
-1.000000
  0
SEQEND
  0
CIRCLE
  8
PIN_TOP
 10
10.566400
 20
2.667000
 40
0.596900
  0
CIRCLE
  8
PIN_TOP
 10
12.573000
 20
2.667000
 40
0.596900
  0
CIRCLE
  8
PIN_TOP
 10
14.579600
 20
2.667000
 40
0.596900
  0
POLYLINE
  8
PG_SILKSCREEN_TOP
 66
1
 70
0
 40
0.000000
 41
0.000000
 39
0.000000
  0
VERTEX
  8
PG_SILKSCREEN_TOP
 10
8.280400
 20
4.851400
 40
0.203200
 41
0.203200
 42
0.000000
  0
VERTEX
  8
PG_SILKSCREEN_TOP
 10
16.865600
 20
4.851400
 40
0.203200
 41
0.203200
 42
0.000000
  0
VERTEX
  8
PG_SILKSCREEN_TOP
 10
16.865600
 20
3.860800
 40
0.203200
 41
0.203200
 42
0.000000
  0
SEQEND
  0
POLYLINE
  8
PG_SILKSCREEN_TOP
 66
1
 70
0
 40
0.000000
 41
0.000000
 39
0.000000
  0
VERTEX
  8
PG_SILKSCREEN_TOP
 10
8.280400
 20
3.860800
 40
0.203200
 41
0.203200
 42
0.000000
  0
VERTEX
  8
PG_SILKSCREEN_TOP
 10
8.280400
 20
4.851400
 40
0.203200
 41
0.203200
 42
0.000000
  0
SEQEND
  0
POLYLINE
  8
PG_SILKSCREEN_TOP
 66
1
 70
0
 40
0.000000
 41
0.000000
 39
0.000000
  0
VERTEX
  8
PG_SILKSCREEN_TOP
 10
16.865600
 20
1.447800
 40
0.203200
 41
0.203200
 42
0.000000
  0
VERTEX
  8
PG_SILKSCREEN_TOP
 10
16.865600
 20
0.457200
 40
0.203200
 41
0.203200
 42
0.000000
  0
VERTEX
  8
PG_SILKSCREEN_TOP
 10
8.280400
 20
0.457200
 40
0.203200
 41
0.203200
 42
0.000000
  0
VERTEX
  8
PG_SILKSCREEN_TOP
 10
8.280400
 20
1.447800
 40
0.203200
 41
0.203200
 42
0.000000
  0
SEQEND
  0
POLYLINE
  8
PG_SILKSCREEN_TOP
 66
1
 70
0
 40
0.000000
 41
0.000000
 39
0.000000
  0
VERTEX
  8
PG_SILKSCREEN_TOP
 10
10.566400
 20
0.457200
 40
0.203200
 41
0.203200
 42
0.000000
  0
VERTEX
  8
PG_SILKSCREEN_TOP
 10
10.566400
 20
-1.930400
 40
0.203200
 41
0.203200
 42
0.000000
  0
VERTEX
  8
PG_SILKSCREEN_TOP
 10
12.573000
 20
-1.930400
 40
0.203200
 41
0.203200
 42
0.000000
  0
VERTEX
  8
PG_SILKSCREEN_TOP
 10
12.573000
 20
0.457200
 40
0.203200
 41
0.203200
 42
0.000000
  0
SEQEND
  0
POLYLINE
  8
PG_SILKSCREEN_TOP
 66
1
 70
0
 40
0.000000
 41
0.000000
 39
0.000000
  0
VERTEX
  8
PG_SILKSCREEN_TOP
 10
7.975600
 20
1.270000
 40
0.203200
 41
0.203200
 42
0.000000
  0
VERTEX
  8
PG_SILKSCREEN_TOP
 10
7.975600
 20
0.254000
 40
0.203200
 41
0.203200
 42
0.000000
  0
VERTEX
  8
PG_SILKSCREEN_TOP
 10
8.966200
 20
0.254000
 40
0.203200
 41
0.203200
 42
0.000000
  0
SEQEND
  0
TEXT
  8
RD_SILKSCREEN_TOP
 10
11.303000
 20
5.207000
 11
0.000000
 21
0.000000
 40
0.762000
 41
1.000000
 50
0.000000
  7
STANDARD
 71
0
 72
0
  1
SW1
 73
0
  0
POLYLINE
  8
PIN_TOP
 66
1
 70
1
 40
0.000000
 41
0.000000
 39
0.000000
  0
VERTEX
  8
PIN_TOP
 10
12.573000
 20
14.033500
 40
0.000000
 41
0.000000
 42
0.000000
  0
VERTEX
  8
PIN_TOP
 10
9.271000
 20
14.033500
 40
0.000000
 41
0.000000
 42
0.000000
  0
VERTEX
  8
PIN_TOP
 10
9.271000
 20
15.633700
 40
0.000000
 41
0.000000
 42
0.000000
  0
VERTEX
  8
PIN_TOP
 10
12.573000
 20
15.633700
 40
0.000000
 41
0.000000
 42
0.000000
  0
SEQEND
  0
POLYLINE
  8
PIN_TOP
 66
1
 70
1
 40
0.000000
 41
0.000000
 39
0.000000
  0
VERTEX
  8
PIN_TOP
 10
12.573000
 20
16.624300
 40
0.000000
 41
0.000000
 42
0.000000
  0
VERTEX
  8
PIN_TOP
 10
9.271000
 20
16.624300
 40
0.000000
 41
0.000000
 42
0.000000
  0
VERTEX
  8
PIN_TOP
 10
9.271000
 20
18.224500
 40
0.000000
 41
0.000000
 42
0.000000
  0
VERTEX
  8
PIN_TOP
 10
12.573000
 20
18.224500
 40
0.000000
 41
0.000000
 42
0.000000
  0
SEQEND
  0
POLYLINE
  8
PG_SILKSCREEN_TOP
 66
1
 70
0
 40
0.000000
 41
0.000000
 39
0.000000
  0
VERTEX
  8
PG_SILKSCREEN_TOP
 10
8.940800
 20
13.741400
 40
0.304800
 41
0.304800
 42
0.000000
  0
VERTEX
  8
PG_SILKSCREEN_TOP
 10
8.940800
 20
18.542000
 40
0.304800
 41
0.304800
 42
0.000000
  0
VERTEX
  8
PG_SILKSCREEN_TOP
 10
12.928600
 20
18.542000
 40
0.304800
 41
0.304800
 42
0.000000
  0
VERTEX
  8
PG_SILKSCREEN_TOP
 10
12.928600
 20
13.741400
 40
0.304800
 41
0.304800
 42
0.000000
  0
VERTEX
  8
PG_SILKSCREEN_TOP
 10
8.940800
 20
13.741400
 40
0.304800
 41
0.304800
 42
0.000000
  0
SEQEND
  0
TEXT
  8
RD_SILKSCREEN_TOP
 10
7.315200
 20
15.163800
 11
0.000000
 21
0.000000
 40
0.762000
 41
1.000000
 50
0.000000
  7
STANDARD
 71
0
 72
0
  1
L1
 73
0
  0
POLYLINE
  8
PIN_TOP
 66
1
 70
1
 40
0.000000
 41
0.000000
 39
0.000000
  0
VERTEX
  8
PIN_TOP
 10
48.094900
 20
1.689100
 40
0.000000
 41
0.000000
 42
0.000000
  0
VERTEX
  8
PIN_TOP
 10
48.094900
 20
0.698500
 40
0.000000
 41
0.000000
 42
0.000000
  0
VERTEX
  8
PIN_TOP
 10
47.205900
 20
0.698500
 40
0.000000
 41
0.000000
 42
0.000000
  0
VERTEX
  8
PIN_TOP
 10
47.205900
 20
1.689100
 40
0.000000
 41
0.000000
 42
0.000000
  0
SEQEND
  0
POLYLINE
  8
PIN_TOP
 66
1
 70
1
 40
0.000000
 41
0.000000
 39
0.000000
  0
VERTEX
  8
PIN_TOP
 10
44.894500
 20
1.689100
 40
0.000000
 41
0.000000
 42
0.000000
  0
VERTEX
  8
PIN_TOP
 10
44.894500
 20
0.698500
 40
0.000000
 41
0.000000
 42
0.000000
  0
VERTEX
  8
PIN_TOP
 10
44.005500
 20
0.698500
 40
0.000000
 41
0.000000
 42
0.000000
  0
VERTEX
  8
PIN_TOP
 10
44.005500
 20
1.689100
 40
0.000000
 41
0.000000
 42
0.000000
  0
SEQEND
  0
POLYLINE
  8
PG_SILKSCREEN_TOP
 66
1
 70
0
 40
0.000000
 41
0.000000
 39
0.000000
  0
VERTEX
  8
PG_SILKSCREEN_TOP
 10
44.754800
 20
0.406400
 40
0.101600
 41
0.101600
 42
0.000000
  0
VERTEX
  8
PG_SILKSCREEN_TOP
 10
47.345600
 20
0.406400
 40
0.101600
 41
0.101600
 42
0.000000
  0
VERTEX
  8
PG_SILKSCREEN_TOP
 10
47.345600
 20
0.584200
 40
0.101600
 41
0.101600
 42
0.000000
  0
SEQEND
  0
POLYLINE
  8
PG_SILKSCREEN_TOP
 66
1
 70
0
 40
0.000000
 41
0.000000
 39
0.000000
  0
VERTEX
  8
PG_SILKSCREEN_TOP
 10
47.345600
 20
1.803400
 40
0.101600
 41
0.101600
 42
0.000000
  0
VERTEX
  8
PG_SILKSCREEN_TOP
 10
47.345600
 20
1.981200
 40
0.101600
 41
0.101600
 42
0.000000
  0
VERTEX
  8
PG_SILKSCREEN_TOP
 10
44.754800
 20
1.981200
 40
0.101600
 41
0.101600
 42
0.000000
  0
VERTEX
  8
PG_SILKSCREEN_TOP
 10
44.754800
 20
1.803400
 40
0.101600
 41
0.101600
 42
0.000000
  0
SEQEND
  0
POLYLINE
  8
PG_SILKSCREEN_TOP
 66
1
 70
0
 40
0.000000
 41
0.000000
 39
0.000000
  0
VERTEX
  8
PG_SILKSCREEN_TOP
 10
44.754800
 20
0.584200
 40
0.101600
 41
0.101600
 42
0.000000
  0
VERTEX
  8
PG_SILKSCREEN_TOP
 10
44.754800
 20
0.406400
 40
0.101600
 41
0.101600
 42
0.000000
  0
SEQEND
  0
POLYLINE
  8
PG_SILKSCREEN_TOP
 66
1
 70
0
 40
0.000000
 41
0.000000
 39
0.000000
  0
VERTEX
  8
PG_SILKSCREEN_TOP
 10
45.161200
 20
0.406400
 40
0.101600
 41
0.101600
 42
0.000000
  0
VERTEX
  8
PG_SILKSCREEN_TOP
 10
45.161200
 20
1.981200
 40
0.101600
 41
0.101600
 42
0.000000
  0
SEQEND
  0
TEXT
  8
RD_SILKSCREEN_TOP
 10
48.361600
 20
0.914400
 11
0.000000
 21
0.000000
 40
0.609600
 41
1.000000
 50
0.000000
  7
STANDARD
 71
0
 72
0
  1
D5
 73
0
  0
POLYLINE
  8
PIN_TOP
 66
1
 70
1
 40
0.000000
 41
0.000000
 39
0.000000
  0
VERTEX
  8
PIN_TOP
 10
8.216900
 20
16.979900
 40
0.000000
 41
0.000000
 42
0.000000
  0
VERTEX
  8
PIN_TOP
 10
7.226300
 20
16.979900
 40
0.000000
 41
0.000000
 42
0.000000
  0
VERTEX
  8
PIN_TOP
 10
7.226300
 20
17.868900
 40
0.000000
 41
0.000000
 42
0.000000
  0
VERTEX
  8
PIN_TOP
 10
8.216900
 20
17.868900
 40
0.000000
 41
0.000000
 42
0.000000
  0
SEQEND
  0
POLYLINE
  8
PIN_TOP
 66
1
 70
1
 40
0.000000
 41
0.000000
 39
0.000000
  0
VERTEX
  8
PIN_TOP
 10
8.216900
 20
20.180300
 40
0.000000
 41
0.000000
 42
0.000000
  0
VERTEX
  8
PIN_TOP
 10
7.226300
 20
20.180300
 40
0.000000
 41
0.000000
 42
0.000000
  0
VERTEX
  8
PIN_TOP
 10
7.226300
 20
21.069300
 40
0.000000
 41
0.000000
 42
0.000000
  0
VERTEX
  8
PIN_TOP
 10
8.216900
 20
21.069300
 40
0.000000
 41
0.000000
 42
0.000000
  0
SEQEND
  0
POLYLINE
  8
PG_SILKSCREEN_TOP
 66
1
 70
0
 40
0.000000
 41
0.000000
 39
0.000000
  0
VERTEX
  8
PG_SILKSCREEN_TOP
 10
6.934200
 20
20.320000
 40
0.101600
 41
0.101600
 42
0.000000
  0
VERTEX
  8
PG_SILKSCREEN_TOP
 10
6.934200
 20
17.729200
 40
0.101600
 41
0.101600
 42
0.000000
  0
VERTEX
  8
PG_SILKSCREEN_TOP
 10
7.112000
 20
17.729200
 40
0.101600
 41
0.101600
 42
0.000000
  0
SEQEND
  0
POLYLINE
  8
PG_SILKSCREEN_TOP
 66
1
 70
0
 40
0.000000
 41
0.000000
 39
0.000000
  0
VERTEX
  8
PG_SILKSCREEN_TOP
 10
8.331200
 20
17.729200
 40
0.101600
 41
0.101600
 42
0.000000
  0
VERTEX
  8
PG_SILKSCREEN_TOP
 10
8.509000
 20
17.729200
 40
0.101600
 41
0.101600
 42
0.000000
  0
VERTEX
  8
PG_SILKSCREEN_TOP
 10
8.509000
 20
20.320000
 40
0.101600
 41
0.101600
 42
0.000000
  0
VERTEX
  8
PG_SILKSCREEN_TOP
 10
8.331200
 20
20.320000
 40
0.101600
 41
0.101600
 42
0.000000
  0
SEQEND
  0
POLYLINE
  8
PG_SILKSCREEN_TOP
 66
1
 70
0
 40
0.000000
 41
0.000000
 39
0.000000
  0
VERTEX
  8
PG_SILKSCREEN_TOP
 10
7.112000
 20
20.320000
 40
0.101600
 41
0.101600
 42
0.000000
  0
VERTEX
  8
PG_SILKSCREEN_TOP
 10
6.934200
 20
20.320000
 40
0.101600
 41
0.101600
 42
0.000000
  0
SEQEND
  0
POLYLINE
  8
PG_SILKSCREEN_TOP
 66
1
 70
0
 40
0.000000
 41
0.000000
 39
0.000000
  0
VERTEX
  8
PG_SILKSCREEN_TOP
 10
6.934200
 20
19.913600
 40
0.101600
 41
0.101600
 42
0.000000
  0
VERTEX
  8
PG_SILKSCREEN_TOP
 10
8.509000
 20
19.913600
 40
0.101600
 41
0.101600
 42
0.000000
  0
SEQEND
  0
TEXT
  8
RD_SILKSCREEN_TOP
 10
6.629400
 20
18.542000
 11
0.000000
 21
0.000000
 40
0.609600
 41
1.000000
 50
90.000000
  7
STANDARD
 71
0
 72
0
  1
D4
 73
0
  0
POLYLINE
  8
PIN_TOP
 66
1
 70
1
 40
0.000000
 41
0.000000
 39
0.000000
  0
VERTEX
  8
PIN_TOP
 10
18.262600
 20
15.367000
 40
0.000000
 41
0.000000
 42
0.000000
  0
VERTEX
  8
PIN_TOP
 10
18.262600
 20
16.357600
 40
0.000000
 41
0.000000
 42
0.000000
  0
VERTEX
  8
PIN_TOP
 10
19.151600
 20
16.357600
 40
0.000000
 41
0.000000
 42
0.000000
  0
VERTEX
  8
PIN_TOP
 10
19.151600
 20
15.367000
 40
0.000000
 41
0.000000
 42
0.000000
  0
SEQEND
  0
POLYLINE
  8
PIN_TOP
 66
1
 70
1
 40
0.000000
 41
0.000000
 39
0.000000
  0
VERTEX
  8
PIN_TOP
 10
21.463000
 20
15.367000
 40
0.000000
 41
0.000000
 42
0.000000
  0
VERTEX
  8
PIN_TOP
 10
21.463000
 20
16.357600
 40
0.000000
 41
0.000000
 42
0.000000
  0
VERTEX
  8
PIN_TOP
 10
22.352000
 20
16.357600
 40
0.000000
 41
0.000000
 42
0.000000
  0
VERTEX
  8
PIN_TOP
 10
22.352000
 20
15.367000
 40
0.000000
 41
0.000000
 42
0.000000
  0
SEQEND
  0
POLYLINE
  8
PG_SILKSCREEN_TOP
 66
1
 70
0
 40
0.000000
 41
0.000000
 39
0.000000
  0
VERTEX
  8
PG_SILKSCREEN_TOP
 10
21.640800
 20
16.687800
 40
0.101600
 41
0.101600
 42
0.000000
  0
VERTEX
  8
PG_SILKSCREEN_TOP
 10
19.024600
 20
16.687800
 40
0.101600
 41
0.101600
 42
0.000000
  0
VERTEX
  8
PG_SILKSCREEN_TOP
 10
19.024600
 20
16.484600
 40
0.101600
 41
0.101600
 42
0.000000
  0
SEQEND
  0
POLYLINE
  8
PG_SILKSCREEN_TOP
 66
1
 70
0
 40
0.000000
 41
0.000000
 39
0.000000
  0
VERTEX
  8
PG_SILKSCREEN_TOP
 10
19.024600
 20
15.290800
 40
0.101600
 41
0.101600
 42
0.000000
  0
VERTEX
  8
PG_SILKSCREEN_TOP
 10
19.024600
 20
15.087600
 40
0.101600
 41
0.101600
 42
0.000000
  0
VERTEX
  8
PG_SILKSCREEN_TOP
 10
21.640800
 20
15.087600
 40
0.101600
 41
0.101600
 42
0.000000
  0
VERTEX
  8
PG_SILKSCREEN_TOP
 10
21.640800
 20
15.290800
 40
0.101600
 41
0.101600
 42
0.000000
  0
SEQEND
  0
POLYLINE
  8
PG_SILKSCREEN_TOP
 66
1
 70
0
 40
0.000000
 41
0.000000
 39
0.000000
  0
VERTEX
  8
PG_SILKSCREEN_TOP
 10
21.640800
 20
16.484600
 40
0.101600
 41
0.101600
 42
0.000000
  0
VERTEX
  8
PG_SILKSCREEN_TOP
 10
21.640800
 20
16.687800
 40
0.101600
 41
0.101600
 42
0.000000
  0
SEQEND
  0
POLYLINE
  8
PG_SILKSCREEN_TOP
 66
1
 70
0
 40
0.000000
 41
0.000000
 39
0.000000
  0
VERTEX
  8
PG_SILKSCREEN_TOP
 10
21.234400
 20
16.687800
 40
0.101600
 41
0.101600
 42
0.000000
  0
VERTEX
  8
PG_SILKSCREEN_TOP
 10
21.234400
 20
15.087600
 40
0.101600
 41
0.101600
 42
0.000000
  0
SEQEND
  0
TEXT
  8
RD_SILKSCREEN_TOP
 10
22.733000
 20
15.494000
 11
0.000000
 21
0.000000
 40
0.762000
 41
1.000000
 50
0.000000
  7
STANDARD
 71
0
 72
0
  1
D2
 73
0
  0
POLYLINE
  8
PIN_TOP
 66
1
 70
1
 40
0.000000
 41
0.000000
 39
0.000000
  0
VERTEX
  8
PIN_TOP
 10
6.959600
 20
5.588000
 40
0.000000
 41
0.000000
 42
0.000000
  0
VERTEX
  8
PIN_TOP
 10
6.959600
 20
6.578600
 40
0.000000
 41
0.000000
 42
0.000000
  0
VERTEX
  8
PIN_TOP
 10
7.848600
 20
6.578600
 40
0.000000
 41
0.000000
 42
0.000000
  0
VERTEX
  8
PIN_TOP
 10
7.848600
 20
5.588000
 40
0.000000
 41
0.000000
 42
0.000000
  0
SEQEND
  0
POLYLINE
  8
PIN_TOP
 66
1
 70
1
 40
0.000000
 41
0.000000
 39
0.000000
  0
VERTEX
  8
PIN_TOP
 10
10.160000
 20
5.588000
 40
0.000000
 41
0.000000
 42
0.000000
  0
VERTEX
  8
PIN_TOP
 10
10.160000
 20
6.578600
 40
0.000000
 41
0.000000
 42
0.000000
  0
VERTEX
  8
PIN_TOP
 10
11.049000
 20
6.578600
 40
0.000000
 41
0.000000
 42
0.000000
  0
VERTEX
  8
PIN_TOP
 10
11.049000
 20
5.588000
 40
0.000000
 41
0.000000
 42
0.000000
  0
SEQEND
  0
POLYLINE
  8
PG_SILKSCREEN_TOP
 66
1
 70
0
 40
0.000000
 41
0.000000
 39
0.000000
  0
VERTEX
  8
PG_SILKSCREEN_TOP
 10
10.312400
 20
6.908800
 40
0.101600
 41
0.101600
 42
0.000000
  0
VERTEX
  8
PG_SILKSCREEN_TOP
 10
7.721600
 20
6.908800
 40
0.101600
 41
0.101600
 42
0.000000
  0
VERTEX
  8
PG_SILKSCREEN_TOP
 10
7.721600
 20
6.705600
 40
0.101600
 41
0.101600
 42
0.000000
  0
SEQEND
  0
POLYLINE
  8
PG_SILKSCREEN_TOP
 66
1
 70
0
 40
0.000000
 41
0.000000
 39
0.000000
  0
VERTEX
  8
PG_SILKSCREEN_TOP
 10
7.721600
 20
5.511800
 40
0.101600
 41
0.101600
 42
0.000000
  0
VERTEX
  8
PG_SILKSCREEN_TOP
 10
7.721600
 20
5.308600
 40
0.101600
 41
0.101600
 42
0.000000
  0
VERTEX
  8
PG_SILKSCREEN_TOP
 10
10.312400
 20
5.308600
 40
0.101600
 41
0.101600
 42
0.000000
  0
VERTEX
  8
PG_SILKSCREEN_TOP
 10
10.312400
 20
5.511800
 40
0.101600
 41
0.101600
 42
0.000000
  0
SEQEND
  0
POLYLINE
  8
PG_SILKSCREEN_TOP
 66
1
 70
0
 40
0.000000
 41
0.000000
 39
0.000000
  0
VERTEX
  8
PG_SILKSCREEN_TOP
 10
10.312400
 20
6.705600
 40
0.101600
 41
0.101600
 42
0.000000
  0
VERTEX
  8
PG_SILKSCREEN_TOP
 10
10.312400
 20
6.908800
 40
0.101600
 41
0.101600
 42
0.000000
  0
SEQEND
  0
POLYLINE
  8
PG_SILKSCREEN_TOP
 66
1
 70
0
 40
0.000000
 41
0.000000
 39
0.000000
  0
VERTEX
  8
PG_SILKSCREEN_TOP
 10
9.931400
 20
6.908800
 40
0.101600
 41
0.101600
 42
0.000000
  0
VERTEX
  8
PG_SILKSCREEN_TOP
 10
9.931400
 20
5.308600
 40
0.101600
 41
0.101600
 42
0.000000
  0
SEQEND
  0
TEXT
  8
RD_SILKSCREEN_TOP
 10
8.382000
 20
7.239000
 11
0.000000
 21
0.000000
 40
0.762000
 41
1.000000
 50
0.000000
  7
STANDARD
 71
0
 72
0
  1
D1
 73
0
  0
CIRCLE
  8
PIN_TOP
 10
7.366000
 20
7.874000
 40
0.495300
  0
TEXT
  8
RD_SILKSCREEN_TOP
 10
6.223000
 20
8.763000
 11
0.000000
 21
0.000000
 40
0.762000
 41
1.000000
 50
0.000000
  7
STANDARD
 71
0
 72
0
  1
TP1
 73
0
  0
CIRCLE
  8
PIN_TOP
 10
12.573000
 20
10.414000
 40
0.495300
  0
TEXT
  8
RD_SILKSCREEN_TOP
 10
9.652000
 20
10.033000
 11
0.000000
 21
0.000000
 40
0.762000
 41
1.000000
 50
0.000000
  7
STANDARD
 71
0
 72
0
  1
TP2
 73
0
  0
CIRCLE
  8
PIN_TOP
 10
8.051800
 20
22.479000
 40
0.495300
  0
TEXT
  8
RD_SILKSCREEN_TOP
 10
8.331200
 20
22.809200
 11
0.000000
 21
0.000000
 40
0.762000
 41
1.000000
 50
0.000000
  7
STANDARD
 71
0
 72
0
  1
TP3
 73
0
  0
CIRCLE
  8
PIN_TOP
 10
22.479000
 20
23.368000
 40
0.495300
  0
TEXT
  8
RD_SILKSCREEN_TOP
 10
22.733000
 20
20.447000
 11
0.000000
 21
0.000000
 40
0.762000
 41
1.000000
 50
90.000000
  7
STANDARD
 71
0
 72
0
  1
TP4
 73
0
  0
CIRCLE
  8
PIN_TOP
 10
52.705000
 20
26.289000
 40
0.495300
  0
TEXT
  8
RD_SILKSCREEN_TOP
 10
50.673000
 20
24.638000
 11
0.000000
 21
0.000000
 40
0.762000
 41
1.000000
 50
0.000000
  7
STANDARD
 71
0
 72
0
  1
TP5
 73
0
  0
CIRCLE
  8
PIN_TOP
 10
31.242000
 20
13.208000
 40
0.495300
  0
TEXT
  8
RD_SILKSCREEN_TOP
 10
29.972000
 20
11.811000
 11
0.000000
 21
0.000000
 40
0.762000
 41
1.000000
 50
0.000000
  7
STANDARD
 71
0
 72
0
  1
TP6
 73
0
  0
CIRCLE
  8
PIN_TOP
 10
31.242000
 20
14.732000
 40
0.495300
  0
TEXT
  8
RD_SILKSCREEN_TOP
 10
32.893000
 20
13.462000
 11
0.000000
 21
0.000000
 40
0.762000
 41
1.000000
 50
90.000000
  7
STANDARD
 71
0
 72
0
  1
TP7
 73
0
  0
POLYLINE
  8
PIN_TOP
 66
1
 70
1
 40
0.000000
 41
0.000000
 39
0.000000
  0
VERTEX
  8
PIN_TOP
 10
40.093900
 20
32.651700
 40
0.000000
 41
0.000000
 42
0.000000
  0
VERTEX
  8
PIN_TOP
 10
40.093900
 20
31.864300
 40
0.000000
 41
0.000000
 42
0.000000
  0
VERTEX
  8
PIN_TOP
 10
39.204900
 20
31.864300
 40
0.000000
 41
0.000000
 42
0.000000
  0
VERTEX
  8
PIN_TOP
 10
39.204900
 20
32.651700
 40
0.000000
 41
0.000000
 42
0.000000
  0
SEQEND
  0
POLYLINE
  8
PIN_TOP
 66
1
 70
1
 40
0.000000
 41
0.000000
 39
0.000000
  0
VERTEX
  8
PIN_TOP
 10
38.519100
 20
32.651700
 40
0.000000
 41
0.000000
 42
0.000000
  0
VERTEX
  8
PIN_TOP
 10
38.519100
 20
31.864300
 40
0.000000
 41
0.000000
 42
0.000000
  0
VERTEX
  8
PIN_TOP
 10
37.630100
 20
31.864300
 40
0.000000
 41
0.000000
 42
0.000000
  0
VERTEX
  8
PIN_TOP
 10
37.630100
 20
32.651700
 40
0.000000
 41
0.000000
 42
0.000000
  0
SEQEND
  0
POLYLINE
  8
PG_SILKSCREEN_TOP
 66
1
 70
0
 40
0.000000
 41
0.000000
 39
0.000000
  0
VERTEX
  8
PG_SILKSCREEN_TOP
 10
40.360600
 20
31.648400
 40
0.101600
 41
0.101600
 42
0.000000
  0
VERTEX
  8
PG_SILKSCREEN_TOP
 10
37.363400
 20
31.648400
 40
0.101600
 41
0.101600
 42
0.000000
  0
VERTEX
  8
PG_SILKSCREEN_TOP
 10
37.363400
 20
32.867600
 40
0.101600
 41
0.101600
 42
0.000000
  0
VERTEX
  8
PG_SILKSCREEN_TOP
 10
40.360600
 20
32.867600
 40
0.101600
 41
0.101600
 42
0.000000
  0
VERTEX
  8
PG_SILKSCREEN_TOP
 10
40.360600
 20
31.648400
 40
0.101600
 41
0.101600
 42
0.000000
  0
SEQEND
  0
TEXT
  8
RD_SILKSCREEN_TOP
 10
37.795200
 20
29.845000
 11
0.000000
 21
0.000000
 40
0.609600
 41
1.000000
 50
0.000000
  7
STANDARD
 71
0
 72
0
  1
R22
 73
0
  0
POLYLINE
  8
PIN_TOP
 66
1
 70
1
 40
0.000000
 41
0.000000
 39
0.000000
  0
VERTEX
  8
PIN_TOP
 10
40.093900
 20
33.921700
 40
0.000000
 41
0.000000
 42
0.000000
  0
VERTEX
  8
PIN_TOP
 10
40.093900
 20
33.134300
 40
0.000000
 41
0.000000
 42
0.000000
  0
VERTEX
  8
PIN_TOP
 10
39.204900
 20
33.134300
 40
0.000000
 41
0.000000
 42
0.000000
  0
VERTEX
  8
PIN_TOP
 10
39.204900
 20
33.921700
 40
0.000000
 41
0.000000
 42
0.000000
  0
SEQEND
  0
POLYLINE
  8
PIN_TOP
 66
1
 70
1
 40
0.000000
 41
0.000000
 39
0.000000
  0
VERTEX
  8
PIN_TOP
 10
38.519100
 20
33.921700
 40
0.000000
 41
0.000000
 42
0.000000
  0
VERTEX
  8
PIN_TOP
 10
38.519100
 20
33.134300
 40
0.000000
 41
0.000000
 42
0.000000
  0
VERTEX
  8
PIN_TOP
 10
37.630100
 20
33.134300
 40
0.000000
 41
0.000000
 42
0.000000
  0
VERTEX
  8
PIN_TOP
 10
37.630100
 20
33.921700
 40
0.000000
 41
0.000000
 42
0.000000
  0
SEQEND
  0
POLYLINE
  8
PG_SILKSCREEN_TOP
 66
1
 70
0
 40
0.000000
 41
0.000000
 39
0.000000
  0
VERTEX
  8
PG_SILKSCREEN_TOP
 10
40.360600
 20
32.918400
 40
0.101600
 41
0.101600
 42
0.000000
  0
VERTEX
  8
PG_SILKSCREEN_TOP
 10
37.363400
 20
32.918400
 40
0.101600
 41
0.101600
 42
0.000000
  0
VERTEX
  8
PG_SILKSCREEN_TOP
 10
37.363400
 20
34.137600
 40
0.101600
 41
0.101600
 42
0.000000
  0
VERTEX
  8
PG_SILKSCREEN_TOP
 10
40.360600
 20
34.137600
 40
0.101600
 41
0.101600
 42
0.000000
  0
VERTEX
  8
PG_SILKSCREEN_TOP
 10
40.360600
 20
32.918400
 40
0.101600
 41
0.101600
 42
0.000000
  0
SEQEND
  0
TEXT
  8
RD_SILKSCREEN_TOP
 10
37.795200
 20
30.835600
 11
0.000000
 21
0.000000
 40
0.609600
 41
1.000000
 50
0.000000
  7
STANDARD
 71
0
 72
0
  1
R21
 73
0
  0
POLYLINE
  8
PIN_TOP
 66
1
 70
1
 40
0.000000
 41
0.000000
 39
0.000000
  0
VERTEX
  8
PIN_TOP
 10
14.757400
 20
19.151600
 40
0.000000
 41
0.000000
 42
0.000000
  0
VERTEX
  8
PIN_TOP
 10
14.757400
 20
19.939000
 40
0.000000
 41
0.000000
 42
0.000000
  0
VERTEX
  8
PIN_TOP
 10
15.646400
 20
19.939000
 40
0.000000
 41
0.000000
 42
0.000000
  0
VERTEX
  8
PIN_TOP
 10
15.646400
 20
19.151600
 40
0.000000
 41
0.000000
 42
0.000000
  0
SEQEND
  0
POLYLINE
  8
PIN_TOP
 66
1
 70
1
 40
0.000000
 41
0.000000
 39
0.000000
  0
VERTEX
  8
PIN_TOP
 10
16.332200
 20
19.151600
 40
0.000000
 41
0.000000
 42
0.000000
  0
VERTEX
  8
PIN_TOP
 10
16.332200
 20
19.939000
 40
0.000000
 41
0.000000
 42
0.000000
  0
VERTEX
  8
PIN_TOP
 10
17.221200
 20
19.939000
 40
0.000000
 41
0.000000
 42
0.000000
  0
VERTEX
  8
PIN_TOP
 10
17.221200
 20
19.151600
 40
0.000000
 41
0.000000
 42
0.000000
  0
SEQEND
  0
POLYLINE
  8
PG_SILKSCREEN_TOP
 66
1
 70
0
 40
0.000000
 41
0.000000
 39
0.000000
  0
VERTEX
  8
PG_SILKSCREEN_TOP
 10
14.503400
 20
20.167600
 40
0.101600
 41
0.101600
 42
0.000000
  0
VERTEX
  8
PG_SILKSCREEN_TOP
 10
17.500600
 20
20.167600
 40
0.101600
 41
0.101600
 42
0.000000
  0
VERTEX
  8
PG_SILKSCREEN_TOP
 10
17.500600
 20
18.973800
 40
0.101600
 41
0.101600
 42
0.000000
  0
VERTEX
  8
PG_SILKSCREEN_TOP
 10
14.503400
 20
18.973800
 40
0.101600
 41
0.101600
 42
0.000000
  0
VERTEX
  8
PG_SILKSCREEN_TOP
 10
14.503400
 20
20.167600
 40
0.101600
 41
0.101600
 42
0.000000
  0
SEQEND
  0
TEXT
  8
RD_SILKSCREEN_TOP
 10
14.859000
 20
21.971000
 11
0.000000
 21
0.000000
 40
0.762000
 41
1.000000
 50
0.000000
  7
STANDARD
 71
0
 72
0
  1
R12
 73
0
  0
POLYLINE
  8
PIN_TOP
 66
1
 70
1
 40
0.000000
 41
0.000000
 39
0.000000
  0
VERTEX
  8
PIN_TOP
 10
38.747700
 20
20.739100
 40
0.000000
 41
0.000000
 42
0.000000
  0
VERTEX
  8
PIN_TOP
 10
37.960300
 20
20.739100
 40
0.000000
 41
0.000000
 42
0.000000
  0
VERTEX
  8
PIN_TOP
 10
37.960300
 20
21.628100
 40
0.000000
 41
0.000000
 42
0.000000
  0
VERTEX
  8
PIN_TOP
 10
38.747700
 20
21.628100
 40
0.000000
 41
0.000000
 42
0.000000
  0
SEQEND
  0
POLYLINE
  8
PIN_TOP
 66
1
 70
1
 40
0.000000
 41
0.000000
 39
0.000000
  0
VERTEX
  8
PIN_TOP
 10
38.747700
 20
22.313900
 40
0.000000
 41
0.000000
 42
0.000000
  0
VERTEX
  8
PIN_TOP
 10
37.960300
 20
22.313900
 40
0.000000
 41
0.000000
 42
0.000000
  0
VERTEX
  8
PIN_TOP
 10
37.960300
 20
23.202900
 40
0.000000
 41
0.000000
 42
0.000000
  0
VERTEX
  8
PIN_TOP
 10
38.747700
 20
23.202900
 40
0.000000
 41
0.000000
 42
0.000000
  0
SEQEND
  0
POLYLINE
  8
PG_SILKSCREEN_TOP
 66
1
 70
0
 40
0.000000
 41
0.000000
 39
0.000000
  0
VERTEX
  8
PG_SILKSCREEN_TOP
 10
37.744400
 20
20.472400
 40
0.101600
 41
0.101600
 42
0.000000
  0
VERTEX
  8
PG_SILKSCREEN_TOP
 10
37.744400
 20
23.469600
 40
0.101600
 41
0.101600
 42
0.000000
  0
VERTEX
  8
PG_SILKSCREEN_TOP
 10
38.938200
 20
23.469600
 40
0.101600
 41
0.101600
 42
0.000000
  0
VERTEX
  8
PG_SILKSCREEN_TOP
 10
38.938200
 20
20.472400
 40
0.101600
 41
0.101600
 42
0.000000
  0
VERTEX
  8
PG_SILKSCREEN_TOP
 10
37.744400
 20
20.472400
 40
0.101600
 41
0.101600
 42
0.000000
  0
SEQEND
  0
TEXT
  8
RD_SILKSCREEN_TOP
 10
39.878000
 20
20.955000
 11
0.000000
 21
0.000000
 40
0.762000
 41
1.000000
 50
90.000000
  7
STANDARD
 71
0
 72
0
  1
R14
 73
0
  0
POLYLINE
  8
PIN_TOP
 66
1
 70
1
 40
0.000000
 41
0.000000
 39
0.000000
  0
VERTEX
  8
PIN_TOP
 10
33.007300
 20
3.517900
 40
0.000000
 41
0.000000
 42
0.000000
  0
VERTEX
  8
PIN_TOP
 10
33.794700
 20
3.517900
 40
0.000000
 41
0.000000
 42
0.000000
  0
VERTEX
  8
PIN_TOP
 10
33.794700
 20
2.628900
 40
0.000000
 41
0.000000
 42
0.000000
  0
VERTEX
  8
PIN_TOP
 10
33.007300
 20
2.628900
 40
0.000000
 41
0.000000
 42
0.000000
  0
SEQEND
  0
POLYLINE
  8
PIN_TOP
 66
1
 70
1
 40
0.000000
 41
0.000000
 39
0.000000
  0
VERTEX
  8
PIN_TOP
 10
33.007300
 20
1.943100
 40
0.000000
 41
0.000000
 42
0.000000
  0
VERTEX
  8
PIN_TOP
 10
33.794700
 20
1.943100
 40
0.000000
 41
0.000000
 42
0.000000
  0
VERTEX
  8
PIN_TOP
 10
33.794700
 20
1.054100
 40
0.000000
 41
0.000000
 42
0.000000
  0
VERTEX
  8
PIN_TOP
 10
33.007300
 20
1.054100
 40
0.000000
 41
0.000000
 42
0.000000
  0
SEQEND
  0
POLYLINE
  8
PG_SILKSCREEN_TOP
 66
1
 70
0
 40
0.000000
 41
0.000000
 39
0.000000
  0
VERTEX
  8
PG_SILKSCREEN_TOP
 10
33.985200
 20
3.784600
 40
0.101600
 41
0.101600
 42
0.000000
  0
VERTEX
  8
PG_SILKSCREEN_TOP
 10
33.985200
 20
0.787400
 40
0.101600
 41
0.101600
 42
0.000000
  0
VERTEX
  8
PG_SILKSCREEN_TOP
 10
32.791400
 20
0.787400
 40
0.101600
 41
0.101600
 42
0.000000
  0
VERTEX
  8
PG_SILKSCREEN_TOP
 10
32.791400
 20
3.784600
 40
0.101600
 41
0.101600
 42
0.000000
  0
VERTEX
  8
PG_SILKSCREEN_TOP
 10
33.985200
 20
3.784600
 40
0.101600
 41
0.101600
 42
0.000000
  0
SEQEND
  0
TEXT
  8
RD_SILKSCREEN_TOP
 10
31.242000
 20
2.540000
 11
0.000000
 21
0.000000
 40
0.762000
 41
1.000000
 50
90.000000
  7
STANDARD
 71
0
 72
0
  1
R1
 73
0
  0
POLYLINE
  8
PIN_TOP
 66
1
 70
1
 40
0.000000
 41
0.000000
 39
0.000000
  0
VERTEX
  8
PIN_TOP
 10
9.677400
 20
26.771600
 40
0.000000
 41
0.000000
 42
0.000000
  0
VERTEX
  8
PIN_TOP
 10
9.677400
 20
27.559000
 40
0.000000
 41
0.000000
 42
0.000000
  0
VERTEX
  8
PIN_TOP
 10
10.566400
 20
27.559000
 40
0.000000
 41
0.000000
 42
0.000000
  0
VERTEX
  8
PIN_TOP
 10
10.566400
 20
26.771600
 40
0.000000
 41
0.000000
 42
0.000000
  0
SEQEND
  0
POLYLINE
  8
PIN_TOP
 66
1
 70
1
 40
0.000000
 41
0.000000
 39
0.000000
  0
VERTEX
  8
PIN_TOP
 10
11.252200
 20
26.771600
 40
0.000000
 41
0.000000
 42
0.000000
  0
VERTEX
  8
PIN_TOP
 10
11.252200
 20
27.559000
 40
0.000000
 41
0.000000
 42
0.000000
  0
VERTEX
  8
PIN_TOP
 10
12.141200
 20
27.559000
 40
0.000000
 41
0.000000
 42
0.000000
  0
VERTEX
  8
PIN_TOP
 10
12.141200
 20
26.771600
 40
0.000000
 41
0.000000
 42
0.000000
  0
SEQEND
  0
POLYLINE
  8
PG_SILKSCREEN_TOP
 66
1
 70
0
 40
0.000000
 41
0.000000
 39
0.000000
  0
VERTEX
  8
PG_SILKSCREEN_TOP
 10
9.423400
 20
27.787600
 40
0.101600
 41
0.101600
 42
0.000000
  0
VERTEX
  8
PG_SILKSCREEN_TOP
 10
12.420600
 20
27.787600
 40
0.101600
 41
0.101600
 42
0.000000
  0
VERTEX
  8
PG_SILKSCREEN_TOP
 10
12.420600
 20
26.568400
 40
0.101600
 41
0.101600
 42
0.000000
  0
VERTEX
  8
PG_SILKSCREEN_TOP
 10
9.423400
 20
26.568400
 40
0.101600
 41
0.101600
 42
0.000000
  0
VERTEX
  8
PG_SILKSCREEN_TOP
 10
9.423400
 20
27.787600
 40
0.101600
 41
0.101600
 42
0.000000
  0
SEQEND
  0
TEXT
  8
RD_SILKSCREEN_TOP
 10
7.721600
 20
26.873200
 11
0.000000
 21
0.000000
 40
0.762000
 41
1.000000
 50
0.000000
  7
STANDARD
 71
0
 72
0
  1
R9
 73
0
  0
POLYLINE
  8
PIN_TOP
 66
1
 70
1
 40
0.000000
 41
0.000000
 39
0.000000
  0
VERTEX
  8
PIN_TOP
 10
9.677400
 20
24.231600
 40
0.000000
 41
0.000000
 42
0.000000
  0
VERTEX
  8
PIN_TOP
 10
9.677400
 20
25.019000
 40
0.000000
 41
0.000000
 42
0.000000
  0
VERTEX
  8
PIN_TOP
 10
10.566400
 20
25.019000
 40
0.000000
 41
0.000000
 42
0.000000
  0
VERTEX
  8
PIN_TOP
 10
10.566400
 20
24.231600
 40
0.000000
 41
0.000000
 42
0.000000
  0
SEQEND
  0
POLYLINE
  8
PIN_TOP
 66
1
 70
1
 40
0.000000
 41
0.000000
 39
0.000000
  0
VERTEX
  8
PIN_TOP
 10
11.252200
 20
24.231600
 40
0.000000
 41
0.000000
 42
0.000000
  0
VERTEX
  8
PIN_TOP
 10
11.252200
 20
25.019000
 40
0.000000
 41
0.000000
 42
0.000000
  0
VERTEX
  8
PIN_TOP
 10
12.141200
 20
25.019000
 40
0.000000
 41
0.000000
 42
0.000000
  0
VERTEX
  8
PIN_TOP
 10
12.141200
 20
24.231600
 40
0.000000
 41
0.000000
 42
0.000000
  0
SEQEND
  0
POLYLINE
  8
PG_SILKSCREEN_TOP
 66
1
 70
0
 40
0.000000
 41
0.000000
 39
0.000000
  0
VERTEX
  8
PG_SILKSCREEN_TOP
 10
9.423400
 20
25.222200
 40
0.101600
 41
0.101600
 42
0.000000
  0
VERTEX
  8
PG_SILKSCREEN_TOP
 10
12.420600
 20
25.222200
 40
0.101600
 41
0.101600
 42
0.000000
  0
VERTEX
  8
PG_SILKSCREEN_TOP
 10
12.420600
 20
24.028400
 40
0.101600
 41
0.101600
 42
0.000000
  0
VERTEX
  8
PG_SILKSCREEN_TOP
 10
9.423400
 20
24.028400
 40
0.101600
 41
0.101600
 42
0.000000
  0
VERTEX
  8
PG_SILKSCREEN_TOP
 10
9.423400
 20
25.222200
 40
0.101600
 41
0.101600
 42
0.000000
  0
SEQEND
  0
TEXT
  8
RD_SILKSCREEN_TOP
 10
7.747000
 20
24.333200
 11
0.000000
 21
0.000000
 40
0.762000
 41
1.000000
 50
0.000000
  7
STANDARD
 71
0
 72
0
  1
R8
 73
0
  0
POLYLINE
  8
PIN_TOP
 66
1
 70
1
 40
0.000000
 41
0.000000
 39
0.000000
  0
VERTEX
  8
PIN_TOP
 10
9.677400
 20
30.581600
 40
0.000000
 41
0.000000
 42
0.000000
  0
VERTEX
  8
PIN_TOP
 10
9.677400
 20
31.369000
 40
0.000000
 41
0.000000
 42
0.000000
  0
VERTEX
  8
PIN_TOP
 10
10.566400
 20
31.369000
 40
0.000000
 41
0.000000
 42
0.000000
  0
VERTEX
  8
PIN_TOP
 10
10.566400
 20
30.581600
 40
0.000000
 41
0.000000
 42
0.000000
  0
SEQEND
  0
POLYLINE
  8
PIN_TOP
 66
1
 70
1
 40
0.000000
 41
0.000000
 39
0.000000
  0
VERTEX
  8
PIN_TOP
 10
11.252200
 20
30.581600
 40
0.000000
 41
0.000000
 42
0.000000
  0
VERTEX
  8
PIN_TOP
 10
11.252200
 20
31.369000
 40
0.000000
 41
0.000000
 42
0.000000
  0
VERTEX
  8
PIN_TOP
 10
12.141200
 20
31.369000
 40
0.000000
 41
0.000000
 42
0.000000
  0
VERTEX
  8
PIN_TOP
 10
12.141200
 20
30.581600
 40
0.000000
 41
0.000000
 42
0.000000
  0
SEQEND
  0
POLYLINE
  8
PG_SILKSCREEN_TOP
 66
1
 70
0
 40
0.000000
 41
0.000000
 39
0.000000
  0
VERTEX
  8
PG_SILKSCREEN_TOP
 10
9.423400
 20
31.597600
 40
0.101600
 41
0.101600
 42
0.000000
  0
VERTEX
  8
PG_SILKSCREEN_TOP
 10
12.420600
 20
31.597600
 40
0.101600
 41
0.101600
 42
0.000000
  0
VERTEX
  8
PG_SILKSCREEN_TOP
 10
12.420600
 20
30.403800
 40
0.101600
 41
0.101600
 42
0.000000
  0
VERTEX
  8
PG_SILKSCREEN_TOP
 10
9.423400
 20
30.403800
 40
0.101600
 41
0.101600
 42
0.000000
  0
VERTEX
  8
PG_SILKSCREEN_TOP
 10
9.423400
 20
31.597600
 40
0.101600
 41
0.101600
 42
0.000000
  0
SEQEND
  0
TEXT
  8
RD_SILKSCREEN_TOP
 10
7.747000
 20
30.708600
 11
0.000000
 21
0.000000
 40
0.762000
 41
1.000000
 50
0.000000
  7
STANDARD
 71
0
 72
0
  1
R7
 73
0
  0
POLYLINE
  8
PIN_TOP
 66
1
 70
1
 40
0.000000
 41
0.000000
 39
0.000000
  0
VERTEX
  8
PIN_TOP
 10
9.677400
 20
29.311600
 40
0.000000
 41
0.000000
 42
0.000000
  0
VERTEX
  8
PIN_TOP
 10
9.677400
 20
30.099000
 40
0.000000
 41
0.000000
 42
0.000000
  0
VERTEX
  8
PIN_TOP
 10
10.566400
 20
30.099000
 40
0.000000
 41
0.000000
 42
0.000000
  0
VERTEX
  8
PIN_TOP
 10
10.566400
 20
29.311600
 40
0.000000
 41
0.000000
 42
0.000000
  0
SEQEND
  0
POLYLINE
  8
PIN_TOP
 66
1
 70
1
 40
0.000000
 41
0.000000
 39
0.000000
  0
VERTEX
  8
PIN_TOP
 10
11.252200
 20
29.311600
 40
0.000000
 41
0.000000
 42
0.000000
  0
VERTEX
  8
PIN_TOP
 10
11.252200
 20
30.099000
 40
0.000000
 41
0.000000
 42
0.000000
  0
VERTEX
  8
PIN_TOP
 10
12.141200
 20
30.099000
 40
0.000000
 41
0.000000
 42
0.000000
  0
VERTEX
  8
PIN_TOP
 10
12.141200
 20
29.311600
 40
0.000000
 41
0.000000
 42
0.000000
  0
SEQEND
  0
POLYLINE
  8
PG_SILKSCREEN_TOP
 66
1
 70
0
 40
0.000000
 41
0.000000
 39
0.000000
  0
VERTEX
  8
PG_SILKSCREEN_TOP
 10
9.423400
 20
30.327600
 40
0.101600
 41
0.101600
 42
0.000000
  0
VERTEX
  8
PG_SILKSCREEN_TOP
 10
12.420600
 20
30.327600
 40
0.101600
 41
0.101600
 42
0.000000
  0
VERTEX
  8
PG_SILKSCREEN_TOP
 10
12.420600
 20
29.133800
 40
0.101600
 41
0.101600
 42
0.000000
  0
VERTEX
  8
PG_SILKSCREEN_TOP
 10
9.423400
 20
29.133800
 40
0.101600
 41
0.101600
 42
0.000000
  0
VERTEX
  8
PG_SILKSCREEN_TOP
 10
9.423400
 20
30.327600
 40
0.101600
 41
0.101600
 42
0.000000
  0
SEQEND
  0
TEXT
  8
RD_SILKSCREEN_TOP
 10
7.747000
 20
29.438600
 11
0.000000
 21
0.000000
 40
0.762000
 41
1.000000
 50
0.000000
  7
STANDARD
 71
0
 72
0
  1
R6
 73
0
  0
POLYLINE
  8
PIN_TOP
 66
1
 70
1
 40
0.000000
 41
0.000000
 39
0.000000
  0
VERTEX
  8
PIN_TOP
 10
9.677400
 20
28.041600
 40
0.000000
 41
0.000000
 42
0.000000
  0
VERTEX
  8
PIN_TOP
 10
9.677400
 20
28.829000
 40
0.000000
 41
0.000000
 42
0.000000
  0
VERTEX
  8
PIN_TOP
 10
10.566400
 20
28.829000
 40
0.000000
 41
0.000000
 42
0.000000
  0
VERTEX
  8
PIN_TOP
 10
10.566400
 20
28.041600
 40
0.000000
 41
0.000000
 42
0.000000
  0
SEQEND
  0
POLYLINE
  8
PIN_TOP
 66
1
 70
1
 40
0.000000
 41
0.000000
 39
0.000000
  0
VERTEX
  8
PIN_TOP
 10
11.252200
 20
28.041600
 40
0.000000
 41
0.000000
 42
0.000000
  0
VERTEX
  8
PIN_TOP
 10
11.252200
 20
28.829000
 40
0.000000
 41
0.000000
 42
0.000000
  0
VERTEX
  8
PIN_TOP
 10
12.141200
 20
28.829000
 40
0.000000
 41
0.000000
 42
0.000000
  0
VERTEX
  8
PIN_TOP
 10
12.141200
 20
28.041600
 40
0.000000
 41
0.000000
 42
0.000000
  0
SEQEND
  0
POLYLINE
  8
PG_SILKSCREEN_TOP
 66
1
 70
0
 40
0.000000
 41
0.000000
 39
0.000000
  0
VERTEX
  8
PG_SILKSCREEN_TOP
 10
9.423400
 20
29.057600
 40
0.101600
 41
0.101600
 42
0.000000
  0
VERTEX
  8
PG_SILKSCREEN_TOP
 10
12.420600
 20
29.057600
 40
0.101600
 41
0.101600
 42
0.000000
  0
VERTEX
  8
PG_SILKSCREEN_TOP
 10
12.420600
 20
27.863800
 40
0.101600
 41
0.101600
 42
0.000000
  0
VERTEX
  8
PG_SILKSCREEN_TOP
 10
9.423400
 20
27.863800
 40
0.101600
 41
0.101600
 42
0.000000
  0
VERTEX
  8
PG_SILKSCREEN_TOP
 10
9.423400
 20
29.057600
 40
0.101600
 41
0.101600
 42
0.000000
  0
SEQEND
  0
TEXT
  8
RD_SILKSCREEN_TOP
 10
7.747000
 20
28.168600
 11
0.000000
 21
0.000000
 40
0.762000
 41
1.000000
 50
0.000000
  7
STANDARD
 71
0
 72
0
  1
R5
 73
0
  0
POLYLINE
  8
PIN_TOP
 66
1
 70
1
 40
0.000000
 41
0.000000
 39
0.000000
  0
VERTEX
  8
PIN_TOP
 10
9.677400
 20
25.501600
 40
0.000000
 41
0.000000
 42
0.000000
  0
VERTEX
  8
PIN_TOP
 10
9.677400
 20
26.289000
 40
0.000000
 41
0.000000
 42
0.000000
  0
VERTEX
  8
PIN_TOP
 10
10.566400
 20
26.289000
 40
0.000000
 41
0.000000
 42
0.000000
  0
VERTEX
  8
PIN_TOP
 10
10.566400
 20
25.501600
 40
0.000000
 41
0.000000
 42
0.000000
  0
SEQEND
  0
POLYLINE
  8
PIN_TOP
 66
1
 70
1
 40
0.000000
 41
0.000000
 39
0.000000
  0
VERTEX
  8
PIN_TOP
 10
11.252200
 20
25.501600
 40
0.000000
 41
0.000000
 42
0.000000
  0
VERTEX
  8
PIN_TOP
 10
11.252200
 20
26.289000
 40
0.000000
 41
0.000000
 42
0.000000
  0
VERTEX
  8
PIN_TOP
 10
12.141200
 20
26.289000
 40
0.000000
 41
0.000000
 42
0.000000
  0
VERTEX
  8
PIN_TOP
 10
12.141200
 20
25.501600
 40
0.000000
 41
0.000000
 42
0.000000
  0
SEQEND
  0
POLYLINE
  8
PG_SILKSCREEN_TOP
 66
1
 70
0
 40
0.000000
 41
0.000000
 39
0.000000
  0
VERTEX
  8
PG_SILKSCREEN_TOP
 10
9.423400
 20
26.517600
 40
0.101600
 41
0.101600
 42
0.000000
  0
VERTEX
  8
PG_SILKSCREEN_TOP
 10
12.420600
 20
26.517600
 40
0.101600
 41
0.101600
 42
0.000000
  0
VERTEX
  8
PG_SILKSCREEN_TOP
 10
12.420600
 20
25.298400
 40
0.101600
 41
0.101600
 42
0.000000
  0
VERTEX
  8
PG_SILKSCREEN_TOP
 10
9.423400
 20
25.298400
 40
0.101600
 41
0.101600
 42
0.000000
  0
VERTEX
  8
PG_SILKSCREEN_TOP
 10
9.423400
 20
26.517600
 40
0.101600
 41
0.101600
 42
0.000000
  0
SEQEND
  0
TEXT
  8
RD_SILKSCREEN_TOP
 10
7.721600
 20
25.603200
 11
0.000000
 21
0.000000
 40
0.762000
 41
1.000000
 50
0.000000
  7
STANDARD
 71
0
 72
0
  1
R4
 73
0
  0
POLYLINE
  8
PIN_TOP
 66
1
 70
1
 40
0.000000
 41
0.000000
 39
0.000000
  0
VERTEX
  8
PIN_TOP
 10
9.677400
 20
33.121600
 40
0.000000
 41
0.000000
 42
0.000000
  0
VERTEX
  8
PIN_TOP
 10
9.677400
 20
33.909000
 40
0.000000
 41
0.000000
 42
0.000000
  0
VERTEX
  8
PIN_TOP
 10
10.566400
 20
33.909000
 40
0.000000
 41
0.000000
 42
0.000000
  0
VERTEX
  8
PIN_TOP
 10
10.566400
 20
33.121600
 40
0.000000
 41
0.000000
 42
0.000000
  0
SEQEND
  0
POLYLINE
  8
PIN_TOP
 66
1
 70
1
 40
0.000000
 41
0.000000
 39
0.000000
  0
VERTEX
  8
PIN_TOP
 10
11.252200
 20
33.121600
 40
0.000000
 41
0.000000
 42
0.000000
  0
VERTEX
  8
PIN_TOP
 10
11.252200
 20
33.909000
 40
0.000000
 41
0.000000
 42
0.000000
  0
VERTEX
  8
PIN_TOP
 10
12.141200
 20
33.909000
 40
0.000000
 41
0.000000
 42
0.000000
  0
VERTEX
  8
PIN_TOP
 10
12.141200
 20
33.121600
 40
0.000000
 41
0.000000
 42
0.000000
  0
SEQEND
  0
POLYLINE
  8
PG_SILKSCREEN_TOP
 66
1
 70
0
 40
0.000000
 41
0.000000
 39
0.000000
  0
VERTEX
  8
PG_SILKSCREEN_TOP
 10
9.423400
 20
34.137600
 40
0.101600
 41
0.101600
 42
0.000000
  0
VERTEX
  8
PG_SILKSCREEN_TOP
 10
12.420600
 20
34.137600
 40
0.101600
 41
0.101600
 42
0.000000
  0
VERTEX
  8
PG_SILKSCREEN_TOP
 10
12.420600
 20
32.918400
 40
0.101600
 41
0.101600
 42
0.000000
  0
VERTEX
  8
PG_SILKSCREEN_TOP
 10
9.423400
 20
32.918400
 40
0.101600
 41
0.101600
 42
0.000000
  0
VERTEX
  8
PG_SILKSCREEN_TOP
 10
9.423400
 20
34.137600
 40
0.101600
 41
0.101600
 42
0.000000
  0
SEQEND
  0
TEXT
  8
RD_SILKSCREEN_TOP
 10
7.721600
 20
33.223200
 11
0.000000
 21
0.000000
 40
0.762000
 41
1.000000
 50
0.000000
  7
STANDARD
 71
0
 72
0
  1
R3
 73
0
  0
POLYLINE
  8
PIN_TOP
 66
1
 70
1
 40
0.000000
 41
0.000000
 39
0.000000
  0
VERTEX
  8
PIN_TOP
 10
34.175700
 20
20.739100
 40
0.000000
 41
0.000000
 42
0.000000
  0
VERTEX
  8
PIN_TOP
 10
33.388300
 20
20.739100
 40
0.000000
 41
0.000000
 42
0.000000
  0
VERTEX
  8
PIN_TOP
 10
33.388300
 20
21.628100
 40
0.000000
 41
0.000000
 42
0.000000
  0
VERTEX
  8
PIN_TOP
 10
34.175700
 20
21.628100
 40
0.000000
 41
0.000000
 42
0.000000
  0
SEQEND
  0
POLYLINE
  8
PIN_TOP
 66
1
 70
1
 40
0.000000
 41
0.000000
 39
0.000000
  0
VERTEX
  8
PIN_TOP
 10
34.175700
 20
22.313900
 40
0.000000
 41
0.000000
 42
0.000000
  0
VERTEX
  8
PIN_TOP
 10
33.388300
 20
22.313900
 40
0.000000
 41
0.000000
 42
0.000000
  0
VERTEX
  8
PIN_TOP
 10
33.388300
 20
23.202900
 40
0.000000
 41
0.000000
 42
0.000000
  0
VERTEX
  8
PIN_TOP
 10
34.175700
 20
23.202900
 40
0.000000
 41
0.000000
 42
0.000000
  0
SEQEND
  0
POLYLINE
  8
PG_SILKSCREEN_TOP
 66
1
 70
0
 40
0.000000
 41
0.000000
 39
0.000000
  0
VERTEX
  8
PG_SILKSCREEN_TOP
 10
33.172400
 20
20.472400
 40
0.101600
 41
0.101600
 42
0.000000
  0
VERTEX
  8
PG_SILKSCREEN_TOP
 10
33.172400
 20
23.469600
 40
0.101600
 41
0.101600
 42
0.000000
  0
VERTEX
  8
PG_SILKSCREEN_TOP
 10
34.366200
 20
23.469600
 40
0.101600
 41
0.101600
 42
0.000000
  0
VERTEX
  8
PG_SILKSCREEN_TOP
 10
34.366200
 20
20.472400
 40
0.101600
 41
0.101600
 42
0.000000
  0
VERTEX
  8
PG_SILKSCREEN_TOP
 10
33.172400
 20
20.472400
 40
0.101600
 41
0.101600
 42
0.000000
  0
SEQEND
  0
TEXT
  8
RD_SILKSCREEN_TOP
 10
32.893000
 20
19.558000
 11
0.000000
 21
0.000000
 40
0.762000
 41
1.000000
 50
0.000000
  7
STANDARD
 71
0
 72
0
  1
R20
 73
0
  0
POLYLINE
  8
PIN_TOP
 66
1
 70
1
 40
0.000000
 41
0.000000
 39
0.000000
  0
VERTEX
  8
PIN_TOP
 10
9.677400
 20
31.851600
 40
0.000000
 41
0.000000
 42
0.000000
  0
VERTEX
  8
PIN_TOP
 10
9.677400
 20
32.639000
 40
0.000000
 41
0.000000
 42
0.000000
  0
VERTEX
  8
PIN_TOP
 10
10.566400
 20
32.639000
 40
0.000000
 41
0.000000
 42
0.000000
  0
VERTEX
  8
PIN_TOP
 10
10.566400
 20
31.851600
 40
0.000000
 41
0.000000
 42
0.000000
  0
SEQEND
  0
POLYLINE
  8
PIN_TOP
 66
1
 70
1
 40
0.000000
 41
0.000000
 39
0.000000
  0
VERTEX
  8
PIN_TOP
 10
11.252200
 20
31.851600
 40
0.000000
 41
0.000000
 42
0.000000
  0
VERTEX
  8
PIN_TOP
 10
11.252200
 20
32.639000
 40
0.000000
 41
0.000000
 42
0.000000
  0
VERTEX
  8
PIN_TOP
 10
12.141200
 20
32.639000
 40
0.000000
 41
0.000000
 42
0.000000
  0
VERTEX
  8
PIN_TOP
 10
12.141200
 20
31.851600
 40
0.000000
 41
0.000000
 42
0.000000
  0
SEQEND
  0
POLYLINE
  8
PG_SILKSCREEN_TOP
 66
1
 70
0
 40
0.000000
 41
0.000000
 39
0.000000
  0
VERTEX
  8
PG_SILKSCREEN_TOP
 10
9.423400
 20
32.867600
 40
0.101600
 41
0.101600
 42
0.000000
  0
VERTEX
  8
PG_SILKSCREEN_TOP
 10
12.420600
 20
32.867600
 40
0.101600
 41
0.101600
 42
0.000000
  0
VERTEX
  8
PG_SILKSCREEN_TOP
 10
12.420600
 20
31.673800
 40
0.101600
 41
0.101600
 42
0.000000
  0
VERTEX
  8
PG_SILKSCREEN_TOP
 10
9.423400
 20
31.673800
 40
0.101600
 41
0.101600
 42
0.000000
  0
VERTEX
  8
PG_SILKSCREEN_TOP
 10
9.423400
 20
32.867600
 40
0.101600
 41
0.101600
 42
0.000000
  0
SEQEND
  0
TEXT
  8
RD_SILKSCREEN_TOP
 10
7.747000
 20
31.978600
 11
0.000000
 21
0.000000
 40
0.762000
 41
1.000000
 50
0.000000
  7
STANDARD
 71
0
 72
0
  1
R2
 73
0
  0
POLYLINE
  8
PIN_TOP
 66
1
 70
1
 40
0.000000
 41
0.000000
 39
0.000000
  0
VERTEX
  8
PIN_TOP
 10
35.699700
 20
20.739100
 40
0.000000
 41
0.000000
 42
0.000000
  0
VERTEX
  8
PIN_TOP
 10
34.912300
 20
20.739100
 40
0.000000
 41
0.000000
 42
0.000000
  0
VERTEX
  8
PIN_TOP
 10
34.912300
 20
21.628100
 40
0.000000
 41
0.000000
 42
0.000000
  0
VERTEX
  8
PIN_TOP
 10
35.699700
 20
21.628100
 40
0.000000
 41
0.000000
 42
0.000000
  0
SEQEND
  0
POLYLINE
  8
PIN_TOP
 66
1
 70
1
 40
0.000000
 41
0.000000
 39
0.000000
  0
VERTEX
  8
PIN_TOP
 10
35.699700
 20
22.313900
 40
0.000000
 41
0.000000
 42
0.000000
  0
VERTEX
  8
PIN_TOP
 10
34.912300
 20
22.313900
 40
0.000000
 41
0.000000
 42
0.000000
  0
VERTEX
  8
PIN_TOP
 10
34.912300
 20
23.202900
 40
0.000000
 41
0.000000
 42
0.000000
  0
VERTEX
  8
PIN_TOP
 10
35.699700
 20
23.202900
 40
0.000000
 41
0.000000
 42
0.000000
  0
SEQEND
  0
POLYLINE
  8
PG_SILKSCREEN_TOP
 66
1
 70
0
 40
0.000000
 41
0.000000
 39
0.000000
  0
VERTEX
  8
PG_SILKSCREEN_TOP
 10
34.696400
 20
20.472400
 40
0.101600
 41
0.101600
 42
0.000000
  0
VERTEX
  8
PG_SILKSCREEN_TOP
 10
34.696400
 20
23.469600
 40
0.101600
 41
0.101600
 42
0.000000
  0
VERTEX
  8
PG_SILKSCREEN_TOP
 10
35.890200
 20
23.469600
 40
0.101600
 41
0.101600
 42
0.000000
  0
VERTEX
  8
PG_SILKSCREEN_TOP
 10
35.890200
 20
20.472400
 40
0.101600
 41
0.101600
 42
0.000000
  0
VERTEX
  8
PG_SILKSCREEN_TOP
 10
34.696400
 20
20.472400
 40
0.101600
 41
0.101600
 42
0.000000
  0
SEQEND
  0
TEXT
  8
RD_SILKSCREEN_TOP
 10
35.433000
 20
19.431000
 11
0.000000
 21
0.000000
 40
0.762000
 41
1.000000
 50
0.000000
  7
STANDARD
 71
0
 72
0
  1
R19
 73
0
  0
POLYLINE
  8
PIN_TOP
 66
1
 70
1
 40
0.000000
 41
0.000000
 39
0.000000
  0
VERTEX
  8
PIN_TOP
 10
36.436300
 20
23.202900
 40
0.000000
 41
0.000000
 42
0.000000
  0
VERTEX
  8
PIN_TOP
 10
37.223700
 20
23.202900
 40
0.000000
 41
0.000000
 42
0.000000
  0
VERTEX
  8
PIN_TOP
 10
37.223700
 20
22.313900
 40
0.000000
 41
0.000000
 42
0.000000
  0
VERTEX
  8
PIN_TOP
 10
36.436300
 20
22.313900
 40
0.000000
 41
0.000000
 42
0.000000
  0
SEQEND
  0
POLYLINE
  8
PIN_TOP
 66
1
 70
1
 40
0.000000
 41
0.000000
 39
0.000000
  0
VERTEX
  8
PIN_TOP
 10
36.436300
 20
21.628100
 40
0.000000
 41
0.000000
 42
0.000000
  0
VERTEX
  8
PIN_TOP
 10
37.223700
 20
21.628100
 40
0.000000
 41
0.000000
 42
0.000000
  0
VERTEX
  8
PIN_TOP
 10
37.223700
 20
20.739100
 40
0.000000
 41
0.000000
 42
0.000000
  0
VERTEX
  8
PIN_TOP
 10
36.436300
 20
20.739100
 40
0.000000
 41
0.000000
 42
0.000000
  0
SEQEND
  0
POLYLINE
  8
PG_SILKSCREEN_TOP
 66
1
 70
0
 40
0.000000
 41
0.000000
 39
0.000000
  0
VERTEX
  8
PG_SILKSCREEN_TOP
 10
37.439600
 20
23.469600
 40
0.101600
 41
0.101600
 42
0.000000
  0
VERTEX
  8
PG_SILKSCREEN_TOP
 10
37.439600
 20
20.472400
 40
0.101600
 41
0.101600
 42
0.000000
  0
VERTEX
  8
PG_SILKSCREEN_TOP
 10
36.245800
 20
20.472400
 40
0.101600
 41
0.101600
 42
0.000000
  0
VERTEX
  8
PG_SILKSCREEN_TOP
 10
36.245800
 20
23.469600
 40
0.101600
 41
0.101600
 42
0.000000
  0
VERTEX
  8
PG_SILKSCREEN_TOP
 10
37.439600
 20
23.469600
 40
0.101600
 41
0.101600
 42
0.000000
  0
SEQEND
  0
TEXT
  8
RD_SILKSCREEN_TOP
 10
37.211000
 20
23.622000
 11
0.000000
 21
0.000000
 40
0.762000
 41
1.000000
 50
90.000000
  7
STANDARD
 71
0
 72
0
  1
R15
 73
0
  0
POLYLINE
  8
PIN_TOP
 66
1
 70
1
 40
0.000000
 41
0.000000
 39
0.000000
  0
VERTEX
  8
PIN_TOP
 10
39.763700
 20
12.865100
 40
0.000000
 41
0.000000
 42
0.000000
  0
VERTEX
  8
PIN_TOP
 10
38.976300
 20
12.865100
 40
0.000000
 41
0.000000
 42
0.000000
  0
VERTEX
  8
PIN_TOP
 10
38.976300
 20
13.754100
 40
0.000000
 41
0.000000
 42
0.000000
  0
VERTEX
  8
PIN_TOP
 10
39.763700
 20
13.754100
 40
0.000000
 41
0.000000
 42
0.000000
  0
SEQEND
  0
POLYLINE
  8
PIN_TOP
 66
1
 70
1
 40
0.000000
 41
0.000000
 39
0.000000
  0
VERTEX
  8
PIN_TOP
 10
39.763700
 20
14.439900
 40
0.000000
 41
0.000000
 42
0.000000
  0
VERTEX
  8
PIN_TOP
 10
38.976300
 20
14.439900
 40
0.000000
 41
0.000000
 42
0.000000
  0
VERTEX
  8
PIN_TOP
 10
38.976300
 20
15.328900
 40
0.000000
 41
0.000000
 42
0.000000
  0
VERTEX
  8
PIN_TOP
 10
39.763700
 20
15.328900
 40
0.000000
 41
0.000000
 42
0.000000
  0
SEQEND
  0
POLYLINE
  8
PG_SILKSCREEN_TOP
 66
1
 70
0
 40
0.000000
 41
0.000000
 39
0.000000
  0
VERTEX
  8
PG_SILKSCREEN_TOP
 10
38.785800
 20
12.598400
 40
0.101600
 41
0.101600
 42
0.000000
  0
VERTEX
  8
PG_SILKSCREEN_TOP
 10
38.785800
 20
15.621000
 40
0.101600
 41
0.101600
 42
0.000000
  0
VERTEX
  8
PG_SILKSCREEN_TOP
 10
39.979600
 20
15.621000
 40
0.101600
 41
0.101600
 42
0.000000
  0
VERTEX
  8
PG_SILKSCREEN_TOP
 10
39.979600
 20
12.598400
 40
0.101600
 41
0.101600
 42
0.000000
  0
VERTEX
  8
PG_SILKSCREEN_TOP
 10
38.785800
 20
12.598400
 40
0.101600
 41
0.101600
 42
0.000000
  0
SEQEND
  0
TEXT
  8
RD_SILKSCREEN_TOP
 10
41.021000
 20
13.081000
 11
0.000000
 21
0.000000
 40
0.762000
 41
1.000000
 50
90.000000
  7
STANDARD
 71
0
 72
0
  1
R18
 73
0
  0
POLYLINE
  8
PIN_TOP
 66
1
 70
1
 40
0.000000
 41
0.000000
 39
0.000000
  0
VERTEX
  8
PIN_TOP
 10
37.985700
 20
12.865100
 40
0.000000
 41
0.000000
 42
0.000000
  0
VERTEX
  8
PIN_TOP
 10
37.198300
 20
12.865100
 40
0.000000
 41
0.000000
 42
0.000000
  0
VERTEX
  8
PIN_TOP
 10
37.198300
 20
13.754100
 40
0.000000
 41
0.000000
 42
0.000000
  0
VERTEX
  8
PIN_TOP
 10
37.985700
 20
13.754100
 40
0.000000
 41
0.000000
 42
0.000000
  0
SEQEND
  0
POLYLINE
  8
PIN_TOP
 66
1
 70
1
 40
0.000000
 41
0.000000
 39
0.000000
  0
VERTEX
  8
PIN_TOP
 10
37.985700
 20
14.439900
 40
0.000000
 41
0.000000
 42
0.000000
  0
VERTEX
  8
PIN_TOP
 10
37.198300
 20
14.439900
 40
0.000000
 41
0.000000
 42
0.000000
  0
VERTEX
  8
PIN_TOP
 10
37.198300
 20
15.328900
 40
0.000000
 41
0.000000
 42
0.000000
  0
VERTEX
  8
PIN_TOP
 10
37.985700
 20
15.328900
 40
0.000000
 41
0.000000
 42
0.000000
  0
SEQEND
  0
POLYLINE
  8
PG_SILKSCREEN_TOP
 66
1
 70
0
 40
0.000000
 41
0.000000
 39
0.000000
  0
VERTEX
  8
PG_SILKSCREEN_TOP
 10
36.982400
 20
12.598400
 40
0.101600
 41
0.101600
 42
0.000000
  0
VERTEX
  8
PG_SILKSCREEN_TOP
 10
36.982400
 20
15.595600
 40
0.101600
 41
0.101600
 42
0.000000
  0
VERTEX
  8
PG_SILKSCREEN_TOP
 10
38.201600
 20
15.595600
 40
0.101600
 41
0.101600
 42
0.000000
  0
VERTEX
  8
PG_SILKSCREEN_TOP
 10
38.201600
 20
12.598400
 40
0.101600
 41
0.101600
 42
0.000000
  0
VERTEX
  8
PG_SILKSCREEN_TOP
 10
36.982400
 20
12.598400
 40
0.101600
 41
0.101600
 42
0.000000
  0
SEQEND
  0
TEXT
  8
RD_SILKSCREEN_TOP
 10
36.703000
 20
13.081000
 11
0.000000
 21
0.000000
 40
0.762000
 41
1.000000
 50
90.000000
  7
STANDARD
 71
0
 72
0
  1
R16
 73
0
  0
POLYLINE
  8
PIN_TOP
 66
1
 70
1
 40
0.000000
 41
0.000000
 39
0.000000
  0
VERTEX
  8
PIN_TOP
 10
33.642300
 20
15.328900
 40
0.000000
 41
0.000000
 42
0.000000
  0
VERTEX
  8
PIN_TOP
 10
34.429700
 20
15.328900
 40
0.000000
 41
0.000000
 42
0.000000
  0
VERTEX
  8
PIN_TOP
 10
34.429700
 20
14.439900
 40
0.000000
 41
0.000000
 42
0.000000
  0
VERTEX
  8
PIN_TOP
 10
33.642300
 20
14.439900
 40
0.000000
 41
0.000000
 42
0.000000
  0
SEQEND
  0
POLYLINE
  8
PIN_TOP
 66
1
 70
1
 40
0.000000
 41
0.000000
 39
0.000000
  0
VERTEX
  8
PIN_TOP
 10
33.642300
 20
13.754100
 40
0.000000
 41
0.000000
 42
0.000000
  0
VERTEX
  8
PIN_TOP
 10
34.429700
 20
13.754100
 40
0.000000
 41
0.000000
 42
0.000000
  0
VERTEX
  8
PIN_TOP
 10
34.429700
 20
12.865100
 40
0.000000
 41
0.000000
 42
0.000000
  0
VERTEX
  8
PIN_TOP
 10
33.642300
 20
12.865100
 40
0.000000
 41
0.000000
 42
0.000000
  0
SEQEND
  0
POLYLINE
  8
PG_SILKSCREEN_TOP
 66
1
 70
0
 40
0.000000
 41
0.000000
 39
0.000000
  0
VERTEX
  8
PG_SILKSCREEN_TOP
 10
34.645600
 20
15.595600
 40
0.101600
 41
0.101600
 42
0.000000
  0
VERTEX
  8
PG_SILKSCREEN_TOP
 10
34.645600
 20
12.598400
 40
0.101600
 41
0.101600
 42
0.000000
  0
VERTEX
  8
PG_SILKSCREEN_TOP
 10
33.426400
 20
12.598400
 40
0.101600
 41
0.101600
 42
0.000000
  0
VERTEX
  8
PG_SILKSCREEN_TOP
 10
33.426400
 20
15.595600
 40
0.101600
 41
0.101600
 42
0.000000
  0
VERTEX
  8
PG_SILKSCREEN_TOP
 10
34.645600
 20
15.595600
 40
0.101600
 41
0.101600
 42
0.000000
  0
SEQEND
  0
TEXT
  8
RD_SILKSCREEN_TOP
 10
35.687000
 20
13.081000
 11
0.000000
 21
0.000000
 40
0.762000
 41
1.000000
 50
90.000000
  7
STANDARD
 71
0
 72
0
  1
R13
 73
0
  0
POLYLINE
  8
PIN_TOP
 66
1
 70
1
 40
0.000000
 41
0.000000
 39
0.000000
  0
VERTEX
  8
PIN_TOP
 10
21.551900
 20
14.490700
 40
0.000000
 41
0.000000
 42
0.000000
  0
VERTEX
  8
PIN_TOP
 10
21.551900
 20
13.703300
 40
0.000000
 41
0.000000
 42
0.000000
  0
VERTEX
  8
PIN_TOP
 10
20.662900
 20
13.703300
 40
0.000000
 41
0.000000
 42
0.000000
  0
VERTEX
  8
PIN_TOP
 10
20.662900
 20
14.490700
 40
0.000000
 41
0.000000
 42
0.000000
  0
SEQEND
  0
POLYLINE
  8
PIN_TOP
 66
1
 70
1
 40
0.000000
 41
0.000000
 39
0.000000
  0
VERTEX
  8
PIN_TOP
 10
19.977100
 20
14.490700
 40
0.000000
 41
0.000000
 42
0.000000
  0
VERTEX
  8
PIN_TOP
 10
19.977100
 20
13.703300
 40
0.000000
 41
0.000000
 42
0.000000
  0
VERTEX
  8
PIN_TOP
 10
19.088100
 20
13.703300
 40
0.000000
 41
0.000000
 42
0.000000
  0
VERTEX
  8
PIN_TOP
 10
19.088100
 20
14.490700
 40
0.000000
 41
0.000000
 42
0.000000
  0
SEQEND
  0
POLYLINE
  8
PG_SILKSCREEN_TOP
 66
1
 70
0
 40
0.000000
 41
0.000000
 39
0.000000
  0
VERTEX
  8
PG_SILKSCREEN_TOP
 10
21.818600
 20
13.487400
 40
0.101600
 41
0.101600
 42
0.000000
  0
VERTEX
  8
PG_SILKSCREEN_TOP
 10
18.821400
 20
13.487400
 40
0.101600
 41
0.101600
 42
0.000000
  0
VERTEX
  8
PG_SILKSCREEN_TOP
 10
18.821400
 20
14.681200
 40
0.101600
 41
0.101600
 42
0.000000
  0
VERTEX
  8
PG_SILKSCREEN_TOP
 10
21.818600
 20
14.681200
 40
0.101600
 41
0.101600
 42
0.000000
  0
VERTEX
  8
PG_SILKSCREEN_TOP
 10
21.818600
 20
13.487400
 40
0.101600
 41
0.101600
 42
0.000000
  0
SEQEND
  0
TEXT
  8
RD_SILKSCREEN_TOP
 10
22.225000
 20
13.843000
 11
0.000000
 21
0.000000
 40
0.762000
 41
1.000000
 50
0.000000
  7
STANDARD
 71
0
 72
0
  1
R11
 73
0
  0
POLYLINE
  8
PIN_TOP
 66
1
 70
1
 40
0.000000
 41
0.000000
 39
0.000000
  0
VERTEX
  8
PIN_TOP
 10
17.233900
 20
21.475700
 40
0.000000
 41
0.000000
 42
0.000000
  0
VERTEX
  8
PIN_TOP
 10
17.233900
 20
20.688300
 40
0.000000
 41
0.000000
 42
0.000000
  0
VERTEX
  8
PIN_TOP
 10
16.344900
 20
20.688300
 40
0.000000
 41
0.000000
 42
0.000000
  0
VERTEX
  8
PIN_TOP
 10
16.344900
 20
21.475700
 40
0.000000
 41
0.000000
 42
0.000000
  0
SEQEND
  0
POLYLINE
  8
PIN_TOP
 66
1
 70
1
 40
0.000000
 41
0.000000
 39
0.000000
  0
VERTEX
  8
PIN_TOP
 10
15.659100
 20
21.475700
 40
0.000000
 41
0.000000
 42
0.000000
  0
VERTEX
  8
PIN_TOP
 10
15.659100
 20
20.688300
 40
0.000000
 41
0.000000
 42
0.000000
  0
VERTEX
  8
PIN_TOP
 10
14.770100
 20
20.688300
 40
0.000000
 41
0.000000
 42
0.000000
  0
VERTEX
  8
PIN_TOP
 10
14.770100
 20
21.475700
 40
0.000000
 41
0.000000
 42
0.000000
  0
SEQEND
  0
POLYLINE
  8
PG_SILKSCREEN_TOP
 66
1
 70
0
 40
0.000000
 41
0.000000
 39
0.000000
  0
VERTEX
  8
PG_SILKSCREEN_TOP
 10
17.500600
 20
20.472400
 40
0.101600
 41
0.101600
 42
0.000000
  0
VERTEX
  8
PG_SILKSCREEN_TOP
 10
14.503400
 20
20.472400
 40
0.101600
 41
0.101600
 42
0.000000
  0
VERTEX
  8
PG_SILKSCREEN_TOP
 10
14.503400
 20
21.666200
 40
0.101600
 41
0.101600
 42
0.000000
  0
VERTEX
  8
PG_SILKSCREEN_TOP
 10
17.500600
 20
21.666200
 40
0.101600
 41
0.101600
 42
0.000000
  0
VERTEX
  8
PG_SILKSCREEN_TOP
 10
17.500600
 20
20.472400
 40
0.101600
 41
0.101600
 42
0.000000
  0
SEQEND
  0
TEXT
  8
RD_SILKSCREEN_TOP
 10
14.859000
 20
22.987000
 11
0.000000
 21
0.000000
 40
0.762000
 41
1.000000
 50
0.000000
  7
STANDARD
 71
0
 72
0
  1
R10
 73
0
  0
POLYLINE
  8
PIN_TOP
 66
1
 70
1
 40
0.000000
 41
0.000000
 39
0.000000
  0
VERTEX
  8
PIN_TOP
 10
19.075400
 20
17.246600
 40
0.000000
 41
0.000000
 42
0.000000
  0
VERTEX
  8
PIN_TOP
 10
19.075400
 20
18.034000
 40
0.000000
 41
0.000000
 42
0.000000
  0
VERTEX
  8
PIN_TOP
 10
19.964400
 20
18.034000
 40
0.000000
 41
0.000000
 42
0.000000
  0
VERTEX
  8
PIN_TOP
 10
19.964400
 20
17.246600
 40
0.000000
 41
0.000000
 42
0.000000
  0
SEQEND
  0
POLYLINE
  8
PIN_TOP
 66
1
 70
1
 40
0.000000
 41
0.000000
 39
0.000000
  0
VERTEX
  8
PIN_TOP
 10
20.650200
 20
17.246600
 40
0.000000
 41
0.000000
 42
0.000000
  0
VERTEX
  8
PIN_TOP
 10
20.650200
 20
18.034000
 40
0.000000
 41
0.000000
 42
0.000000
  0
VERTEX
  8
PIN_TOP
 10
21.539200
 20
18.034000
 40
0.000000
 41
0.000000
 42
0.000000
  0
VERTEX
  8
PIN_TOP
 10
21.539200
 20
17.246600
 40
0.000000
 41
0.000000
 42
0.000000
  0
SEQEND
  0
POLYLINE
  8
PG_SILKSCREEN_TOP
 66
1
 70
0
 40
0.000000
 41
0.000000
 39
0.000000
  0
VERTEX
  8
PG_SILKSCREEN_TOP
 10
18.821400
 20
18.237200
 40
0.101600
 41
0.101600
 42
0.000000
  0
VERTEX
  8
PG_SILKSCREEN_TOP
 10
21.818600
 20
18.237200
 40
0.101600
 41
0.101600
 42
0.000000
  0
VERTEX
  8
PG_SILKSCREEN_TOP
 10
21.818600
 20
17.043400
 40
0.101600
 41
0.101600
 42
0.000000
  0
VERTEX
  8
PG_SILKSCREEN_TOP
 10
18.821400
 20
17.043400
 40
0.101600
 41
0.101600
 42
0.000000
  0
VERTEX
  8
PG_SILKSCREEN_TOP
 10
18.821400
 20
18.237200
 40
0.101600
 41
0.101600
 42
0.000000
  0
SEQEND
  0
TEXT
  8
RD_SILKSCREEN_TOP
 10
16.510000
 20
17.653000
 11
0.000000
 21
0.000000
 40
0.762000
 41
1.000000
 50
0.000000
  7
STANDARD
 71
0
 72
0
  1
R17
 73
0
  0
POLYLINE
  8
PIN_TOP
 66
1
 70
1
 40
0.000000
 41
0.000000
 39
0.000000
  0
VERTEX
  8
PIN_TOP
 10
15.455900
 20
5.778500
 40
0.000000
 41
0.000000
 42
0.000000
  0
VERTEX
  8
PIN_TOP
 10
13.754100
 20
5.778500
 40
0.000000
 41
0.000000
 42
0.000000
  0
VERTEX
  8
PIN_TOP
 10
13.754100
 20
7.175500
 40
0.000000
 41
0.000000
 42
0.000000
  0
VERTEX
  8
PIN_TOP
 10
15.455900
 20
7.175500
 40
0.000000
 41
0.000000
 42
0.000000
  0
SEQEND
  0
POLYLINE
  8
PIN_TOP
 66
1
 70
1
 40
0.000000
 41
0.000000
 39
0.000000
  0
VERTEX
  8
PIN_TOP
 10
15.455900
 20
8.572500
 40
0.000000
 41
0.000000
 42
0.000000
  0
VERTEX
  8
PIN_TOP
 10
13.754100
 20
8.572500
 40
0.000000
 41
0.000000
 42
0.000000
  0
VERTEX
  8
PIN_TOP
 10
13.754100
 20
9.969500
 40
0.000000
 41
0.000000
 42
0.000000
  0
VERTEX
  8
PIN_TOP
 10
15.455900
 20
9.969500
 40
0.000000
 41
0.000000
 42
0.000000
  0
SEQEND
  0
POLYLINE
  8
PG_SILKSCREEN_TOP
 66
1
 70
0
 40
0.000000
 41
0.000000
 39
0.000000
  0
VERTEX
  8
PG_SILKSCREEN_TOP
 10
13.487400
 20
5.461000
 40
0.203200
 41
0.203200
 42
0.000000
  0
VERTEX
  8
PG_SILKSCREEN_TOP
 10
13.487400
 20
10.261600
 40
0.203200
 41
0.203200
 42
0.000000
  0
VERTEX
  8
PG_SILKSCREEN_TOP
 10
15.697200
 20
10.261600
 40
0.203200
 41
0.203200
 42
0.000000
  0
VERTEX
  8
PG_SILKSCREEN_TOP
 10
15.697200
 20
5.461000
 40
0.203200
 41
0.203200
 42
0.000000
  0
VERTEX
  8
PG_SILKSCREEN_TOP
 10
13.487400
 20
5.461000
 40
0.203200
 41
0.203200
 42
0.000000
  0
SEQEND
  0
POLYLINE
  8
PG_SILKSCREEN_TOP
 66
1
 70
1
 40
0.000000
 41
0.000000
 39
0.000000
  0
VERTEX
  8
PG_SILKSCREEN_TOP
 10
15.392400
 20
8.255000
 40
0.203200
 41
0.203200
 42
0.000000
  0
VERTEX
  8
PG_SILKSCREEN_TOP
 10
15.392400
 20
7.467600
 40
0.203200
 41
0.203200
 42
0.000000
  0
VERTEX
  8
PG_SILKSCREEN_TOP
 10
13.792200
 20
7.467600
 40
0.203200
 41
0.203200
 42
0.000000
  0
VERTEX
  8
PG_SILKSCREEN_TOP
 10
13.792200
 20
8.255000
 40
0.203200
 41
0.203200
 42
0.000000
  0
VERTEX
  8
PG_SILKSCREEN_TOP
 10
13.893800
 20
8.255000
 40
0.203200
 41
0.203200
 42
0.000000
  0
VERTEX
  8
PG_SILKSCREEN_TOP
 10
13.893800
 20
8.051800
 40
0.203200
 41
0.203200
 42
0.000000
  0
VERTEX
  8
PG_SILKSCREEN_TOP
 10
15.290800
 20
8.051800
 40
0.203200
 41
0.203200
 42
0.000000
  0
VERTEX
  8
PG_SILKSCREEN_TOP
 10
15.290800
 20
8.255000
 40
0.203200
 41
0.203200
 42
0.000000
  0
SEQEND
  0
POLYLINE
  8
PG_SILKSCREEN_TOP
 66
1
 70
0
 40
0.000000
 41
0.000000
 39
0.000000
  0
VERTEX
  8
PG_SILKSCREEN_TOP
 10
15.290800
 20
8.128000
 40
0.203200
 41
0.203200
 42
0.000000
  0
VERTEX
  8
PG_SILKSCREEN_TOP
 10
15.392400
 20
8.128000
 40
0.203200
 41
0.203200
 42
0.000000
  0
SEQEND
  0
POLYLINE
  8
PG_SILKSCREEN_TOP
 66
1
 70
0
 40
0.000000
 41
0.000000
 39
0.000000
  0
VERTEX
  8
PG_SILKSCREEN_TOP
 10
13.792200
 20
8.128000
 40
0.203200
 41
0.203200
 42
0.000000
  0
VERTEX
  8
PG_SILKSCREEN_TOP
 10
13.893800
 20
8.128000
 40
0.203200
 41
0.203200
 42
0.000000
  0
SEQEND
  0
POLYLINE
  8
PG_SILKSCREEN_TOP
 66
1
 70
0
 40
0.000000
 41
0.000000
 39
0.000000
  0
VERTEX
  8
PG_SILKSCREEN_TOP
 10
13.792200
 20
7.924800
 40
0.203200
 41
0.203200
 42
0.000000
  0
VERTEX
  8
PG_SILKSCREEN_TOP
 10
15.392400
 20
7.924800
 40
0.203200
 41
0.203200
 42
0.000000
  0
SEQEND
  0
POLYLINE
  8
PG_SILKSCREEN_TOP
 66
1
 70
0
 40
0.000000
 41
0.000000
 39
0.000000
  0
VERTEX
  8
PG_SILKSCREEN_TOP
 10
13.792200
 20
7.721600
 40
0.203200
 41
0.203200
 42
0.000000
  0
VERTEX
  8
PG_SILKSCREEN_TOP
 10
15.392400
 20
7.721600
 40
0.203200
 41
0.203200
 42
0.000000
  0
SEQEND
  0
POLYLINE
  8
PG_SILKSCREEN_TOP
 66
1
 70
0
 40
0.000000
 41
0.000000
 39
0.000000
  0
VERTEX
  8
PG_SILKSCREEN_TOP
 10
13.792200
 20
7.518400
 40
0.203200
 41
0.203200
 42
0.000000
  0
VERTEX
  8
PG_SILKSCREEN_TOP
 10
15.392400
 20
7.518400
 40
0.203200
 41
0.203200
 42
0.000000
  0
SEQEND
  0
TEXT
  8
RD_SILKSCREEN_TOP
 10
16.764000
 20
7.239000
 11
0.000000
 21
0.000000
 40
0.762000
 41
1.000000
 50
90.000000
  7
STANDARD
 71
0
 72
0
  1
F1
 73
0
  0
POLYLINE
  8
PIN_TOP
 66
1
 70
1
 40
0.000000
 41
0.000000
 39
0.000000
  0
VERTEX
  8
PIN_TOP
 10
55.841900
 20
23.964900
 40
0.000000
 41
0.000000
 42
0.000000
  0
VERTEX
  8
PIN_TOP
 10
54.038500
 20
23.964900
 40
0.000000
 41
0.000000
 42
0.000000
  0
VERTEX
  8
PIN_TOP
 10
54.038500
 20
25.260300
 40
0.000000
 41
0.000000
 42
0.000000
  0
VERTEX
  8
PIN_TOP
 10
55.841900
 20
25.260300
 40
0.000000
 41
0.000000
 42
0.000000
  0
SEQEND
  0
POLYLINE
  8
PIN_TOP
 66
1
 70
1
 40
0.000000
 41
0.000000
 39
0.000000
  0
VERTEX
  8
PIN_TOP
 10
55.841900
 20
27.165300
 40
0.000000
 41
0.000000
 42
0.000000
  0
VERTEX
  8
PIN_TOP
 10
54.038500
 20
27.165300
 40
0.000000
 41
0.000000
 42
0.000000
  0
VERTEX
  8
PIN_TOP
 10
54.038500
 20
28.460700
 40
0.000000
 41
0.000000
 42
0.000000
  0
VERTEX
  8
PIN_TOP
 10
55.841900
 20
28.460700
 40
0.000000
 41
0.000000
 42
0.000000
  0
SEQEND
  0
POLYLINE
  8
PG_SILKSCREEN_TOP
 66
1
 70
0
 40
0.000000
 41
0.000000
 39
0.000000
  0
VERTEX
  8
PG_SILKSCREEN_TOP
 10
54.127400
 20
26.035000
 40
0.101600
 41
0.101600
 42
0.000000
  0
VERTEX
  8
PG_SILKSCREEN_TOP
 10
55.626000
 20
26.035000
 40
0.101600
 41
0.101600
 42
0.000000
  0
SEQEND
  0
POLYLINE
  8
PG_SILKSCREEN_TOP
 66
1
 70
0
 40
0.000000
 41
0.000000
 39
0.000000
  0
VERTEX
  8
PG_SILKSCREEN_TOP
 10
54.127400
 20
26.416000
 40
0.101600
 41
0.101600
 42
0.000000
  0
VERTEX
  8
PG_SILKSCREEN_TOP
 10
55.626000
 20
26.416000
 40
0.101600
 41
0.101600
 42
0.000000
  0
SEQEND
  0
POLYLINE
  8
PG_SILKSCREEN_TOP
 66
1
 70
0
 40
0.000000
 41
0.000000
 39
0.000000
  0
VERTEX
  8
PG_SILKSCREEN_TOP
 10
53.644800
 20
23.520400
 40
0.101600
 41
0.101600
 42
0.000000
  0
VERTEX
  8
PG_SILKSCREEN_TOP
 10
53.644800
 20
28.930600
 40
0.101600
 41
0.101600
 42
0.000000
  0
VERTEX
  8
PG_SILKSCREEN_TOP
 10
56.235600
 20
28.930600
 40
0.101600
 41
0.101600
 42
0.000000
  0
VERTEX
  8
PG_SILKSCREEN_TOP
 10
56.235600
 20
23.520400
 40
0.101600
 41
0.101600
 42
0.000000
  0
VERTEX
  8
PG_SILKSCREEN_TOP
 10
53.644800
 20
23.520400
 40
0.101600
 41
0.101600
 42
0.000000
  0
SEQEND
  0
POLYLINE
  8
PG_SILKSCREEN_TOP
 66
1
 70
0
 40
0.000000
 41
0.000000
 39
0.000000
  0
VERTEX
  8
PG_SILKSCREEN_TOP
 10
54.838600
 20
22.936200
 40
0.101600
 41
0.101600
 42
0.000000
  0
VERTEX
  8
PG_SILKSCREEN_TOP
 10
54.838600
 20
23.418800
 40
0.101600
 41
0.101600
 42
0.000000
  0
SEQEND
  0
POLYLINE
  8
PG_SILKSCREEN_TOP
 66
1
 70
0
 40
0.000000
 41
0.000000
 39
0.000000
  0
VERTEX
  8
PG_SILKSCREEN_TOP
 10
54.432200
 20
23.215600
 40
0.101600
 41
0.101600
 42
0.000000
  0
VERTEX
  8
PG_SILKSCREEN_TOP
 10
55.245000
 20
23.215600
 40
0.101600
 41
0.101600
 42
0.000000
  0
SEQEND
  0
TEXT
  8
RD_SILKSCREEN_TOP
 10
54.559200
 20
29.514800
 11
54.813200
 21
29.514800
 40
0.762000
 41
1.000000
 50
0.000000
  7
STANDARD
 71
0
 72
1
  1
C10
 73
0
  0
POLYLINE
  8
PIN_TOP
 66
1
 70
1
 40
0.000000
 41
0.000000
 39
0.000000
  0
VERTEX
  8
PIN_TOP
 10
9.169400
 20
19.405600
 40
0.000000
 41
0.000000
 42
0.000000
  0
VERTEX
  8
PIN_TOP
 10
9.169400
 20
21.209000
 40
0.000000
 41
0.000000
 42
0.000000
  0
VERTEX
  8
PIN_TOP
 10
10.464800
 20
21.209000
 40
0.000000
 41
0.000000
 42
0.000000
  0
VERTEX
  8
PIN_TOP
 10
10.464800
 20
19.405600
 40
0.000000
 41
0.000000
 42
0.000000
  0
SEQEND
  0
POLYLINE
  8
PIN_TOP
 66
1
 70
1
 40
0.000000
 41
0.000000
 39
0.000000
  0
VERTEX
  8
PIN_TOP
 10
12.369800
 20
19.405600
 40
0.000000
 41
0.000000
 42
0.000000
  0
VERTEX
  8
PIN_TOP
 10
12.369800
 20
21.209000
 40
0.000000
 41
0.000000
 42
0.000000
  0
VERTEX
  8
PIN_TOP
 10
13.665200
 20
21.209000
 40
0.000000
 41
0.000000
 42
0.000000
  0
VERTEX
  8
PIN_TOP
 10
13.665200
 20
19.405600
 40
0.000000
 41
0.000000
 42
0.000000
  0
SEQEND
  0
POLYLINE
  8
PG_SILKSCREEN_TOP
 66
1
 70
0
 40
0.000000
 41
0.000000
 39
0.000000
  0
VERTEX
  8
PG_SILKSCREEN_TOP
 10
11.226800
 20
21.132800
 40
0.101600
 41
0.101600
 42
0.000000
  0
VERTEX
  8
PG_SILKSCREEN_TOP
 10
11.226800
 20
19.634200
 40
0.101600
 41
0.101600
 42
0.000000
  0
SEQEND
  0
POLYLINE
  8
PG_SILKSCREEN_TOP
 66
1
 70
0
 40
0.000000
 41
0.000000
 39
0.000000
  0
VERTEX
  8
PG_SILKSCREEN_TOP
 10
11.607800
 20
21.132800
 40
0.101600
 41
0.101600
 42
0.000000
  0
VERTEX
  8
PG_SILKSCREEN_TOP
 10
11.607800
 20
19.634200
 40
0.101600
 41
0.101600
 42
0.000000
  0
SEQEND
  0
POLYLINE
  8
PG_SILKSCREEN_TOP
 66
1
 70
0
 40
0.000000
 41
0.000000
 39
0.000000
  0
VERTEX
  8
PG_SILKSCREEN_TOP
 10
8.712200
 20
21.615400
 40
0.101600
 41
0.101600
 42
0.000000
  0
VERTEX
  8
PG_SILKSCREEN_TOP
 10
14.122400
 20
21.615400
 40
0.101600
 41
0.101600
 42
0.000000
  0
VERTEX
  8
PG_SILKSCREEN_TOP
 10
14.122400
 20
19.024600
 40
0.101600
 41
0.101600
 42
0.000000
  0
VERTEX
  8
PG_SILKSCREEN_TOP
 10
8.712200
 20
19.024600
 40
0.101600
 41
0.101600
 42
0.000000
  0
VERTEX
  8
PG_SILKSCREEN_TOP
 10
8.712200
 20
21.615400
 40
0.101600
 41
0.101600
 42
0.000000
  0
SEQEND
  0
POLYLINE
  8
PG_SILKSCREEN_TOP
 66
1
 70
0
 40
0.000000
 41
0.000000
 39
0.000000
  0
VERTEX
  8
PG_SILKSCREEN_TOP
 10
9.499600
 20
22.225000
 40
0.101600
 41
0.101600
 42
0.000000
  0
VERTEX
  8
PG_SILKSCREEN_TOP
 10
9.982200
 20
22.225000
 40
0.101600
 41
0.101600
 42
0.000000
  0
SEQEND
  0
POLYLINE
  8
PG_SILKSCREEN_TOP
 66
1
 70
0
 40
0.000000
 41
0.000000
 39
0.000000
  0
VERTEX
  8
PG_SILKSCREEN_TOP
 10
9.753600
 20
22.606000
 40
0.101600
 41
0.101600
 42
0.000000
  0
VERTEX
  8
PG_SILKSCREEN_TOP
 10
9.753600
 20
21.793200
 40
0.101600
 41
0.101600
 42
0.000000
  0
SEQEND
  0
TEXT
  8
RD_SILKSCREEN_TOP
 10
11.201400
 20
21.920200
 11
11.455400
 21
21.920200
 40
0.762000
 41
1.000000
 50
0.000000
  7
STANDARD
 71
0
 72
1
  1
C7
 73
0
  0
POLYLINE
  8
PIN_TOP
 66
1
 70
1
 40
0.000000
 41
0.000000
 39
0.000000
  0
VERTEX
  8
PIN_TOP
 10
23.482300
 20
23.075900
 40
0.000000
 41
0.000000
 42
0.000000
  0
VERTEX
  8
PIN_TOP
 10
25.285700
 20
23.075900
 40
0.000000
 41
0.000000
 42
0.000000
  0
VERTEX
  8
PIN_TOP
 10
25.285700
 20
21.780500
 40
0.000000
 41
0.000000
 42
0.000000
  0
VERTEX
  8
PIN_TOP
 10
23.482300
 20
21.780500
 40
0.000000
 41
0.000000
 42
0.000000
  0
SEQEND
  0
POLYLINE
  8
PIN_TOP
 66
1
 70
1
 40
0.000000
 41
0.000000
 39
0.000000
  0
VERTEX
  8
PIN_TOP
 10
23.482300
 20
19.875500
 40
0.000000
 41
0.000000
 42
0.000000
  0
VERTEX
  8
PIN_TOP
 10
25.285700
 20
19.875500
 40
0.000000
 41
0.000000
 42
0.000000
  0
VERTEX
  8
PIN_TOP
 10
25.285700
 20
18.580100
 40
0.000000
 41
0.000000
 42
0.000000
  0
VERTEX
  8
PIN_TOP
 10
23.482300
 20
18.580100
 40
0.000000
 41
0.000000
 42
0.000000
  0
SEQEND
  0
POLYLINE
  8
PG_SILKSCREEN_TOP
 66
1
 70
0
 40
0.000000
 41
0.000000
 39
0.000000
  0
VERTEX
  8
PG_SILKSCREEN_TOP
 10
25.196800
 20
21.005800
 40
0.101600
 41
0.101600
 42
0.000000
  0
VERTEX
  8
PG_SILKSCREEN_TOP
 10
23.672800
 20
21.005800
 40
0.101600
 41
0.101600
 42
0.000000
  0
SEQEND
  0
POLYLINE
  8
PG_SILKSCREEN_TOP
 66
1
 70
0
 40
0.000000
 41
0.000000
 39
0.000000
  0
VERTEX
  8
PG_SILKSCREEN_TOP
 10
25.196800
 20
20.624800
 40
0.101600
 41
0.101600
 42
0.000000
  0
VERTEX
  8
PG_SILKSCREEN_TOP
 10
23.672800
 20
20.624800
 40
0.101600
 41
0.101600
 42
0.000000
  0
SEQEND
  0
POLYLINE
  8
PG_SILKSCREEN_TOP
 66
1
 70
0
 40
0.000000
 41
0.000000
 39
0.000000
  0
VERTEX
  8
PG_SILKSCREEN_TOP
 10
25.679400
 20
23.520400
 40
0.101600
 41
0.101600
 42
0.000000
  0
VERTEX
  8
PG_SILKSCREEN_TOP
 10
25.679400
 20
18.110200
 40
0.101600
 41
0.101600
 42
0.000000
  0
VERTEX
  8
PG_SILKSCREEN_TOP
 10
23.088600
 20
18.110200
 40
0.101600
 41
0.101600
 42
0.000000
  0
VERTEX
  8
PG_SILKSCREEN_TOP
 10
23.088600
 20
23.520400
 40
0.101600
 41
0.101600
 42
0.000000
  0
VERTEX
  8
PG_SILKSCREEN_TOP
 10
25.679400
 20
23.520400
 40
0.101600
 41
0.101600
 42
0.000000
  0
SEQEND
  0
POLYLINE
  8
PG_SILKSCREEN_TOP
 66
1
 70
0
 40
0.000000
 41
0.000000
 39
0.000000
  0
VERTEX
  8
PG_SILKSCREEN_TOP
 10
24.485600
 20
24.104600
 40
0.101600
 41
0.101600
 42
0.000000
  0
VERTEX
  8
PG_SILKSCREEN_TOP
 10
24.485600
 20
23.622000
 40
0.101600
 41
0.101600
 42
0.000000
  0
SEQEND
  0
POLYLINE
  8
PG_SILKSCREEN_TOP
 66
1
 70
0
 40
0.000000
 41
0.000000
 39
0.000000
  0
VERTEX
  8
PG_SILKSCREEN_TOP
 10
24.892000
 20
23.825200
 40
0.101600
 41
0.101600
 42
0.000000
  0
VERTEX
  8
PG_SILKSCREEN_TOP
 10
24.079200
 20
23.825200
 40
0.101600
 41
0.101600
 42
0.000000
  0
SEQEND
  0
TEXT
  8
RD_SILKSCREEN_TOP
 10
24.130000
 20
17.018000
 11
24.384000
 21
17.018000
 40
0.762000
 41
1.000000
 50
0.000000
  7
STANDARD
 71
0
 72
1
  1
C8
 73
0
  0
POLYLINE
  8
PIN_TOP
 66
1
 70
1
 40
0.000000
 41
0.000000
 39
0.000000
  0
VERTEX
  8
PIN_TOP
 10
13.868400
 20
11.023600
 40
0.000000
 41
0.000000
 42
0.000000
  0
VERTEX
  8
PIN_TOP
 10
13.868400
 20
12.827000
 40
0.000000
 41
0.000000
 42
0.000000
  0
VERTEX
  8
PIN_TOP
 10
15.163800
 20
12.827000
 40
0.000000
 41
0.000000
 42
0.000000
  0
VERTEX
  8
PIN_TOP
 10
15.163800
 20
11.023600
 40
0.000000
 41
0.000000
 42
0.000000
  0
SEQEND
  0
POLYLINE
  8
PIN_TOP
 66
1
 70
1
 40
0.000000
 41
0.000000
 39
0.000000
  0
VERTEX
  8
PIN_TOP
 10
17.068800
 20
11.023600
 40
0.000000
 41
0.000000
 42
0.000000
  0
VERTEX
  8
PIN_TOP
 10
17.068800
 20
12.827000
 40
0.000000
 41
0.000000
 42
0.000000
  0
VERTEX
  8
PIN_TOP
 10
18.364200
 20
12.827000
 40
0.000000
 41
0.000000
 42
0.000000
  0
VERTEX
  8
PIN_TOP
 10
18.364200
 20
11.023600
 40
0.000000
 41
0.000000
 42
0.000000
  0
SEQEND
  0
POLYLINE
  8
PG_SILKSCREEN_TOP
 66
1
 70
0
 40
0.000000
 41
0.000000
 39
0.000000
  0
VERTEX
  8
PG_SILKSCREEN_TOP
 10
15.925800
 20
12.750800
 40
0.101600
 41
0.101600
 42
0.000000
  0
VERTEX
  8
PG_SILKSCREEN_TOP
 10
15.925800
 20
11.252200
 40
0.101600
 41
0.101600
 42
0.000000
  0
SEQEND
  0
POLYLINE
  8
PG_SILKSCREEN_TOP
 66
1
 70
0
 40
0.000000
 41
0.000000
 39
0.000000
  0
VERTEX
  8
PG_SILKSCREEN_TOP
 10
16.306800
 20
12.750800
 40
0.101600
 41
0.101600
 42
0.000000
  0
VERTEX
  8
PG_SILKSCREEN_TOP
 10
16.306800
 20
11.252200
 40
0.101600
 41
0.101600
 42
0.000000
  0
SEQEND
  0
POLYLINE
  8
PG_SILKSCREEN_TOP
 66
1
 70
0
 40
0.000000
 41
0.000000
 39
0.000000
  0
VERTEX
  8
PG_SILKSCREEN_TOP
 10
13.411200
 20
13.258800
 40
0.101600
 41
0.101600
 42
0.000000
  0
VERTEX
  8
PG_SILKSCREEN_TOP
 10
18.821400
 20
13.258800
 40
0.101600
 41
0.101600
 42
0.000000
  0
VERTEX
  8
PG_SILKSCREEN_TOP
 10
18.821400
 20
10.642600
 40
0.101600
 41
0.101600
 42
0.000000
  0
VERTEX
  8
PG_SILKSCREEN_TOP
 10
13.411200
 20
10.642600
 40
0.101600
 41
0.101600
 42
0.000000
  0
VERTEX
  8
PG_SILKSCREEN_TOP
 10
13.411200
 20
13.258800
 40
0.101600
 41
0.101600
 42
0.000000
  0
SEQEND
  0
POLYLINE
  8
PG_SILKSCREEN_TOP
 66
1
 70
0
 40
0.000000
 41
0.000000
 39
0.000000
  0
VERTEX
  8
PG_SILKSCREEN_TOP
 10
12.827000
 20
12.039600
 40
0.101600
 41
0.101600
 42
0.000000
  0
VERTEX
  8
PG_SILKSCREEN_TOP
 10
13.309600
 20
12.039600
 40
0.101600
 41
0.101600
 42
0.000000
  0
SEQEND
  0
POLYLINE
  8
PG_SILKSCREEN_TOP
 66
1
 70
0
 40
0.000000
 41
0.000000
 39
0.000000
  0
VERTEX
  8
PG_SILKSCREEN_TOP
 10
13.106400
 20
12.446000
 40
0.101600
 41
0.101600
 42
0.000000
  0
VERTEX
  8
PG_SILKSCREEN_TOP
 10
13.106400
 20
11.658600
 40
0.101600
 41
0.101600
 42
0.000000
  0
SEQEND
  0
TEXT
  8
RD_SILKSCREEN_TOP
 10
11.811000
 20
11.303000
 11
12.065000
 21
11.303000
 40
0.762000
 41
1.000000
 50
0.000000
  7
STANDARD
 71
0
 72
1
  1
C6
 73
0
  0
POLYLINE
  8
PIN_TOP
 66
1
 70
1
 40
0.000000
 41
0.000000
 39
0.000000
  0
VERTEX
  8
PIN_TOP
 10
52.590700
 20
29.933900
 40
0.000000
 41
0.000000
 42
0.000000
  0
VERTEX
  8
PIN_TOP
 10
52.590700
 20
28.740100
 40
0.000000
 41
0.000000
 42
0.000000
  0
VERTEX
  8
PIN_TOP
 10
48.094900
 20
28.740100
 40
0.000000
 41
0.000000
 42
0.000000
  0
VERTEX
  8
PIN_TOP
 10
48.094900
 20
29.933900
 40
0.000000
 41
0.000000
 42
0.000000
  0
SEQEND
  0
POLYLINE
  8
PIN_TOP
 66
1
 70
1
 40
0.000000
 41
0.000000
 39
0.000000
  0
VERTEX
  8
PIN_TOP
 10
44.615100
 20
29.933900
 40
0.000000
 41
0.000000
 42
0.000000
  0
VERTEX
  8
PIN_TOP
 10
44.615100
 20
28.740100
 40
0.000000
 41
0.000000
 42
0.000000
  0
VERTEX
  8
PIN_TOP
 10
40.119300
 20
28.740100
 40
0.000000
 41
0.000000
 42
0.000000
  0
VERTEX
  8
PIN_TOP
 10
40.119300
 20
29.933900
 40
0.000000
 41
0.000000
 42
0.000000
  0
SEQEND
  0
POLYLINE
  8
PG_SILKSCREEN_TOP
 66
1
 70
0
 40
0.000000
 41
0.000000
 39
0.000000
  0
VERTEX
  8
PG_SILKSCREEN_TOP
 10
51.358800
 20
29.337000
 40
0.101600
 41
0.101600
 42
1.000824
  0
VERTEX
  8
PG_SILKSCREEN_TOP
 10
41.376600
 20
29.311600
 40
0.101600
 41
0.101600
 42
0.999177
  0
VERTEX
  8
PG_SILKSCREEN_TOP
 10
51.358800
 20
29.337000
 40
0.101600
 41
0.101600
 42
0.000000
  0
SEQEND
  0
POLYLINE
  8
PG_SILKSCREEN_TOP
 66
1
 70
0
 40
0.000000
 41
0.000000
 39
0.000000
  0
VERTEX
  8
PG_SILKSCREEN_TOP
 10
46.355000
 20
24.333200
 40
0.101600
 41
0.101600
 42
0.000000
  0
VERTEX
  8
PG_SILKSCREEN_TOP
 10
46.355000
 20
34.340800
 40
0.101600
 41
0.101600
 42
0.000000
  0
SEQEND
  0
POLYLINE
  8
PG_SILKSCREEN_TOP
 66
1
 70
0
 40
0.000000
 41
0.000000
 39
0.000000
  0
VERTEX
  8
PG_SILKSCREEN_TOP
 10
46.355000
 20
24.917400
 40
0.101600
 41
0.101600
 42
0.000000
  0
VERTEX
  8
PG_SILKSCREEN_TOP
 10
43.967400
 20
24.917400
 40
0.101600
 41
0.101600
 42
0.000000
  0
SEQEND
  0
POLYLINE
  8
PG_SILKSCREEN_TOP
 66
1
 70
0
 40
0.000000
 41
0.000000
 39
0.000000
  0
VERTEX
  8
PG_SILKSCREEN_TOP
 10
46.355000
 20
25.730200
 40
0.101600
 41
0.101600
 42
0.000000
  0
VERTEX
  8
PG_SILKSCREEN_TOP
 10
42.976800
 20
25.730200
 40
0.101600
 41
0.101600
 42
0.000000
  0
SEQEND
  0
POLYLINE
  8
PG_SILKSCREEN_TOP
 66
1
 70
0
 40
0.000000
 41
0.000000
 39
0.000000
  0
VERTEX
  8
PG_SILKSCREEN_TOP
 10
46.355000
 20
26.517600
 40
0.101600
 41
0.101600
 42
0.000000
  0
VERTEX
  8
PG_SILKSCREEN_TOP
 10
42.367200
 20
26.517600
 40
0.101600
 41
0.101600
 42
0.000000
  0
SEQEND
  0
POLYLINE
  8
PG_SILKSCREEN_TOP
 66
1
 70
0
 40
0.000000
 41
0.000000
 39
0.000000
  0
VERTEX
  8
PG_SILKSCREEN_TOP
 10
46.355000
 20
27.330400
 40
0.101600
 41
0.101600
 42
0.000000
  0
VERTEX
  8
PG_SILKSCREEN_TOP
 10
41.757600
 20
27.330400
 40
0.101600
 41
0.101600
 42
0.000000
  0
SEQEND
  0
POLYLINE
  8
PG_SILKSCREEN_TOP
 66
1
 70
0
 40
0.000000
 41
0.000000
 39
0.000000
  0
VERTEX
  8
PG_SILKSCREEN_TOP
 10
46.355000
 20
28.117800
 40
0.101600
 41
0.101600
 42
0.000000
  0
VERTEX
  8
PG_SILKSCREEN_TOP
 10
41.554400
 20
28.117800
 40
0.101600
 41
0.101600
 42
0.000000
  0
SEQEND
  0
POLYLINE
  8
PG_SILKSCREEN_TOP
 66
1
 70
0
 40
0.000000
 41
0.000000
 39
0.000000
  0
VERTEX
  8
PG_SILKSCREEN_TOP
 10
46.355000
 20
28.727400
 40
0.101600
 41
0.101600
 42
0.000000
  0
VERTEX
  8
PG_SILKSCREEN_TOP
 10
44.958000
 20
28.727400
 40
0.101600
 41
0.101600
 42
0.000000
  0
SEQEND
  0
POLYLINE
  8
PG_SILKSCREEN_TOP
 66
1
 70
0
 40
0.000000
 41
0.000000
 39
0.000000
  0
VERTEX
  8
PG_SILKSCREEN_TOP
 10
46.355000
 20
29.337000
 40
0.101600
 41
0.101600
 42
0.000000
  0
VERTEX
  8
PG_SILKSCREEN_TOP
 10
44.958000
 20
29.337000
 40
0.101600
 41
0.101600
 42
0.000000
  0
SEQEND
  0
POLYLINE
  8
PG_SILKSCREEN_TOP
 66
1
 70
0
 40
0.000000
 41
0.000000
 39
0.000000
  0
VERTEX
  8
PG_SILKSCREEN_TOP
 10
46.355000
 20
29.921200
 40
0.101600
 41
0.101600
 42
0.000000
  0
VERTEX
  8
PG_SILKSCREEN_TOP
 10
44.958000
 20
29.921200
 40
0.101600
 41
0.101600
 42
0.000000
  0
SEQEND
  0
POLYLINE
  8
PG_SILKSCREEN_TOP
 66
1
 70
0
 40
0.000000
 41
0.000000
 39
0.000000
  0
VERTEX
  8
PG_SILKSCREEN_TOP
 10
46.355000
 20
30.734000
 40
0.101600
 41
0.101600
 42
0.000000
  0
VERTEX
  8
PG_SILKSCREEN_TOP
 10
41.554400
 20
30.734000
 40
0.101600
 41
0.101600
 42
0.000000
  0
SEQEND
  0
POLYLINE
  8
PG_SILKSCREEN_TOP
 66
1
 70
0
 40
0.000000
 41
0.000000
 39
0.000000
  0
VERTEX
  8
PG_SILKSCREEN_TOP
 10
46.355000
 20
31.521400
 40
0.101600
 41
0.101600
 42
0.000000
  0
VERTEX
  8
PG_SILKSCREEN_TOP
 10
41.960800
 20
31.521400
 40
0.101600
 41
0.101600
 42
0.000000
  0
SEQEND
  0
POLYLINE
  8
PG_SILKSCREEN_TOP
 66
1
 70
0
 40
0.000000
 41
0.000000
 39
0.000000
  0
VERTEX
  8
PG_SILKSCREEN_TOP
 10
46.355000
 20
32.537400
 40
0.101600
 41
0.101600
 42
0.000000
  0
VERTEX
  8
PG_SILKSCREEN_TOP
 10
42.570400
 20
32.537400
 40
0.101600
 41
0.101600
 42
0.000000
  0
SEQEND
  0
POLYLINE
  8
PG_SILKSCREEN_TOP
 66
1
 70
0
 40
0.000000
 41
0.000000
 39
0.000000
  0
VERTEX
  8
PG_SILKSCREEN_TOP
 10
46.355000
 20
33.324800
 40
0.101600
 41
0.101600
 42
0.000000
  0
VERTEX
  8
PG_SILKSCREEN_TOP
 10
43.357800
 20
33.324800
 40
0.101600
 41
0.101600
 42
0.000000
  0
SEQEND
  0
POLYLINE
  8
PG_SILKSCREEN_TOP
 66
1
 70
0
 40
0.000000
 41
0.000000
 39
0.000000
  0
VERTEX
  8
PG_SILKSCREEN_TOP
 10
41.173400
 20
30.226000
 40
0.101600
 41
0.101600
 42
0.000000
  0
VERTEX
  8
PG_SILKSCREEN_TOP
 10
41.173400
 20
34.518600
 40
0.101600
 41
0.101600
 42
0.000000
  0
VERTEX
  8
PG_SILKSCREEN_TOP
 10
49.174400
 20
34.518600
 40
0.101600
 41
0.101600
 42
0.000000
  0
VERTEX
  8
PG_SILKSCREEN_TOP
 10
51.562000
 20
32.131000
 40
0.101600
 41
0.101600
 42
0.000000
  0
VERTEX
  8
PG_SILKSCREEN_TOP
 10
51.562000
 20
30.226000
 40
0.101600
 41
0.101600
 42
0.000000
  0
SEQEND
  0
POLYLINE
  8
PG_SILKSCREEN_TOP
 66
1
 70
0
 40
0.000000
 41
0.000000
 39
0.000000
  0
VERTEX
  8
PG_SILKSCREEN_TOP
 10
51.562000
 20
28.524200
 40
0.101600
 41
0.101600
 42
0.000000
  0
VERTEX
  8
PG_SILKSCREEN_TOP
 10
51.562000
 20
26.517600
 40
0.101600
 41
0.101600
 42
0.000000
  0
VERTEX
  8
PG_SILKSCREEN_TOP
 10
49.174400
 20
24.130000
 40
0.101600
 41
0.101600
 42
0.000000
  0
VERTEX
  8
PG_SILKSCREEN_TOP
 10
41.173400
 20
24.130000
 40
0.101600
 41
0.101600
 42
0.000000
  0
VERTEX
  8
PG_SILKSCREEN_TOP
 10
41.173400
 20
28.524200
 40
0.101600
 41
0.101600
 42
0.000000
  0
SEQEND
  0
TEXT
  8
RD_SILKSCREEN_TOP
 10
50.927000
 20
33.020000
 11
0.000000
 21
0.000000
 40
0.762000
 41
1.000000
 50
0.000000
  7
STANDARD
 71
0
 72
0
  1
C9
 73
0
  0
POLYLINE
  8
PIN_TOP
 66
1
 70
1
 40
0.000000
 41
0.000000
 39
0.000000
  0
VERTEX
  8
PIN_TOP
 10
36.436300
 20
1.943100
 40
0.000000
 41
0.000000
 42
0.000000
  0
VERTEX
  8
PIN_TOP
 10
37.223700
 20
1.943100
 40
0.000000
 41
0.000000
 42
0.000000
  0
VERTEX
  8
PIN_TOP
 10
37.223700
 20
1.054100
 40
0.000000
 41
0.000000
 42
0.000000
  0
VERTEX
  8
PIN_TOP
 10
36.436300
 20
1.054100
 40
0.000000
 41
0.000000
 42
0.000000
  0
SEQEND
  0
POLYLINE
  8
PIN_TOP
 66
1
 70
1
 40
0.000000
 41
0.000000
 39
0.000000
  0
VERTEX
  8
PIN_TOP
 10
36.436300
 20
3.517900
 40
0.000000
 41
0.000000
 42
0.000000
  0
VERTEX
  8
PIN_TOP
 10
37.223700
 20
3.517900
 40
0.000000
 41
0.000000
 42
0.000000
  0
VERTEX
  8
PIN_TOP
 10
37.223700
 20
2.628900
 40
0.000000
 41
0.000000
 42
0.000000
  0
VERTEX
  8
PIN_TOP
 10
36.436300
 20
2.628900
 40
0.000000
 41
0.000000
 42
0.000000
  0
SEQEND
  0
POLYLINE
  8
PG_SILKSCREEN_TOP
 66
1
 70
0
 40
0.000000
 41
0.000000
 39
0.000000
  0
VERTEX
  8
PG_SILKSCREEN_TOP
 10
37.439600
 20
1.981200
 40
0.101600
 41
0.101600
 42
0.000000
  0
VERTEX
  8
PG_SILKSCREEN_TOP
 10
37.439600
 20
0.889000
 40
0.101600
 41
0.101600
 42
0.000000
  0
VERTEX
  8
PG_SILKSCREEN_TOP
 10
36.245800
 20
0.889000
 40
0.101600
 41
0.101600
 42
0.000000
  0
VERTEX
  8
PG_SILKSCREEN_TOP
 10
36.245800
 20
1.981200
 40
0.101600
 41
0.101600
 42
0.000000
  0
SEQEND
  0
POLYLINE
  8
PG_SILKSCREEN_TOP
 66
1
 70
0
 40
0.000000
 41
0.000000
 39
0.000000
  0
VERTEX
  8
PG_SILKSCREEN_TOP
 10
36.245800
 20
2.590800
 40
0.101600
 41
0.101600
 42
0.000000
  0
VERTEX
  8
PG_SILKSCREEN_TOP
 10
36.245800
 20
3.683000
 40
0.101600
 41
0.101600
 42
0.000000
  0
VERTEX
  8
PG_SILKSCREEN_TOP
 10
37.439600
 20
3.683000
 40
0.101600
 41
0.101600
 42
0.000000
  0
SEQEND
  0
POLYLINE
  8
PG_SILKSCREEN_TOP
 66
1
 70
0
 40
0.000000
 41
0.000000
 39
0.000000
  0
VERTEX
  8
PG_SILKSCREEN_TOP
 10
37.134800
 20
2.184400
 40
0.101600
 41
0.101600
 42
0.000000
  0
VERTEX
  8
PG_SILKSCREEN_TOP
 10
36.525200
 20
2.184400
 40
0.101600
 41
0.101600
 42
0.000000
  0
SEQEND
  0
POLYLINE
  8
PG_SILKSCREEN_TOP
 66
1
 70
0
 40
0.000000
 41
0.000000
 39
0.000000
  0
VERTEX
  8
PG_SILKSCREEN_TOP
 10
37.134800
 20
2.387600
 40
0.101600
 41
0.101600
 42
0.000000
  0
VERTEX
  8
PG_SILKSCREEN_TOP
 10
36.525200
 20
2.387600
 40
0.101600
 41
0.101600
 42
0.000000
  0
SEQEND
  0
POLYLINE
  8
PG_SILKSCREEN_TOP
 66
1
 70
0
 40
0.000000
 41
0.000000
 39
0.000000
  0
VERTEX
  8
PG_SILKSCREEN_TOP
 10
37.439600
 20
3.683000
 40
0.101600
 41
0.101600
 42
0.000000
  0
VERTEX
  8
PG_SILKSCREEN_TOP
 10
37.439600
 20
2.590800
 40
0.101600
 41
0.101600
 42
0.000000
  0
SEQEND
  0
TEXT
  8
RD_SILKSCREEN_TOP
 10
31.242000
 20
0.635000
 11
0.000000
 21
0.000000
 40
0.762000
 41
1.000000
 50
90.000000
  7
STANDARD
 71
0
 72
0
  1
C1
 73
0
  0
POLYLINE
  8
PIN_TOP
 66
1
 70
1
 40
0.000000
 41
0.000000
 39
0.000000
  0
VERTEX
  8
PIN_TOP
 10
38.747700
 20
2.628900
 40
0.000000
 41
0.000000
 42
0.000000
  0
VERTEX
  8
PIN_TOP
 10
37.960300
 20
2.628900
 40
0.000000
 41
0.000000
 42
0.000000
  0
VERTEX
  8
PIN_TOP
 10
37.960300
 20
3.517900
 40
0.000000
 41
0.000000
 42
0.000000
  0
VERTEX
  8
PIN_TOP
 10
38.747700
 20
3.517900
 40
0.000000
 41
0.000000
 42
0.000000
  0
SEQEND
  0
POLYLINE
  8
PIN_TOP
 66
1
 70
1
 40
0.000000
 41
0.000000
 39
0.000000
  0
VERTEX
  8
PIN_TOP
 10
38.747700
 20
1.054100
 40
0.000000
 41
0.000000
 42
0.000000
  0
VERTEX
  8
PIN_TOP
 10
37.960300
 20
1.054100
 40
0.000000
 41
0.000000
 42
0.000000
  0
VERTEX
  8
PIN_TOP
 10
37.960300
 20
1.943100
 40
0.000000
 41
0.000000
 42
0.000000
  0
VERTEX
  8
PIN_TOP
 10
38.747700
 20
1.943100
 40
0.000000
 41
0.000000
 42
0.000000
  0
SEQEND
  0
POLYLINE
  8
PG_SILKSCREEN_TOP
 66
1
 70
0
 40
0.000000
 41
0.000000
 39
0.000000
  0
VERTEX
  8
PG_SILKSCREEN_TOP
 10
37.744400
 20
2.590800
 40
0.101600
 41
0.101600
 42
0.000000
  0
VERTEX
  8
PG_SILKSCREEN_TOP
 10
37.744400
 20
3.683000
 40
0.101600
 41
0.101600
 42
0.000000
  0
VERTEX
  8
PG_SILKSCREEN_TOP
 10
38.938200
 20
3.683000
 40
0.101600
 41
0.101600
 42
0.000000
  0
VERTEX
  8
PG_SILKSCREEN_TOP
 10
38.938200
 20
2.590800
 40
0.101600
 41
0.101600
 42
0.000000
  0
SEQEND
  0
POLYLINE
  8
PG_SILKSCREEN_TOP
 66
1
 70
0
 40
0.000000
 41
0.000000
 39
0.000000
  0
VERTEX
  8
PG_SILKSCREEN_TOP
 10
38.938200
 20
1.981200
 40
0.101600
 41
0.101600
 42
0.000000
  0
VERTEX
  8
PG_SILKSCREEN_TOP
 10
38.938200
 20
0.889000
 40
0.101600
 41
0.101600
 42
0.000000
  0
VERTEX
  8
PG_SILKSCREEN_TOP
 10
37.744400
 20
0.889000
 40
0.101600
 41
0.101600
 42
0.000000
  0
SEQEND
  0
POLYLINE
  8
PG_SILKSCREEN_TOP
 66
1
 70
0
 40
0.000000
 41
0.000000
 39
0.000000
  0
VERTEX
  8
PG_SILKSCREEN_TOP
 10
38.049200
 20
2.387600
 40
0.101600
 41
0.101600
 42
0.000000
  0
VERTEX
  8
PG_SILKSCREEN_TOP
 10
38.658800
 20
2.387600
 40
0.101600
 41
0.101600
 42
0.000000
  0
SEQEND
  0
POLYLINE
  8
PG_SILKSCREEN_TOP
 66
1
 70
0
 40
0.000000
 41
0.000000
 39
0.000000
  0
VERTEX
  8
PG_SILKSCREEN_TOP
 10
38.049200
 20
2.184400
 40
0.101600
 41
0.101600
 42
0.000000
  0
VERTEX
  8
PG_SILKSCREEN_TOP
 10
38.658800
 20
2.184400
 40
0.101600
 41
0.101600
 42
0.000000
  0
SEQEND
  0
POLYLINE
  8
PG_SILKSCREEN_TOP
 66
1
 70
0
 40
0.000000
 41
0.000000
 39
0.000000
  0
VERTEX
  8
PG_SILKSCREEN_TOP
 10
37.744400
 20
0.889000
 40
0.101600
 41
0.101600
 42
0.000000
  0
VERTEX
  8
PG_SILKSCREEN_TOP
 10
37.744400
 20
1.981200
 40
0.101600
 41
0.101600
 42
0.000000
  0
SEQEND
  0
TEXT
  8
RD_SILKSCREEN_TOP
 10
32.512000
 20
0.635000
 11
0.000000
 21
0.000000
 40
0.762000
 41
1.000000
 50
90.000000
  7
STANDARD
 71
0
 72
0
  1
C5
 73
0
  0
POLYLINE
  8
PIN_TOP
 66
1
 70
1
 40
0.000000
 41
0.000000
 39
0.000000
  0
VERTEX
  8
PIN_TOP
 10
57.492900
 20
26.428700
 40
0.000000
 41
0.000000
 42
0.000000
  0
VERTEX
  8
PIN_TOP
 10
56.705500
 20
26.428700
 40
0.000000
 41
0.000000
 42
0.000000
  0
VERTEX
  8
PIN_TOP
 10
56.705500
 20
27.317700
 40
0.000000
 41
0.000000
 42
0.000000
  0
VERTEX
  8
PIN_TOP
 10
57.492900
 20
27.317700
 40
0.000000
 41
0.000000
 42
0.000000
  0
SEQEND
  0
POLYLINE
  8
PIN_TOP
 66
1
 70
1
 40
0.000000
 41
0.000000
 39
0.000000
  0
VERTEX
  8
PIN_TOP
 10
57.492900
 20
24.853900
 40
0.000000
 41
0.000000
 42
0.000000
  0
VERTEX
  8
PIN_TOP
 10
56.705500
 20
24.853900
 40
0.000000
 41
0.000000
 42
0.000000
  0
VERTEX
  8
PIN_TOP
 10
56.705500
 20
25.742900
 40
0.000000
 41
0.000000
 42
0.000000
  0
VERTEX
  8
PIN_TOP
 10
57.492900
 20
25.742900
 40
0.000000
 41
0.000000
 42
0.000000
  0
SEQEND
  0
POLYLINE
  8
PG_SILKSCREEN_TOP
 66
1
 70
0
 40
0.000000
 41
0.000000
 39
0.000000
  0
VERTEX
  8
PG_SILKSCREEN_TOP
 10
56.489600
 20
26.390600
 40
0.101600
 41
0.101600
 42
0.000000
  0
VERTEX
  8
PG_SILKSCREEN_TOP
 10
56.489600
 20
27.482800
 40
0.101600
 41
0.101600
 42
0.000000
  0
VERTEX
  8
PG_SILKSCREEN_TOP
 10
57.708800
 20
27.482800
 40
0.101600
 41
0.101600
 42
0.000000
  0
VERTEX
  8
PG_SILKSCREEN_TOP
 10
57.708800
 20
26.390600
 40
0.101600
 41
0.101600
 42
0.000000
  0
SEQEND
  0
POLYLINE
  8
PG_SILKSCREEN_TOP
 66
1
 70
0
 40
0.000000
 41
0.000000
 39
0.000000
  0
VERTEX
  8
PG_SILKSCREEN_TOP
 10
57.708800
 20
25.781000
 40
0.101600
 41
0.101600
 42
0.000000
  0
VERTEX
  8
PG_SILKSCREEN_TOP
 10
57.708800
 20
24.688800
 40
0.101600
 41
0.101600
 42
0.000000
  0
VERTEX
  8
PG_SILKSCREEN_TOP
 10
56.489600
 20
24.688800
 40
0.101600
 41
0.101600
 42
0.000000
  0
SEQEND
  0
POLYLINE
  8
PG_SILKSCREEN_TOP
 66
1
 70
0
 40
0.000000
 41
0.000000
 39
0.000000
  0
VERTEX
  8
PG_SILKSCREEN_TOP
 10
56.794400
 20
26.187400
 40
0.101600
 41
0.101600
 42
0.000000
  0
VERTEX
  8
PG_SILKSCREEN_TOP
 10
57.404000
 20
26.187400
 40
0.101600
 41
0.101600
 42
0.000000
  0
SEQEND
  0
POLYLINE
  8
PG_SILKSCREEN_TOP
 66
1
 70
0
 40
0.000000
 41
0.000000
 39
0.000000
  0
VERTEX
  8
PG_SILKSCREEN_TOP
 10
56.794400
 20
25.984200
 40
0.101600
 41
0.101600
 42
0.000000
  0
VERTEX
  8
PG_SILKSCREEN_TOP
 10
57.404000
 20
25.984200
 40
0.101600
 41
0.101600
 42
0.000000
  0
SEQEND
  0
POLYLINE
  8
PG_SILKSCREEN_TOP
 66
1
 70
0
 40
0.000000
 41
0.000000
 39
0.000000
  0
VERTEX
  8
PG_SILKSCREEN_TOP
 10
56.489600
 20
24.688800
 40
0.101600
 41
0.101600
 42
0.000000
  0
VERTEX
  8
PG_SILKSCREEN_TOP
 10
56.489600
 20
25.781000
 40
0.101600
 41
0.101600
 42
0.000000
  0
SEQEND
  0
TEXT
  8
RD_SILKSCREEN_TOP
 10
57.404000
 20
27.762200
 11
0.000000
 21
0.000000
 40
0.762000
 41
1.000000
 50
90.000000
  7
STANDARD
 71
0
 72
0
  1
C11
 73
0
  0
POLYLINE
  8
PIN_TOP
 66
1
 70
1
 40
0.000000
 41
0.000000
 39
0.000000
  0
VERTEX
  8
PIN_TOP
 10
26.149300
 20
21.755100
 40
0.000000
 41
0.000000
 42
0.000000
  0
VERTEX
  8
PIN_TOP
 10
26.936700
 20
21.755100
 40
0.000000
 41
0.000000
 42
0.000000
  0
VERTEX
  8
PIN_TOP
 10
26.936700
 20
20.866100
 40
0.000000
 41
0.000000
 42
0.000000
  0
VERTEX
  8
PIN_TOP
 10
26.149300
 20
20.866100
 40
0.000000
 41
0.000000
 42
0.000000
  0
SEQEND
  0
POLYLINE
  8
PIN_TOP
 66
1
 70
1
 40
0.000000
 41
0.000000
 39
0.000000
  0
VERTEX
  8
PIN_TOP
 10
26.149300
 20
23.329900
 40
0.000000
 41
0.000000
 42
0.000000
  0
VERTEX
  8
PIN_TOP
 10
26.936700
 20
23.329900
 40
0.000000
 41
0.000000
 42
0.000000
  0
VERTEX
  8
PIN_TOP
 10
26.936700
 20
22.440900
 40
0.000000
 41
0.000000
 42
0.000000
  0
VERTEX
  8
PIN_TOP
 10
26.149300
 20
22.440900
 40
0.000000
 41
0.000000
 42
0.000000
  0
SEQEND
  0
POLYLINE
  8
PG_SILKSCREEN_TOP
 66
1
 70
0
 40
0.000000
 41
0.000000
 39
0.000000
  0
VERTEX
  8
PG_SILKSCREEN_TOP
 10
27.152600
 20
21.793200
 40
0.101600
 41
0.101600
 42
0.000000
  0
VERTEX
  8
PG_SILKSCREEN_TOP
 10
27.152600
 20
20.701000
 40
0.101600
 41
0.101600
 42
0.000000
  0
VERTEX
  8
PG_SILKSCREEN_TOP
 10
25.933400
 20
20.701000
 40
0.101600
 41
0.101600
 42
0.000000
  0
VERTEX
  8
PG_SILKSCREEN_TOP
 10
25.933400
 20
21.793200
 40
0.101600
 41
0.101600
 42
0.000000
  0
SEQEND
  0
POLYLINE
  8
PG_SILKSCREEN_TOP
 66
1
 70
0
 40
0.000000
 41
0.000000
 39
0.000000
  0
VERTEX
  8
PG_SILKSCREEN_TOP
 10
25.933400
 20
22.402800
 40
0.101600
 41
0.101600
 42
0.000000
  0
VERTEX
  8
PG_SILKSCREEN_TOP
 10
25.933400
 20
23.495000
 40
0.101600
 41
0.101600
 42
0.000000
  0
VERTEX
  8
PG_SILKSCREEN_TOP
 10
27.152600
 20
23.495000
 40
0.101600
 41
0.101600
 42
0.000000
  0
SEQEND
  0
POLYLINE
  8
PG_SILKSCREEN_TOP
 66
1
 70
0
 40
0.000000
 41
0.000000
 39
0.000000
  0
VERTEX
  8
PG_SILKSCREEN_TOP
 10
26.847800
 20
21.996400
 40
0.101600
 41
0.101600
 42
0.000000
  0
VERTEX
  8
PG_SILKSCREEN_TOP
 10
26.238200
 20
21.996400
 40
0.101600
 41
0.101600
 42
0.000000
  0
SEQEND
  0
POLYLINE
  8
PG_SILKSCREEN_TOP
 66
1
 70
0
 40
0.000000
 41
0.000000
 39
0.000000
  0
VERTEX
  8
PG_SILKSCREEN_TOP
 10
26.847800
 20
22.199600
 40
0.101600
 41
0.101600
 42
0.000000
  0
VERTEX
  8
PG_SILKSCREEN_TOP
 10
26.238200
 20
22.199600
 40
0.101600
 41
0.101600
 42
0.000000
  0
SEQEND
  0
POLYLINE
  8
PG_SILKSCREEN_TOP
 66
1
 70
0
 40
0.000000
 41
0.000000
 39
0.000000
  0
VERTEX
  8
PG_SILKSCREEN_TOP
 10
27.152600
 20
23.495000
 40
0.101600
 41
0.101600
 42
0.000000
  0
VERTEX
  8
PG_SILKSCREEN_TOP
 10
27.152600
 20
22.402800
 40
0.101600
 41
0.101600
 42
0.000000
  0
SEQEND
  0
TEXT
  8
RD_SILKSCREEN_TOP
 10
26.797000
 20
19.050000
 11
0.000000
 21
0.000000
 40
0.762000
 41
1.000000
 50
90.000000
  7
STANDARD
 71
0
 72
0
  1
C2
 73
0
  0
POLYLINE
  8
PIN_TOP
 66
1
 70
1
 40
0.000000
 41
0.000000
 39
0.000000
  0
VERTEX
  8
PIN_TOP
 10
34.404300
 20
1.943100
 40
0.000000
 41
0.000000
 42
0.000000
  0
VERTEX
  8
PIN_TOP
 10
35.191700
 20
1.943100
 40
0.000000
 41
0.000000
 42
0.000000
  0
VERTEX
  8
PIN_TOP
 10
35.191700
 20
1.054100
 40
0.000000
 41
0.000000
 42
0.000000
  0
VERTEX
  8
PIN_TOP
 10
34.404300
 20
1.054100
 40
0.000000
 41
0.000000
 42
0.000000
  0
SEQEND
  0
POLYLINE
  8
PIN_TOP
 66
1
 70
1
 40
0.000000
 41
0.000000
 39
0.000000
  0
VERTEX
  8
PIN_TOP
 10
34.404300
 20
3.517900
 40
0.000000
 41
0.000000
 42
0.000000
  0
VERTEX
  8
PIN_TOP
 10
35.191700
 20
3.517900
 40
0.000000
 41
0.000000
 42
0.000000
  0
VERTEX
  8
PIN_TOP
 10
35.191700
 20
2.628900
 40
0.000000
 41
0.000000
 42
0.000000
  0
VERTEX
  8
PIN_TOP
 10
34.404300
 20
2.628900
 40
0.000000
 41
0.000000
 42
0.000000
  0
SEQEND
  0
POLYLINE
  8
PG_SILKSCREEN_TOP
 66
1
 70
0
 40
0.000000
 41
0.000000
 39
0.000000
  0
VERTEX
  8
PG_SILKSCREEN_TOP
 10
35.407600
 20
1.981200
 40
0.101600
 41
0.101600
 42
0.000000
  0
VERTEX
  8
PG_SILKSCREEN_TOP
 10
35.407600
 20
0.889000
 40
0.101600
 41
0.101600
 42
0.000000
  0
VERTEX
  8
PG_SILKSCREEN_TOP
 10
34.188400
 20
0.889000
 40
0.101600
 41
0.101600
 42
0.000000
  0
VERTEX
  8
PG_SILKSCREEN_TOP
 10
34.188400
 20
1.981200
 40
0.101600
 41
0.101600
 42
0.000000
  0
SEQEND
  0
POLYLINE
  8
PG_SILKSCREEN_TOP
 66
1
 70
0
 40
0.000000
 41
0.000000
 39
0.000000
  0
VERTEX
  8
PG_SILKSCREEN_TOP
 10
34.188400
 20
2.590800
 40
0.101600
 41
0.101600
 42
0.000000
  0
VERTEX
  8
PG_SILKSCREEN_TOP
 10
34.188400
 20
3.683000
 40
0.101600
 41
0.101600
 42
0.000000
  0
VERTEX
  8
PG_SILKSCREEN_TOP
 10
35.407600
 20
3.683000
 40
0.101600
 41
0.101600
 42
0.000000
  0
SEQEND
  0
POLYLINE
  8
PG_SILKSCREEN_TOP
 66
1
 70
0
 40
0.000000
 41
0.000000
 39
0.000000
  0
VERTEX
  8
PG_SILKSCREEN_TOP
 10
35.102800
 20
2.184400
 40
0.101600
 41
0.101600
 42
0.000000
  0
VERTEX
  8
PG_SILKSCREEN_TOP
 10
34.493200
 20
2.184400
 40
0.101600
 41
0.101600
 42
0.000000
  0
SEQEND
  0
POLYLINE
  8
PG_SILKSCREEN_TOP
 66
1
 70
0
 40
0.000000
 41
0.000000
 39
0.000000
  0
VERTEX
  8
PG_SILKSCREEN_TOP
 10
35.102800
 20
2.387600
 40
0.101600
 41
0.101600
 42
0.000000
  0
VERTEX
  8
PG_SILKSCREEN_TOP
 10
34.493200
 20
2.387600
 40
0.101600
 41
0.101600
 42
0.000000
  0
SEQEND
  0
POLYLINE
  8
PG_SILKSCREEN_TOP
 66
1
 70
0
 40
0.000000
 41
0.000000
 39
0.000000
  0
VERTEX
  8
PG_SILKSCREEN_TOP
 10
35.407600
 20
3.683000
 40
0.101600
 41
0.101600
 42
0.000000
  0
VERTEX
  8
PG_SILKSCREEN_TOP
 10
35.407600
 20
2.590800
 40
0.101600
 41
0.101600
 42
0.000000
  0
SEQEND
  0
TEXT
  8
RD_SILKSCREEN_TOP
 10
32.512000
 20
2.540000
 11
0.000000
 21
0.000000
 40
0.762000
 41
1.000000
 50
90.000000
  7
STANDARD
 71
0
 72
0
  1
C4
 73
0
  0
POLYLINE
  8
PIN_TOP
 66
1
 70
1
 40
0.000000
 41
0.000000
 39
0.000000
  0
VERTEX
  8
PIN_TOP
 10
29.286200
 20
14.325600
 40
0.000000
 41
0.000000
 42
0.000000
  0
VERTEX
  8
PIN_TOP
 10
29.286200
 20
15.113000
 40
0.000000
 41
0.000000
 42
0.000000
  0
VERTEX
  8
PIN_TOP
 10
30.175200
 20
15.113000
 40
0.000000
 41
0.000000
 42
0.000000
  0
VERTEX
  8
PIN_TOP
 10
30.175200
 20
14.325600
 40
0.000000
 41
0.000000
 42
0.000000
  0
SEQEND
  0
POLYLINE
  8
PIN_TOP
 66
1
 70
1
 40
0.000000
 41
0.000000
 39
0.000000
  0
VERTEX
  8
PIN_TOP
 10
27.711400
 20
14.325600
 40
0.000000
 41
0.000000
 42
0.000000
  0
VERTEX
  8
PIN_TOP
 10
27.711400
 20
15.113000
 40
0.000000
 41
0.000000
 42
0.000000
  0
VERTEX
  8
PIN_TOP
 10
28.600400
 20
15.113000
 40
0.000000
 41
0.000000
 42
0.000000
  0
VERTEX
  8
PIN_TOP
 10
28.600400
 20
14.325600
 40
0.000000
 41
0.000000
 42
0.000000
  0
SEQEND
  0
POLYLINE
  8
PG_SILKSCREEN_TOP
 66
1
 70
0
 40
0.000000
 41
0.000000
 39
0.000000
  0
VERTEX
  8
PG_SILKSCREEN_TOP
 10
29.260800
 20
15.341600
 40
0.101600
 41
0.101600
 42
0.000000
  0
VERTEX
  8
PG_SILKSCREEN_TOP
 10
30.353000
 20
15.341600
 40
0.101600
 41
0.101600
 42
0.000000
  0
VERTEX
  8
PG_SILKSCREEN_TOP
 10
30.353000
 20
14.122400
 40
0.101600
 41
0.101600
 42
0.000000
  0
VERTEX
  8
PG_SILKSCREEN_TOP
 10
29.260800
 20
14.122400
 40
0.101600
 41
0.101600
 42
0.000000
  0
SEQEND
  0
POLYLINE
  8
PG_SILKSCREEN_TOP
 66
1
 70
0
 40
0.000000
 41
0.000000
 39
0.000000
  0
VERTEX
  8
PG_SILKSCREEN_TOP
 10
28.651200
 20
14.122400
 40
0.101600
 41
0.101600
 42
0.000000
  0
VERTEX
  8
PG_SILKSCREEN_TOP
 10
27.559000
 20
14.122400
 40
0.101600
 41
0.101600
 42
0.000000
  0
VERTEX
  8
PG_SILKSCREEN_TOP
 10
27.559000
 20
15.341600
 40
0.101600
 41
0.101600
 42
0.000000
  0
SEQEND
  0
POLYLINE
  8
PG_SILKSCREEN_TOP
 66
1
 70
0
 40
0.000000
 41
0.000000
 39
0.000000
  0
VERTEX
  8
PG_SILKSCREEN_TOP
 10
29.057600
 20
15.036800
 40
0.101600
 41
0.101600
 42
0.000000
  0
VERTEX
  8
PG_SILKSCREEN_TOP
 10
29.057600
 20
14.427200
 40
0.101600
 41
0.101600
 42
0.000000
  0
SEQEND
  0
POLYLINE
  8
PG_SILKSCREEN_TOP
 66
1
 70
0
 40
0.000000
 41
0.000000
 39
0.000000
  0
VERTEX
  8
PG_SILKSCREEN_TOP
 10
28.854400
 20
15.036800
 40
0.101600
 41
0.101600
 42
0.000000
  0
VERTEX
  8
PG_SILKSCREEN_TOP
 10
28.854400
 20
14.427200
 40
0.101600
 41
0.101600
 42
0.000000
  0
SEQEND
  0
POLYLINE
  8
PG_SILKSCREEN_TOP
 66
1
 70
0
 40
0.000000
 41
0.000000
 39
0.000000
  0
VERTEX
  8
PG_SILKSCREEN_TOP
 10
27.559000
 20
15.341600
 40
0.101600
 41
0.101600
 42
0.000000
  0
VERTEX
  8
PG_SILKSCREEN_TOP
 10
28.651200
 20
15.341600
 40
0.101600
 41
0.101600
 42
0.000000
  0
SEQEND
  0
TEXT
  8
RD_SILKSCREEN_TOP
 10
25.273000
 20
14.351000
 11
0.000000
 21
0.000000
 40
0.762000
 41
1.000000
 50
0.000000
  7
STANDARD
 71
0
 72
0
  1
C12
 73
0
  0
POLYLINE
  8
PIN_TOP
 66
1
 70
1
 40
0.000000
 41
0.000000
 39
0.000000
  0
VERTEX
  8
PIN_TOP
 10
42.710100
 20
1.968500
 40
0.000000
 41
0.000000
 42
0.000000
  0
VERTEX
  8
PIN_TOP
 10
43.497500
 20
1.968500
 40
0.000000
 41
0.000000
 42
0.000000
  0
VERTEX
  8
PIN_TOP
 10
43.497500
 20
1.079500
 40
0.000000
 41
0.000000
 42
0.000000
  0
VERTEX
  8
PIN_TOP
 10
42.710100
 20
1.079500
 40
0.000000
 41
0.000000
 42
0.000000
  0
SEQEND
  0
POLYLINE
  8
PIN_TOP
 66
1
 70
1
 40
0.000000
 41
0.000000
 39
0.000000
  0
VERTEX
  8
PIN_TOP
 10
42.710100
 20
3.543300
 40
0.000000
 41
0.000000
 42
0.000000
  0
VERTEX
  8
PIN_TOP
 10
43.497500
 20
3.543300
 40
0.000000
 41
0.000000
 42
0.000000
  0
VERTEX
  8
PIN_TOP
 10
43.497500
 20
2.654300
 40
0.000000
 41
0.000000
 42
0.000000
  0
VERTEX
  8
PIN_TOP
 10
42.710100
 20
2.654300
 40
0.000000
 41
0.000000
 42
0.000000
  0
SEQEND
  0
POLYLINE
  8
PG_SILKSCREEN_TOP
 66
1
 70
0
 40
0.000000
 41
0.000000
 39
0.000000
  0
VERTEX
  8
PG_SILKSCREEN_TOP
 10
43.713400
 20
2.006600
 40
0.101600
 41
0.101600
 42
0.000000
  0
VERTEX
  8
PG_SILKSCREEN_TOP
 10
43.713400
 20
0.889000
 40
0.101600
 41
0.101600
 42
0.000000
  0
VERTEX
  8
PG_SILKSCREEN_TOP
 10
42.519600
 20
0.889000
 40
0.101600
 41
0.101600
 42
0.000000
  0
VERTEX
  8
PG_SILKSCREEN_TOP
 10
42.519600
 20
2.006600
 40
0.101600
 41
0.101600
 42
0.000000
  0
SEQEND
  0
POLYLINE
  8
PG_SILKSCREEN_TOP
 66
1
 70
0
 40
0.000000
 41
0.000000
 39
0.000000
  0
VERTEX
  8
PG_SILKSCREEN_TOP
 10
42.519600
 20
2.590800
 40
0.101600
 41
0.101600
 42
0.000000
  0
VERTEX
  8
PG_SILKSCREEN_TOP
 10
42.519600
 20
3.708400
 40
0.101600
 41
0.101600
 42
0.000000
  0
VERTEX
  8
PG_SILKSCREEN_TOP
 10
43.713400
 20
3.708400
 40
0.101600
 41
0.101600
 42
0.000000
  0
SEQEND
  0
POLYLINE
  8
PG_SILKSCREEN_TOP
 66
1
 70
0
 40
0.000000
 41
0.000000
 39
0.000000
  0
VERTEX
  8
PG_SILKSCREEN_TOP
 10
43.408600
 20
2.209800
 40
0.101600
 41
0.101600
 42
0.000000
  0
VERTEX
  8
PG_SILKSCREEN_TOP
 10
42.799000
 20
2.209800
 40
0.101600
 41
0.101600
 42
0.000000
  0
SEQEND
  0
POLYLINE
  8
PG_SILKSCREEN_TOP
 66
1
 70
0
 40
0.000000
 41
0.000000
 39
0.000000
  0
VERTEX
  8
PG_SILKSCREEN_TOP
 10
43.408600
 20
2.413000
 40
0.101600
 41
0.101600
 42
0.000000
  0
VERTEX
  8
PG_SILKSCREEN_TOP
 10
42.799000
 20
2.413000
 40
0.101600
 41
0.101600
 42
0.000000
  0
SEQEND
  0
POLYLINE
  8
PG_SILKSCREEN_TOP
 66
1
 70
0
 40
0.000000
 41
0.000000
 39
0.000000
  0
VERTEX
  8
PG_SILKSCREEN_TOP
 10
43.713400
 20
3.708400
 40
0.101600
 41
0.101600
 42
0.000000
  0
VERTEX
  8
PG_SILKSCREEN_TOP
 10
43.713400
 20
2.590800
 40
0.101600
 41
0.101600
 42
0.000000
  0
SEQEND
  0
TEXT
  8
RD_SILKSCREEN_TOP
 10
42.418000
 20
3.886200
 11
0.000000
 21
0.000000
 40
0.762000
 41
1.000000
 50
0.000000
  7
STANDARD
 71
0
 72
0
  1
C3
 73
0
  0
POLYLINE
  8
PIN_TOP
 66
1
 70
1
 40
0.000000
 41
0.000000
 39
0.000000
  0
VERTEX
  8
PIN_TOP
 10
20.624800
 20
18.897600
 40
0.000000
 41
0.000000
 42
0.000000
  0
VERTEX
  8
PIN_TOP
 10
20.624800
 20
19.685000
 40
0.000000
 41
0.000000
 42
0.000000
  0
VERTEX
  8
PIN_TOP
 10
21.412200
 20
19.685000
 40
0.000000
 41
0.000000
 42
0.000000
  0
VERTEX
  8
PIN_TOP
 10
21.412200
 20
18.897600
 40
0.000000
 41
0.000000
 42
0.000000
  0
SEQEND
  0
POLYLINE
  8
PIN_TOP
 66
1
 70
1
 40
0.000000
 41
0.000000
 39
0.000000
  0
VERTEX
  8
PIN_TOP
 10
18.440400
 20
18.897600
 40
0.000000
 41
0.000000
 42
0.000000
  0
VERTEX
  8
PIN_TOP
 10
18.440400
 20
19.685000
 40
0.000000
 41
0.000000
 42
0.000000
  0
VERTEX
  8
PIN_TOP
 10
19.227800
 20
19.685000
 40
0.000000
 41
0.000000
 42
0.000000
  0
VERTEX
  8
PIN_TOP
 10
19.227800
 20
18.897600
 40
0.000000
 41
0.000000
 42
0.000000
  0
SEQEND
  0
POLYLINE
  8
PG_SILKSCREEN_TOP
 66
1
 70
0
 40
0.000000
 41
0.000000
 39
0.000000
  0
VERTEX
  8
PG_SILKSCREEN_TOP
 10
20.853400
 20
18.796000
 40
0.101600
 41
0.101600
 42
0.000000
  0
VERTEX
  8
PG_SILKSCREEN_TOP
 10
20.853400
 20
18.618200
 40
0.101600
 41
0.101600
 42
0.000000
  0
VERTEX
  8
PG_SILKSCREEN_TOP
 10
19.050000
 20
18.618200
 40
0.101600
 41
0.101600
 42
0.000000
  0
VERTEX
  8
PG_SILKSCREEN_TOP
 10
19.050000
 20
18.796000
 40
0.101600
 41
0.101600
 42
0.000000
  0
SEQEND
  0
POLYLINE
  8
PG_SILKSCREEN_TOP
 66
1
 70
0
 40
0.000000
 41
0.000000
 39
0.000000
  0
VERTEX
  8
PG_SILKSCREEN_TOP
 10
19.050000
 20
19.812000
 40
0.101600
 41
0.101600
 42
0.000000
  0
VERTEX
  8
PG_SILKSCREEN_TOP
 10
19.050000
 20
20.015200
 40
0.101600
 41
0.101600
 42
0.000000
  0
SEQEND
  0
POLYLINE
  8
PG_SILKSCREEN_TOP
 66
1
 70
0
 40
0.000000
 41
0.000000
 39
0.000000
  0
VERTEX
  8
PG_SILKSCREEN_TOP
 10
19.050000
 20
20.015200
 40
0.101600
 41
0.101600
 42
0.000000
  0
VERTEX
  8
PG_SILKSCREEN_TOP
 10
20.853400
 20
20.015200
 40
0.101600
 41
0.101600
 42
0.000000
  0
VERTEX
  8
PG_SILKSCREEN_TOP
 10
20.853400
 20
19.812000
 40
0.101600
 41
0.101600
 42
0.000000
  0
SEQEND
  0
POLYLINE
  8
PG_SILKSCREEN_TOP
 66
1
 70
0
 40
0.000000
 41
0.000000
 39
0.000000
  0
VERTEX
  8
PG_SILKSCREEN_TOP
 10
20.142200
 20
20.015200
 40
0.203200
 41
0.203200
 42
0.000000
  0
VERTEX
  8
PG_SILKSCREEN_TOP
 10
20.142200
 20
18.618200
 40
0.203200
 41
0.203200
 42
0.000000
  0
SEQEND
  0
POLYLINE
  8
PG_SILKSCREEN_TOP
 66
1
 70
0
 40
0.000000
 41
0.000000
 39
0.000000
  0
VERTEX
  8
PG_SILKSCREEN_TOP
 10
19.456400
 20
19.304000
 40
0.203200
 41
0.203200
 42
0.000000
  0
VERTEX
  8
PG_SILKSCREEN_TOP
 10
20.447000
 20
19.304000
 40
0.203200
 41
0.203200
 42
0.000000
  0
SEQEND
  0
POLYLINE
  8
PG_SILKSCREEN_TOP
 66
1
 70
0
 40
0.000000
 41
0.000000
 39
0.000000
  0
VERTEX
  8
PG_SILKSCREEN_TOP
 10
20.142200
 20
19.304000
 40
0.203200
 41
0.203200
 42
0.000000
  0
VERTEX
  8
PG_SILKSCREEN_TOP
 10
19.659600
 20
19.812000
 40
0.203200
 41
0.203200
 42
0.000000
  0
VERTEX
  8
PG_SILKSCREEN_TOP
 10
19.659600
 20
18.796000
 40
0.203200
 41
0.203200
 42
0.000000
  0
VERTEX
  8
PG_SILKSCREEN_TOP
 10
20.142200
 20
19.304000
 40
0.203200
 41
0.203200
 42
0.000000
  0
SEQEND
  0
TEXT
  8
RD_SILKSCREEN_TOP
 10
21.590000
 20
18.923000
 11
0.000000
 21
0.000000
 40
0.762000
 41
1.000000
 50
0.000000
  7
STANDARD
 71
0
 72
0
  1
D3
 73
0
  0
POLYLINE
  8
PIN_TOP
 66
1
 70
1
 40
0.000000
 41
0.000000
 39
0.000000
  0
VERTEX
  8
PIN_TOP
 10
45.643800
 20
22.860000
 40
0.000000
 41
0.000000
 42
0.000000
  0
VERTEX
  8
PIN_TOP
 10
52.247800
 20
22.860000
 40
0.000000
 41
0.000000
 42
0.000000
  0
VERTEX
  8
PIN_TOP
 10
52.247800
 20
16.764000
 40
0.000000
 41
0.000000
 42
0.000000
  0
VERTEX
  8
PIN_TOP
 10
45.643800
 20
16.764000
 40
0.000000
 41
0.000000
 42
0.000000
  0
SEQEND
  0
POLYLINE
  8
PIN_TOP
 66
1
 70
1
 40
0.000000
 41
0.000000
 39
0.000000
  0
VERTEX
  8
PIN_TOP
 10
41.503600
 20
18.249900
 40
0.000000
 41
0.000000
 42
0.000000
  0
VERTEX
  8
PIN_TOP
 10
43.992800
 20
18.249900
 40
0.000000
 41
0.000000
 42
0.000000
  0
VERTEX
  8
PIN_TOP
 10
43.992800
 20
16.751300
 40
0.000000
 41
0.000000
 42
0.000000
  0
VERTEX
  8
PIN_TOP
 10
41.503600
 20
16.751300
 40
0.000000
 41
0.000000
 42
0.000000
  0
SEQEND
  0
POLYLINE
  8
PIN_TOP
 66
1
 70
1
 40
0.000000
 41
0.000000
 39
0.000000
  0
VERTEX
  8
PIN_TOP
 10
41.503600
 20
22.872700
 40
0.000000
 41
0.000000
 42
0.000000
  0
VERTEX
  8
PIN_TOP
 10
43.992800
 20
22.872700
 40
0.000000
 41
0.000000
 42
0.000000
  0
VERTEX
  8
PIN_TOP
 10
43.992800
 20
21.374100
 40
0.000000
 41
0.000000
 42
0.000000
  0
VERTEX
  8
PIN_TOP
 10
41.503600
 20
21.374100
 40
0.000000
 41
0.000000
 42
0.000000
  0
SEQEND
  0
POLYLINE
  8
PG_SILKSCREEN_TOP
 66
1
 70
0
 40
0.000000
 41
0.000000
 39
0.000000
  0
VERTEX
  8
PG_SILKSCREEN_TOP
 10
40.132000
 20
21.615400
 40
0.101600
 41
0.101600
 42
0.000000
  0
VERTEX
  8
PG_SILKSCREEN_TOP
 10
40.132000
 20
22.402800
 40
0.101600
 41
0.101600
 42
0.000000
  0
VERTEX
  8
PG_SILKSCREEN_TOP
 10
40.741600
 20
21.996400
 40
0.101600
 41
0.101600
 42
0.000000
  0
VERTEX
  8
PG_SILKSCREEN_TOP
 10
40.132000
 20
21.615400
 40
0.101600
 41
0.101600
 42
0.000000
  0
VERTEX
  8
PG_SILKSCREEN_TOP
 10
40.132000
 20
21.818600
 40
0.101600
 41
0.101600
 42
0.000000
  0
VERTEX
  8
PG_SILKSCREEN_TOP
 10
40.233600
 20
21.818600
 40
0.101600
 41
0.101600
 42
0.000000
  0
VERTEX
  8
PG_SILKSCREEN_TOP
 10
40.233600
 20
22.301200
 40
0.101600
 41
0.101600
 42
0.000000
  0
VERTEX
  8
PG_SILKSCREEN_TOP
 10
40.335200
 20
22.199600
 40
0.101600
 41
0.101600
 42
0.000000
  0
VERTEX
  8
PG_SILKSCREEN_TOP
 10
40.335200
 20
21.818600
 40
0.101600
 41
0.101600
 42
0.000000
  0
VERTEX
  8
PG_SILKSCREEN_TOP
 10
40.436800
 20
21.894800
 40
0.101600
 41
0.101600
 42
0.000000
  0
VERTEX
  8
PG_SILKSCREEN_TOP
 10
40.436800
 20
22.199600
 40
0.101600
 41
0.101600
 42
0.000000
  0
VERTEX
  8
PG_SILKSCREEN_TOP
 10
40.640000
 20
21.996400
 40
0.101600
 41
0.101600
 42
0.000000
  0
VERTEX
  8
PG_SILKSCREEN_TOP
 10
40.436800
 20
21.894800
 40
0.101600
 41
0.101600
 42
0.000000
  0
VERTEX
  8
PG_SILKSCREEN_TOP
 10
40.436800
 20
21.996400
 40
0.101600
 41
0.101600
 42
0.000000
  0
SEQEND
  0
POLYLINE
  8
PG_SILKSCREEN_TOP
 66
1
 70
0
 40
0.000000
 41
0.000000
 39
0.000000
  0
VERTEX
  8
PG_SILKSCREEN_TOP
 10
52.425600
 20
21.310600
 40
0.203200
 41
0.203200
 42
0.000000
  0
VERTEX
  8
PG_SILKSCREEN_TOP
 10
52.425600
 20
16.408400
 40
0.203200
 41
0.203200
 42
0.000000
  0
VERTEX
  8
PG_SILKSCREEN_TOP
 10
41.148000
 20
16.408400
 40
0.203200
 41
0.203200
 42
0.000000
  0
VERTEX
  8
PG_SILKSCREEN_TOP
 10
41.148000
 20
23.215600
 40
0.203200
 41
0.203200
 42
0.000000
  0
VERTEX
  8
PG_SILKSCREEN_TOP
 10
52.425600
 20
23.215600
 40
0.203200
 41
0.203200
 42
0.000000
  0
VERTEX
  8
PG_SILKSCREEN_TOP
 10
52.425600
 20
21.310600
 40
0.203200
 41
0.203200
 42
0.000000
  0
SEQEND
  0
TEXT
  8
RD_SILKSCREEN_TOP
 10
51.308000
 20
23.495000
 11
51.562000
 21
23.495000
 40
0.762000
 41
1.000000
 50
0.000000
  7
STANDARD
 71
0
 72
1
  1
Q1
 73
0
  0
POLYLINE
  8
PIN_TOP
 66
1
 70
1
 40
0.000000
 41
0.000000
 39
0.000000
  0
VERTEX
  8
PIN_TOP
 10
37.185600
 20
16.281400
 40
0.000000
 41
0.000000
 42
0.000000
  0
VERTEX
  8
PIN_TOP
 10
37.185600
 20
17.272000
 40
0.000000
 41
0.000000
 42
0.000000
  0
VERTEX
  8
PIN_TOP
 10
37.973000
 20
17.272000
 40
0.000000
 41
0.000000
 42
0.000000
  0
VERTEX
  8
PIN_TOP
 10
37.973000
 20
16.281400
 40
0.000000
 41
0.000000
 42
0.000000
  0
SEQEND
  0
POLYLINE
  8
PIN_TOP
 66
1
 70
1
 40
0.000000
 41
0.000000
 39
0.000000
  0
VERTEX
  8
PIN_TOP
 10
38.963600
 20
16.281400
 40
0.000000
 41
0.000000
 42
0.000000
  0
VERTEX
  8
PIN_TOP
 10
38.963600
 20
17.272000
 40
0.000000
 41
0.000000
 42
0.000000
  0
VERTEX
  8
PIN_TOP
 10
39.751000
 20
17.272000
 40
0.000000
 41
0.000000
 42
0.000000
  0
VERTEX
  8
PIN_TOP
 10
39.751000
 20
16.281400
 40
0.000000
 41
0.000000
 42
0.000000
  0
SEQEND
  0
POLYLINE
  8
PIN_TOP
 66
1
 70
1
 40
0.000000
 41
0.000000
 39
0.000000
  0
VERTEX
  8
PIN_TOP
 10
38.074600
 20
18.262600
 40
0.000000
 41
0.000000
 42
0.000000
  0
VERTEX
  8
PIN_TOP
 10
38.074600
 20
19.253200
 40
0.000000
 41
0.000000
 42
0.000000
  0
VERTEX
  8
PIN_TOP
 10
38.862000
 20
19.253200
 40
0.000000
 41
0.000000
 42
0.000000
  0
VERTEX
  8
PIN_TOP
 10
38.862000
 20
18.262600
 40
0.000000
 41
0.000000
 42
0.000000
  0
SEQEND
  0
POLYLINE
  8
PG_SILKSCREEN_TOP
 66
1
 70
0
 40
0.000000
 41
0.000000
 39
0.000000
  0
VERTEX
  8
PG_SILKSCREEN_TOP
 10
38.176200
 20
17.068800
 40
0.203200
 41
0.203200
 42
0.000000
  0
VERTEX
  8
PG_SILKSCREEN_TOP
 10
38.760400
 20
17.068800
 40
0.203200
 41
0.203200
 42
0.000000
  0
SEQEND
  0
POLYLINE
  8
PG_SILKSCREEN_TOP
 66
1
 70
0
 40
0.000000
 41
0.000000
 39
0.000000
  0
VERTEX
  8
PG_SILKSCREEN_TOP
 10
39.979600
 20
17.475200
 40
0.203200
 41
0.203200
 42
0.000000
  0
VERTEX
  8
PG_SILKSCREEN_TOP
 10
39.979600
 20
18.465800
 40
0.203200
 41
0.203200
 42
0.000000
  0
VERTEX
  8
PG_SILKSCREEN_TOP
 10
39.166800
 20
18.465800
 40
0.203200
 41
0.203200
 42
0.000000
  0
SEQEND
  0
POLYLINE
  8
PG_SILKSCREEN_TOP
 66
1
 70
0
 40
0.000000
 41
0.000000
 39
0.000000
  0
VERTEX
  8
PG_SILKSCREEN_TOP
 10
37.769800
 20
18.465800
 40
0.203200
 41
0.203200
 42
0.000000
  0
VERTEX
  8
PG_SILKSCREEN_TOP
 10
36.957000
 20
18.465800
 40
0.203200
 41
0.203200
 42
0.000000
  0
VERTEX
  8
PG_SILKSCREEN_TOP
 10
36.957000
 20
17.475200
 40
0.203200
 41
0.203200
 42
0.000000
  0
SEQEND
  0
POLYLINE
  8
PG_SILKSCREEN_TOP
 66
1
 70
0
 40
0.000000
 41
0.000000
 39
0.000000
  0
VERTEX
  8
PG_SILKSCREEN_TOP
 10
38.176200
 20
17.068800
 40
0.203200
 41
0.203200
 42
0.000000
  0
VERTEX
  8
PG_SILKSCREEN_TOP
 10
38.760400
 20
17.068800
 40
0.203200
 41
0.203200
 42
0.000000
  0
SEQEND
  0
POLYLINE
  8
PG_SILKSCREEN_TOP
 66
1
 70
0
 40
0.000000
 41
0.000000
 39
0.000000
  0
VERTEX
  8
PG_SILKSCREEN_TOP
 10
37.769800
 20
18.465800
 40
0.203200
 41
0.203200
 42
0.000000
  0
VERTEX
  8
PG_SILKSCREEN_TOP
 10
36.957000
 20
18.465800
 40
0.203200
 41
0.203200
 42
0.000000
  0
VERTEX
  8
PG_SILKSCREEN_TOP
 10
36.957000
 20
17.475200
 40
0.203200
 41
0.203200
 42
0.000000
  0
SEQEND
  0
POLYLINE
  8
PG_SILKSCREEN_TOP
 66
1
 70
0
 40
0.000000
 41
0.000000
 39
0.000000
  0
VERTEX
  8
PG_SILKSCREEN_TOP
 10
39.979600
 20
17.475200
 40
0.203200
 41
0.203200
 42
0.000000
  0
VERTEX
  8
PG_SILKSCREEN_TOP
 10
39.979600
 20
18.465800
 40
0.203200
 41
0.203200
 42
0.000000
  0
VERTEX
  8
PG_SILKSCREEN_TOP
 10
39.166800
 20
18.465800
 40
0.203200
 41
0.203200
 42
0.000000
  0
SEQEND
  0
TEXT
  8
RD_SILKSCREEN_TOP
 10
39.116000
 20
18.669000
 11
0.000000
 21
0.000000
 40
0.762000
 41
1.000000
 50
0.000000
  7
STANDARD
 71
0
 72
0
  1
Q3
 73
0
  0
POLYLINE
  8
PIN_TOP
 66
1
 70
1
 40
0.000000
 41
0.000000
 39
0.000000
  0
VERTEX
  8
PIN_TOP
 10
33.629600
 20
16.281400
 40
0.000000
 41
0.000000
 42
0.000000
  0
VERTEX
  8
PIN_TOP
 10
33.629600
 20
17.272000
 40
0.000000
 41
0.000000
 42
0.000000
  0
VERTEX
  8
PIN_TOP
 10
34.417000
 20
17.272000
 40
0.000000
 41
0.000000
 42
0.000000
  0
VERTEX
  8
PIN_TOP
 10
34.417000
 20
16.281400
 40
0.000000
 41
0.000000
 42
0.000000
  0
SEQEND
  0
POLYLINE
  8
PIN_TOP
 66
1
 70
1
 40
0.000000
 41
0.000000
 39
0.000000
  0
VERTEX
  8
PIN_TOP
 10
35.407600
 20
16.281400
 40
0.000000
 41
0.000000
 42
0.000000
  0
VERTEX
  8
PIN_TOP
 10
35.407600
 20
17.272000
 40
0.000000
 41
0.000000
 42
0.000000
  0
VERTEX
  8
PIN_TOP
 10
36.195000
 20
17.272000
 40
0.000000
 41
0.000000
 42
0.000000
  0
VERTEX
  8
PIN_TOP
 10
36.195000
 20
16.281400
 40
0.000000
 41
0.000000
 42
0.000000
  0
SEQEND
  0
POLYLINE
  8
PIN_TOP
 66
1
 70
1
 40
0.000000
 41
0.000000
 39
0.000000
  0
VERTEX
  8
PIN_TOP
 10
34.518600
 20
18.262600
 40
0.000000
 41
0.000000
 42
0.000000
  0
VERTEX
  8
PIN_TOP
 10
34.518600
 20
19.253200
 40
0.000000
 41
0.000000
 42
0.000000
  0
VERTEX
  8
PIN_TOP
 10
35.306000
 20
19.253200
 40
0.000000
 41
0.000000
 42
0.000000
  0
VERTEX
  8
PIN_TOP
 10
35.306000
 20
18.262600
 40
0.000000
 41
0.000000
 42
0.000000
  0
SEQEND
  0
POLYLINE
  8
PG_SILKSCREEN_TOP
 66
1
 70
0
 40
0.000000
 41
0.000000
 39
0.000000
  0
VERTEX
  8
PG_SILKSCREEN_TOP
 10
34.620200
 20
17.068800
 40
0.203200
 41
0.203200
 42
0.000000
  0
VERTEX
  8
PG_SILKSCREEN_TOP
 10
35.204400
 20
17.068800
 40
0.203200
 41
0.203200
 42
0.000000
  0
SEQEND
  0
POLYLINE
  8
PG_SILKSCREEN_TOP
 66
1
 70
0
 40
0.000000
 41
0.000000
 39
0.000000
  0
VERTEX
  8
PG_SILKSCREEN_TOP
 10
36.423600
 20
17.475200
 40
0.203200
 41
0.203200
 42
0.000000
  0
VERTEX
  8
PG_SILKSCREEN_TOP
 10
36.423600
 20
18.465800
 40
0.203200
 41
0.203200
 42
0.000000
  0
VERTEX
  8
PG_SILKSCREEN_TOP
 10
35.610800
 20
18.465800
 40
0.203200
 41
0.203200
 42
0.000000
  0
SEQEND
  0
POLYLINE
  8
PG_SILKSCREEN_TOP
 66
1
 70
0
 40
0.000000
 41
0.000000
 39
0.000000
  0
VERTEX
  8
PG_SILKSCREEN_TOP
 10
34.213800
 20
18.465800
 40
0.203200
 41
0.203200
 42
0.000000
  0
VERTEX
  8
PG_SILKSCREEN_TOP
 10
33.426400
 20
18.465800
 40
0.203200
 41
0.203200
 42
0.000000
  0
VERTEX
  8
PG_SILKSCREEN_TOP
 10
33.426400
 20
17.475200
 40
0.203200
 41
0.203200
 42
0.000000
  0
SEQEND
  0
POLYLINE
  8
PG_SILKSCREEN_TOP
 66
1
 70
0
 40
0.000000
 41
0.000000
 39
0.000000
  0
VERTEX
  8
PG_SILKSCREEN_TOP
 10
34.620200
 20
17.068800
 40
0.203200
 41
0.203200
 42
0.000000
  0
VERTEX
  8
PG_SILKSCREEN_TOP
 10
35.204400
 20
17.068800
 40
0.203200
 41
0.203200
 42
0.000000
  0
SEQEND
  0
POLYLINE
  8
PG_SILKSCREEN_TOP
 66
1
 70
0
 40
0.000000
 41
0.000000
 39
0.000000
  0
VERTEX
  8
PG_SILKSCREEN_TOP
 10
34.213800
 20
18.465800
 40
0.203200
 41
0.203200
 42
0.000000
  0
VERTEX
  8
PG_SILKSCREEN_TOP
 10
33.426400
 20
18.465800
 40
0.203200
 41
0.203200
 42
0.000000
  0
VERTEX
  8
PG_SILKSCREEN_TOP
 10
33.426400
 20
17.475200
 40
0.203200
 41
0.203200
 42
0.000000
  0
SEQEND
  0
POLYLINE
  8
PG_SILKSCREEN_TOP
 66
1
 70
0
 40
0.000000
 41
0.000000
 39
0.000000
  0
VERTEX
  8
PG_SILKSCREEN_TOP
 10
36.423600
 20
17.475200
 40
0.203200
 41
0.203200
 42
0.000000
  0
VERTEX
  8
PG_SILKSCREEN_TOP
 10
36.423600
 20
18.465800
 40
0.203200
 41
0.203200
 42
0.000000
  0
VERTEX
  8
PG_SILKSCREEN_TOP
 10
35.610800
 20
18.465800
 40
0.203200
 41
0.203200
 42
0.000000
  0
SEQEND
  0
TEXT
  8
RD_SILKSCREEN_TOP
 10
32.893000
 20
18.669000
 11
0.000000
 21
0.000000
 40
0.762000
 41
1.000000
 50
0.000000
  7
STANDARD
 71
0
 72
0
  1
Q4
 73
0
  0
POLYLINE
  8
PIN_TOP
 66
1
 70
1
 40
0.000000
 41
0.000000
 39
0.000000
  0
VERTEX
  8
PIN_TOP
 10
21.551900
 20
20.815300
 40
0.000000
 41
0.000000
 42
0.000000
  0
VERTEX
  8
PIN_TOP
 10
20.561300
 20
20.815300
 40
0.000000
 41
0.000000
 42
0.000000
  0
VERTEX
  8
PIN_TOP
 10
20.561300
 20
21.602700
 40
0.000000
 41
0.000000
 42
0.000000
  0
VERTEX
  8
PIN_TOP
 10
21.551900
 20
21.602700
 40
0.000000
 41
0.000000
 42
0.000000
  0
SEQEND
  0
POLYLINE
  8
PIN_TOP
 66
1
 70
1
 40
0.000000
 41
0.000000
 39
0.000000
  0
VERTEX
  8
PIN_TOP
 10
21.551900
 20
22.593300
 40
0.000000
 41
0.000000
 42
0.000000
  0
VERTEX
  8
PIN_TOP
 10
20.561300
 20
22.593300
 40
0.000000
 41
0.000000
 42
0.000000
  0
VERTEX
  8
PIN_TOP
 10
20.561300
 20
23.380700
 40
0.000000
 41
0.000000
 42
0.000000
  0
VERTEX
  8
PIN_TOP
 10
21.551900
 20
23.380700
 40
0.000000
 41
0.000000
 42
0.000000
  0
SEQEND
  0
POLYLINE
  8
PIN_TOP
 66
1
 70
1
 40
0.000000
 41
0.000000
 39
0.000000
  0
VERTEX
  8
PIN_TOP
 10
19.570700
 20
21.704300
 40
0.000000
 41
0.000000
 42
0.000000
  0
VERTEX
  8
PIN_TOP
 10
18.580100
 20
21.704300
 40
0.000000
 41
0.000000
 42
0.000000
  0
VERTEX
  8
PIN_TOP
 10
18.580100
 20
22.491700
 40
0.000000
 41
0.000000
 42
0.000000
  0
VERTEX
  8
PIN_TOP
 10
19.570700
 20
22.491700
 40
0.000000
 41
0.000000
 42
0.000000
  0
SEQEND
  0
POLYLINE
  8
PG_SILKSCREEN_TOP
 66
1
 70
0
 40
0.000000
 41
0.000000
 39
0.000000
  0
VERTEX
  8
PG_SILKSCREEN_TOP
 10
20.777200
 20
21.793200
 40
0.203200
 41
0.203200
 42
0.000000
  0
VERTEX
  8
PG_SILKSCREEN_TOP
 10
20.777200
 20
22.402800
 40
0.203200
 41
0.203200
 42
0.000000
  0
SEQEND
  0
POLYLINE
  8
PG_SILKSCREEN_TOP
 66
1
 70
0
 40
0.000000
 41
0.000000
 39
0.000000
  0
VERTEX
  8
PG_SILKSCREEN_TOP
 10
20.370800
 20
23.596600
 40
0.203200
 41
0.203200
 42
0.000000
  0
VERTEX
  8
PG_SILKSCREEN_TOP
 10
19.354800
 20
23.596600
 40
0.203200
 41
0.203200
 42
0.000000
  0
VERTEX
  8
PG_SILKSCREEN_TOP
 10
19.354800
 20
22.809200
 40
0.203200
 41
0.203200
 42
0.000000
  0
SEQEND
  0
POLYLINE
  8
PG_SILKSCREEN_TOP
 66
1
 70
0
 40
0.000000
 41
0.000000
 39
0.000000
  0
VERTEX
  8
PG_SILKSCREEN_TOP
 10
19.354800
 20
21.386800
 40
0.203200
 41
0.203200
 42
0.000000
  0
VERTEX
  8
PG_SILKSCREEN_TOP
 10
19.354800
 20
20.599400
 40
0.203200
 41
0.203200
 42
0.000000
  0
VERTEX
  8
PG_SILKSCREEN_TOP
 10
20.370800
 20
20.599400
 40
0.203200
 41
0.203200
 42
0.000000
  0
SEQEND
  0
POLYLINE
  8
PG_SILKSCREEN_TOP
 66
1
 70
0
 40
0.000000
 41
0.000000
 39
0.000000
  0
VERTEX
  8
PG_SILKSCREEN_TOP
 10
20.777200
 20
21.793200
 40
0.203200
 41
0.203200
 42
0.000000
  0
VERTEX
  8
PG_SILKSCREEN_TOP
 10
20.777200
 20
22.402800
 40
0.203200
 41
0.203200
 42
0.000000
  0
SEQEND
  0
POLYLINE
  8
PG_SILKSCREEN_TOP
 66
1
 70
0
 40
0.000000
 41
0.000000
 39
0.000000
  0
VERTEX
  8
PG_SILKSCREEN_TOP
 10
19.354800
 20
21.386800
 40
0.203200
 41
0.203200
 42
0.000000
  0
VERTEX
  8
PG_SILKSCREEN_TOP
 10
19.354800
 20
20.599400
 40
0.203200
 41
0.203200
 42
0.000000
  0
VERTEX
  8
PG_SILKSCREEN_TOP
 10
20.370800
 20
20.599400
 40
0.203200
 41
0.203200
 42
0.000000
  0
SEQEND
  0
POLYLINE
  8
PG_SILKSCREEN_TOP
 66
1
 70
0
 40
0.000000
 41
0.000000
 39
0.000000
  0
VERTEX
  8
PG_SILKSCREEN_TOP
 10
20.370800
 20
23.596600
 40
0.203200
 41
0.203200
 42
0.000000
  0
VERTEX
  8
PG_SILKSCREEN_TOP
 10
19.354800
 20
23.596600
 40
0.203200
 41
0.203200
 42
0.000000
  0
VERTEX
  8
PG_SILKSCREEN_TOP
 10
19.354800
 20
22.809200
 40
0.203200
 41
0.203200
 42
0.000000
  0
SEQEND
  0
TEXT
  8
RD_SILKSCREEN_TOP
 10
17.780000
 20
20.701000
 11
0.000000
 21
0.000000
 40
0.762000
 41
1.000000
 50
0.000000
  7
STANDARD
 71
0
 72
0
  1
Q2
 73
0
  0
POLYLINE
  8
PIN_TOP
 66
1
 70
1
 40
0.000000
 41
0.000000
 39
0.000000
  0
VERTEX
  8
PIN_TOP
 10
39.281100
 20
3.568700
 40
0.000000
 41
0.000000
 42
0.000000
  0
VERTEX
  8
PIN_TOP
 10
40.271700
 20
3.568700
 40
0.000000
 41
0.000000
 42
0.000000
  0
VERTEX
  8
PIN_TOP
 10
40.271700
 20
2.781300
 40
0.000000
 41
0.000000
 42
0.000000
  0
VERTEX
  8
PIN_TOP
 10
39.281100
 20
2.781300
 40
0.000000
 41
0.000000
 42
0.000000
  0
SEQEND
  0
POLYLINE
  8
PIN_TOP
 66
1
 70
1
 40
0.000000
 41
0.000000
 39
0.000000
  0
VERTEX
  8
PIN_TOP
 10
39.281100
 20
1.790700
 40
0.000000
 41
0.000000
 42
0.000000
  0
VERTEX
  8
PIN_TOP
 10
40.271700
 20
1.790700
 40
0.000000
 41
0.000000
 42
0.000000
  0
VERTEX
  8
PIN_TOP
 10
40.271700
 20
1.003300
 40
0.000000
 41
0.000000
 42
0.000000
  0
VERTEX
  8
PIN_TOP
 10
39.281100
 20
1.003300
 40
0.000000
 41
0.000000
 42
0.000000
  0
SEQEND
  0
POLYLINE
  8
PIN_TOP
 66
1
 70
1
 40
0.000000
 41
0.000000
 39
0.000000
  0
VERTEX
  8
PIN_TOP
 10
41.262300
 20
2.679700
 40
0.000000
 41
0.000000
 42
0.000000
  0
VERTEX
  8
PIN_TOP
 10
42.252900
 20
2.679700
 40
0.000000
 41
0.000000
 42
0.000000
  0
VERTEX
  8
PIN_TOP
 10
42.252900
 20
1.892300
 40
0.000000
 41
0.000000
 42
0.000000
  0
VERTEX
  8
PIN_TOP
 10
41.262300
 20
1.892300
 40
0.000000
 41
0.000000
 42
0.000000
  0
SEQEND
  0
POLYLINE
  8
PG_SILKSCREEN_TOP
 66
1
 70
0
 40
0.000000
 41
0.000000
 39
0.000000
  0
VERTEX
  8
PG_SILKSCREEN_TOP
 10
40.055800
 20
2.590800
 40
0.203200
 41
0.203200
 42
0.000000
  0
VERTEX
  8
PG_SILKSCREEN_TOP
 10
40.055800
 20
2.006600
 40
0.203200
 41
0.203200
 42
0.000000
  0
SEQEND
  0
POLYLINE
  8
PG_SILKSCREEN_TOP
 66
1
 70
0
 40
0.000000
 41
0.000000
 39
0.000000
  0
VERTEX
  8
PG_SILKSCREEN_TOP
 10
40.462200
 20
0.787400
 40
0.203200
 41
0.203200
 42
0.000000
  0
VERTEX
  8
PG_SILKSCREEN_TOP
 10
41.452800
 20
0.787400
 40
0.203200
 41
0.203200
 42
0.000000
  0
VERTEX
  8
PG_SILKSCREEN_TOP
 10
41.452800
 20
1.600200
 40
0.203200
 41
0.203200
 42
0.000000
  0
SEQEND
  0
POLYLINE
  8
PG_SILKSCREEN_TOP
 66
1
 70
0
 40
0.000000
 41
0.000000
 39
0.000000
  0
VERTEX
  8
PG_SILKSCREEN_TOP
 10
41.452800
 20
2.997200
 40
0.203200
 41
0.203200
 42
0.000000
  0
VERTEX
  8
PG_SILKSCREEN_TOP
 10
41.452800
 20
3.784600
 40
0.203200
 41
0.203200
 42
0.000000
  0
VERTEX
  8
PG_SILKSCREEN_TOP
 10
40.462200
 20
3.784600
 40
0.203200
 41
0.203200
 42
0.000000
  0
SEQEND
  0
POLYLINE
  8
PG_SILKSCREEN_TOP
 66
1
 70
0
 40
0.000000
 41
0.000000
 39
0.000000
  0
VERTEX
  8
PG_SILKSCREEN_TOP
 10
40.055800
 20
2.590800
 40
0.203200
 41
0.203200
 42
0.000000
  0
VERTEX
  8
PG_SILKSCREEN_TOP
 10
40.055800
 20
2.006600
 40
0.203200
 41
0.203200
 42
0.000000
  0
SEQEND
  0
POLYLINE
  8
PG_SILKSCREEN_TOP
 66
1
 70
0
 40
0.000000
 41
0.000000
 39
0.000000
  0
VERTEX
  8
PG_SILKSCREEN_TOP
 10
41.452800
 20
2.997200
 40
0.203200
 41
0.203200
 42
0.000000
  0
VERTEX
  8
PG_SILKSCREEN_TOP
 10
41.452800
 20
3.784600
 40
0.203200
 41
0.203200
 42
0.000000
  0
VERTEX
  8
PG_SILKSCREEN_TOP
 10
40.462200
 20
3.784600
 40
0.203200
 41
0.203200
 42
0.000000
  0
SEQEND
  0
POLYLINE
  8
PG_SILKSCREEN_TOP
 66
1
 70
0
 40
0.000000
 41
0.000000
 39
0.000000
  0
VERTEX
  8
PG_SILKSCREEN_TOP
 10
40.462200
 20
0.787400
 40
0.203200
 41
0.203200
 42
0.000000
  0
VERTEX
  8
PG_SILKSCREEN_TOP
 10
41.452800
 20
0.787400
 40
0.203200
 41
0.203200
 42
0.000000
  0
VERTEX
  8
PG_SILKSCREEN_TOP
 10
41.452800
 20
1.600200
 40
0.203200
 41
0.203200
 42
0.000000
  0
SEQEND
  0
TEXT
  8
RD_SILKSCREEN_TOP
 10
39.878000
 20
4.191000
 11
0.000000
 21
0.000000
 40
0.762000
 41
1.000000
 50
0.000000
  7
STANDARD
 71
0
 72
0
  1
U2
 73
0
  0
POLYLINE
  8
PIN_TOP
 66
1
 70
1
 40
0.000000
 41
0.000000
 39
0.000000
  0
VERTEX
  8
PIN_TOP
 10
48.539400
 20
11.036300
 40
0.000000
 41
0.000000
 42
0.000000
  0
VERTEX
  8
PIN_TOP
 10
49.250600
 20
11.036300
 40
0.000000
 41
0.000000
 42
0.000000
  0
VERTEX
  8
PIN_TOP
 10
49.250600
 20
9.232900
 40
0.000000
 41
0.000000
 42
0.000000
  0
VERTEX
  8
PIN_TOP
 10
48.539400
 20
9.232900
 40
0.000000
 41
0.000000
 42
0.000000
  0
SEQEND
  0
POLYLINE
  8
PIN_TOP
 66
1
 70
1
 40
0.000000
 41
0.000000
 39
0.000000
  0
VERTEX
  8
PIN_TOP
 10
47.345600
 20
11.036300
 40
0.000000
 41
0.000000
 42
0.000000
  0
VERTEX
  8
PIN_TOP
 10
48.056800
 20
11.036300
 40
0.000000
 41
0.000000
 42
0.000000
  0
VERTEX
  8
PIN_TOP
 10
48.056800
 20
9.232900
 40
0.000000
 41
0.000000
 42
0.000000
  0
VERTEX
  8
PIN_TOP
 10
47.345600
 20
9.232900
 40
0.000000
 41
0.000000
 42
0.000000
  0
SEQEND
  0
POLYLINE
  8
PIN_TOP
 66
1
 70
1
 40
0.000000
 41
0.000000
 39
0.000000
  0
VERTEX
  8
PIN_TOP
 10
46.024800
 20
11.036300
 40
0.000000
 41
0.000000
 42
0.000000
  0
VERTEX
  8
PIN_TOP
 10
46.736000
 20
11.036300
 40
0.000000
 41
0.000000
 42
0.000000
  0
VERTEX
  8
PIN_TOP
 10
46.736000
 20
9.232900
 40
0.000000
 41
0.000000
 42
0.000000
  0
VERTEX
  8
PIN_TOP
 10
46.024800
 20
9.232900
 40
0.000000
 41
0.000000
 42
0.000000
  0
SEQEND
  0
POLYLINE
  8
PIN_TOP
 66
1
 70
1
 40
0.000000
 41
0.000000
 39
0.000000
  0
VERTEX
  8
PIN_TOP
 10
44.831000
 20
11.036300
 40
0.000000
 41
0.000000
 42
0.000000
  0
VERTEX
  8
PIN_TOP
 10
45.542200
 20
11.036300
 40
0.000000
 41
0.000000
 42
0.000000
  0
VERTEX
  8
PIN_TOP
 10
45.542200
 20
9.232900
 40
0.000000
 41
0.000000
 42
0.000000
  0
VERTEX
  8
PIN_TOP
 10
44.831000
 20
9.232900
 40
0.000000
 41
0.000000
 42
0.000000
  0
SEQEND
  0
POLYLINE
  8
PIN_TOP
 66
1
 70
1
 40
0.000000
 41
0.000000
 39
0.000000
  0
VERTEX
  8
PIN_TOP
 10
52.743100
 20
14.732000
 40
0.000000
 41
0.000000
 42
0.000000
  0
VERTEX
  8
PIN_TOP
 10
52.743100
 20
11.734800
 40
0.000000
 41
0.000000
 42
0.000000
  0
VERTEX
  8
PIN_TOP
 10
50.634900
 20
11.734800
 40
0.000000
 41
0.000000
 42
0.000000
  0
VERTEX
  8
PIN_TOP
 10
50.634900
 20
14.732000
 40
0.000000
 41
0.000000
 42
0.000000
  0
SEQEND
  0
POLYLINE
  8
PIN_TOP
 66
1
 70
1
 40
0.000000
 41
0.000000
 39
0.000000
  0
VERTEX
  8
PIN_TOP
 10
43.446700
 20
14.732000
 40
0.000000
 41
0.000000
 42
0.000000
  0
VERTEX
  8
PIN_TOP
 10
43.446700
 20
11.734800
 40
0.000000
 41
0.000000
 42
0.000000
  0
VERTEX
  8
PIN_TOP
 10
41.338500
 20
11.734800
 40
0.000000
 41
0.000000
 42
0.000000
  0
VERTEX
  8
PIN_TOP
 10
41.338500
 20
14.732000
 40
0.000000
 41
0.000000
 42
0.000000
  0
SEQEND
  0
POLYLINE
  8
PG_SILKSCREEN_TOP
 66
1
 70
0
 40
0.000000
 41
0.000000
 39
0.000000
  0
VERTEX
  8
PG_SILKSCREEN_TOP
 10
48.996600
 20
11.328400
 40
0.101600
 41
0.101600
 42
0.000000
  0
VERTEX
  8
PG_SILKSCREEN_TOP
 10
48.996600
 20
11.734800
 40
0.101600
 41
0.101600
 42
0.000000
  0
VERTEX
  8
PG_SILKSCREEN_TOP
 10
50.393600
 20
11.734800
 40
0.101600
 41
0.101600
 42
0.000000
  0
SEQEND
  0
POLYLINE
  8
PG_SILKSCREEN_TOP
 66
1
 70
0
 40
0.000000
 41
0.000000
 39
0.000000
  0
VERTEX
  8
PG_SILKSCREEN_TOP
 10
45.085000
 20
11.328400
 40
0.101600
 41
0.101600
 42
0.000000
  0
VERTEX
  8
PG_SILKSCREEN_TOP
 10
45.085000
 20
11.734800
 40
0.101600
 41
0.101600
 42
0.000000
  0
VERTEX
  8
PG_SILKSCREEN_TOP
 10
43.688000
 20
11.734800
 40
0.101600
 41
0.101600
 42
0.000000
  0
SEQEND
  0
POLYLINE
  8
PG_SILKSCREEN_TOP
 66
1
 70
0
 40
0.000000
 41
0.000000
 39
0.000000
  0
VERTEX
  8
PG_SILKSCREEN_TOP
 10
50.393600
 20
14.528800
 40
0.101600
 41
0.101600
 42
0.000000
  0
VERTEX
  8
PG_SILKSCREEN_TOP
 10
50.393600
 20
15.138400
 40
0.101600
 41
0.101600
 42
0.000000
  0
VERTEX
  8
PG_SILKSCREEN_TOP
 10
43.688000
 20
15.138400
 40
0.101600
 41
0.101600
 42
0.000000
  0
VERTEX
  8
PG_SILKSCREEN_TOP
 10
43.688000
 20
14.528800
 40
0.101600
 41
0.101600
 42
0.000000
  0
SEQEND
  0
POLYLINE
  8
PG_SILKSCREEN_TOP
 66
1
 70
0
 40
0.000000
 41
0.000000
 39
0.000000
  0
VERTEX
  8
PG_SILKSCREEN_TOP
 10
49.301400
 20
8.534400
 40
0.101600
 41
0.101600
 42
0.000000
  0
VERTEX
  8
PG_SILKSCREEN_TOP
 10
48.488600
 20
8.534400
 40
0.101600
 41
0.101600
 42
0.000000
  0
VERTEX
  8
PG_SILKSCREEN_TOP
 10
48.895000
 20
8.839200
 40
0.101600
 41
0.101600
 42
0.000000
  0
VERTEX
  8
PG_SILKSCREEN_TOP
 10
49.301400
 20
8.534400
 40
0.101600
 41
0.101600
 42
0.000000
  0
SEQEND
  0
TEXT
  8
RD_SILKSCREEN_TOP
 10
51.206400
 20
15.036800
 11
51.460400
 21
15.036800
 40
0.762000
 41
1.000000
 50
0.000000
  7
STANDARD
 71
0
 72
1
  1
J1
 73
0
  0
POLYLINE
  8
PIN_TOP
 66
1
 70
1
 40
0.000000
 41
0.000000
 39
0.000000
  0
VERTEX
  8
PIN_TOP
 10
48.539400
 20
4.178300
 40
0.000000
 41
0.000000
 42
0.000000
  0
VERTEX
  8
PIN_TOP
 10
49.250600
 20
4.178300
 40
0.000000
 41
0.000000
 42
0.000000
  0
VERTEX
  8
PIN_TOP
 10
49.250600
 20
2.374900
 40
0.000000
 41
0.000000
 42
0.000000
  0
VERTEX
  8
PIN_TOP
 10
48.539400
 20
2.374900
 40
0.000000
 41
0.000000
 42
0.000000
  0
SEQEND
  0
POLYLINE
  8
PIN_TOP
 66
1
 70
1
 40
0.000000
 41
0.000000
 39
0.000000
  0
VERTEX
  8
PIN_TOP
 10
47.345600
 20
4.178300
 40
0.000000
 41
0.000000
 42
0.000000
  0
VERTEX
  8
PIN_TOP
 10
48.056800
 20
4.178300
 40
0.000000
 41
0.000000
 42
0.000000
  0
VERTEX
  8
PIN_TOP
 10
48.056800
 20
2.374900
 40
0.000000
 41
0.000000
 42
0.000000
  0
VERTEX
  8
PIN_TOP
 10
47.345600
 20
2.374900
 40
0.000000
 41
0.000000
 42
0.000000
  0
SEQEND
  0
POLYLINE
  8
PIN_TOP
 66
1
 70
1
 40
0.000000
 41
0.000000
 39
0.000000
  0
VERTEX
  8
PIN_TOP
 10
46.024800
 20
4.178300
 40
0.000000
 41
0.000000
 42
0.000000
  0
VERTEX
  8
PIN_TOP
 10
46.736000
 20
4.178300
 40
0.000000
 41
0.000000
 42
0.000000
  0
VERTEX
  8
PIN_TOP
 10
46.736000
 20
2.374900
 40
0.000000
 41
0.000000
 42
0.000000
  0
VERTEX
  8
PIN_TOP
 10
46.024800
 20
2.374900
 40
0.000000
 41
0.000000
 42
0.000000
  0
SEQEND
  0
POLYLINE
  8
PIN_TOP
 66
1
 70
1
 40
0.000000
 41
0.000000
 39
0.000000
  0
VERTEX
  8
PIN_TOP
 10
44.831000
 20
4.178300
 40
0.000000
 41
0.000000
 42
0.000000
  0
VERTEX
  8
PIN_TOP
 10
45.542200
 20
4.178300
 40
0.000000
 41
0.000000
 42
0.000000
  0
VERTEX
  8
PIN_TOP
 10
45.542200
 20
2.374900
 40
0.000000
 41
0.000000
 42
0.000000
  0
VERTEX
  8
PIN_TOP
 10
44.831000
 20
2.374900
 40
0.000000
 41
0.000000
 42
0.000000
  0
SEQEND
  0
POLYLINE
  8
PIN_TOP
 66
1
 70
1
 40
0.000000
 41
0.000000
 39
0.000000
  0
VERTEX
  8
PIN_TOP
 10
52.743100
 20
7.874000
 40
0.000000
 41
0.000000
 42
0.000000
  0
VERTEX
  8
PIN_TOP
 10
52.743100
 20
4.876800
 40
0.000000
 41
0.000000
 42
0.000000
  0
VERTEX
  8
PIN_TOP
 10
50.634900
 20
4.876800
 40
0.000000
 41
0.000000
 42
0.000000
  0
VERTEX
  8
PIN_TOP
 10
50.634900
 20
7.874000
 40
0.000000
 41
0.000000
 42
0.000000
  0
SEQEND
  0
POLYLINE
  8
PIN_TOP
 66
1
 70
1
 40
0.000000
 41
0.000000
 39
0.000000
  0
VERTEX
  8
PIN_TOP
 10
43.446700
 20
7.874000
 40
0.000000
 41
0.000000
 42
0.000000
  0
VERTEX
  8
PIN_TOP
 10
43.446700
 20
4.876800
 40
0.000000
 41
0.000000
 42
0.000000
  0
VERTEX
  8
PIN_TOP
 10
41.338500
 20
4.876800
 40
0.000000
 41
0.000000
 42
0.000000
  0
VERTEX
  8
PIN_TOP
 10
41.338500
 20
7.874000
 40
0.000000
 41
0.000000
 42
0.000000
  0
SEQEND
  0
POLYLINE
  8
PG_SILKSCREEN_TOP
 66
1
 70
0
 40
0.000000
 41
0.000000
 39
0.000000
  0
VERTEX
  8
PG_SILKSCREEN_TOP
 10
48.996600
 20
4.470400
 40
0.101600
 41
0.101600
 42
0.000000
  0
VERTEX
  8
PG_SILKSCREEN_TOP
 10
48.996600
 20
4.876800
 40
0.101600
 41
0.101600
 42
0.000000
  0
VERTEX
  8
PG_SILKSCREEN_TOP
 10
50.393600
 20
4.876800
 40
0.101600
 41
0.101600
 42
0.000000
  0
SEQEND
  0
POLYLINE
  8
PG_SILKSCREEN_TOP
 66
1
 70
0
 40
0.000000
 41
0.000000
 39
0.000000
  0
VERTEX
  8
PG_SILKSCREEN_TOP
 10
45.085000
 20
4.470400
 40
0.101600
 41
0.101600
 42
0.000000
  0
VERTEX
  8
PG_SILKSCREEN_TOP
 10
45.085000
 20
4.876800
 40
0.101600
 41
0.101600
 42
0.000000
  0
VERTEX
  8
PG_SILKSCREEN_TOP
 10
43.688000
 20
4.876800
 40
0.101600
 41
0.101600
 42
0.000000
  0
SEQEND
  0
POLYLINE
  8
PG_SILKSCREEN_TOP
 66
1
 70
0
 40
0.000000
 41
0.000000
 39
0.000000
  0
VERTEX
  8
PG_SILKSCREEN_TOP
 10
50.393600
 20
7.670800
 40
0.101600
 41
0.101600
 42
0.000000
  0
VERTEX
  8
PG_SILKSCREEN_TOP
 10
50.393600
 20
8.280400
 40
0.101600
 41
0.101600
 42
0.000000
  0
VERTEX
  8
PG_SILKSCREEN_TOP
 10
43.688000
 20
8.280400
 40
0.101600
 41
0.101600
 42
0.000000
  0
VERTEX
  8
PG_SILKSCREEN_TOP
 10
43.688000
 20
7.670800
 40
0.101600
 41
0.101600
 42
0.000000
  0
SEQEND
  0
POLYLINE
  8
PG_SILKSCREEN_TOP
 66
1
 70
0
 40
0.000000
 41
0.000000
 39
0.000000
  0
VERTEX
  8
PG_SILKSCREEN_TOP
 10
49.301400
 20
1.676400
 40
0.101600
 41
0.101600
 42
0.000000
  0
VERTEX
  8
PG_SILKSCREEN_TOP
 10
48.488600
 20
1.676400
 40
0.101600
 41
0.101600
 42
0.000000
  0
VERTEX
  8
PG_SILKSCREEN_TOP
 10
48.895000
 20
1.981200
 40
0.101600
 41
0.101600
 42
0.000000
  0
VERTEX
  8
PG_SILKSCREEN_TOP
 10
49.301400
 20
1.676400
 40
0.101600
 41
0.101600
 42
0.000000
  0
SEQEND
  0
TEXT
  8
RD_SILKSCREEN_TOP
 10
53.340000
 20
6.731000
 11
53.594000
 21
6.731000
 40
0.762000
 41
1.000000
 50
0.000000
  7
STANDARD
 71
0
 72
1
  1
J2
 73
0
  0
POLYLINE
  8
PIN_TOP
 66
1
 70
1
 40
0.000000
 41
0.000000
 39
0.000000
  0
VERTEX
  8
PIN_TOP
 10
28.625800
 20
17.386300
 40
0.000000
 41
0.000000
 42
0.000000
  0
VERTEX
  8
PIN_TOP
 10
28.625800
 20
15.989300
 40
0.000000
 41
0.000000
 42
-1.000000
  0
VERTEX
  8
PIN_TOP
 10
28.016200
 20
15.989300
 40
0.000000
 41
0.000000
 42
0.000000
  0
VERTEX
  8
PIN_TOP
 10
28.016200
 20
17.386300
 40
0.000000
 41
0.000000
 42
-1.000000
  0
SEQEND
  0
POLYLINE
  8
PIN_TOP
 66
1
 70
1
 40
0.000000
 41
0.000000
 39
0.000000
  0
VERTEX
  8
PIN_TOP
 10
28.625800
 20
23.380700
 40
0.000000
 41
0.000000
 42
0.000000
  0
VERTEX
  8
PIN_TOP
 10
28.625800
 20
21.983700
 40
0.000000
 41
0.000000
 42
-1.000000
  0
VERTEX
  8
PIN_TOP
 10
28.016200
 20
21.983700
 40
0.000000
 41
0.000000
 42
0.000000
  0
VERTEX
  8
PIN_TOP
 10
28.016200
 20
23.380700
 40
0.000000
 41
0.000000
 42
-1.000000
  0
SEQEND
  0
POLYLINE
  8
PIN_TOP
 66
1
 70
1
 40
0.000000
 41
0.000000
 39
0.000000
  0
VERTEX
  8
PIN_TOP
 10
29.921200
 20
17.386300
 40
0.000000
 41
0.000000
 42
0.000000
  0
VERTEX
  8
PIN_TOP
 10
29.921200
 20
15.989300
 40
0.000000
 41
0.000000
 42
-1.000000
  0
VERTEX
  8
PIN_TOP
 10
29.311600
 20
15.989300
 40
0.000000
 41
0.000000
 42
0.000000
  0
VERTEX
  8
PIN_TOP
 10
29.311600
 20
17.386300
 40
0.000000
 41
0.000000
 42
-1.000000
  0
SEQEND
  0
POLYLINE
  8
PIN_TOP
 66
1
 70
1
 40
0.000000
 41
0.000000
 39
0.000000
  0
VERTEX
  8
PIN_TOP
 10
31.140400
 20
17.386300
 40
0.000000
 41
0.000000
 42
0.000000
  0
VERTEX
  8
PIN_TOP
 10
31.140400
 20
15.989300
 40
0.000000
 41
0.000000
 42
-1.000000
  0
VERTEX
  8
PIN_TOP
 10
30.530800
 20
15.989300
 40
0.000000
 41
0.000000
 42
0.000000
  0
VERTEX
  8
PIN_TOP
 10
30.530800
 20
17.386300
 40
0.000000
 41
0.000000
 42
-1.000000
  0
SEQEND
  0
POLYLINE
  8
PIN_TOP
 66
1
 70
1
 40
0.000000
 41
0.000000
 39
0.000000
  0
VERTEX
  8
PIN_TOP
 10
32.435800
 20
17.386300
 40
0.000000
 41
0.000000
 42
0.000000
  0
VERTEX
  8
PIN_TOP
 10
32.435800
 20
15.989300
 40
0.000000
 41
0.000000
 42
-1.000000
  0
VERTEX
  8
PIN_TOP
 10
31.826200
 20
15.989300
 40
0.000000
 41
0.000000
 42
0.000000
  0
VERTEX
  8
PIN_TOP
 10
31.826200
 20
17.386300
 40
0.000000
 41
0.000000
 42
-1.000000
  0
SEQEND
  0
POLYLINE
  8
PIN_TOP
 66
1
 70
1
 40
0.000000
 41
0.000000
 39
0.000000
  0
VERTEX
  8
PIN_TOP
 10
29.921200
 20
23.380700
 40
0.000000
 41
0.000000
 42
0.000000
  0
VERTEX
  8
PIN_TOP
 10
29.921200
 20
21.983700
 40
0.000000
 41
0.000000
 42
-1.000000
  0
VERTEX
  8
PIN_TOP
 10
29.311600
 20
21.983700
 40
0.000000
 41
0.000000
 42
0.000000
  0
VERTEX
  8
PIN_TOP
 10
29.311600
 20
23.380700
 40
0.000000
 41
0.000000
 42
-1.000000
  0
SEQEND
  0
POLYLINE
  8
PIN_TOP
 66
1
 70
1
 40
0.000000
 41
0.000000
 39
0.000000
  0
VERTEX
  8
PIN_TOP
 10
31.140400
 20
23.380700
 40
0.000000
 41
0.000000
 42
0.000000
  0
VERTEX
  8
PIN_TOP
 10
31.140400
 20
21.983700
 40
0.000000
 41
0.000000
 42
-1.000000
  0
VERTEX
  8
PIN_TOP
 10
30.530800
 20
21.983700
 40
0.000000
 41
0.000000
 42
0.000000
  0
VERTEX
  8
PIN_TOP
 10
30.530800
 20
23.380700
 40
0.000000
 41
0.000000
 42
-1.000000
  0
SEQEND
  0
POLYLINE
  8
PIN_TOP
 66
1
 70
1
 40
0.000000
 41
0.000000
 39
0.000000
  0
VERTEX
  8
PIN_TOP
 10
32.435800
 20
23.380700
 40
0.000000
 41
0.000000
 42
0.000000
  0
VERTEX
  8
PIN_TOP
 10
32.435800
 20
21.983700
 40
0.000000
 41
0.000000
 42
-1.000000
  0
VERTEX
  8
PIN_TOP
 10
31.826200
 20
21.983700
 40
0.000000
 41
0.000000
 42
0.000000
  0
VERTEX
  8
PIN_TOP
 10
31.826200
 20
23.380700
 40
0.000000
 41
0.000000
 42
-1.000000
  0
SEQEND
  0
POLYLINE
  8
PG_SILKSCREEN_TOP
 66
1
 70
0
 40
0.000000
 41
0.000000
 39
0.000000
  0
VERTEX
  8
PG_SILKSCREEN_TOP
 10
27.813000
 20
20.091400
 40
0.101600
 41
0.101600
 42
0.172685
  0
VERTEX
  8
PG_SILKSCREEN_TOP
 10
27.508200
 20
20.193000
 40
0.101600
 41
0.101600
 42
0.000000
  0
VERTEX
  8
PG_SILKSCREEN_TOP
 10
27.508200
 20
21.488400
 40
0.101600
 41
0.101600
 42
0.000000
  0
VERTEX
  8
PG_SILKSCREEN_TOP
 10
32.715200
 20
21.488400
 40
0.101600
 41
0.101600
 42
0.000000
  0
VERTEX
  8
PG_SILKSCREEN_TOP
 10
32.715200
 20
17.881600
 40
0.101600
 41
0.101600
 42
0.000000
  0
VERTEX
  8
PG_SILKSCREEN_TOP
 10
27.508200
 20
17.881600
 40
0.101600
 41
0.101600
 42
0.000000
  0
VERTEX
  8
PG_SILKSCREEN_TOP
 10
27.508200
 20
19.202400
 40
0.101600
 41
0.101600
 42
0.849457
  0
VERTEX
  8
PG_SILKSCREEN_TOP
 10
27.813000
 20
20.091400
 40
0.101600
 41
0.101600
 42
0.000000
  0
SEQEND
  0
POLYLINE
  8
PG_SILKSCREEN_TOP
 66
1
 70
1
 40
0.000000
 41
0.000000
 39
0.000000
  0
VERTEX
  8
PG_SILKSCREEN_TOP
 10
27.406600
 20
16.586200
 40
0.203200
 41
0.203200
 42
1.000000
  0
VERTEX
  8
PG_SILKSCREEN_TOP
 10
27.030600
 20
16.598200
 40
0.203200
 41
0.203200
 42
1.000000
  0
SEQEND
  0
POLYLINE
  8
PG_SILKSCREEN_TOP
 66
1
 70
0
 40
0.000000
 41
0.000000
 39
0.000000
  0
VERTEX
  8
PG_SILKSCREEN_TOP
 10
27.051000
 20
16.662400
 40
0.203200
 41
0.203200
 42
0.000000
  0
VERTEX
  8
PG_SILKSCREEN_TOP
 10
27.381200
 20
16.662400
 40
0.203200
 41
0.203200
 42
0.000000
  0
SEQEND
  0
POLYLINE
  8
PG_SILKSCREEN_TOP
 66
1
 70
0
 40
0.000000
 41
0.000000
 39
0.000000
  0
VERTEX
  8
PG_SILKSCREEN_TOP
 10
27.101800
 20
16.459200
 40
0.203200
 41
0.203200
 42
0.000000
  0
VERTEX
  8
PG_SILKSCREEN_TOP
 10
27.330400
 20
16.459200
 40
0.203200
 41
0.203200
 42
0.000000
  0
SEQEND
  0
TEXT
  8
RD_SILKSCREEN_TOP
 10
26.390600
 20
17.297400
 11
26.644600
 21
17.297400
 40
0.762000
 41
1.000000
 50
0.000000
  7
STANDARD
 71
0
 72
1
  1
U4
 73
0
  0
POLYLINE
  8
BG_OUTLINE
 66
1
 70
0
 40
0.000000
 41
0.000000
 39
0.000000
  0
VERTEX
  8
BG_OUTLINE
 10
58.547000
 20
31.877000
 40
0.000000
 41
0.000000
 42
1.000000
  0
VERTEX
  8
BG_OUTLINE
 10
55.499000
 20
31.877000
 40
0.000000
 41
0.000000
 42
1.000000
  0
VERTEX
  8
BG_OUTLINE
 10
58.547000
 20
31.877000
 40
0.000000
 41
0.000000
 42
0.000000
  0
SEQEND
  0
POLYLINE
  8
BG_OUTLINE
 66
1
 70
0
 40
0.000000
 41
0.000000
 39
0.000000
  0
VERTEX
  8
BG_OUTLINE
 10
58.547000
 20
3.048000
 40
0.000000
 41
0.000000
 42
1.000000
  0
VERTEX
  8
BG_OUTLINE
 10
55.499000
 20
3.048000
 40
0.000000
 41
0.000000
 42
1.000000
  0
VERTEX
  8
BG_OUTLINE
 10
58.547000
 20
3.048000
 40
0.000000
 41
0.000000
 42
0.000000
  0
SEQEND
  0
POLYLINE
  8
BG_OUTLINE
 66
1
 70
0
 40
0.000000
 41
0.000000
 39
0.000000
  0
VERTEX
  8
BG_OUTLINE
 10
4.699000
 20
3.048000
 40
0.000000
 41
0.000000
 42
1.000000
  0
VERTEX
  8
BG_OUTLINE
 10
1.651000
 20
3.048000
 40
0.000000
 41
0.000000
 42
1.000000
  0
VERTEX
  8
BG_OUTLINE
 10
4.699000
 20
3.048000
 40
0.000000
 41
0.000000
 42
0.000000
  0
SEQEND
  0
POLYLINE
  8
BG_OUTLINE
 66
1
 70
0
 40
0.000000
 41
0.000000
 39
0.000000
  0
VERTEX
  8
BG_OUTLINE
 10
4.699000
 20
31.877000
 40
0.000000
 41
0.000000
 42
1.000000
  0
VERTEX
  8
BG_OUTLINE
 10
1.651000
 20
31.877000
 40
0.000000
 41
0.000000
 42
1.000000
  0
VERTEX
  8
BG_OUTLINE
 10
4.699000
 20
31.877000
 40
0.000000
 41
0.000000
 42
0.000000
  0
SEQEND
  0
POLYLINE
  8
BG_SILKSCREEN_TOP
 66
1
 70
0
 40
0.000000
 41
0.000000
 39
0.000000
  0
VERTEX
  8
BG_SILKSCREEN_TOP
 10
30.353000
 20
2.286000
 40
0.254000
 41
0.254000
 42
0.000000
  0
VERTEX
  8
BG_SILKSCREEN_TOP
 10
32.766000
 20
2.286000
 40
0.254000
 41
0.254000
 42
0.000000
  0
SEQEND
  0
POLYLINE
  8
BG_SILKSCREEN_TOP
 66
1
 70
0
 40
0.000000
 41
0.000000
 39
0.000000
  0
VERTEX
  8
BG_SILKSCREEN_TOP
 10
30.480000
 20
0.254000
 40
0.254000
 41
0.254000
 42
0.000000
  0
VERTEX
  8
BG_SILKSCREEN_TOP
 10
35.687000
 20
0.254000
 40
0.254000
 41
0.254000
 42
0.000000
  0
VERTEX
  8
BG_SILKSCREEN_TOP
 10
36.068000
 20
0.635000
 40
0.254000
 41
0.254000
 42
0.000000
  0
VERTEX
  8
BG_SILKSCREEN_TOP
 10
38.989000
 20
0.635000
 40
0.254000
 41
0.254000
 42
0.000000
  0
SEQEND
  0
POLYLINE
  8
BG_SILKSCREEN_TOP
 66
1
 70
0
 40
0.000000
 41
0.000000
 39
0.000000
  0
VERTEX
  8
BG_SILKSCREEN_TOP
 10
57.886600
 20
10.693400
 40
0.508000
 41
0.508000
 42
0.000000
  0
VERTEX
  8
BG_SILKSCREEN_TOP
 10
57.886600
 20
9.677400
 40
0.508000
 41
0.508000
 42
0.000000
  0
SEQEND
  0
POLYLINE
  8
BG_SILKSCREEN_TOP
 66
1
 70
0
 40
0.000000
 41
0.000000
 39
0.000000
  0
VERTEX
  8
BG_SILKSCREEN_TOP
 10
57.988200
 20
24.155400
 40
0.508000
 41
0.508000
 42
0.000000
  0
VERTEX
  8
BG_SILKSCREEN_TOP
 10
57.988200
 20
22.758400
 40
0.508000
 41
0.508000
 42
0.000000
  0
SEQEND
  0
POLYLINE
  8
BG_SILKSCREEN_TOP
 66
1
 70
0
 40
0.000000
 41
0.000000
 39
0.000000
  0
VERTEX
  8
BG_SILKSCREEN_TOP
 10
57.302400
 20
23.469600
 40
0.508000
 41
0.508000
 42
0.000000
  0
VERTEX
  8
BG_SILKSCREEN_TOP
 10
58.699400
 20
23.469600
 40
0.508000
 41
0.508000
 42
0.000000
  0
SEQEND
  0
POLYLINE
  8
BG_OUTLINE
 66
1
 70
0
 40
0.000000
 41
0.000000
 39
0.000000
  0
VERTEX
  8
BG_OUTLINE
 10
1.016000
 20
0.000000
 40
0.000000
 41
0.000000
 42
0.000000
  0
VERTEX
  8
BG_OUTLINE
 10
58.978800
 20
0.000000
 40
0.000000
 41
0.000000
 42
0.414214
  0
VERTEX
  8
BG_OUTLINE
 10
59.994800
 20
1.016000
 40
0.000000
 41
0.000000
 42
0.000000
  0
VERTEX
  8
BG_OUTLINE
 10
59.994800
 20
33.985200
 40
0.000000
 41
0.000000
 42
0.414214
  0
VERTEX
  8
BG_OUTLINE
 10
58.978800
 20
35.001200
 40
0.000000
 41
0.000000
 42
0.000000
  0
VERTEX
  8
BG_OUTLINE
 10
1.016000
 20
35.001200
 40
0.000000
 41
0.000000
 42
0.414214
  0
VERTEX
  8
BG_OUTLINE
 10
0.000000
 20
33.985200
 40
0.000000
 41
0.000000
 42
0.000000
  0
VERTEX
  8
BG_OUTLINE
 10
0.000000
 20
1.016000
 40
0.000000
 41
0.000000
 42
0.414214
  0
VERTEX
  8
BG_OUTLINE
 10
1.016000
 20
0.000000
 40
0.000000
 41
0.000000
 42
0.000000
  0
SEQEND
  0
TEXT
  8
BG_SILKSCREEN_TOP
 10
6.832600
 20
23.368000
 11
0.000000
 21
0.000000
 40
1.143000
 41
1.066667
 50
90.000000
  7
STANDARD
 71
0
 72
0
  1
VPwr_V1.2
 73
0
  0
TEXT
  8
BG_SILKSCREEN_TOP
 10
53.848000
 20
2.006600
 11
0.000000
 21
0.000000
 40
0.889000
 41
1.000000
 50
90.000000
  7
STANDARD
 71
0
 72
0
  1
3V3
 73
0
  0
TEXT
  8
BG_SILKSCREEN_TOP
 10
52.654200
 20
2.514600
 11
0.000000
 21
0.000000
 40
0.889000
 41
1.000000
 50
90.000000
  7
STANDARD
 71
0
 72
0
  1
RX
 73
0
  0
TEXT
  8
BG_SILKSCREEN_TOP
 10
51.485800
 20
2.413000
 11
0.000000
 21
0.000000
 40
0.889000
 41
1.000000
 50
90.000000
  7
STANDARD
 71
0
 72
0
  1
TX
 73
0
  0
TEXT
  8
BG_SILKSCREEN_TOP
 10
50.342800
 20
2.006600
 11
0.000000
 21
0.000000
 40
0.889000
 41
1.000000
 50
90.000000
  7
STANDARD
 71
0
 72
0
  1
GND
 73
0
  0
TEXT
  8
BG_SILKSCREEN_TOP
 10
54.127400
 20
8.458200
 11
0.000000
 21
0.000000
 40
0.889000
 41
1.000000
 50
90.000000
  7
STANDARD
 71
0
 72
0
  1
3V3
 73
0
  0
TEXT
  8
BG_SILKSCREEN_TOP
 10
52.857400
 20
8.204200
 11
0.000000
 21
0.000000
 40
0.889000
 41
1.000000
 50
90.000000
  7
STANDARD
 71
0
 72
0
  1
SWIM
 73
0
  0
TEXT
  8
BG_SILKSCREEN_TOP
 10
51.587400
 20
8.585200
 11
0.000000
 21
0.000000
 40
0.889000
 41
1.000000
 50
90.000000
  7
STANDARD
 71
0
 72
0
  1
RST
 73
0
  0
TEXT
  8
BG_SILKSCREEN_TOP
 10
50.368200
 20
8.585200
 11
0.000000
 21
0.000000
 40
0.889000
 41
1.000000
 50
90.000000
  7
STANDARD
 71
0
 72
0
  1
GND
 73
0
  0
ENDSEC
  0
EOF
